<svg width="19" height="17" viewBox="0 0 19 17" fill="none" xmlns="http://www.w3.org/2000/svg">
<path fill-rule="evenodd" clip-rule="evenodd" d="M6.27116 0.5436C6.64216 0.194428 7.13242 0 7.64189 0H10.7655C11.3183 0 11.8465 0.228817 12.2246 0.632118L13.2626 1.73936H16.2633C17.3679 1.73936 18.2633 2.63479 18.2633 3.73936V14.5239C18.2633 15.6285 17.3679 16.5239 16.2633 16.5239H2C0.895431 16.5239 0 15.6285 0 14.5239V3.73936C0 2.63479 0.895431 1.73936 2 1.73936H5.00067L6.27116 0.5436ZM9.02331 13.6974C11.605 13.6974 13.6978 11.6045 13.6978 9.02283C13.6978 6.44116 11.605 4.3483 9.02331 4.3483C6.44164 4.3483 4.34878 6.44116 4.34878 9.02283C4.34878 11.6045 6.44164 13.6974 9.02331 13.6974ZM9.02294 11.7407C10.5239 11.7407 11.7407 10.5239 11.7407 9.02294C11.7407 7.52197 10.5239 6.30519 9.02294 6.30519C7.52197 6.30519 6.30519 7.52197 6.30519 9.02294C6.30519 10.5239 7.52197 11.7407 9.02294 11.7407Z" fill="#4584FF"/>
</svg>
