<svg width="17" height="17" viewBox="0 0 17 17" fill="none" xmlns="http://www.w3.org/2000/svg">
<mask id="mask0" mask-type="alpha" maskUnits="userSpaceOnUse" x="9" y="0" width="8" height="7">
<path fill-rule="evenodd" clip-rule="evenodd" d="M9.95996 0.166992H16.4994V6.82659H9.95996V0.166992Z" fill="white"/>
</mask>
<g mask="url(#mask0)">
<path fill-rule="evenodd" clip-rule="evenodd" d="M15.9248 6.82659C15.6361 6.82659 15.388 6.60571 15.355 6.30679C15.0648 3.67193 13.0568 1.6271 10.4705 1.33443C10.1558 1.29853 9.92833 1.00975 9.96356 0.6882C9.99802 0.367427 10.2791 0.130945 10.5977 0.17153C13.7207 0.525082 16.1461 2.9937 16.4961 6.17567C16.5313 6.49723 16.3047 6.78678 15.9899 6.82268C15.9685 6.82503 15.9462 6.82659 15.9248 6.82659Z" fill="#3D3D3D"/>
</g>
<path fill-rule="evenodd" clip-rule="evenodd" d="M13.2139 6.83463C12.9444 6.83463 12.7047 6.64108 12.651 6.36167C12.4305 5.20658 11.5567 4.31606 10.4248 4.09207C10.1131 4.03041 9.91013 3.72369 9.97063 3.40604C10.0311 3.08838 10.3375 2.88078 10.6438 2.94322C12.2375 3.25853 13.4682 4.51196 13.7784 6.1369C13.8389 6.45533 13.6359 6.76205 13.325 6.82371C13.2875 6.83073 13.2507 6.83463 13.2139 6.83463Z" fill="#3D3D3D"/>
<mask id="mask1" mask-type="alpha" maskUnits="userSpaceOnUse" x="0" y="0" width="17" height="17">
<path fill-rule="evenodd" clip-rule="evenodd" d="M0.5 0.166504H16.1998V16.1665H0.5V0.166504Z" fill="white"/>
</mask>
<g mask="url(#mask1)">
<path fill-rule="evenodd" clip-rule="evenodd" d="M2.3073 2.55591C2.30883 2.55591 2.27054 2.59649 2.2223 2.64488C2.03696 2.82829 1.65328 3.20994 1.64945 4.00836C1.64333 5.12521 2.36397 7.19892 5.83396 10.7344C9.28711 14.2528 11.3189 14.9958 12.4178 14.9958H12.4339C13.2174 14.9911 13.5911 14.6001 13.7711 14.412C13.8254 14.355 13.8699 14.3121 13.9013 14.2864C14.6648 13.5035 15.0554 12.9221 15.0515 12.5483C15.0469 12.1674 14.5821 11.7178 13.9395 11.0942C13.7351 10.8968 13.513 10.6806 13.2786 10.4418C12.6706 9.82442 12.3711 9.92978 11.7087 10.167C10.7935 10.4941 9.53983 10.942 7.58619 8.94951C5.63178 6.95853 6.06984 5.68091 6.38919 4.74747C6.62047 4.07314 6.72616 3.76642 6.11885 3.14672C5.88145 2.90478 5.66778 2.67532 5.47096 2.46459C4.86289 1.81368 4.42407 1.34306 4.05264 1.3376H4.04651C3.67968 1.3376 3.1099 1.7372 2.30347 2.55903C2.30577 2.55669 2.30654 2.55591 2.3073 2.55591ZM12.4172 16.1665C10.5087 16.1665 8.02054 14.6181 5.02154 11.5626C2.01029 8.49453 0.488577 5.95098 0.500065 4.00215C0.506957 2.71438 1.1694 2.05488 1.4183 1.80747C1.43132 1.79108 1.47574 1.74659 1.49105 1.73099C2.59002 0.611012 3.34513 0.150536 4.06655 0.166925C4.92198 0.178633 5.53159 0.831885 6.30278 1.6584C6.49347 1.8621 6.69948 2.08454 6.93 2.31868C8.04735 3.45816 7.72953 4.3877 7.47297 5.13383C7.19421 5.94786 6.95297 6.65028 8.39733 8.12224C9.8417 9.59421 10.5302 9.34836 11.3282 9.06193C12.0611 8.80125 12.9709 8.47502 14.0905 9.6145C14.318 9.8463 14.5324 10.0539 14.7315 10.2467C15.5456 11.0365 16.1889 11.6601 16.1996 12.5342C16.2081 13.2788 15.7639 14.039 14.6672 15.1566L14.1817 14.821L14.5929 15.2292C14.3502 15.4828 13.7046 16.1587 12.4402 16.1665H12.4172Z" fill="#3D3D3D"/>
</g>
</svg>
