<svg width="21" height="21" viewBox="0 0 21 21" fill="none" xmlns="http://www.w3.org/2000/svg">
<path fill-rule="evenodd" clip-rule="evenodd" d="M4.13477 5.74689L4.76792 13.4544C4.81412 14.0476 5.28767 14.4925 5.86623 14.4925H5.87043H17.327H17.3291C17.8762 14.4925 18.3434 14.0755 18.4211 13.5221L19.4186 6.47337C19.4417 6.30572 19.4008 6.13807 19.301 6.00266C19.2023 5.86618 19.0574 5.77806 18.8936 5.75442C18.6742 5.76301 9.56749 5.75012 4.13477 5.74689ZM5.86422 16.1044C4.48136 16.1044 3.31061 14.9996 3.19826 13.5864L2.23645 1.87904L0.654095 1.59962C0.224643 1.52225 -0.0620079 1.10635 0.0114923 0.666815C0.0870926 0.227277 0.501844 -0.0585831 0.921846 0.0101954L3.10585 0.397074C3.45761 0.460479 3.72536 0.759236 3.75581 1.12462L4.00256 4.13475C18.9924 4.1412 19.0407 4.14872 19.1132 4.15732C19.698 4.24437 20.2125 4.5571 20.5632 5.03855C20.9139 5.51892 21.0609 6.11106 20.9769 6.70427L19.9805 13.7519C19.7925 15.0931 18.6543 16.1044 17.3313 16.1044H17.3261H5.87262H5.86422Z" fill="#3D3D3D"/>
<path fill-rule="evenodd" clip-rule="evenodd" d="M15.6427 9.71892H12.7321C12.2963 9.71892 11.9446 9.35784 11.9446 8.91293C11.9446 8.46802 12.2963 8.10693 12.7321 8.10693H15.6427C16.0774 8.10693 16.4302 8.46802 16.4302 8.91293C16.4302 9.35784 16.0774 9.71892 15.6427 9.71892Z" fill="#3D3D3D"/>
<path fill-rule="evenodd" clip-rule="evenodd" d="M5.41257 19.0234C5.72862 19.0234 5.98376 19.2846 5.98376 19.6081C5.98376 19.9315 5.72862 20.1937 5.41257 20.1937C5.09548 20.1937 4.84033 19.9315 4.84033 19.6081C4.84033 19.2846 5.09548 19.0234 5.41257 19.0234Z" fill="#3D3D3D"/>
<mask id="mask0" mask-type="alpha" maskUnits="userSpaceOnUse" x="4" y="19" width="2" height="2">
<path fill-rule="evenodd" clip-rule="evenodd" d="M4.83984 19.6081C4.83984 19.9326 5.09499 20.1948 5.41314 20.1948C5.72919 20.1948 5.98434 19.9326 5.98434 19.6081C5.98434 19.2846 5.72919 19.0234 5.41314 19.0234C5.09499 19.0234 4.83984 19.2846 4.83984 19.6081Z" fill="white"/>
</mask>
<g mask="url(#mask0)">
<path fill-rule="evenodd" clip-rule="evenodd" d="M-0.40918 25.5668H11.2343V13.6499H-0.40918V25.5668Z" fill="#3D3D3D"/>
</g>
<path fill-rule="evenodd" clip-rule="evenodd" d="M5.4112 19.3878C5.29255 19.3878 5.19595 19.4867 5.19595 19.6081C5.19595 19.852 5.62751 19.852 5.62751 19.6081C5.62751 19.4867 5.52986 19.3878 5.4112 19.3878ZM5.41143 21.0001C4.66173 21.0001 4.05273 20.3757 4.05273 19.6084C4.05273 18.8411 4.66173 18.2178 5.41143 18.2178C6.16113 18.2178 6.77118 18.8411 6.77118 19.6084C6.77118 20.3757 6.16113 21.0001 5.41143 21.0001Z" fill="#3D3D3D"/>
<path fill-rule="evenodd" clip-rule="evenodd" d="M17.2571 19.0234C17.5731 19.0234 17.8293 19.2846 17.8293 19.6081C17.8293 19.9315 17.5731 20.1938 17.2571 20.1938C16.94 20.1938 16.6848 19.9315 16.6848 19.6081C16.6848 19.2846 16.94 19.0234 17.2571 19.0234Z" fill="#3D3D3D"/>
<mask id="mask1" mask-type="alpha" maskUnits="userSpaceOnUse" x="16" y="19" width="2" height="2">
<path fill-rule="evenodd" clip-rule="evenodd" d="M16.6848 19.6081C16.6848 19.9326 16.94 20.1948 17.2571 20.1948C17.5721 20.1948 17.8293 19.9326 17.8293 19.6081C17.8293 19.2846 17.5721 19.0234 17.2571 19.0234C16.94 19.0234 16.6848 19.2846 16.6848 19.6081Z" fill="white"/>
</mask>
<g mask="url(#mask1)">
<path fill-rule="evenodd" clip-rule="evenodd" d="M11.4351 25.5668H23.0796V13.6499H11.4351V25.5668Z" fill="#3D3D3D"/>
</g>
<path fill-rule="evenodd" clip-rule="evenodd" d="M17.2559 19.3878C17.1383 19.3878 17.0417 19.4867 17.0417 19.6082C17.0427 19.8543 17.4732 19.8521 17.4722 19.6082C17.4722 19.4867 17.3745 19.3878 17.2559 19.3878ZM17.2557 21.0001C16.506 21.0001 15.897 20.3757 15.897 19.6084C15.897 18.8411 16.506 18.2178 17.2557 18.2178C18.0064 18.2178 18.6165 18.8411 18.6165 19.6084C18.6165 20.3757 18.0064 21.0001 17.2557 21.0001Z" fill="#3D3D3D"/>
</svg>
