<svg width="24" height="24" viewBox="0 0 24 24" fill="none" xmlns="http://www.w3.org/2000/svg">
<path fill-rule="evenodd" clip-rule="evenodd" d="M4.72559 6.84279L5.44919 15.254C5.50199 15.9014 6.04319 16.3869 6.7044 16.3869H6.7092H19.8025H19.8049C20.4301 16.3869 20.9641 15.9319 21.0529 15.3279L22.1929 7.63559C22.2193 7.45264 22.1725 7.26968 22.0585 7.12191C21.9457 6.97297 21.7801 6.8768 21.5929 6.851C21.3421 6.86038 10.9344 6.84631 4.72559 6.84279ZM6.70196 18.1462C5.12155 18.1462 3.78355 16.9406 3.65515 15.3983L2.55594 2.62201L0.747537 2.31709C0.256735 2.23265 -0.0708662 1.77878 0.0131341 1.29911C0.0995344 0.81944 0.573536 0.507479 1.05354 0.582537L3.54955 1.00474C3.95155 1.07393 4.25755 1.39997 4.29235 1.79872L4.57435 5.08369C21.7056 5.09073 21.7608 5.09894 21.8436 5.10832C22.512 5.20332 23.1 5.5446 23.5008 6.07001C23.9016 6.59424 24.0696 7.24045 23.9736 7.88782L22.8348 15.579C22.62 17.0426 21.3192 18.1462 19.8072 18.1462H19.8012H6.71156H6.70196Z" fill="white"/>
<path fill-rule="evenodd" clip-rule="evenodd" d="M17.8773 11.1776H14.5509C14.0529 11.1776 13.6509 10.7836 13.6509 10.298C13.6509 9.81251 14.0529 9.41846 14.5509 9.41846H17.8773C18.3741 9.41846 18.7773 9.81251 18.7773 10.298C18.7773 10.7836 18.3741 11.1776 17.8773 11.1776Z" fill="white"/>
<path fill-rule="evenodd" clip-rule="evenodd" d="M6.18573 21.332C6.54693 21.332 6.83853 21.617 6.83853 21.97C6.83853 22.323 6.54693 22.6092 6.18573 22.6092C5.82334 22.6092 5.53174 22.323 5.53174 21.97C5.53174 21.617 5.82334 21.332 6.18573 21.332Z" fill="white"/>
<mask id="mask0" mask-type="alpha" maskUnits="userSpaceOnUse" x="5" y="21" width="2" height="2">
<path fill-rule="evenodd" clip-rule="evenodd" d="M5.53101 21.9698C5.53101 22.324 5.82261 22.6101 6.18621 22.6101C6.54742 22.6101 6.83902 22.324 6.83902 21.9698C6.83902 21.6168 6.54742 21.3318 6.18621 21.3318C5.82261 21.3318 5.53101 21.6168 5.53101 21.9698Z" fill="white"/>
</mask>
<g mask="url(#mask0)">
<path fill-rule="evenodd" clip-rule="evenodd" d="M-0.467773 28.4731H12.8391V15.468H-0.467773V28.4731Z" fill="white"/>
</g>
<path fill-rule="evenodd" clip-rule="evenodd" d="M6.18461 21.7294C6.04901 21.7294 5.93861 21.8373 5.93861 21.9699C5.93861 22.2361 6.43181 22.2361 6.43181 21.9699C6.43181 21.8373 6.32021 21.7294 6.18461 21.7294ZM6.18464 23.4887C5.32784 23.4887 4.63184 22.8073 4.63184 21.97C4.63184 21.1326 5.32784 20.4524 6.18464 20.4524C7.04145 20.4524 7.73865 21.1326 7.73865 21.97C7.73865 22.8073 7.04145 23.4887 6.18464 23.4887Z" fill="white"/>
<path fill-rule="evenodd" clip-rule="evenodd" d="M19.7224 21.3318C20.0836 21.3318 20.3764 21.6168 20.3764 21.9698C20.3764 22.3228 20.0836 22.609 19.7224 22.609C19.36 22.609 19.0684 22.3228 19.0684 21.9698C19.0684 21.6168 19.36 21.3318 19.7224 21.3318Z" fill="white"/>
<mask id="mask1" mask-type="alpha" maskUnits="userSpaceOnUse" x="19" y="21" width="2" height="2">
<path fill-rule="evenodd" clip-rule="evenodd" d="M19.0684 21.9698C19.0684 22.324 19.36 22.6101 19.7224 22.6101C20.0824 22.6101 20.3764 22.324 20.3764 21.9698C20.3764 21.6168 20.0824 21.3318 19.7224 21.3318C19.36 21.3318 19.0684 21.6168 19.0684 21.9698Z" fill="white"/>
</mask>
<g mask="url(#mask1)">
<path fill-rule="evenodd" clip-rule="evenodd" d="M13.0681 28.4731H26.3762V15.468H13.0681V28.4731Z" fill="white"/>
</g>
<path fill-rule="evenodd" clip-rule="evenodd" d="M19.7209 21.7296C19.5865 21.7296 19.4761 21.8375 19.4761 21.97C19.4773 22.2386 19.9693 22.2362 19.9681 21.97C19.9681 21.8375 19.8565 21.7296 19.7209 21.7296ZM19.721 23.4887C18.8642 23.4887 18.1682 22.8073 18.1682 21.97C18.1682 21.1326 18.8642 20.4524 19.721 20.4524C20.579 20.4524 21.2762 21.1326 21.2762 21.97C21.2762 22.8073 20.579 23.4887 19.721 23.4887Z" fill="white"/>
</svg>
