<svg width="16" height="18" viewBox="0 0 16 18" fill="none" xmlns="http://www.w3.org/2000/svg">
<path fill-rule="evenodd" clip-rule="evenodd" d="M11.6293 7.37921C11.2567 7.37921 10.9544 7.07684 10.9544 6.70427V4.77212C10.9544 2.88586 9.41997 1.35148 7.53372 1.35148H7.51932C6.60769 1.35148 5.75366 1.70246 5.10841 2.34231C4.45866 2.98486 4.09959 3.84249 4.09599 4.75682V6.70427C4.09599 7.07684 3.79361 7.37921 3.42104 7.37921C3.04847 7.37921 2.74609 7.07684 2.74609 6.70427V4.77212C2.75149 3.47622 3.25275 2.28021 4.15718 1.38388C5.06251 0.486652 6.25762 -0.0326074 7.53642 0.00158997C10.1642 0.00158997 12.3042 2.14162 12.3042 4.77212V6.70427C12.3042 7.07684 12.0019 7.37921 11.6293 7.37921Z" fill="#3D3D3D"/>
<path fill-rule="evenodd" clip-rule="evenodd" d="M4.08748 7.31522C2.5774 7.31522 1.34989 8.54273 1.34989 10.0528V13.9126C1.34989 15.4227 2.5774 16.6502 4.08748 16.6502H10.9638C12.473 16.6502 13.7014 15.4227 13.7014 13.9126V10.0528C13.7014 8.54273 12.473 7.31522 10.9638 7.31522H4.08748ZM10.9638 18.0001H4.08748C1.83316 18.0001 0 16.1669 0 13.9126V10.0528C0 7.79849 1.83316 5.96533 4.08748 5.96533H10.9638C13.2182 5.96533 15.0513 7.79849 15.0513 10.0528V13.9126C15.0513 16.1669 13.2182 18.0001 10.9638 18.0001Z" fill="#3D3D3D"/>
<path fill-rule="evenodd" clip-rule="evenodd" d="M7.52553 13.6567C7.15296 13.6567 6.85059 13.3544 6.85059 12.9818V10.9831C6.85059 10.6105 7.15296 10.3081 7.52553 10.3081C7.8981 10.3081 8.20048 10.6105 8.20048 10.9831V12.9818C8.20048 13.3544 7.8981 13.6567 7.52553 13.6567Z" fill="#3D3D3D"/>
</svg>
