<svg width="15" height="15" viewBox="0 0 15 15" fill="none" xmlns="http://www.w3.org/2000/svg">
<path fill-rule="evenodd" clip-rule="evenodd" d="M14.4226 15H8.84351C8.52506 15 8.2666 14.7339 8.2666 14.406C8.2666 14.0781 8.52506 13.812 8.84351 13.812H14.4226C14.741 13.812 14.9995 14.0781 14.9995 14.406C14.9995 14.7339 14.741 15 14.4226 15Z" fill="#3D3D3D"/>
<mask id="mask0" mask-type="alpha" maskUnits="userSpaceOnUse" x="0" y="0" width="14" height="15">
<path fill-rule="evenodd" clip-rule="evenodd" d="M0 0H13.2155V14.9999H0V0Z" fill="white"/>
</mask>
<g mask="url(#mask0)">
<path fill-rule="evenodd" clip-rule="evenodd" d="M8.54634 1.59725L1.30423 10.9229C1.17269 11.0924 1.12423 11.311 1.17269 11.5209L1.69652 13.8058L4.03416 13.7757C4.25646 13.7733 4.46184 13.6711 4.59799 13.4969C7.07254 10.3091 11.7901 4.23141 11.9239 4.05321C12.0501 3.84254 12.0993 3.54475 12.0332 3.25805C11.9655 2.96422 11.7878 2.71474 11.5317 2.55555C11.477 2.51675 10.1809 1.48082 10.1409 1.44835C9.65324 1.04602 8.94172 1.11572 8.54634 1.59725ZM1.24095 15C0.974032 15 0.74173 14.8115 0.679424 14.543L0.0494405 11.794C-0.0805561 11.2246 0.0486713 10.6369 0.403277 10.1808L7.64924 0.849522C7.65232 0.846354 7.65463 0.842395 7.6577 0.839227C8.4523 -0.138881 9.88918 -0.283024 10.8584 0.517679C10.8968 0.548566 12.1837 1.57815 12.1837 1.57815C12.6514 1.86485 13.0168 2.37727 13.1552 2.98394C13.2929 3.58426 13.1929 4.2036 12.8722 4.72711C12.8483 4.76591 12.8276 4.79918 5.49853 14.2397C5.14546 14.6927 4.61624 14.9565 4.0478 14.9636L1.24864 15H1.24095Z" fill="#3D3D3D"/>
</g>
<path fill-rule="evenodd" clip-rule="evenodd" d="M10.9405 6.87807C10.8174 6.87807 10.6944 6.83768 10.589 6.75531L6.39525 3.43846C6.14295 3.23888 6.09526 2.86664 6.2891 2.60528C6.48371 2.34551 6.84524 2.2972 7.09831 2.49678L11.2928 5.81284C11.5451 6.01243 11.5928 6.38545 11.3982 6.64602C11.2851 6.79808 11.1136 6.87807 10.9405 6.87807Z" fill="#3D3D3D"/>
</svg>
