<svg width="24" height="24" viewBox="0 0 24 24" fill="none" xmlns="http://www.w3.org/2000/svg">
<circle cx="12.579" cy="7.77803" r="4.77803" stroke="#747474" stroke-width="1.5" stroke-linecap="round" stroke-linejoin="round"/>
<path fill-rule="evenodd" clip-rule="evenodd" d="M5.00002 19.2014C4.99873 18.8655 5.07385 18.5338 5.2197 18.2312C5.67736 17.3158 6.96798 16.8307 8.03892 16.611C8.81128 16.4462 9.59431 16.3361 10.3822 16.2815C11.8408 16.1534 13.3079 16.1534 14.7666 16.2815C15.5544 16.3367 16.3374 16.4468 17.1099 16.611C18.1808 16.8307 19.4714 17.2701 19.9291 18.2312C20.2224 18.848 20.2224 19.564 19.9291 20.1808C19.4714 21.1419 18.1808 21.5813 17.1099 21.7918C16.3384 21.9635 15.5551 22.0767 14.7666 22.1305C13.5794 22.2311 12.3866 22.2495 11.1968 22.1854C10.9222 22.1854 10.6568 22.1854 10.3822 22.1305C9.59663 22.0773 8.81632 21.9641 8.04807 21.7918C6.96798 21.5813 5.68652 21.1419 5.2197 20.1808C5.0746 19.8747 4.99955 19.5402 5.00002 19.2014Z" stroke="#747474" stroke-width="1.5" stroke-linecap="round" stroke-linejoin="round"/>
</svg>
