<svg width="15" height="18" viewBox="0 0 15 18" fill="none" xmlns="http://www.w3.org/2000/svg">
<path fill-rule="evenodd" clip-rule="evenodd" d="M13.2212 3.43627C13.5853 3.56377 13.8287 3.9071 13.8287 4.29294V9.9371C13.8287 11.5146 13.2553 13.0204 12.2428 14.1871C11.7337 14.7746 11.0895 15.2321 10.4053 15.6021L7.44033 17.2038L4.47033 15.6013C3.78533 15.2313 3.14033 14.7746 2.63033 14.1863C1.61699 13.0196 1.04199 11.5129 1.04199 9.93377V4.29294C1.04199 3.9071 1.28533 3.56377 1.64949 3.43627L7.13449 1.50877C7.32949 1.44044 7.54199 1.44044 7.73616 1.50877L13.2212 3.43627Z" stroke="#3D3D3D" stroke-width="1.5" stroke-linecap="round" stroke-linejoin="round"/>
<path d="M5.26953 9.09784L6.8462 10.6753L10.0945 7.427" stroke="#3D3D3D" stroke-width="1.5" stroke-linecap="round" stroke-linejoin="round"/>
</svg>
