<svg width="22" height="22" viewBox="0 0 22 22" fill="none" xmlns="http://www.w3.org/2000/svg">
<path d="M2.75 5.5H4.58333H19.25" stroke="#C4C4C4" stroke-width="2" stroke-linecap="round" stroke-linejoin="round"/>
<path d="M18.4168 5.5C18.4168 4.94772 17.9691 4.5 17.4168 4.5C16.8645 4.5 16.4168 4.94772 16.4168 5.5H18.4168ZM5.5835 5.5C5.5835 4.94772 5.13578 4.5 4.5835 4.5C4.03121 4.5 3.5835 4.94772 3.5835 5.5H5.5835ZM6.33333 5.49992C6.33333 6.0522 6.78105 6.49992 7.33333 6.49992C7.88562 6.49992 8.33333 6.0522 8.33333 5.49992H6.33333ZM13.6667 5.49992C13.6667 6.0522 14.1144 6.49992 14.6667 6.49992C15.219 6.49992 15.6667 6.0522 15.6667 5.49992H13.6667ZM16.4168 5.5V18.3333H18.4168V5.5H16.4168ZM16.4168 18.3333C16.4168 18.7936 16.0437 19.1667 15.5835 19.1667V21.1667C17.1483 21.1667 18.4168 19.8981 18.4168 18.3333H16.4168ZM15.5835 19.1667H6.41683V21.1667H15.5835V19.1667ZM6.41683 19.1667C5.95659 19.1667 5.5835 18.7936 5.5835 18.3333H3.5835C3.5835 19.8981 4.85202 21.1667 6.41683 21.1667V19.1667ZM5.5835 18.3333V5.5H3.5835V18.3333H5.5835ZM8.33333 5.49992V3.66659H6.33333V5.49992H8.33333ZM8.33333 3.66659C8.33333 3.20635 8.70643 2.83325 9.16667 2.83325V0.833252C7.60186 0.833252 6.33333 2.10178 6.33333 3.66659H8.33333ZM9.16667 2.83325H12.8333V0.833252H9.16667V2.83325ZM12.8333 2.83325C13.2936 2.83325 13.6667 3.20635 13.6667 3.66659H15.6667C15.6667 2.10178 14.3981 0.833252 12.8333 0.833252V2.83325ZM13.6667 3.66659V5.49992H15.6667V3.66659H13.6667Z" fill="#C4C4C4"/>
<path d="M9.1665 10.0833V15.5833" stroke="#C4C4C4" stroke-width="2" stroke-linecap="round" stroke-linejoin="round"/>
<path d="M12.8335 10.0833V15.5833" stroke="#C4C4C4" stroke-width="2" stroke-linecap="round" stroke-linejoin="round"/>
</svg>
