<svg width="17" height="18" viewBox="0 0 17 18" fill="none" xmlns="http://www.w3.org/2000/svg">
<path d="M0.836914 12.064C0.836914 12.064 0.955247 13.5123 0.982747 13.969C1.01941 14.5815 1.25608 15.2656 1.65108 15.7406C2.20858 16.414 2.86525 16.6515 3.74191 16.6531C4.77275 16.6548 12.2686 16.6548 13.2994 16.6531C14.1761 16.6515 14.8327 16.414 15.3902 15.7406C15.7852 15.2656 16.0219 14.5815 16.0594 13.969C16.0861 13.5123 16.2044 12.064 16.2044 12.064" stroke="#3D3D3D" stroke-width="1.5" stroke-linecap="round" stroke-linejoin="round"/>
<path d="M5.58008 3.60766V3.2985C5.58008 2.28183 6.40341 1.4585 7.42008 1.4585H9.57174C10.5876 1.4585 11.4117 2.28183 11.4117 3.2985L11.4126 3.60766" stroke="#3D3D3D" stroke-width="1.5" stroke-linecap="round" stroke-linejoin="round"/>
<path d="M8.49577 13.0649V11.9866" stroke="#3D3D3D" stroke-width="1.5" stroke-linecap="round" stroke-linejoin="round"/>
<path fill-rule="evenodd" clip-rule="evenodd" d="M0.791992 6.15722V9.04639C2.39033 10.1006 4.30533 10.8389 6.40699 11.1314C6.65866 10.2139 7.48616 9.54139 8.49199 9.54139C9.48199 9.54139 10.3262 10.2139 10.5612 11.1397C12.6712 10.8472 14.5937 10.1089 16.2003 9.04639V6.15722C16.2003 4.74555 15.0645 3.60889 13.6528 3.60889H3.34783C1.93616 3.60889 0.791992 4.74555 0.791992 6.15722Z" stroke="#3D3D3D" stroke-width="1.5" stroke-linecap="round" stroke-linejoin="round"/>
</svg>
