<svg width="262" height="222" viewBox="0 0 262 222" fill="none" xmlns="http://www.w3.org/2000/svg">
<path d="M296.809 194.556H0V194.705H296.809V194.556Z" fill="#EBEBEB"/>
<path d="M267.068 204.108H254.199V204.256H267.068V204.108Z" fill="#EBEBEB"/>
<path d="M204.603 201.033H184.354V201.181H204.603V201.033Z" fill="#EBEBEB"/>
<path d="M261.857 198.599H235.423V198.747H261.857V198.599Z" fill="#EBEBEB"/>
<path d="M102.708 201.591H96.0947V201.739H102.708V201.591Z" fill="#EBEBEB"/>
<path d="M90.8061 201.591H68.0171V201.739H90.8061V201.591Z" fill="#EBEBEB"/>
<path d="M55.8063 199.086H39.363V199.234H55.8063V199.086Z" fill="#EBEBEB"/>
<path d="M140.688 168.081H26.066C25.1681 168.08 24.3074 167.722 23.6731 167.086C23.0387 166.451 22.6824 165.59 22.6824 164.692V3.56581C22.6902 2.67302 23.0499 1.81937 23.6835 1.19028C24.317 0.561188 25.1732 0.207462 26.066 0.205933H140.688C141.587 0.205933 142.449 0.563046 143.085 1.19871C143.72 1.83438 144.077 2.69652 144.077 3.59549V164.692C144.077 165.591 143.72 166.453 143.085 167.088C142.449 167.724 141.587 168.081 140.688 168.081ZM26.066 0.324657C25.2074 0.326229 24.3845 0.6684 23.778 1.27606C23.1714 1.88373 22.8308 2.70723 22.8308 3.56581V164.692C22.8308 165.55 23.1714 166.374 23.778 166.981C24.3845 167.589 25.2074 167.931 26.066 167.933H140.688C141.547 167.931 142.37 167.589 142.978 166.982C143.585 166.374 143.927 165.551 143.929 164.692V3.56581C143.927 2.70669 143.585 1.8832 142.978 1.2757C142.37 0.668207 141.547 0.326226 140.688 0.324657H26.066Z" fill="#EBEBEB"/>
<path d="M269.093 168.081H154.465C153.567 168.08 152.706 167.722 152.07 167.087C151.435 166.451 151.077 165.59 151.076 164.692V3.56581C151.085 2.67248 151.446 1.81884 152.081 1.18991C152.715 0.560981 153.572 0.207445 154.465 0.205933H269.093C269.985 0.209022 270.839 0.563439 271.472 1.19236C272.104 1.82129 272.463 2.67405 272.471 3.56581V164.692C272.471 165.588 272.115 166.449 271.482 167.084C270.849 167.719 269.99 168.078 269.093 168.081ZM154.465 0.324657C153.606 0.326226 152.783 0.668207 152.175 1.2757C151.568 1.8832 151.226 2.70669 151.224 3.56581V164.692C151.226 165.551 151.568 166.374 152.175 166.982C152.783 167.589 153.606 167.931 154.465 167.933H269.093C269.952 167.931 270.775 167.589 271.383 166.982C271.99 166.374 272.332 165.551 272.334 164.692V3.56581C272.332 2.70669 271.99 1.8832 271.383 1.2757C270.775 0.668207 269.952 0.326226 269.093 0.324657H154.465Z" fill="#EBEBEB"/>
<path d="M68.2658 71.2204C71.5578 71.2204 74.715 69.9126 77.0428 67.5848C79.3706 65.257 80.6784 62.0998 80.6784 58.8078C80.6784 55.5158 79.3706 52.3586 77.0428 50.0308C74.715 47.703 71.5578 46.3953 68.2658 46.3953H66.7402V71.2204H68.2658Z" fill="#E0E0E0"/>
<path d="M66.728 71.2204C73.5832 71.2204 79.1405 65.6631 79.1405 58.8078C79.1405 51.9526 73.5832 46.3953 66.728 46.3953C59.8727 46.3953 54.3154 51.9526 54.3154 58.8078C54.3154 65.6631 59.8727 71.2204 66.728 71.2204Z" fill="#F5F5F5"/>
<path d="M66.1584 60.3631C61.7502 60.3631 57.5225 58.6119 54.4054 55.4948C51.2883 52.3777 49.5371 48.15 49.5371 43.7418V33.8224C49.5371 33.4084 49.7016 33.0113 49.9944 32.7185C50.2872 32.4257 50.6843 32.2612 51.0983 32.2612C51.5124 32.2612 51.9095 32.4257 52.2023 32.7185C52.4951 33.0113 52.6595 33.4084 52.6595 33.8224V43.7477C52.6627 47.3259 54.0851 50.7566 56.6146 53.2873C59.1442 55.818 62.5744 57.2419 66.1525 57.2466C66.3652 57.2335 66.5784 57.264 66.7788 57.3364C66.9793 57.4088 67.1628 57.5214 67.3181 57.6674C67.4734 57.8134 67.5971 57.9896 67.6817 58.1852C67.7663 58.3809 67.8099 58.5917 67.8099 58.8049C67.8099 59.018 67.7663 59.2289 67.6817 59.4245C67.5971 59.6201 67.4734 59.7963 67.3181 59.9423C67.1628 60.0883 66.9793 60.2009 66.7788 60.2733C66.5784 60.3457 66.3652 60.3762 66.1525 60.3631H66.1584Z" fill="#E0E0E0"/>
<path d="M37.2969 42.5606H64.912C65.3537 42.5606 65.7894 42.4593 66.1857 42.2644C66.582 42.0695 66.9283 41.7862 67.1978 41.4364C67.4674 41.0866 67.653 40.6795 67.7404 40.2466C67.8278 39.8137 67.8147 39.3665 67.702 38.9395L65.2979 29.8868C65.1356 29.2718 64.7746 28.7277 64.2711 28.3391C63.7676 27.9505 63.1498 27.7391 62.5138 27.7379H39.6951C39.0583 27.7388 38.4396 27.9499 37.9351 28.3385C37.4306 28.7271 37.0686 29.2714 36.9051 29.8868L34.5306 38.9276C34.4151 39.3536 34.399 39.8004 34.4836 40.2335C34.5682 40.6667 34.7513 41.0746 35.0186 41.4257C35.286 41.7768 35.6305 42.0618 36.0255 42.2586C36.4206 42.4553 36.8556 42.5587 37.2969 42.5606Z" fill="#F5F5F5"/>
<path d="M243.55 71.2204C246.842 71.2204 249.999 69.9126 252.327 67.5848C254.655 65.257 255.962 62.0998 255.962 58.8078C255.962 55.5158 254.655 52.3586 252.327 50.0308C249.999 47.703 246.842 46.3953 243.55 46.3953H242.024V71.2204H243.55Z" fill="#E0E0E0"/>
<path d="M242.024 71.2204C248.879 71.2204 254.437 65.6631 254.437 58.8078C254.437 51.9526 248.879 46.3953 242.024 46.3953C235.169 46.3953 229.612 51.9526 229.612 58.8078C229.612 65.6631 235.169 71.2204 242.024 71.2204Z" fill="#F5F5F5"/>
<path d="M241.454 60.3631C237.046 60.3631 232.818 58.6119 229.701 55.4948C226.584 52.3777 224.833 48.15 224.833 43.7418V33.8224C224.833 33.4084 224.997 33.0113 225.29 32.7185C225.583 32.4257 225.98 32.2612 226.394 32.2612C226.808 32.2612 227.205 32.4257 227.498 32.7185C227.791 33.0113 227.955 33.4084 227.955 33.8224V43.7477C227.959 47.3259 229.381 50.7566 231.911 53.2873C234.44 55.818 237.87 57.2419 241.448 57.2466C241.661 57.2335 241.874 57.264 242.075 57.3364C242.275 57.4088 242.459 57.5214 242.614 57.6674C242.769 57.8134 242.893 57.9896 242.978 58.1852C243.062 58.3809 243.106 58.5917 243.106 58.8049C243.106 59.018 243.062 59.2289 242.978 59.4245C242.893 59.6201 242.769 59.7963 242.614 59.9423C242.459 60.0883 242.275 60.2009 242.075 60.2733C241.874 60.3457 241.661 60.3762 241.448 60.3631H241.454Z" fill="#E0E0E0"/>
<path d="M212.592 42.5606H240.207C240.649 42.5607 241.085 42.4594 241.481 42.2645C241.877 42.0696 242.224 41.7863 242.493 41.4365C242.763 41.0866 242.948 40.6796 243.036 40.2467C243.123 39.8138 243.11 39.3666 242.997 38.9396L240.623 29.8988C240.461 29.2838 240.1 28.7397 239.596 28.351C239.093 27.9624 238.475 27.7511 237.839 27.7499H214.991C214.354 27.7508 213.735 27.9619 213.231 28.3505C212.726 28.739 212.364 29.2833 212.201 29.8988L209.826 38.9396C209.713 39.3647 209.698 39.8102 209.784 40.2419C209.869 40.6735 210.053 41.0797 210.32 41.4294C210.587 41.7791 210.931 42.0629 211.325 42.259C211.719 42.4551 212.152 42.5583 212.592 42.5606Z" fill="#F5F5F5"/>
<path d="M79.5326 155.057H88.5615V120.075H79.5326V155.057Z" fill="#E6E6E6"/>
<path d="M55.0581 155.051H85.018L89.5414 114.109H59.5815L55.0581 155.051Z" fill="#F0F0F0"/>
<path d="M51.811 155.051H82.7623L87.2856 114.109H56.3403L51.811 155.051Z" fill="#F5F5F5"/>
<path d="M80.5243 151.828L84.3353 117.339H58.5723L54.7612 151.828H80.5243Z" fill="white"/>
<path d="M75.2056 143.464L75.3896 142.081C76.3454 133.426 70.9434 125.715 63.9269 125.715L63.7666 127.122C62.8109 135.771 68.2128 143.482 75.2353 143.482L75.2056 143.464Z" fill="#F5F5F5"/>
<path d="M35.0767 194.556H61.6946L61.6946 155.051H35.0767V194.556Z" fill="#E6E6E6"/>
<path d="M37.7485 194.557H35.0713V186.94H40.5563L37.7485 194.557Z" fill="#F0F0F0"/>
<path d="M109.677 194.556H136.295V155.051H109.677V194.556Z" fill="#E6E6E6"/>
<path d="M35.0712 189.885H112.01V155.057H35.0712V189.885Z" fill="#F0F0F0"/>
<path d="M109.332 194.557H112.009V186.94H106.524L109.332 194.557Z" fill="#F0F0F0"/>
<path d="M37.1489 171.286H109.932V157.23H37.1489V171.286Z" fill="#E6E6E6"/>
<path d="M68.6875 166.419H78.3931C80.4799 166.42 82.5448 165.995 84.4617 165.17C86.3786 164.345 88.107 163.138 89.5413 161.623H57.5393C58.9742 163.137 60.7028 164.344 62.6195 165.169C64.5362 165.993 66.6009 166.419 68.6875 166.419Z" fill="#F0F0F0"/>
<path d="M37.1489 187.611H109.932V173.554H37.1489V187.611Z" fill="#E6E6E6"/>
<path d="M68.6875 182.72H78.3931C80.4799 182.721 82.5448 182.296 84.4617 181.471C86.3786 180.646 88.107 179.439 89.5413 177.923H57.5393C58.9742 179.438 60.7028 180.645 62.6195 181.47C64.5362 182.294 66.6009 182.72 68.6875 182.72Z" fill="#F0F0F0"/>
<path d="M107.136 153.442H107.824C107.824 152.024 107.824 148.432 107.896 140.199C108.02 125.269 108.258 124.361 108.258 124.361L106.619 131.253C105.581 138.881 106.922 146.551 107.136 153.442Z" fill="#E6E6E6"/>
<path d="M105.777 130.208C103.402 127.4 98.3864 126.581 93.2338 125.881C91.2096 125.608 98.5467 130.232 102.138 133.515C104.928 136.067 106.709 136.774 107.481 139.314C107.872 136.144 107.807 132.648 105.777 130.208Z" fill="#E6E6E6"/>
<path d="M108.905 135.242C111.28 132.434 116.296 131.621 121.448 130.921C123.473 130.648 116.106 135.272 112.544 138.555C109.754 141.107 107.973 141.814 107.202 144.354C106.81 141.184 106.851 137.664 108.905 135.242Z" fill="#E6E6E6"/>
<path d="M107.896 123.678C109.676 120.319 114.105 117.149 119.097 115.961C121.056 115.492 114.556 122.159 112.087 126.463C110.169 129.799 107.628 133.728 107.231 136.554C106.637 130.986 106.127 127.056 107.896 123.678Z" fill="#E6E6E6"/>
<path d="M107.682 155.051C105.581 155.051 103.841 154 103.717 152.647L103.366 150.344H112.004L111.647 152.647C111.529 154 109.819 155.051 107.682 155.051Z" fill="#F0F0F0"/>
<path d="M112.562 151.228H102.809L102.53 148.658H112.841L112.562 151.228Z" fill="#F0F0F0"/>
<path d="M100.642 102.142L195.746 102.142V15.3966L100.642 15.3966L100.642 102.142Z" fill="#E6E6E6"/>
<path d="M98.5046 102.142L194.813 102.142V15.3966L98.5046 15.3966L98.5046 102.142Z" fill="#F5F5F5"/>
<path d="M190.967 98.2597V19.2848L102.34 19.2848V98.2597H190.967Z" fill="#FAFAFA"/>
<path d="M180.097 98.2597L145.216 19.2848H133.368L168.249 98.2597H180.097Z" fill="white"/>
<path d="M164.89 98.2597L130.009 19.2848H121.852L156.733 98.2597H164.89Z" fill="white"/>
<path d="M135.25 98.2538V19.2788H130.667V98.2538H135.25Z" fill="#E6E6E6"/>
<path d="M165.715 98.2538V19.2788H161.132V98.2538H165.715Z" fill="#E6E6E6"/>
<path d="M134.425 100.723V16.3939H128.631V100.723H134.425Z" fill="#F5F5F5"/>
<path d="M164.889 100.723V16.3939H159.095V100.723H164.889Z" fill="#F5F5F5"/>
<path d="M102.755 98.2597V19.2848H102.346V98.2597H102.755Z" fill="#E6E6E6"/>
<path d="M96.8902 10.3983H199.919C200.05 10.3998 200.176 10.4528 200.269 10.546C200.363 10.6392 200.416 10.7651 200.417 10.8969C200.416 11.0281 200.362 11.1534 200.269 11.2457C200.176 11.3379 200.05 11.3896 199.919 11.3896H96.8902C96.759 11.3896 96.6331 11.3379 96.5397 11.2457C96.4464 11.1534 96.3932 11.0281 96.3916 10.8969C96.3931 10.7651 96.4462 10.6392 96.5394 10.546C96.6325 10.4528 96.7585 10.3998 96.8902 10.3983Z" fill="#E6E6E6"/>
<path d="M195.745 13.6692C195.922 13.6676 196.091 13.5963 196.216 13.4706C196.34 13.345 196.41 13.1753 196.41 12.9984V11.5618C196.411 11.474 196.395 11.3869 196.361 11.3056C196.328 11.2242 196.28 11.1502 196.218 11.0879C196.156 11.0255 196.082 10.976 196.001 10.9422C195.92 10.9084 195.833 10.891 195.745 10.8911C195.569 10.891 195.399 10.9609 195.273 11.0854C195.148 11.2099 195.076 11.379 195.075 11.5559V12.9925C195.075 13.1709 195.145 13.3422 195.271 13.4689C195.396 13.5956 195.567 13.6676 195.745 13.6692Z" fill="#E6E6E6"/>
<path d="M104.358 13.6692C104.536 13.6676 104.706 13.5965 104.831 13.471C104.957 13.3455 105.028 13.1758 105.029 12.9984V11.5618C105.029 11.3839 104.959 11.2133 104.833 11.0875C104.707 10.9617 104.536 10.8911 104.358 10.8911C104.182 10.8911 104.013 10.9611 103.888 11.0858C103.764 11.2105 103.694 11.3796 103.694 11.5559V12.9925C103.693 13.0806 103.709 13.1679 103.742 13.2496C103.775 13.3313 103.824 13.4057 103.886 13.4685C103.948 13.5314 104.021 13.5814 104.102 13.6159C104.183 13.6503 104.27 13.6684 104.358 13.6692Z" fill="#E6E6E6"/>
<path opacity="0.6" d="M97.045 78.8246L193.288 78.8246V10.891L97.045 10.891L97.045 78.8246Z" fill="#E0E0E0"/>
<path d="M202.002 121.88H185.405C183.641 121.88 182.211 123.31 182.211 125.074V132.755C182.211 134.519 183.641 135.949 185.405 135.949H202.002C203.766 135.949 205.196 134.519 205.196 132.755V125.074C205.196 123.31 203.766 121.88 202.002 121.88Z" fill="#FAFAFA"/>
<path d="M204.121 119.28H183.285C182.692 119.28 182.211 119.761 182.211 120.354V121.221C182.211 121.814 182.692 122.295 183.285 122.295H204.121C204.715 122.295 205.196 121.814 205.196 121.221V120.354C205.196 119.761 204.715 119.28 204.121 119.28Z" fill="#E6E6E6"/>
<path d="M182.549 151.579C182.549 151.579 182.852 161.474 194.38 161.474C205.908 161.474 206.211 151.579 206.211 151.579H182.549Z" fill="#F0F0F0"/>
<path d="M208.835 151.579C208.835 151.579 209.138 161.474 220.666 161.474C232.194 161.474 232.497 151.579 232.497 151.579H208.835Z" fill="#F0F0F0"/>
<path d="M226.786 115.51H203.991C201.565 115.51 199.598 117.477 199.598 119.903V131.562C199.598 133.988 201.565 135.955 203.991 135.955H226.786C229.212 135.955 231.179 133.988 231.179 131.562V119.903C231.179 117.477 229.212 115.51 226.786 115.51Z" fill="#F0F0F0"/>
<path d="M229.707 111.937H201.071C200.258 111.937 199.598 112.596 199.598 113.409V114.608C199.598 115.421 200.258 116.08 201.071 116.08H229.707C230.52 116.08 231.179 115.421 231.179 114.608V113.409C231.179 112.596 230.52 111.937 229.707 111.937Z" fill="#F5F5F5"/>
<path d="M173.865 194.556H176.857V145.5H173.865V194.556Z" fill="#E6E6E6"/>
<path d="M260.254 135.949H244.054V145.494H260.254V135.949Z" fill="#E6E6E6"/>
<path d="M163.506 145.5H244.048V135.954H163.506V145.5Z" fill="#F5F5F5"/>
<path d="M260.254 161.444H244.054V170.99H260.254V161.444Z" fill="#E6E6E6"/>
<path d="M163.506 170.99H244.048V161.444H163.506V170.99Z" fill="#F5F5F5"/>
<path d="M254.407 194.556H257.399V145.5H254.407V194.556Z" fill="#E6E6E6"/>
<path d="M241.062 194.556H244.054V145.5H241.062V194.556Z" fill="#F5F5F5"/>
<path d="M163.506 194.556H166.498V145.5H163.506V194.556Z" fill="#F5F5F5"/>
<path d="M148.404 221.364C211.97 221.364 263.501 218.356 263.501 214.645C263.501 210.933 211.97 207.925 148.404 207.925C84.8381 207.925 33.3076 210.933 33.3076 214.645C33.3076 218.356 84.8381 221.364 148.404 221.364Z" fill="#F5F5F5"/>
<path d="M154.585 184.524H78.8568C77.6391 184.507 76.4729 184.03 75.5921 183.189C74.7113 182.347 74.1812 181.204 74.1079 179.989L67.3169 48.4727C67.2792 47.8877 67.3628 47.3013 67.5624 46.7501C67.762 46.1989 68.0734 45.6949 68.4769 45.2697C68.8804 44.8445 69.3673 44.5071 69.9073 44.2789C70.4472 44.0507 71.0285 43.9365 71.6147 43.9434H147.343C148.56 43.9592 149.726 44.4349 150.607 45.2751C151.488 46.1153 152.018 47.2576 152.091 48.4727L158.871 179.989C158.908 180.573 158.825 181.159 158.626 181.709C158.427 182.26 158.117 182.764 157.715 183.189C157.313 183.615 156.827 183.953 156.289 184.183C155.75 184.412 155.17 184.529 154.585 184.524Z" fill="#407BFF"/>
<path opacity="0.8" d="M154.585 184.524H78.8568C77.6391 184.507 76.4729 184.03 75.5921 183.189C74.7113 182.347 74.1812 181.204 74.1079 179.989L67.3169 48.4727C67.2792 47.8877 67.3628 47.3013 67.5624 46.7501C67.762 46.1989 68.0734 45.6949 68.4769 45.2697C68.8804 44.8445 69.3673 44.5071 69.9073 44.2789C70.4472 44.0507 71.0285 43.9365 71.6147 43.9434H147.343C148.56 43.9592 149.726 44.4349 150.607 45.2751C151.488 46.1153 152.018 47.2576 152.091 48.4727L158.871 179.989C158.908 180.573 158.825 181.159 158.626 181.709C158.427 182.26 158.117 182.764 157.715 183.189C157.313 183.615 156.827 183.953 156.289 184.183C155.75 184.412 155.17 184.529 154.585 184.524Z" fill="white"/>
<path d="M139.869 39.6575H131.493V40.2511H139.869V39.6575Z" fill="#407BFF"/>
<path d="M128.59 39.6575H125.521V40.2511H128.59V39.6575Z" fill="#407BFF"/>
<path d="M157.844 176.178H85.4223C84.256 176.166 83.1374 175.714 82.2915 174.911C81.4456 174.108 80.9353 173.014 80.8633 171.85L74.381 46.0626C74.3449 45.5028 74.425 44.9415 74.6161 44.414C74.8072 43.8866 75.1052 43.4043 75.4914 42.9974C75.8777 42.5906 76.3438 42.2679 76.8606 42.0496C77.3774 41.8314 77.9338 41.7223 78.4947 41.7292H150.916C152.082 41.7421 153.2 42.1962 154.045 43.0003C154.89 43.8043 155.399 44.8985 155.469 46.0626L161.952 171.85C161.988 172.409 161.908 172.97 161.717 173.497C161.526 174.023 161.229 174.505 160.843 174.911C160.457 175.318 159.992 175.64 159.476 175.858C158.959 176.076 158.404 176.185 157.844 176.178Z" fill="#407BFF"/>
<path d="M157.844 173.287H85.4223C84.9976 173.272 84.5931 173.102 84.2855 172.809C83.978 172.516 83.7889 172.119 83.7543 171.696L77.266 45.9142C77.2513 45.7469 77.2723 45.5784 77.3276 45.4198C77.3828 45.2611 77.4711 45.1161 77.5866 44.9941C77.7024 44.8724 77.8427 44.7767 77.9982 44.7132C78.1538 44.6498 78.321 44.6201 78.4889 44.6261H150.91C151.334 44.6421 151.737 44.8128 152.043 45.106C152.35 45.3991 152.538 45.7944 152.572 46.2169L159.09 171.999C159.105 172.165 159.084 172.333 159.028 172.491C158.973 172.649 158.885 172.794 158.77 172.915C158.656 173.037 158.516 173.133 158.362 173.197C158.207 173.261 158.041 173.292 157.873 173.287H157.844ZM78.4889 44.7745C78.3413 44.7697 78.1943 44.7957 78.0574 44.8509C77.9204 44.9061 77.7965 44.9892 77.6934 45.095C77.5943 45.2046 77.5185 45.3332 77.4705 45.473C77.4226 45.6128 77.4035 45.7609 77.4144 45.9083L83.8967 171.69C83.9298 172.075 84.1025 172.435 84.3824 172.702C84.6623 172.969 85.03 173.124 85.4164 173.138H157.838C157.985 173.144 158.131 173.119 158.267 173.063C158.403 173.008 158.526 172.924 158.627 172.818C158.729 172.71 158.806 172.581 158.854 172.441C158.902 172.301 158.92 172.152 158.906 172.005L152.43 46.2229C152.398 45.8382 152.227 45.4784 151.948 45.2115C151.669 44.9446 151.302 44.7891 150.916 44.7745H78.4889Z" fill="white"/>
<path opacity="0.3" d="M132.512 90.4687C140.749 82.016 140.212 68.1338 131.314 59.4619C122.415 50.7901 108.523 50.6124 100.286 59.0651C92.0491 67.5178 92.5855 81.4 101.484 90.0718C110.383 98.7437 124.275 98.9214 132.512 90.4687Z" fill="white"/>
<path d="M134.158 74.77C134.324 77.6872 133.737 80.5981 132.454 83.2232C131.065 86.0388 128.909 88.4047 126.234 90.0484C123.559 91.692 120.474 92.5464 117.335 92.5133C114.081 92.484 110.891 91.613 108.074 89.985C105.257 88.357 102.909 86.0275 101.259 83.2232C99.7219 80.6587 98.8373 77.7561 98.6831 74.77C98.5368 72.48 98.8646 70.1844 99.6462 68.0269C100.428 65.8694 101.646 63.8965 103.225 62.2315C104.805 60.5666 106.71 59.2455 108.823 58.351C110.937 57.4564 113.212 57.0076 115.506 57.0327C120.282 57.0825 124.861 58.9401 128.322 62.2313C131.783 65.5225 133.868 70.0029 134.158 74.77Z" fill="white"/>
<path d="M132.436 83.223C131.047 86.0386 128.891 88.4046 126.216 90.0482C123.541 91.6918 120.456 92.5463 117.317 92.5131C114.063 92.4838 110.873 91.6128 108.056 89.9848C105.239 88.3568 102.891 86.0273 101.242 83.223C105.753 80.1076 111.11 78.4502 116.593 78.4741C122.221 78.4953 127.724 80.1446 132.436 83.223Z" fill="#407BFF"/>
<path d="M121.898 74.3576C124.866 71.3122 124.672 66.3098 121.464 63.1842C118.257 60.0587 113.251 59.9937 110.284 63.039C107.316 66.0843 107.51 71.0868 110.718 74.2123C113.925 77.3378 118.931 77.4029 121.898 74.3576Z" fill="#407BFF"/>
<path d="M147.462 127.24H90.7533C90.2594 127.235 89.7857 127.043 89.4277 126.702C89.0698 126.362 88.854 125.899 88.824 125.406L88.3966 117.095C88.3819 116.859 88.4161 116.622 88.4972 116.399C88.5782 116.177 88.7043 115.973 88.8675 115.801C89.0308 115.63 89.2277 115.494 89.4459 115.402C89.6642 115.31 89.8991 115.264 90.1359 115.267H146.844C147.337 115.272 147.81 115.463 148.168 115.802C148.526 116.141 148.742 116.603 148.774 117.095L149.201 125.406C149.217 125.642 149.183 125.88 149.102 126.103C149.022 126.327 148.896 126.531 148.732 126.703C148.569 126.875 148.372 127.012 148.153 127.104C147.934 127.197 147.699 127.243 147.462 127.24Z" fill="white"/>
<path opacity="0.3" d="M130.098 110.678H106.413C105.917 110.674 105.441 110.482 105.081 110.14C104.722 109.798 104.506 109.333 104.478 108.838L104.388 107.057C104.373 106.82 104.406 106.582 104.487 106.359C104.568 106.136 104.694 105.932 104.857 105.759C105.02 105.587 105.218 105.45 105.436 105.358C105.655 105.266 105.89 105.219 106.128 105.222H129.807C130.301 105.228 130.775 105.42 131.133 105.76C131.491 106.1 131.706 106.564 131.736 107.057L131.831 108.838C131.846 109.074 131.812 109.311 131.731 109.534C131.651 109.757 131.526 109.96 131.363 110.133C131.201 110.305 131.005 110.443 130.787 110.536C130.569 110.63 130.335 110.678 130.098 110.678Z" fill="black"/>
<path opacity="0.3" d="M138.907 167.196H103.427C102.587 167.186 101.782 166.859 101.173 166.279C100.564 165.7 100.197 164.913 100.144 164.074L99.9364 159.978C99.9154 159.575 99.9767 159.173 100.116 158.795C100.256 158.417 100.471 158.071 100.749 157.779C101.027 157.487 101.361 157.254 101.732 157.095C102.102 156.937 102.501 156.855 102.904 156.856H138.373C139.213 156.866 140.018 157.193 140.627 157.773C141.236 158.352 141.604 159.139 141.656 159.978L141.864 164.074C141.885 164.476 141.824 164.877 141.685 165.254C141.546 165.632 141.331 165.977 141.055 166.269C140.778 166.561 140.446 166.794 140.076 166.953C139.707 167.113 139.31 167.195 138.907 167.196Z" fill="black"/>
<path d="M148.5 147.34H91.7855C91.292 147.333 90.8191 147.141 90.4614 146.801C90.1038 146.461 89.8876 145.998 89.8563 145.506L89.4288 137.195C89.4142 136.958 89.4484 136.721 89.5294 136.498C89.6103 136.275 89.7363 136.072 89.8995 135.899C90.0626 135.727 90.2595 135.591 90.4777 135.498C90.696 135.405 90.931 135.359 91.1682 135.361H147.876C148.37 135.366 148.844 135.558 149.202 135.898C149.56 136.239 149.776 136.702 149.806 137.195L150.239 145.506C150.253 145.742 150.218 145.979 150.137 146.201C150.055 146.424 149.929 146.627 149.766 146.799C149.603 146.971 149.407 147.108 149.189 147.201C148.971 147.294 148.737 147.341 148.5 147.34Z" fill="white"/>
<path d="M97.9472 121.25C97.9636 121.513 97.9257 121.775 97.8358 122.022C97.746 122.269 97.6062 122.495 97.4251 122.686C97.244 122.876 97.0256 123.028 96.7835 123.13C96.5414 123.232 96.2808 123.283 96.018 123.28C95.472 123.274 94.9487 123.061 94.5533 122.684C94.158 122.308 93.9199 121.795 93.8869 121.25C93.8697 120.988 93.9069 120.725 93.996 120.479C94.0852 120.232 94.2244 120.006 94.405 119.815C94.5856 119.624 94.8037 119.473 95.0455 119.371C95.2873 119.268 95.5476 119.217 95.8102 119.22C96.3568 119.227 96.8808 119.439 97.2772 119.816C97.6735 120.192 97.9128 120.705 97.9472 121.25Z" fill="#263238"/>
<path d="M104.198 121.25C104.215 121.512 104.178 121.775 104.089 122.022C104 122.269 103.86 122.495 103.68 122.686C103.499 122.876 103.281 123.027 103.039 123.13C102.798 123.232 102.537 123.283 102.275 123.28C101.728 123.275 101.204 123.063 100.808 122.686C100.413 122.309 100.175 121.796 100.143 121.25C100.126 120.988 100.163 120.725 100.253 120.479C100.342 120.232 100.481 120.006 100.662 119.815C100.842 119.624 101.06 119.473 101.302 119.371C101.544 119.268 101.804 119.217 102.067 119.22C102.613 119.225 103.137 119.438 103.533 119.815C103.929 120.192 104.166 120.705 104.198 121.25Z" fill="#263238"/>
<path d="M110.414 121.25C110.431 121.512 110.394 121.775 110.305 122.022C110.215 122.269 110.076 122.495 109.896 122.686C109.715 122.876 109.497 123.027 109.255 123.13C109.013 123.232 108.753 123.283 108.49 123.28C107.944 123.274 107.42 123.061 107.023 122.685C106.627 122.308 106.388 121.796 106.353 121.25C106.337 120.988 106.375 120.725 106.465 120.478C106.555 120.231 106.694 120.005 106.875 119.815C107.057 119.624 107.275 119.473 107.517 119.371C107.759 119.268 108.02 119.217 108.283 119.22C108.829 119.227 109.352 119.44 109.747 119.816C110.143 120.193 110.381 120.705 110.414 121.25Z" fill="#263238"/>
<path d="M116.676 121.25C116.692 121.512 116.654 121.775 116.565 122.021C116.475 122.268 116.336 122.493 116.156 122.684C115.975 122.874 115.758 123.025 115.516 123.128C115.275 123.231 115.015 123.283 114.753 123.28C114.206 123.274 113.682 123.061 113.286 122.685C112.889 122.308 112.65 121.796 112.616 121.25C112.599 120.989 112.637 120.726 112.726 120.48C112.816 120.233 112.955 120.007 113.136 119.817C113.316 119.627 113.534 119.475 113.775 119.373C114.017 119.27 114.277 119.218 114.539 119.22C115.085 119.227 115.609 119.439 116.006 119.816C116.402 120.192 116.641 120.705 116.676 121.25Z" fill="#263238"/>
<path d="M98.9981 141.338C99.0153 141.6 98.9782 141.863 98.889 142.11C98.7999 142.357 98.6606 142.583 98.48 142.774C98.2994 142.964 98.0814 143.115 97.8396 143.218C97.5978 143.32 97.3374 143.371 97.0748 143.368C96.5282 143.362 96.0042 143.149 95.6079 142.773C95.2116 142.396 94.9722 141.884 94.9378 141.338C94.9214 141.076 94.9594 140.813 95.0492 140.566C95.1391 140.319 95.2789 140.093 95.4599 139.903C95.641 139.712 95.8594 139.561 96.1015 139.459C96.3436 139.356 96.6042 139.305 96.867 139.308C97.413 139.315 97.9363 139.528 98.3317 139.904C98.7271 140.281 98.9652 140.793 98.9981 141.338Z" fill="#263238"/>
<path d="M105.237 141.338C105.254 141.6 105.216 141.863 105.126 142.109C105.037 142.356 104.898 142.581 104.717 142.772C104.537 142.962 104.319 143.113 104.078 143.216C103.836 143.319 103.576 143.371 103.314 143.368C102.767 143.362 102.243 143.149 101.847 142.773C101.451 142.396 101.211 141.884 101.177 141.338C101.16 141.076 101.197 140.814 101.286 140.567C101.375 140.32 101.514 140.094 101.695 139.903C101.876 139.712 102.094 139.561 102.336 139.459C102.577 139.356 102.838 139.305 103.1 139.308C103.647 139.315 104.171 139.527 104.567 139.904C104.964 140.28 105.203 140.793 105.237 141.338Z" fill="#263238"/>
<path d="M111.476 141.338C111.492 141.601 111.454 141.863 111.364 142.11C111.274 142.357 111.134 142.583 110.953 142.774C110.772 142.964 110.554 143.116 110.312 143.218C110.07 143.32 109.809 143.371 109.546 143.368C109 143.363 108.476 143.151 108.08 142.774C107.684 142.397 107.447 141.884 107.415 141.338C107.398 141.076 107.435 140.814 107.524 140.567C107.613 140.32 107.753 140.094 107.933 139.903C108.114 139.712 108.332 139.561 108.574 139.459C108.816 139.356 109.076 139.305 109.339 139.308C109.885 139.315 110.409 139.527 110.805 139.904C111.202 140.28 111.441 140.793 111.476 141.338Z" fill="#263238"/>
<path d="M117.709 141.338C117.726 141.6 117.689 141.863 117.6 142.11C117.511 142.357 117.372 142.583 117.191 142.774C117.01 142.964 116.792 143.115 116.55 143.218C116.309 143.32 116.048 143.371 115.786 143.368C115.239 143.362 114.715 143.149 114.319 142.773C113.922 142.396 113.683 141.884 113.649 141.338C113.632 141.076 113.67 140.813 113.76 140.566C113.85 140.319 113.99 140.093 114.171 139.903C114.352 139.712 114.57 139.561 114.812 139.459C115.055 139.356 115.315 139.305 115.578 139.308C116.124 139.313 116.648 139.526 117.044 139.903C117.44 140.28 117.677 140.793 117.709 141.338Z" fill="#263238"/>
<path d="M123.948 141.338C123.965 141.601 123.928 141.863 123.839 142.11C123.75 142.357 123.61 142.583 123.43 142.774C123.249 142.964 123.031 143.116 122.789 143.218C122.547 143.32 122.287 143.372 122.025 143.369C121.478 143.362 120.954 143.149 120.558 142.773C120.161 142.396 119.922 141.884 119.887 141.338C119.871 141.077 119.909 140.814 119.998 140.568C120.088 140.321 120.227 140.096 120.408 139.905C120.588 139.715 120.806 139.563 121.047 139.461C121.289 139.358 121.548 139.306 121.811 139.308C122.357 139.315 122.881 139.527 123.278 139.904C123.674 140.28 123.913 140.793 123.948 141.338Z" fill="#263238"/>
<path d="M130.187 141.338C130.203 141.601 130.165 141.863 130.076 142.11C129.986 142.357 129.846 142.583 129.665 142.774C129.484 142.964 129.265 143.116 129.023 143.218C128.781 143.32 128.521 143.371 128.258 143.368C127.712 143.362 127.188 143.149 126.793 142.772C126.398 142.396 126.16 141.883 126.127 141.338C126.109 141.076 126.147 140.814 126.236 140.567C126.325 140.32 126.464 140.094 126.645 139.903C126.825 139.712 127.043 139.561 127.285 139.459C127.527 139.356 127.787 139.305 128.05 139.308C128.597 139.315 129.121 139.527 129.517 139.904C129.913 140.28 130.153 140.793 130.187 141.338Z" fill="#263238"/>
<path d="M197.674 72.4016C197.822 72.6272 197.899 72.7459 197.994 72.9062L198.261 73.3455C198.434 73.6423 198.588 73.9391 198.736 74.23C199.033 74.8236 199.33 75.4172 199.567 76.0108C200.065 77.1898 200.493 78.3969 200.85 79.6259C201.568 82.0538 202.042 84.5476 202.262 87.0699L202.304 87.5389C202.309 87.6338 202.309 87.7289 202.304 87.8238V88.1384C202.314 88.5513 202.29 88.9642 202.233 89.3732C202.119 90.1312 201.92 90.874 201.639 91.5874C201.118 92.8615 200.427 94.0595 199.585 95.1491C198.015 97.1593 196.152 98.9222 194.059 100.379L192.42 98.4615C193.911 96.7777 195.231 94.9503 196.362 93.0061C196.87 92.1241 197.269 91.1832 197.549 90.2042C197.662 89.7896 197.728 89.3634 197.745 88.9339C197.763 88.7503 197.763 88.5654 197.745 88.3818V88.2572C197.751 88.2019 197.751 88.1462 197.745 88.0909L197.674 87.6754C197.292 85.4631 196.752 83.2809 196.059 81.1456C195.715 80.083 195.293 79.0561 194.872 78.0529C194.664 77.5483 194.427 77.0556 194.189 76.5807L193.821 75.8802L193.637 75.5537L193.483 75.2925L197.674 72.4016Z" fill="#803E3C"/>
<path d="M192.153 100.391L194.302 104.932L196.006 101.091C196.006 101.091 194.492 97.7669 192.444 98.0755L192.153 100.391Z" fill="#7F3E3B"/>
<path d="M195.84 105.157L197.549 102.356L196.006 101.091L194.302 104.932L195.84 105.157Z" fill="#7F3E3B"/>
<path d="M186.175 209.884C186.62 209.872 187.061 209.813 187.493 209.705C187.515 209.699 187.534 209.687 187.55 209.67C187.566 209.653 187.577 209.633 187.582 209.61C187.586 209.588 187.582 209.564 187.573 209.543C187.563 209.522 187.548 209.504 187.529 209.492C187.356 209.379 185.849 208.405 185.267 208.667C185.202 208.697 185.147 208.743 185.106 208.802C185.066 208.86 185.041 208.928 185.035 208.999C185.017 209.106 185.026 209.217 185.06 209.32C185.094 209.424 185.153 209.517 185.231 209.593C185.5 209.801 185.836 209.904 186.175 209.884ZM187.155 209.533C186.294 209.711 185.641 209.682 185.374 209.45C185.319 209.396 185.279 209.329 185.257 209.255C185.236 209.182 185.233 209.104 185.249 209.029C185.249 208.928 185.308 208.898 185.35 208.88C185.671 208.738 186.543 209.159 187.155 209.533Z" fill="#407BFF"/>
<path d="M187.464 209.706H187.523C187.541 209.694 187.556 209.678 187.566 209.66C187.576 209.641 187.582 209.62 187.582 209.599C187.582 209.539 187.582 208.109 187.036 207.628C186.969 207.568 186.89 207.523 186.804 207.496C186.718 207.469 186.627 207.462 186.538 207.474C186.444 207.474 186.353 207.507 186.281 207.567C186.209 207.626 186.159 207.708 186.14 207.8C186.027 208.364 186.929 209.433 187.404 209.706H187.464ZM186.615 207.693C186.663 207.692 186.711 207.7 186.755 207.717C186.8 207.735 186.841 207.761 186.876 207.794C187.189 208.256 187.351 208.804 187.339 209.361C186.864 208.981 186.3 208.174 186.371 207.836C186.371 207.782 186.413 207.711 186.561 207.693H186.615Z" fill="#407BFF"/>
<path d="M180.571 207.462C180.585 207.444 180.594 207.423 180.597 207.401C180.601 207.379 180.598 207.357 180.589 207.336C180.581 207.316 180.567 207.298 180.549 207.284C180.531 207.271 180.51 207.262 180.488 207.26C180.245 207.26 178.114 207.159 177.627 207.681V207.717C177.587 207.768 177.561 207.829 177.551 207.894C177.542 207.958 177.55 208.024 177.574 208.085C177.605 208.187 177.661 208.28 177.737 208.355C177.812 208.431 177.905 208.487 178.007 208.518C178.695 208.732 179.912 207.954 180.577 207.474L180.571 207.462ZM177.805 207.836C178.072 207.551 179.248 207.473 180.126 207.485C179.206 208.115 178.44 208.411 178.054 208.293C177.987 208.272 177.926 208.236 177.876 208.186C177.826 208.136 177.79 208.075 177.769 208.008C177.757 207.985 177.751 207.959 177.751 207.934C177.751 207.908 177.757 207.882 177.769 207.859L177.805 207.836Z" fill="#407BFF"/>
<path d="M180.572 207.462C180.581 207.443 180.586 207.423 180.586 207.402C180.586 207.382 180.581 207.361 180.572 207.343C180.542 207.295 179.877 206.156 179.094 205.918C178.981 205.885 178.863 205.876 178.747 205.89C178.631 205.904 178.518 205.942 178.417 206.001C178.132 206.167 178.114 206.363 178.15 206.488C178.304 207.04 179.818 207.527 180.471 207.521C180.492 207.521 180.512 207.515 180.529 207.505C180.547 207.494 180.562 207.479 180.572 207.462ZM178.441 206.274C178.474 206.241 178.512 206.213 178.554 206.191C178.627 206.144 178.71 206.114 178.796 206.103C178.882 206.092 178.969 206.1 179.052 206.126C179.569 206.262 180.05 206.927 180.269 207.254C179.563 207.177 178.488 206.743 178.399 206.411C178.392 206.386 178.392 206.359 178.399 206.333C178.406 206.308 178.421 206.286 178.441 206.268V206.274Z" fill="#407BFF"/>
<path d="M187.107 55.0146C186.514 57.9827 185.232 64.3997 187.292 66.3705C187.292 66.3705 186.484 69.3386 181.005 69.3386C174.974 69.3386 178.126 66.3705 178.126 66.3705C181.415 65.5869 181.332 63.1412 180.756 60.8499L187.107 55.0146Z" fill="#7F3E3B"/>
<path d="M177.063 48.0575C177.097 48.0629 177.131 48.0629 177.164 48.0575C177.193 48.0436 177.218 48.0243 177.238 48.0006C177.259 47.9769 177.275 47.9493 177.285 47.9195C177.295 47.8897 177.299 47.8582 177.296 47.8269C177.294 47.7955 177.285 47.765 177.271 47.7369C177.112 47.3983 176.873 47.103 176.576 46.8757C176.278 46.6485 175.93 46.4959 175.562 46.431C175.5 46.4258 175.438 46.4444 175.39 46.483C175.341 46.5216 175.309 46.5773 175.3 46.6387C175.294 46.7008 175.312 46.7631 175.351 46.812C175.39 46.8609 175.446 46.8925 175.508 46.8999C175.799 46.9558 176.073 47.0803 176.306 47.263C176.539 47.4457 176.726 47.6815 176.85 47.9506C176.873 47.9857 176.905 48.0141 176.942 48.0329C176.98 48.0517 177.022 48.0601 177.063 48.0575Z" fill="#263238"/>
<path d="M175.264 50.6635C174.797 51.53 174.214 52.3288 173.531 53.0379C173.716 53.2071 173.935 53.334 174.174 53.4099C174.413 53.4857 174.666 53.5087 174.914 53.4772L175.264 50.6635Z" fill="#630F0F"/>
<path d="M175.71 49.9927C175.663 50.3904 175.408 50.6872 175.152 50.6576C174.897 50.6279 174.719 50.2776 174.766 49.8799C174.814 49.4822 175.069 49.1854 175.36 49.2151C175.651 49.2447 175.752 49.595 175.71 49.9927Z" fill="#263238"/>
<path d="M175.437 49.2506L174.522 48.8826C174.522 48.8826 174.908 49.6661 175.437 49.2506Z" fill="#263238"/>
<path d="M185.813 206.334L180.969 207.462L178.025 196.325L182.869 195.197L185.813 206.334Z" fill="#7F3E3B"/>
<path d="M193.245 209.587H188.276L188.662 198.077H193.637L193.245 209.587Z" fill="#7F3E3B"/>
<path d="M187.879 209.011H193.465C193.562 209.01 193.655 209.045 193.729 209.108C193.802 209.171 193.849 209.259 193.862 209.355L194.498 213.772C194.51 213.883 194.499 213.996 194.465 214.103C194.43 214.211 194.374 214.309 194.299 214.393C194.223 214.476 194.131 214.543 194.029 214.588C193.926 214.634 193.815 214.657 193.702 214.656C191.755 214.627 190.817 214.508 188.36 214.508C186.846 214.508 184.638 214.668 182.554 214.668C180.47 214.668 180.352 212.602 181.224 212.418C185.118 211.575 185.736 210.424 187.048 209.32C187.279 209.122 187.574 209.012 187.879 209.011Z" fill="#263238"/>
<path d="M180.542 206.72L185.617 204.387C185.704 204.346 185.802 204.337 185.894 204.364C185.986 204.39 186.065 204.449 186.116 204.529L188.544 208.281C188.601 208.377 188.637 208.485 188.649 208.596C188.662 208.707 188.651 208.82 188.618 208.927C188.584 209.034 188.528 209.132 188.454 209.216C188.38 209.3 188.29 209.368 188.188 209.415C186.407 210.198 185.505 210.489 183.273 211.516C181.901 212.145 179.117 213.594 177.23 214.484C175.342 215.375 174.368 213.528 175.081 212.994C178.269 210.62 179.183 208.916 179.913 207.367C180.036 207.081 180.26 206.851 180.542 206.72Z" fill="#263238"/>
<path opacity="0.2" d="M178.025 196.325L179.604 202.297L184.389 200.938L182.875 195.197L178.025 196.325Z" fill="black"/>
<path opacity="0.2" d="M193.637 198.077H188.663L188.467 204.013H193.441L193.637 198.077Z" fill="black"/>
<path d="M195.893 67.4982C197.958 67.9553 200.167 75.3815 200.167 75.3815L194.325 81.5967C194.325 81.5967 189.476 74.6157 190.467 72.0513C191.47 69.3741 193.429 66.964 195.893 67.4982Z" fill="#263238"/>
<path opacity="0.4" d="M192.592 72.2296C191.548 71.2739 190.841 71.5588 190.36 72.3187C189.885 74.5269 192.699 79.1512 193.833 80.9024C194.355 78.8129 194.955 74.4082 192.592 72.2296Z" fill="black"/>
<path d="M169.721 67.6469C169.721 67.6469 167.346 68.4779 172.095 97.6543H192.278C191.94 89.4386 191.928 84.3691 195.84 67.4985C193.012 66.915 190.145 66.538 187.262 66.3706C184.211 66.1507 181.148 66.1507 178.097 66.3706C174.185 66.7327 169.721 67.6469 169.721 67.6469Z" fill="#263238"/>
<path opacity="0.4" d="M169.536 78.8425C169.666 80.2612 169.839 81.858 170.064 83.6626C171.72 82.1727 173.074 77.9342 172.575 75.4648C171.392 76.4251 170.366 77.5648 169.536 78.8425Z" fill="black"/>
<path d="M171.697 74.408C170.608 77.1492 169.381 79.8338 168.022 82.4516C166.679 85.1639 165.089 87.7471 163.273 90.1686L162.893 90.6376L162.704 90.8691C162.638 90.9462 162.585 91.0175 162.484 91.1243C162.127 91.5141 161.729 91.8643 161.297 92.1691C160.533 92.6976 159.697 93.1135 158.815 93.4038C157.277 93.8951 155.68 94.1786 154.066 94.2468C151.045 94.3669 148.02 94.0976 145.067 93.4454L145.394 90.9522C146.759 90.9522 148.19 90.9522 149.549 90.8394C150.914 90.7722 152.274 90.6216 153.621 90.3882C154.872 90.1931 156.096 89.8503 157.266 89.3672C157.739 89.1653 158.18 88.8975 158.578 88.5718C158.73 88.4447 158.867 88.3013 158.987 88.1444C158.987 88.1444 159.059 88.0494 159.106 87.9841L159.243 87.7882L159.522 87.3964C161.011 85.0956 162.338 82.6935 163.493 80.2077C164.68 77.6848 165.868 75.067 166.954 72.4907L171.697 74.408Z" fill="#803E3C"/>
<path d="M169.72 67.6468C167.245 68.2404 164.205 75.0314 164.205 75.0314L169.334 82.5704C169.334 82.5704 176.167 73.9688 175.353 71.345C174.522 68.6085 172.742 66.9107 169.72 67.6468Z" fill="#263238"/>
<path d="M146.818 91.3322L142.538 89.3554L142.111 93.6117C142.111 93.6117 145.673 94.6624 147.454 93.6117L146.818 91.3322Z" fill="#7F3E3B"/>
<path d="M139.98 88.9281L139.57 92.1693L142.111 93.6117L142.538 89.3555L139.98 88.9281Z" fill="#7F3E3B"/>
<path d="M189.256 50.2835C188.348 55.1333 188.069 57.211 185.291 59.4133C181.135 62.7257 175.347 60.5531 174.789 55.5311C174.279 51.0077 175.846 43.8368 180.874 42.4715C181.982 42.1659 183.149 42.1492 184.265 42.4228C185.381 42.6965 186.408 43.2515 187.248 44.0348C188.089 44.8182 188.715 45.8038 189.066 46.8977C189.417 47.9915 189.483 49.1572 189.256 50.2835Z" fill="#7F3E3B"/>
<path d="M178.601 51.3044C178.322 53.7798 178.215 60.2087 183.652 60.4105C190.307 60.6539 192.301 54.967 191.708 52.6935C195.174 49.8738 195.673 45.0239 191.779 41.3138C187.885 37.6037 179.313 39.6754 176.939 43.2906C173.929 47.7724 178.601 51.3044 178.601 51.3044Z" fill="#263238"/>
<path d="M185.267 42.7563C184.946 40.1444 185.196 38.3458 187.641 38.3458C190.087 38.3458 193.423 39.2303 194.646 41.7294C195.869 44.2285 195.97 48.1405 192.556 47.7427C189.143 47.345 185.653 45.8788 185.267 42.7563Z" fill="#407BFF"/>
<path d="M189.055 42.1271C188.461 39.0166 191.245 30.2548 198.006 29.6612C201.141 29.394 202.589 32.7658 200.974 33.3238C203.943 33.2882 205.842 37.212 203.076 37.7997C205.26 39.2006 204.72 42.0737 201.604 43.4865C199.283 44.555 189.856 46.4368 189.055 42.1271Z" fill="#263238"/>
<path d="M196.279 45.4692C194.101 45.4692 191.827 45.1486 190.414 44.2048C190.019 43.9667 189.687 43.6378 189.444 43.2456C189.201 42.8533 189.056 42.4088 189.019 41.949C189.017 41.91 189.031 41.8718 189.056 41.842C189.081 41.8123 189.117 41.7932 189.156 41.7888C189.175 41.7863 189.195 41.7879 189.214 41.7936C189.233 41.7993 189.251 41.8088 189.266 41.8217C189.281 41.8345 189.293 41.8504 189.302 41.8682C189.311 41.8861 189.315 41.9055 189.316 41.9253C189.352 42.3402 189.485 42.7408 189.705 43.0946C189.924 43.4484 190.224 43.7454 190.58 43.9614C193.269 45.7423 199.485 45.1487 201.42 44.555C203.094 44.0089 204.228 42.9463 204.453 41.7235C204.524 41.2747 204.468 40.8153 204.293 40.3961C204.118 39.977 203.83 39.6145 203.462 39.349C203.448 39.3357 203.436 39.3196 203.429 39.3017C203.421 39.2838 203.417 39.2646 203.417 39.2451C203.417 39.2256 203.421 39.2064 203.429 39.1885C203.436 39.1707 203.448 39.1546 203.462 39.1412C203.49 39.114 203.527 39.0988 203.566 39.0988C203.605 39.0988 203.642 39.114 203.67 39.1412C204.084 39.4436 204.406 39.8552 204.6 40.33C204.794 40.8049 204.852 41.3244 204.768 41.8303C204.525 43.166 203.319 44.3057 201.539 44.8875C199.82 45.3206 198.051 45.5163 196.279 45.4692Z" fill="#263238"/>
<path d="M177.087 50.6633C176.534 51.4387 176.306 52.3995 176.451 53.3405C176.647 54.5871 177.858 54.6703 178.737 53.8748C179.615 53.0794 180.381 51.6428 179.734 50.6099C179.59 50.3868 179.392 50.2042 179.157 50.0795C178.923 49.9548 178.661 49.8921 178.395 49.8975C178.13 49.9028 177.87 49.976 177.641 50.1101C177.412 50.2441 177.221 50.4346 177.087 50.6633Z" fill="#7F3E3B"/>
<path d="M177.425 97.6541C177.425 97.6541 180.31 131.781 183.308 151.014C185.724 166.549 187.635 202.861 187.635 202.861H194.414C194.414 202.861 196.824 167.636 195.602 152.273C192.497 113.391 199.425 110.221 192.295 97.66L177.425 97.6541Z" fill="#407BFF"/>
<path opacity="0.4" d="M185.962 110.553C183.275 113.373 181.107 116.645 179.557 120.218C180.346 127.887 181.284 136.4 182.281 143.855C186.373 133.261 187.642 121.785 185.962 110.553Z" fill="black"/>
<path d="M172.682 97.4405C172.682 97.4405 166.419 134.714 165.434 151.513C167.892 167.048 177.948 199.887 177.948 199.887L184.115 197.649C184.115 197.649 180.702 161.842 176.992 152.041C185.344 123.922 191.482 116.81 189.695 97.6542C185.415 97.6542 172.682 97.4405 172.682 97.4405Z" fill="#407BFF"/>
<path d="M177.123 201.526L185.457 199.264L184.982 195.94L176.06 198.356L177.123 201.526Z" fill="#263238"/>
<path d="M186.704 202.998H195.341L195.792 199.97L186.656 199.661L186.704 202.998Z" fill="#263238"/>
<path d="M192.592 96.4669L193.501 98.2774C193.572 98.4199 193.406 98.5623 193.174 98.5623H171.994C171.816 98.5623 171.661 98.4733 171.65 98.3546L171.466 96.5737C171.466 96.449 171.614 96.3422 171.81 96.3422H192.26C192.321 96.3338 192.384 96.3408 192.442 96.3626C192.5 96.3843 192.552 96.4202 192.592 96.4669Z" fill="#407BFF"/>
<path opacity="0.5" d="M192.592 96.4669L193.501 98.2774C193.572 98.4199 193.406 98.5623 193.174 98.5623H171.994C171.816 98.5623 171.661 98.4733 171.65 98.3546L171.466 96.5737C171.466 96.449 171.614 96.3422 171.81 96.3422H192.26C192.321 96.3338 192.384 96.3408 192.442 96.3626C192.5 96.3843 192.552 96.4202 192.592 96.4669Z" fill="black"/>
<path d="M189.844 98.7465H190.39C190.503 98.7465 190.586 98.6871 190.58 98.6218L190.319 96.2473C190.319 96.1761 190.218 96.1227 190.111 96.1227H189.559C189.452 96.1227 189.369 96.1761 189.375 96.2473L189.63 98.6218C189.642 98.699 189.737 98.7465 189.844 98.7465Z" fill="#407BFF"/>
<path d="M182.495 81.4603C182.43 81.4593 182.366 81.4375 182.314 81.398C182.262 81.3585 182.223 81.3034 182.204 81.2406C180.269 74.0816 176.268 68.181 174.327 67.2906C174.176 67.198 173.995 67.1681 173.822 67.2075C173.787 67.2264 173.747 67.2377 173.707 67.2409C173.666 67.244 173.626 67.2388 173.587 67.2256C173.549 67.2124 173.514 67.1915 173.484 67.1642C173.454 67.1369 173.43 67.1038 173.413 67.0668C173.397 67.0299 173.388 66.9899 173.387 66.9494C173.387 66.9089 173.394 66.8687 173.41 66.8313C173.425 66.7938 173.448 66.76 173.477 66.7318C173.507 66.7036 173.541 66.6816 173.579 66.6673C173.741 66.6077 173.915 66.5843 174.087 66.5987C174.259 66.613 174.426 66.6648 174.576 66.7504C176.63 67.724 180.691 73.5414 182.721 80.8607C184.175 80.8607 186.419 80.6648 186.965 80.6173C187.642 79.81 192.616 73.5889 190.758 66.7801C190.748 66.7427 190.744 66.7035 190.749 66.6648C190.754 66.6262 190.766 66.5889 190.786 66.5551C190.805 66.5213 190.831 66.4918 190.862 66.4682C190.893 66.4447 190.928 66.4276 190.966 66.418C191.042 66.398 191.122 66.4086 191.19 66.4475C191.258 66.4864 191.307 66.5504 191.328 66.6258C193.4 74.2003 187.393 81.0329 187.327 81.0982C187.304 81.127 187.275 81.1508 187.243 81.1681C187.21 81.1855 187.174 81.196 187.137 81.1991C187.108 81.1991 184.145 81.4603 182.495 81.4603Z" fill="#407BFF"/>
<path d="M192.331 85.6513C189.096 79.5904 187.772 79.163 187.196 77.2159C187.633 76.1272 188.255 75.1228 189.037 74.2479C188.645 74.1351 187.802 73.9689 187.256 73.8679C187.315 73.6008 187.38 73.3396 187.44 73.0844C186.846 73.0179 186.244 73.0459 185.659 73.1675V72.5739C184.905 72.4098 184.131 72.3598 183.362 72.4255C183.429 72.7064 183.494 72.9914 183.558 73.2803C182.964 73.3931 182.062 73.5771 181.628 73.7017C182.47 74.6554 183.089 75.785 183.439 77.0082C181.694 80.006 174.914 99.2748 185.944 100.753C196.973 102.231 195.561 91.718 192.331 85.6513Z" fill="#407BFF"/>
<path opacity="0.4" d="M192.331 85.6513C189.096 79.5904 187.772 79.163 187.196 77.2159C187.633 76.1272 188.255 75.1228 189.037 74.2479C188.645 74.1351 187.802 73.9689 187.256 73.8679C187.315 73.6008 187.38 73.3396 187.44 73.0844C186.846 73.0179 186.244 73.0459 185.659 73.1675V72.5739C184.905 72.4098 184.131 72.3598 183.362 72.4255C183.429 72.7064 183.494 72.9914 183.558 73.2803C182.964 73.3931 182.062 73.5771 181.628 73.7017C182.47 74.6554 183.089 75.785 183.439 77.0082C181.694 80.006 174.914 99.2748 185.944 100.753C196.973 102.231 195.561 91.718 192.331 85.6513Z" fill="white"/>
<path d="M182.987 76.4323C182.918 76.738 182.888 77.0511 182.898 77.3643C182.898 77.5839 183.492 77.7323 184.151 77.7976C184.809 77.8629 187.576 77.9698 187.487 77.6611C187.398 77.3524 187.623 76.931 187.635 76.6698C187.647 76.4086 186.537 76.3967 185.605 76.4323C184.673 76.4679 183.171 76.0999 182.987 76.4323Z" fill="#407BFF"/>
<path d="M176.57 98.7465H177.116C177.223 98.7465 177.306 98.6871 177.3 98.6218L177.045 96.2473C177.045 96.1761 176.944 96.1227 176.831 96.1227H176.303C176.196 96.1227 176.113 96.1761 176.119 96.2473L176.374 98.6218C176.362 98.699 176.457 98.7465 176.57 98.7465Z" fill="#407BFF"/>
</svg>
