<svg width="225" height="179" viewBox="0 0 225 179" fill="none" xmlns="http://www.w3.org/2000/svg">
<path d="M168.633 33.2574L160.128 33.4389L155.811 33.5102C154.365 33.5102 152.913 33.5102 151.468 33.5102H151.182V33.2185L151.144 25.9647V25.6406H151.468L160.05 25.6795C162.915 25.6795 165.774 25.7508 168.633 25.7832H168.814V25.9583C168.814 27.1899 168.756 28.4086 168.724 29.6208L168.633 33.2574ZM168.633 33.2574L168.542 29.5884C168.542 28.3826 168.471 27.1899 168.458 26.0036L168.633 26.1786C165.774 26.1786 162.915 26.2824 160.05 26.2824L151.468 26.3278L151.792 26.0036L151.759 33.2574L151.468 32.9657C152.881 32.9657 154.294 32.9656 155.714 33.0045L159.979 33.0758L168.633 33.2574Z" fill="#EBEBEB"/>
<path d="M159.046 42.4041L150.541 42.5856L146.218 42.6569C144.779 42.6569 143.327 42.6569 141.881 42.6893H141.596V42.3976L141.544 35.1569V34.8328H141.868L150.451 34.8717C153.309 34.8717 156.175 34.943 159.033 34.9754H159.215V35.1569C159.215 36.3885 159.163 37.6072 159.131 38.8194L159.046 42.4041ZM159.046 42.4041L158.955 38.7351C158.923 37.5294 158.884 36.3367 158.871 35.1504L159.046 35.3254C156.188 35.3578 153.322 35.4291 150.464 35.4291L141.881 35.4745L142.205 35.1504L142.192 42.4041L141.9 42.1124C143.314 42.1124 144.727 42.1124 146.146 42.1513L150.405 42.2226L159.046 42.4041Z" fill="#EBEBEB"/>
<path d="M178.209 42.4041L169.704 42.5856L165.387 42.6569C163.941 42.6569 162.496 42.6569 161.044 42.6893H160.759V42.3976L160.72 35.1569V34.8328H161.044L169.626 34.8717C172.492 34.8717 175.35 34.943 178.209 34.9754H178.391V35.1569C178.391 36.3885 178.332 37.6072 178.306 38.8194L178.209 42.4041ZM178.209 42.4041L178.118 38.7351C178.118 37.5294 178.047 36.3367 178.034 35.1504L178.209 35.3254C175.35 35.3578 172.492 35.4291 169.626 35.4291L161.044 35.4745L161.368 35.1504L161.336 42.4041L161.044 42.1124C162.463 42.1124 163.87 42.1124 165.29 42.1513L169.555 42.2226L178.209 42.4041Z" fill="#EBEBEB"/>
<path d="M28.6735 81.2528L20.1687 81.4343L15.845 81.5056C14.4059 81.5056 12.9539 81.5056 11.5083 81.538H11.249V81.2463V73.9926V73.6685H11.5731L20.1557 73.7073C23.0145 73.7073 25.8796 73.7787 28.7384 73.8111H28.9199V73.9861C28.9199 75.2177 28.868 76.4364 28.8356 77.6486L28.6735 81.2528ZM28.6735 81.2528L28.5828 77.5838C28.5828 76.3781 28.5115 75.1853 28.4985 73.9991L28.6735 74.1741C25.8148 74.2065 22.9496 74.2778 20.0909 74.2778L11.5083 74.3232L11.8324 73.9991L11.8 81.2528L11.5083 80.9611C12.9215 80.9611 14.3346 80.9611 15.7542 81L20.0131 81.0713L28.6735 81.2528Z" fill="#EBEBEB"/>
<path d="M17.8919 30.1101L9.38701 30.2916L5.06331 30.3629C3.62423 30.3629 2.17219 30.3629 0.72663 30.4018H0.441406V30.1101V22.8563V22.5322H0.765523L9.34812 22.5711C12.2068 22.5711 15.0721 22.6489 17.9308 22.6813H18.1122V22.8563C18.1122 24.088 18.0604 25.3131 18.028 26.5189L17.8919 30.1101ZM17.8919 30.1101L17.8011 26.4476C17.7687 25.2354 17.7298 24.0426 17.7168 22.8563L17.8919 23.0314C15.0332 23.0314 12.1679 23.1351 9.30923 23.1416L0.72663 23.1805L1.05075 22.8563L1.01834 30.1101L0.72663 29.8184C2.13978 29.8184 3.55292 29.8184 4.97255 29.8573L9.23145 29.9286L17.8919 30.1101Z" fill="#EBEBEB"/>
<path d="M27.4669 39.2564L18.962 39.4379L14.6448 39.5093C13.1993 39.5417 11.7472 39.5093 10.3017 39.5417H10.0164V39.25L9.97754 31.9962V31.6721H10.3017L18.8843 31.711C21.7494 31.711 24.6081 31.7888 27.4669 31.8212H27.6484V31.9962C27.6484 33.2279 27.59 34.453 27.5576 35.6588L27.4669 39.2564ZM27.4669 39.2564L27.3761 35.5939C27.3761 34.3817 27.3048 33.189 27.2919 32.0027L27.4669 32.1777C24.6081 32.2102 21.7494 32.2815 18.8843 32.2879L10.3017 32.3268L10.6258 32.0027V39.2564L10.3341 38.9647C11.7472 38.9647 13.1603 38.9647 14.58 39.0036L18.8454 39.0749L27.4669 39.2564Z" fill="#EBEBEB"/>
<path d="M18.1249 12.1296L9.61358 12.3111L5.29635 12.3824C3.85728 12.3824 2.40523 12.3824 0.959674 12.4213H0.667969V12.1296V4.87587V4.55176H0.998567L9.58117 4.59713C12.4399 4.59713 15.2986 4.66844 18.1638 4.70085H18.3388V4.87587C18.3388 6.10752 18.2805 7.33268 18.2545 8.54487L18.1249 12.1296ZM18.1249 12.1296L18.0277 8.46709C18.0277 7.25489 17.9563 6.06214 17.9434 4.87587L18.1249 5.0509C15.2597 5.08979 12.401 5.15461 9.54228 5.1611L0.959674 5.19999L1.28379 4.87587L1.2449 12.1296L0.959674 11.8768C2.37282 11.8768 3.77949 11.8768 5.19912 11.8768L9.46449 11.9481L18.1249 12.1296Z" fill="#EBEBEB"/>
<path d="M3.01758 172.33H82.5299L66.6741 80.1055H7.21813L3.01758 172.33Z" fill="#DBDBDB"/>
<path d="M3.01758 172.33H9.98609L13.9014 80.1055H7.21813L3.01758 172.33Z" fill="#A6A6A6"/>
<path d="M50.1437 39.8827C42.7603 47.2271 40.6406 59.3297 40.6406 59.3297C40.6406 59.3297 33.5619 71.51 35.539 78.1284C36.062 80.005 37.0323 81.7267 38.3668 83.1459C39.7013 84.5651 41.3602 85.6394 43.2011 86.2767L42.501 82.6207C42.501 82.6207 44.8736 87.3204 52.8014 89.2132C60.7293 91.1061 71.2177 88.6687 76.6759 85.9072C79.9109 84.2877 82.6712 81.8579 84.688 78.8544L82.6461 84.1699C82.6461 84.1699 90.3406 83.8977 94.9107 75.7105C99.4807 67.5233 86.354 55.7579 85.239 53.2233C84.1241 50.6887 82.7109 32.2206 63.2834 35.4034C63.3093 35.358 55.2518 34.8264 50.1437 39.8827Z" fill="#263238"/>
<path d="M40.4204 85.7516C38.3979 84.2413 36.4013 82.5105 35.2863 80.3713C34.0706 78.1541 33.6389 75.5913 34.0612 73.0981C34.5992 70.1098 36.1744 67.4715 37.7043 64.898C39.2341 62.3245 41.0751 59.7121 42.6114 57.009C42.6957 56.8599 42.4688 56.7367 42.3651 56.8534C40.6389 58.8806 39.0287 61.0037 37.5422 63.2126C36.0214 65.2324 34.7422 67.4232 33.7306 69.7403C32.7851 71.8739 32.4745 74.2347 32.836 76.5403C33.2184 78.4142 34.0504 80.1672 35.2604 81.6483C36.693 83.431 38.5016 84.5719 40.3166 85.9137C40.4204 85.998 40.5306 85.8359 40.4204 85.7516Z" fill="#263238"/>
<path d="M96.5762 67.2444C94.2425 60.4444 88.1491 56.1272 84.4088 50.1958C82.3993 46.9871 80.8371 43.4348 78.2182 40.6474C78.1469 40.5696 78.0173 40.6927 78.0821 40.7705C80.2342 43.2792 81.4788 46.2999 83.0346 49.1975C84.6921 52.049 86.6291 54.7286 88.8168 57.1967C92.6673 61.8122 97.2763 67.2768 96.3947 73.7397C95.9863 76.7215 94.2231 80.0275 91.1634 80.9545C91.0467 80.9934 91.118 81.1878 91.2347 81.136C92.4414 80.6515 93.5368 79.9263 94.454 79.0046C95.3712 78.083 96.0911 76.9841 96.5697 75.7751C97.6007 73.0254 97.603 69.9956 96.5762 67.2444Z" fill="#263238"/>
<path d="M96.8554 69.0725C97.0659 66.4971 96.4725 63.9197 95.157 61.6956C93.8152 59.5046 91.7084 57.9229 89.6017 56.5098C87.1708 54.8957 84.6103 53.3593 83.0675 50.7988C83.0027 50.6886 82.8471 50.7988 82.9054 50.909C85.3557 55.1355 90.036 57.1061 93.167 60.6649C96.7647 64.7293 96.7711 70.6477 94.2949 75.2955C92.7211 78.1287 90.5 80.5498 87.8126 82.3613C87.7672 82.3613 87.8126 82.4585 87.8644 82.4261C92.4474 79.4183 96.4859 74.7899 96.8554 69.0725Z" fill="#263238"/>
<path d="M67.4785 100.052C87.1523 110.851 110.703 124.406 125.132 121.217C131.53 119.803 160.26 82.1411 161.479 77.785C162.522 74.0447 136.509 58.9862 133.605 61.9357C128.704 66.8817 115.454 94.7298 113.509 95.1965C111.565 95.6633 95.0478 92.3119 77.8567 89.2069C61.3138 86.238 53.8202 92.5582 67.4785 100.052Z" fill="#FED1C7"/>
<path d="M158.683 82.4781C160.925 79.6518 170.078 65.7926 171.757 61.3651C173.436 56.9377 177.365 43.8628 174.111 42.2163C170.856 40.5698 169.417 44.2972 169.417 44.2972C169.417 44.2972 170.202 38.5084 166.773 37.1666C163.343 35.8248 161.269 41.7042 161.269 41.7042C161.269 41.7042 161.639 35.7016 158.119 34.5737C154.599 33.4457 153.51 39.7595 153.51 39.7595C153.51 39.7595 154.106 34.2884 150.826 34.5737C146.885 34.9561 146.937 45.1723 144.707 49.9173C144.201 50.9934 132.902 71.0368 132.902 71.0368L158.683 82.4781Z" fill="#FED1C7"/>
<path d="M153.589 39.2474C153.589 46.7604 152.293 50.0535 148.403 56.3154C148.326 56.4321 148.488 56.5747 148.585 56.458C152.993 50.6758 155.21 46.7864 153.978 39.228C153.894 38.8585 153.589 38.8909 153.589 39.2474Z" fill="#263238"/>
<path d="M161.231 41.1143C160.583 48.8931 159.196 52.4973 155.559 59.3621C155.507 59.4593 155.669 59.5566 155.727 59.4593C159.857 53.0288 161.983 49.0876 161.62 41.2115C161.639 40.855 161.263 40.7578 161.231 41.1143Z" fill="#263238"/>
<path d="M169.198 44.6407C168.011 52.1473 166.676 56.1404 162.294 62.3505C162.282 62.3645 162.274 62.3807 162.269 62.3981C162.263 62.4154 162.262 62.4337 162.263 62.4517C162.265 62.4698 162.271 62.4873 162.279 62.5033C162.288 62.5193 162.299 62.5334 162.313 62.5449C162.327 62.5564 162.344 62.565 162.361 62.5703C162.378 62.5755 162.397 62.5773 162.415 62.5755C162.433 62.5737 162.45 62.5683 162.466 62.5598C162.482 62.5512 162.496 62.5395 162.508 62.5255C167.596 56.6266 169.301 51.6611 169.425 44.6991C169.418 44.2323 169.275 44.1675 169.198 44.6407Z" fill="#263238"/>
<path d="M127.335 73.3057C127.335 73.3057 126.784 63.9128 127.458 59.7317C128.132 55.5506 136.359 40.8876 139.6 42.4822C143.82 44.5501 140.734 53.9495 138.621 58.3575C138.621 58.3575 148.383 63.1155 147.631 70.3433C146.879 77.5711 127.335 73.3057 127.335 73.3057Z" fill="#FED1C7"/>
<path d="M140.597 43.4286C143.086 48.0894 139.948 53.6966 138.211 58.124C138.183 58.188 138.17 58.2579 138.175 58.3278C138.179 58.3976 138.2 58.4653 138.237 58.5251C138.273 58.585 138.323 58.6352 138.383 58.6714C138.443 58.7077 138.511 58.7289 138.581 58.7334C142.541 61.0022 147.468 65.3583 147.889 70.1553C147.889 70.1845 147.901 70.2125 147.921 70.2332C147.942 70.2538 147.97 70.2655 147.999 70.2655C148.029 70.2655 148.057 70.2538 148.077 70.2332C148.098 70.2125 148.11 70.1845 148.11 70.1553C148.356 64.9694 143.864 60.2762 139.371 58.0657C141.212 53.5281 144.123 47.7912 140.668 43.4027C140.622 43.3832 140.584 43.4027 140.597 43.4286Z" fill="#263238"/>
<path d="M108.827 93.6602L85.1475 113.509C85.1475 113.509 70.6919 105.99 60.0155 97.3487C49.3391 88.7077 61.1629 84.5072 79.4949 87.5863C97.8269 90.6654 108.827 93.6602 108.827 93.6602Z" fill="#4584FF"/>
<path d="M80.7789 97.6468C80.1079 96.731 79.3312 95.8977 78.4647 95.1641C79.4236 97.2249 80.8089 99.0587 82.5291 100.544C82.0644 99.5116 81.4768 98.5387 80.7789 97.6468ZM60.0354 97.3616L60.3206 97.582C60.5086 97.381 60.6966 97.1671 60.8716 96.9337C60.5735 97.0699 60.2947 97.2125 60.0225 97.3875L60.0354 97.3616ZM99.6749 97.4912C98.5547 97.3268 97.4193 97.292 96.2911 97.3875C97.3493 97.7868 98.4499 98.063 99.5712 98.2108C100.691 98.3806 101.827 98.4176 102.955 98.321C101.893 97.9179 100.788 97.6395 99.6619 97.4912H99.6749ZM91.747 89.8162C91.7324 90.2488 91.7475 90.682 91.7924 91.1126C91.9505 90.7236 92.0847 90.3253 92.1943 89.9199L91.747 89.8162Z" fill="white"/>
<path d="M79.8445 109.27C84.6608 104.641 89.8078 100.343 95.0261 96.1559C96.5041 94.9761 98.008 93.8222 99.5637 92.7138C99.6091 92.6814 99.6674 92.7138 99.6221 92.7721C97.1717 95.0344 94.6242 97.193 92.0896 99.3646C89.555 101.536 86.988 103.708 84.3886 105.815C82.9171 107.007 81.4521 108.2 79.9612 109.36C79.8704 109.406 79.7861 109.328 79.8445 109.27Z" fill="#263238"/>
<path d="M95.2085 105.076L85.1415 113.503C85.1415 113.503 70.6859 105.99 60.0095 97.3486C56.2173 94.2825 55.2644 91.7803 56.4247 89.9587L95.2085 105.076Z" fill="#263238"/>
<path d="M90.3329 172.252H14.8721C14.8721 172.252 31.2659 108.939 46.441 91.1125C46.7781 90.7041 47.1282 90.3152 47.4782 89.9521C47.5495 89.8679 47.6143 89.8095 47.6856 89.7382C48.8604 88.4833 50.2281 87.4241 51.7371 86.6008C52.0029 86.4582 52.2687 86.322 52.5474 86.2054C58.3815 83.5152 64.5656 85.7451 69.019 89.5567C70.4321 90.7625 86.4305 111.597 87.8178 119.512C89.0429 126.519 84.3108 134.045 84.3108 134.045L90.3329 172.252Z" fill="#4584FF"/>
<path d="M73.0069 131.336C69.7939 131.649 66.6087 132.202 63.4779 132.989C61.9221 133.403 60.4052 133.883 58.8819 134.395C58.1234 134.655 57.365 134.888 56.6001 135.115C55.8037 135.374 54.9787 135.535 54.1433 135.595C54.1278 135.595 54.113 135.601 54.102 135.612C54.0911 135.623 54.085 135.637 54.085 135.653C54.085 135.668 54.0911 135.683 54.102 135.694C54.113 135.705 54.1278 135.711 54.1433 135.711C54.9347 135.745 55.7275 135.723 56.5158 135.646C57.2749 135.551 58.0265 135.404 58.7652 135.206C60.3469 134.797 61.9027 134.324 63.4779 133.909C66.6542 133.066 69.8241 132.224 73.0523 131.608C73.0884 131.602 73.1206 131.582 73.1419 131.552C73.1631 131.522 73.1717 131.485 73.1657 131.449C73.1597 131.413 73.1396 131.381 73.1098 131.359C73.08 131.338 73.043 131.33 73.0069 131.336Z" fill="#263238"/>
<path d="M80.98 134.116C78.3281 133.861 75.664 133.755 73.0002 133.799C71.7037 133.831 70.3489 133.935 69.02 134.071C68.3718 134.142 67.7236 134.22 67.1272 134.304C66.5308 134.389 65.7529 134.583 65.0593 134.667C64.988 134.667 64.988 134.791 65.0593 134.784C65.7076 134.726 66.3882 134.784 67.0494 134.752L69.0395 134.68C70.336 134.641 71.6908 134.609 73.0196 134.551C75.6774 134.44 78.3287 134.356 80.9864 134.33C81.129 134.337 81.1161 134.129 80.98 134.116Z" fill="#263238"/>
<path d="M39.2722 105.996C38.9157 105.542 38.5527 105.095 38.1572 104.699L37.8785 105.283C38.1378 105.685 38.4165 106.08 38.7018 106.463C39.3733 107.372 40.1501 108.199 41.016 108.926C40.5428 107.889 39.9581 106.906 39.2722 105.996ZM48.0298 89.3881C47.8978 90.4005 47.8761 91.4242 47.965 92.4413C48.3677 91.3783 48.6398 90.2703 48.7753 89.1417C48.7753 88.9732 48.8207 88.7982 48.8401 88.6296C48.5679 88.8695 48.2956 89.1223 48.0298 89.3881ZM70.9319 110.482C70.5282 111.543 70.2498 112.648 70.1022 113.775C69.9389 114.897 69.9019 116.034 69.992 117.165C70.399 116.105 70.6734 114.999 70.8088 113.872C70.9867 112.751 71.028 111.612 70.9319 110.482ZM56.5087 146.99C56.1092 148.048 55.8351 149.149 55.6919 150.27C55.5276 151.392 55.4928 152.53 55.5882 153.66C56.3587 151.526 56.6723 149.253 56.5087 146.99ZM31.9925 119.427C31.5967 120.493 31.3227 121.6 31.1758 122.727C31.0108 123.847 30.976 124.982 31.0721 126.11C31.4688 125.048 31.7407 123.943 31.8823 122.817C32.0522 121.696 32.0892 120.558 31.9925 119.427ZM52.2822 114.799C51.1621 114.634 50.0266 114.6 48.8985 114.695C49.9566 115.094 51.0572 115.371 52.1785 115.518C53.2982 115.688 54.434 115.725 55.5623 115.629C54.5077 115.218 53.4093 114.931 52.2887 114.773L52.2822 114.799ZM79.4302 145.914C78.3079 145.749 77.1703 145.715 76.04 145.81C78.1745 146.581 80.4469 146.894 82.7103 146.731C81.6543 146.33 80.556 146.052 79.4367 145.901L79.4302 145.914ZM28.7514 142.926C27.6504 142.766 26.5354 142.727 25.4259 142.809H25.3611H25.4195C26.4666 143.195 27.5538 143.463 28.6606 143.606C29.7808 143.771 30.9162 143.806 32.0444 143.71C30.9807 143.322 29.8757 143.059 28.7514 142.926ZM57.2218 169.691C56.1016 169.527 54.9662 169.492 53.838 169.587C55.9743 170.359 58.2497 170.671 60.5148 170.501C59.443 170.106 58.3294 169.834 57.1959 169.691H57.2218ZM26.5992 166.411C25.4769 166.247 24.3393 166.212 23.209 166.307C24.2678 166.702 25.3683 166.974 26.489 167.118C27.6105 167.292 28.7493 167.327 29.8793 167.221C28.8121 166.825 27.7028 166.553 26.5733 166.411H26.5992ZM57.9608 98.6837C57.0476 99.3628 56.2147 100.144 55.478 101.011C56.5124 100.54 57.4908 99.9553 58.3951 99.2671C59.3065 98.5905 60.1335 97.807 60.8584 96.9335C59.8311 97.4085 58.8593 97.9955 57.9608 98.6837ZM66.0378 133.384C65.1268 134.053 64.2997 134.83 63.5745 135.698C64.6057 135.23 65.5783 134.643 66.4721 133.948C67.3846 133.28 68.2118 132.503 68.9354 131.633C67.9048 132.108 66.9325 132.699 66.0378 133.397V133.384ZM37.7164 154.594C36.8003 155.262 35.9706 156.042 35.2467 156.914C36.274 156.439 37.2457 155.853 38.1443 155.164C39.0555 154.488 39.8883 153.712 40.627 152.85C39.5863 153.31 38.6083 153.9 37.7164 154.607V154.594ZM84.7522 124.082C84.0813 123.166 83.3045 122.332 82.4381 121.599C83.3969 123.66 84.7823 125.493 86.5025 126.979C86.0369 125.951 85.4492 124.982 84.7522 124.094V124.082ZM75.1001 163.345C74.4238 162.434 73.6475 161.601 72.7859 160.862C73.2403 161.903 73.8263 162.881 74.5296 163.773C75.1993 164.686 75.9763 165.515 76.8438 166.243C76.371 165.215 75.7862 164.244 75.1001 163.345ZM46.6815 132.463C46.0087 131.549 45.2321 130.716 44.3673 129.98C44.8269 131.02 45.4149 131.998 46.1175 132.891C46.7853 133.806 47.5625 134.635 48.4317 135.361C47.9597 134.332 47.3725 133.36 46.6815 132.463Z" fill="white"/>
<path d="M44.899 91.6051C30.3851 103.306 -6.78459 149.674 1.59706 160.389C9.97872 171.104 65.6879 166.223 81.8613 161.154C86.6712 159.65 73.5509 129.125 68.3521 127.718C64.0219 126.545 40.0114 133.643 39.5446 132.256C39.0196 130.687 45.476 122.007 53.6826 103.202C63.1468 81.5121 51.3101 86.4387 44.899 91.6051Z" fill="#FED1C7"/>
<path d="M94.5742 125.171C105.665 126.467 108.317 128.483 118.254 124.594C124.775 122.047 129.203 125.113 124.432 130.616C116.653 139.62 101.977 140.988 96.7588 139.977L94.5742 125.171Z" fill="#FED1C7"/>
<path d="M63.4658 128.107C63.4658 128.107 77.2278 124.548 89.1812 124.743C97.4527 124.879 115.409 127.18 127.596 148.643C130.487 153.732 130.999 163.04 123.252 156.422C117.755 151.735 115.687 147.1 111.993 144.955C111.993 144.955 111.234 156.863 106.022 159.566C101.464 161.923 96.7437 163.953 91.8973 165.64C91.3839 164.824 90.9248 163.975 90.5231 163.099C90.5231 163.099 85.415 165.16 77.5584 162.301L63.4658 128.107Z" fill="#FED1C7"/>
<path d="M97.0557 126.136C100.297 129.041 106.987 135.302 110.669 142.342C114.791 150.16 120.625 166.327 114.824 169.315C110.571 171.506 107.797 165.523 107.797 165.523C107.797 165.523 108.802 172.718 104.556 173.853C100.666 174.89 98.7929 170.132 98.7929 170.132C98.7929 170.132 98.6503 174.598 94.7091 174.877C89.964 175.201 91.0401 165.802 85.9449 161.971C84.7976 161.109 97.0557 126.136 97.0557 126.136Z" fill="#FED1C7"/>
<path d="M101.711 145.357C104.304 148.598 108.264 157.414 107.927 165.407C107.927 165.588 107.778 165.679 107.752 165.511C106.536 158.589 104.484 151.841 101.639 145.415C101.632 145.406 101.628 145.394 101.629 145.382C101.63 145.369 101.636 145.358 101.646 145.35C101.655 145.343 101.667 145.339 101.68 145.34C101.692 145.342 101.703 145.348 101.711 145.357Z" fill="#263238"/>
<path d="M93.9381 149.713C95.8828 152.727 99.5713 162.029 98.949 170.1C98.949 170.281 98.7869 170.359 98.7675 170.191C97.9108 163.212 96.2645 156.353 93.8604 149.745C93.8602 149.736 93.8628 149.727 93.8678 149.72C93.8728 149.712 93.8799 149.706 93.8883 149.703C93.8966 149.699 93.9059 149.698 93.9148 149.7C93.9236 149.702 93.9318 149.706 93.9381 149.713Z" fill="#263238"/>
<path d="M112.01 144.903C115.251 146.848 117.06 149.136 119.471 151.943C120.65 153.349 121.905 154.688 123.231 155.956C124.45 157.09 126.245 158.795 128.073 157.985C129.091 157.531 129.37 156.312 129.454 155.301C129.534 154.164 129.368 153.023 128.968 151.956C128.968 151.904 129.046 151.865 129.065 151.924C129.463 152.865 129.725 153.858 129.843 154.873C129.997 155.827 129.859 156.805 129.448 157.68C128.436 159.469 126.103 159.132 124.638 158.192C123.771 157.592 122.966 156.908 122.233 156.15C121.513 155.443 120.826 154.705 120.158 153.953C118.791 152.397 117.514 150.77 116.165 149.208C114.844 147.718 113.428 146.315 111.926 145.007C111.867 144.955 111.945 144.864 112.01 144.903Z" fill="#263238"/>
<path d="M116.132 159.073C115.75 156.85 113.001 147.295 111.912 144.968C111.906 144.956 111.904 144.942 111.907 144.928C111.911 144.915 111.92 144.903 111.932 144.897C111.944 144.89 111.958 144.888 111.972 144.891C111.985 144.895 111.996 144.904 112.003 144.916C114.058 148.203 116.651 156.182 117.105 158.639C117.559 161.096 117.993 164.136 117.364 166.554C116.418 170.197 113.825 170.262 112.885 170.21C111.774 170.129 110.725 169.672 109.909 168.914C108.981 167.945 108.257 166.798 107.783 165.543C107.783 165.484 107.842 165.433 107.874 165.491C108.769 167.254 110.499 169.218 112.548 169.471C113.001 169.541 113.464 169.52 113.91 169.409C114.355 169.298 114.774 169.098 115.141 168.823C115.91 168.086 116.387 167.096 116.482 166.035C116.765 163.712 116.647 161.357 116.132 159.073Z" fill="#263238"/>
<path d="M98.9493 170.1C99.3448 170.664 99.9995 172.446 101.575 173.198C102.122 173.51 102.738 173.685 103.368 173.706C103.998 173.728 104.624 173.596 105.192 173.321C106.275 172.649 107.053 171.582 107.363 170.346C107.625 168.764 107.766 167.165 107.785 165.562C107.785 165.484 107.882 165.478 107.888 165.562C108.09 167.301 108.029 169.06 107.707 170.78C107.555 171.454 107.269 172.091 106.867 172.653C106.466 173.215 105.955 173.692 105.367 174.054C104.744 174.394 104.038 174.556 103.329 174.52C102.62 174.485 101.934 174.254 101.348 173.853C100.758 173.445 99.0466 171.597 98.7549 170.145C98.7614 170.1 98.9299 170.074 98.9493 170.1Z" fill="#263238"/>
<path d="M86.445 161.401C86.9137 161.92 87.3205 162.492 87.6572 163.105C88.0397 163.754 88.4027 164.369 88.7462 165.018C89.4291 166.328 89.9743 167.705 90.3733 169.127C90.7882 170.554 91.1123 172.109 92.0911 173.283C92.5493 173.863 93.1784 174.284 93.8893 174.486C94.6002 174.689 95.3568 174.662 96.0518 174.411C96.7876 174.118 97.3992 173.58 97.7826 172.887C98.227 172.14 98.524 171.315 98.6577 170.456C98.6548 170.448 98.6538 170.44 98.6549 170.432C98.6559 170.423 98.659 170.416 98.6638 170.409C98.6685 170.402 98.6749 170.396 98.6823 170.392C98.6897 170.388 98.698 170.386 98.7063 170.386C98.7147 170.386 98.723 170.388 98.7304 170.392C98.7378 170.396 98.7441 170.402 98.7489 170.409C98.7537 170.416 98.7567 170.423 98.7578 170.432C98.7588 170.44 98.7579 170.448 98.755 170.456C98.6996 171.235 98.5649 172.006 98.3531 172.758C98.108 173.433 97.69 174.032 97.1409 174.495C96.5652 174.935 95.8795 175.207 95.159 175.283C94.4386 175.358 93.7113 175.234 93.057 174.923C91.6049 174.274 90.7882 172.809 90.2826 171.357C89.7186 169.743 89.3426 168.077 88.7009 166.483C88.3703 165.64 88.0526 164.797 87.6507 163.987C87.2488 163.177 86.6913 162.334 86.3543 161.465C86.3154 161.413 86.3932 161.342 86.445 161.401Z" fill="#263238"/>
<path d="M81.3814 163.41C83.4307 163.706 85.5035 163.808 87.572 163.715C87.6368 163.715 87.6757 163.903 87.6109 163.916C86.5854 164.108 85.5422 164.188 84.4994 164.155C83.4422 164.111 82.3976 163.908 81.4008 163.553C81.3166 163.507 81.3166 163.397 81.3814 163.41Z" fill="#263238"/>
<path d="M17.7308 139.199C21.196 137.526 24.777 136.105 28.4461 134.946C32.0768 133.811 35.786 132.945 39.5438 132.353C41.6895 131.997 43.8416 131.744 46.0262 131.478C46.091 131.478 46.104 131.569 46.0262 131.576C42.2503 132.187 38.5126 133.014 34.8312 134.052C31.1665 135.05 27.5234 136.115 23.902 137.248C21.8536 137.896 19.8311 138.622 17.8021 139.328C17.7308 139.38 17.666 139.244 17.7308 139.199Z" fill="#263238"/>
<path d="M14.5742 119.758L45.294 123.097C45.294 123.097 53.1311 108.835 57.2085 95.6958C61.2859 82.5561 49.7085 85.1101 36.1798 97.8479C22.6512 110.586 14.5742 119.758 14.5742 119.758Z" fill="#4584FF"/>
<path d="M14.5742 119.758L45.294 123.097C45.294 123.097 53.1311 108.835 57.2085 95.6958C61.2859 82.5561 49.7085 85.1101 36.1798 97.8479C22.6512 110.586 14.5742 119.758 14.5742 119.758Z" fill="#4584FF"/>
<path d="M48.0814 88.9605C48.0846 88.9928 48.0846 89.0254 48.0814 89.0577C47.9169 90.1801 47.8821 91.3177 47.9777 92.448C48.3804 91.385 48.6525 90.2771 48.788 89.1485C48.788 88.954 48.8398 88.766 48.8593 88.5715L48.0814 88.9605ZM31.9923 119.427C31.7109 120.135 31.4939 120.866 31.344 121.612L31.9923 121.677C32.0635 120.929 32.0635 120.176 31.9923 119.427ZM21.3353 112.511L21.0371 112.822C21.3742 112.822 21.6853 112.822 22.0548 112.764C21.8085 112.666 21.5751 112.582 21.3353 112.511ZM48.9047 114.669C49.0862 114.741 49.2741 114.812 49.4621 114.87C49.4957 114.786 49.5347 114.704 49.5788 114.624C49.3584 114.631 49.1315 114.643 48.9047 114.669ZM39.2719 105.996C38.5956 105.085 37.8194 104.252 36.9577 103.513C37.4135 104.555 37.9995 105.535 38.7015 106.43C39.373 107.34 40.1498 108.167 41.0157 108.894C40.5404 107.868 39.9558 106.896 39.2719 105.996Z" fill="white"/>
<path d="M44.0505 122.811C44.2191 122.811 45.347 122.811 45.347 122.811C45.4831 122.416 48.1279 116.329 48.7761 115.033C50.1115 112.368 51.6024 109.775 53.0545 107.176C53.0999 107.092 53.2295 107.176 53.1841 107.234C52.1599 109.503 51.1746 111.772 50.1309 114.054C50.3902 113.749 50.6495 113.444 50.9023 113.133C51.4144 112.485 51.8812 111.837 52.3673 111.15C52.4127 111.091 52.5035 111.15 52.4711 111.221C52.0072 112.159 51.4208 113.031 50.7273 113.814C50.4329 114.158 50.1145 114.481 49.7744 114.78C49.6901 114.968 49.6059 115.162 49.5151 115.344C48.8669 116.64 45.6711 123.174 45.5544 123.168L44.0765 122.986C43.9663 123.012 43.9663 122.805 44.0505 122.811Z" fill="#263238"/>
<path d="M20.3629 114.54C27.0267 114.987 33.6711 115.901 40.2766 116.938C42.1521 117.236 44.0147 117.576 45.8644 117.956C45.9162 117.956 45.9162 118.047 45.8644 118.04C42.5454 117.749 39.2329 117.321 35.9205 116.912C32.608 116.504 29.2696 116.063 25.9571 115.538C24.0902 115.253 22.2168 114.968 20.3564 114.65C20.2786 114.656 20.2786 114.533 20.3629 114.54Z" fill="#263238"/>
<path d="M55.6729 87.0805C55.7895 88.4288 60.8069 97.8023 66.816 98.3792C68.7607 98.5607 70.2581 87.9232 70.2581 87.9232L70.5433 87.1648L74.5818 76.5208L62.8488 66.3759L61.1439 65.0146C61.1439 65.0146 60.2299 67.9965 59.1344 71.7239C59.0826 71.8989 59.0242 72.0739 58.9724 72.2554C58.9205 72.4369 58.8427 72.6638 58.7844 72.8583C58.6158 73.4158 58.4408 73.9797 58.2852 74.5502C58.1621 74.9845 58.0389 75.4058 57.9222 75.8466C57.8055 76.2874 57.6889 76.7541 57.5592 77.2079C56.7064 80.452 56.0762 83.7505 55.6729 87.0805Z" fill="#FED1C7"/>
<path d="M59.1338 71.7239C59.8019 74.971 61.1684 78.034 63.1385 80.7003C65.1085 83.3666 67.635 85.5724 70.5427 87.1648L74.5812 76.5208L62.8482 66.3759L61.1433 65.0146C61.1433 65.0146 60.2293 67.9965 59.1338 71.7239Z" fill="#263238"/>
<path d="M78.133 60.1725C79.1637 64.7101 83.2476 67.6984 87.2537 66.7974C91.2598 65.8964 93.6647 61.456 92.634 56.8924C91.6033 52.3288 87.5194 49.3599 83.5134 50.2675C79.5073 51.175 77.1023 55.6024 78.133 60.1725Z" fill="#455A64"/>
<path d="M75.8462 60.9889C77 66.0646 81.5376 69.3641 85.9975 68.3593C90.4573 67.3546 93.128 62.4215 91.9807 57.3394C90.8333 52.2572 86.2892 48.9642 81.8358 49.969C77.3825 50.9737 74.6988 55.9003 75.8462 60.9889Z" fill="#C7C7C7"/>
<path d="M88.9536 54.4937C94.3988 73.7138 83.502 79.1266 79.3533 80.3193C75.5871 81.3824 62.6354 84.5199 55.2326 65.961C47.8297 47.4021 55.0446 38.7935 63.5235 35.9089C72.0023 33.0242 83.5085 35.2671 88.9536 54.4937Z" fill="#FED1C7"/>
<path d="M82.2643 52.0758C81.8077 52.1211 81.3488 52.1406 80.89 52.1341C80.4076 52.2263 79.9083 52.1556 79.4704 51.9332C79.3457 51.8368 79.2564 51.7019 79.2166 51.5494C79.1767 51.3969 79.1884 51.2356 79.25 51.0905C79.4154 50.8234 79.6493 50.6055 79.9275 50.4596C80.2057 50.3137 80.5179 50.245 80.8317 50.2608C81.4703 50.1898 82.1124 50.3584 82.6338 50.734C82.7463 50.8281 82.8293 50.9526 82.873 51.0926C82.9168 51.2326 82.9193 51.3822 82.8803 51.5237C82.8414 51.6651 82.7626 51.7923 82.6534 51.8902C82.5442 51.9881 82.4091 52.0525 82.2643 52.0758Z" fill="#263238"/>
<path d="M69.5905 56.5486C70.031 56.4122 70.4638 56.252 70.887 56.0689C71.3669 55.9629 71.7992 55.7035 72.1186 55.3299C72.1943 55.1919 72.2226 55.0327 72.1992 54.877C72.1758 54.7213 72.1019 54.5775 71.989 54.4678C71.7319 54.2868 71.4312 54.1776 71.1179 54.1514C70.8046 54.1252 70.4899 54.183 70.2063 54.3187C69.5915 54.5037 69.0672 54.9102 68.7348 55.4596C68.6666 55.5892 68.6373 55.7358 68.6506 55.8816C68.6638 56.0275 68.719 56.1664 68.8095 56.2816C68.9 56.3968 69.0219 56.4833 69.1605 56.5306C69.2991 56.578 69.4484 56.5843 69.5905 56.5486Z" fill="#263238"/>
<path d="M73.4789 59.9392C73.4789 59.8873 73.3946 60.0299 73.4141 60.0818C73.8289 61.3782 74.0623 62.934 73.0251 63.7054C72.9927 63.7054 73.0251 63.7897 73.0576 63.7767C74.4318 63.1609 74.0688 61.0865 73.4789 59.9392Z" fill="#263238"/>
<path d="M71.9108 58.9021C69.7587 59.3429 70.7959 63.6083 72.7924 63.1999C74.789 62.7915 73.7129 58.5326 71.9108 58.9021Z" fill="#263238"/>
<path d="M71.1257 59.3299C70.8146 59.6669 70.5488 60.179 70.1145 60.3346C69.6802 60.4902 69.1032 60.1596 68.6624 59.8096C68.6171 59.7771 68.5846 59.8096 68.5976 59.8809C68.7856 60.6976 69.3042 61.4625 70.2117 61.3718C71.1192 61.281 71.4369 60.4254 71.4369 59.5503C71.4434 59.3882 71.2554 59.2002 71.1257 59.3299Z" fill="#263238"/>
<path d="M81.0576 57.5987C81.0576 57.5469 81.1808 57.6376 81.1873 57.6895C81.4595 59.0248 81.9911 60.5093 83.294 60.6649C83.3329 60.6649 83.3459 60.7362 83.294 60.7427C81.7901 60.8788 81.103 58.9017 81.0576 57.5987Z" fill="#263238"/>
<path d="M81.907 55.9394C83.9943 55.2912 85.1482 59.5047 83.2035 60.1205C81.2588 60.7363 80.1633 56.4904 81.907 55.9394Z" fill="#263238"/>
<path d="M82.8797 55.9718C83.2751 56.1014 83.7159 56.419 84.1243 56.3348C84.5327 56.2505 84.8114 55.6865 84.9864 55.1615C84.9864 55.1096 85.0513 55.1615 85.0642 55.1615C85.3106 55.9653 85.2781 56.8793 84.5392 57.2488C83.8002 57.6183 83.1584 57.0349 82.7436 56.2829C82.6658 56.1792 82.7176 55.9005 82.8797 55.9718Z" fill="#263238"/>
<path d="M76.4744 70.5959C76.8504 70.8487 77.2523 71.2441 77.7709 71.1598C78.2668 71.0523 78.7349 70.8426 79.1452 70.544C79.1529 70.5345 79.1641 70.5285 79.1762 70.5273C79.1884 70.5261 79.2005 70.5298 79.21 70.5375C79.2194 70.5453 79.2254 70.5564 79.2266 70.5686C79.2279 70.5807 79.2242 70.5929 79.2165 70.6023C79.0761 70.902 78.8575 71.1584 78.5837 71.3443C78.3099 71.5302 77.9911 71.6389 77.6607 71.659C77.3714 71.6445 77.0931 71.5434 76.862 71.3689C76.6308 71.1943 76.4574 70.9544 76.3642 70.6801C76.3189 70.6088 76.4161 70.5634 76.4744 70.5959Z" fill="#263238"/>
<path d="M80.8243 64.0097C80.8243 64.0097 81.5957 65.909 81.8356 66.836C81.8356 66.9268 78.6463 68.4825 76.5849 66.5767C76.5634 66.5621 76.5486 66.5396 76.5437 66.514C76.5389 66.4885 76.5443 66.4621 76.559 66.4406C76.5736 66.4191 76.5961 66.4043 76.6216 66.3994C76.6472 66.3946 76.6736 66.4001 76.6951 66.4147C78.0853 66.921 79.602 66.9642 81.0188 66.5378C81.0188 66.2656 79.5797 63.3291 79.7223 63.2967C80.4594 63.1755 81.2094 63.1537 81.9523 63.2318C80.4484 59.2322 78.3221 55.5049 76.8896 51.4923C76.8769 51.4626 76.8757 51.4293 76.8863 51.3988C76.8969 51.3683 76.9186 51.3429 76.9469 51.3275C76.9753 51.3121 77.0084 51.3078 77.0397 51.3155C77.0711 51.3232 77.0984 51.3424 77.1164 51.3692C79.6251 55.1224 81.4531 59.6925 83.1061 63.7828C83.3265 64.282 81.2586 64.0745 80.8243 64.0097Z" fill="#263238"/>
<path d="M81.0125 66.9855C80.6682 67.8458 80.1105 68.6043 79.3919 69.1895C78.9886 69.4921 78.5022 69.664 77.9982 69.6821C76.8897 69.6821 76.598 68.7681 76.5592 67.906C76.5435 67.4495 76.5805 66.9927 76.6693 66.5447C78.0326 67.1525 79.5549 67.3071 81.0125 66.9855Z" fill="#263238"/>
<path d="M79.3914 69.1892C78.988 69.4919 78.5016 69.6638 77.9977 69.6819C76.8892 69.6819 76.5975 68.7679 76.5586 67.9057C77.693 67.7048 78.9895 68.1456 79.3914 69.1892Z" fill="#FF99BA"/>
<path d="M56.1594 65.3194C59.8802 65.5593 60.3081 57.048 60.3081 57.048C60.3081 57.048 75.8657 53.4244 76.4231 40.5375C76.4231 40.5375 79.6189 48.5367 88.0913 51.726C88.0913 51.726 86.6847 37.7241 75.3924 35.6757C75.3924 35.6757 61.2739 31.4881 54.1758 42.923C47.0776 54.3578 53.6637 65.1574 56.1594 65.3194Z" fill="#263238"/>
<path d="M76.4228 39.5845C76.73 41.5506 76.6129 43.5598 76.0792 45.4769C75.5755 47.4252 74.6703 49.2468 73.4214 50.8248C73.1152 51.2216 72.784 51.5983 72.4297 51.9528L71.9111 52.5038C71.7296 52.6723 71.5351 52.8279 71.3406 52.9899C70.9517 53.3011 70.5757 53.6382 70.1738 53.9299C69.7719 54.2216 69.3311 54.4614 68.8773 54.7207C68.6634 54.8439 68.456 54.98 68.2291 55.0967L67.5809 55.4078L66.2261 56.0237C65.2926 56.3478 64.3462 56.62 63.4062 56.8793C64.2814 56.432 65.1889 56.0755 66.051 55.6282L67.3151 54.9152L67.9633 54.5586C68.1643 54.429 68.3523 54.2799 68.5467 54.1373C68.9357 53.8521 69.3246 53.5733 69.72 53.3011C70.1155 53.0288 70.4331 52.6528 70.7896 52.3611L71.3276 51.8879L71.8073 51.3564C72.1371 51.0161 72.4466 50.6568 72.7343 50.2803C73.9124 48.7774 74.8264 47.0852 75.4375 45.276C75.7502 44.3676 75.9886 43.4354 76.1505 42.4886C76.3229 41.5299 76.414 40.5584 76.4228 39.5845Z" fill="#263238"/>
<path d="M58.9332 65.1182C58.9332 65.1182 53.4751 59.8092 50.9924 61.8771C48.5096 63.9449 53.4297 72.2034 56.9237 72.7868C57.3665 72.8933 57.8262 72.9091 58.2752 72.8333C58.7242 72.7576 59.1533 72.5918 59.5366 72.3459C59.9199 72.1001 60.2495 71.7792 60.5056 71.4027C60.7618 71.0262 60.9391 70.6018 61.027 70.155L58.9332 65.1182Z" fill="#FED1C7"/>
<path d="M52.4633 64.2046C52.4513 64.2046 52.4398 64.2093 52.4313 64.2179C52.4228 64.2264 52.418 64.2379 52.418 64.2499C52.418 64.262 52.4228 64.2735 52.4313 64.282C52.4398 64.2905 52.4513 64.2953 52.4633 64.2953C54.9331 64.7815 56.5407 66.6743 57.8113 68.7098C56.9686 67.9967 55.9508 67.7115 54.972 68.7098C54.9202 68.7681 54.972 68.8459 55.0563 68.82C55.4349 68.616 55.8672 68.5339 56.2942 68.585C56.7212 68.636 57.122 68.8177 57.4418 69.1052C57.9739 69.5879 58.4521 70.1269 58.8679 70.7128C59.0105 70.9008 59.3605 70.7128 59.2374 70.4989L59.205 70.4471C58.6993 67.5689 55.6462 63.8999 52.4633 64.2046Z" fill="#263238"/>
<path d="M55.1999 62.4151C55.1999 62.4151 51.6606 52.9834 52.8857 46.8251C54.247 39.9668 62.7454 32.1427 72.4624 35.0727C72.4624 35.0727 60.9044 36.8035 56.8205 46.0926C54.9406 50.371 58.493 61.6956 58.493 61.6956L55.1999 62.4151Z" fill="#C7C7C7"/>
<path d="M60.6583 75.8576C64.9481 74.5215 67.1906 69.4731 65.6671 64.5818C64.1436 59.6905 59.4311 56.8084 55.1413 58.1445C50.8516 59.4806 48.6091 64.5289 50.1325 69.4203C51.656 74.3116 56.3686 77.1937 60.6583 75.8576Z" fill="#C7C7C7"/>
<path d="M63.328 64.9758C64.6957 69.3708 62.6797 73.9085 58.7903 75.1077C54.9009 76.3069 50.7004 73.7205 49.3261 69.3255C47.9519 64.9304 49.9744 60.3928 53.8638 59.1871C57.7532 57.9814 61.9602 60.6067 63.328 64.9758Z" fill="#455A64"/>
<path d="M70.4969 87.2297L66.9316 96.2272L55.7172 84.9155L52.5732 88.5716C52.5732 88.5716 63.5932 106.579 63.6321 105.763L67.3011 97.9839L72.6685 103.345L72.1823 89.8486L70.4969 87.2297Z" fill="#EBEBEB"/>
<path d="M72.8313 96.6682C72.6692 94.4447 72.5785 92.1889 72.3192 89.9719C72.3192 89.8941 72.183 89.8617 72.1636 89.9719C71.7293 92.1241 72.371 100.648 72.371 102.69C72.1506 102.457 67.3991 97.9711 67.3537 98.0424C66.5564 99.2741 63.8662 104.927 63.6847 105.439C61.9409 102.58 54.5641 91.3073 52.5092 88.5847C52.4969 88.5723 52.4808 88.5643 52.4635 88.5621C52.4462 88.5599 52.4287 88.5636 52.4137 88.5726C52.3988 88.5816 52.3873 88.5953 52.3811 88.6116C52.3749 88.6279 52.3743 88.6458 52.3795 88.6625C53.9158 91.6833 63.4448 106.56 63.581 106.521C64.9986 103.855 66.2794 101.118 67.4185 98.3212C68.2223 99.3 73.0193 104.363 73.0322 104.032C73.0924 101.576 73.0253 99.1177 72.8313 96.6682Z" fill="#263238"/>
<path d="M134.639 14.2C134.394 16.5512 133.5 18.788 132.058 20.6607C130.615 22.5335 128.68 23.9686 126.47 24.8058C124.259 25.6431 121.859 25.8496 119.538 25.4022C117.216 24.9549 115.065 23.8713 113.324 22.2725L106.939 23.2085L110.136 17.6906C109.412 15.8958 109.107 13.9599 109.242 12.0295C109.377 10.0991 109.95 8.22479 110.917 6.54848C111.884 4.87216 113.219 3.43776 114.822 2.35387C116.425 1.26998 118.254 0.565012 120.17 0.292327C122.086 0.0196422 124.038 0.186391 125.88 0.779951C127.722 1.37351 129.405 2.37833 130.801 3.71833C132.197 5.05833 133.27 6.69838 133.939 8.51435C134.607 10.3303 134.854 12.2746 134.66 14.2H134.639Z" fill="white"/>
<path d="M134.638 14.2001C134.391 16.5526 133.5 18.7914 132.063 20.6703C131.357 21.6089 130.514 22.4357 129.562 23.1228C128.621 23.8354 127.585 24.412 126.484 24.8354C125.382 25.2665 124.225 25.5416 123.047 25.6528C122.458 25.7066 121.867 25.7175 121.277 25.6855C120.684 25.6714 120.094 25.6099 119.511 25.5016C117.157 25.0778 114.967 24.0064 113.188 22.4075L113.339 22.4524L106.963 23.4334L106.501 23.5029L106.734 23.0941L109.918 17.564V17.7847C109.169 15.9556 108.851 13.9789 108.988 12.0073C109.125 10.0357 109.713 8.12185 110.707 6.41366C111.699 4.71188 113.065 3.25714 114.7 2.15873C116.334 1.07658 118.192 0.378377 120.135 0.116466C122.077 -0.145445 124.053 0.0357301 125.916 0.646413C127.756 1.27501 129.431 2.30704 130.821 3.66696C132.212 5.01982 133.278 6.67054 133.94 8.49496C134.601 10.3194 134.84 12.27 134.638 14.2001ZM134.638 14.2001C134.842 12.2786 134.602 10.336 133.937 8.52189C133.271 6.7078 132.198 5.0707 130.801 3.73675C129.403 2.4028 127.717 1.40762 125.874 0.827892C124.031 0.248166 122.079 0.0993806 120.169 0.392999C118.277 0.67722 116.475 1.39023 114.9 2.47754C113.341 3.57129 112.039 4.99108 111.083 6.63847C110.142 8.29181 109.589 10.1369 109.464 12.0349C109.34 13.933 109.647 15.8346 110.364 17.5967L110.408 17.7111L110.347 17.8133L107.135 23.323L106.906 22.9838L113.294 22.0887H113.384L113.445 22.15C115.157 23.7478 117.28 24.8376 119.576 25.2972C120.146 25.4116 120.724 25.4813 121.305 25.5057C121.886 25.5466 122.47 25.5466 123.051 25.5057C124.216 25.4148 125.363 25.1631 126.46 24.7577C127.562 24.3605 128.599 23.8012 129.537 23.0982C130.496 22.4157 131.342 21.5883 132.047 20.6458C133.488 18.7771 134.385 16.5464 134.638 14.2001Z" fill="#263238"/>
<path d="M127.519 14.8051C128.372 14.8051 129.064 14.1134 129.064 13.2601C129.064 12.4068 128.372 11.7151 127.519 11.7151C126.665 11.7151 125.974 12.4068 125.974 13.2601C125.974 14.1134 126.665 14.8051 127.519 14.8051Z" fill="#263238"/>
<path d="M121.981 14.8051C122.834 14.8051 123.526 14.1134 123.526 13.2601C123.526 12.4068 122.834 11.7151 121.981 11.7151C121.127 11.7151 120.436 12.4068 120.436 13.2601C120.436 14.1134 121.127 14.8051 121.981 14.8051Z" fill="#263238"/>
<path d="M116.445 14.8051C117.299 14.8051 117.99 14.1134 117.99 13.2601C117.99 12.4068 117.299 11.7151 116.445 11.7151C115.592 11.7151 114.9 12.4068 114.9 13.2601C114.9 14.1134 115.592 14.8051 116.445 14.8051Z" fill="#263238"/>
<path d="M101.872 170.748H97.5352V173.581H101.872V170.748Z" fill="#455A64"/>
<path d="M107.499 170.56H103.162V173.393H107.499V170.56Z" fill="#455A64"/>
<path d="M113.125 170.372H108.788V173.205H113.125V170.372Z" fill="#455A64"/>
<path d="M118.745 170.184H114.408V173.017H118.745V170.184Z" fill="#455A64"/>
<path d="M124.373 169.996H120.036V172.828H124.373V169.996Z" fill="#455A64"/>
<path d="M129.999 169.814H125.662V172.647H129.999V169.814Z" fill="#455A64"/>
<path d="M135.619 169.626H131.282V172.459H135.619V169.626Z" fill="#455A64"/>
<path d="M141.246 169.438H136.909V172.271H141.246V169.438Z" fill="#455A64"/>
<path d="M146.866 169.25H142.529V172.083H146.866V169.25Z" fill="#455A64"/>
<path d="M147.929 175.208H96.4727V171.759L147.929 170.326V175.208Z" fill="#37474F"/>
<path d="M198.153 161.621H113.209L126.718 98.3792H211.663L198.153 161.621Z" fill="#455A64"/>
<path d="M201.298 161.621H116.347L129.856 98.3792H214.807L201.298 161.621Z" fill="#37474F"/>
<path d="M172.92 126.337C172.659 127.777 171.913 129.084 170.805 130.039C169.697 130.995 168.295 131.542 166.833 131.588C166.173 131.609 165.517 131.479 164.914 131.21C164.312 130.941 163.778 130.538 163.353 130.033C162.928 129.527 162.623 128.932 162.461 128.292C162.3 127.652 162.285 126.984 162.418 126.337C162.676 124.897 163.421 123.589 164.528 122.632C165.634 121.675 167.036 121.127 168.499 121.08C169.16 121.059 169.817 121.187 170.421 121.456C171.026 121.726 171.561 122.129 171.986 122.635C172.412 123.141 172.717 123.737 172.879 124.379C173.041 125.02 173.055 125.69 172.92 126.337Z" fill="#263238"/>
<path d="M177.275 178.138H135.496V174.89L177.275 173.542V178.138Z" fill="#455A64"/>
<path d="M188.632 178.131H166.197L152.688 142.692H175.123L188.632 178.131Z" fill="#455A64"/>
<path d="M192.32 178.131H169.891L156.382 142.692H178.811L192.32 178.131Z" fill="#263238"/>
<path d="M94.8709 179H51.8153C48.1398 179 53.4553 168.531 66.8737 164.518C80.2921 160.506 99.1168 175.072 94.8709 179Z" fill="#37474F"/>
<path d="M78.0176 179C78.0466 177.807 78.2429 176.625 78.601 175.487C78.9466 174.336 79.4321 173.232 80.0466 172.2C80.6625 171.161 81.4342 170.223 82.3348 169.419C83.2279 168.621 84.2549 167.987 85.3685 167.546C84.9083 167.922 84.3832 168.194 83.9619 168.602L83.3136 169.166L82.7043 169.814C81.908 170.648 81.2099 171.57 80.6235 172.563C80.0273 173.555 79.5156 174.596 79.0936 175.674C78.6613 176.758 78.3018 177.869 78.0176 179Z" fill="#263238"/>
<path d="M83.0859 169.037C85.6481 169.847 88.072 171.043 90.2748 172.582C91.3896 173.353 92.3986 174.266 93.2762 175.299C94.1966 176.326 94.7565 177.625 94.8708 179C94.5139 177.732 93.8298 176.581 92.8872 175.662C91.9687 174.726 90.9638 173.88 89.8859 173.133C88.8163 172.362 87.6949 171.668 86.554 170.988C85.4131 170.307 84.2657 169.665 83.0859 169.037Z" fill="#263238"/>
<path d="M214.079 139.111C216.162 138.037 218.611 137.898 220.921 138.28C222.161 138.487 223.453 138.856 224.3 139.791C225.147 140.725 225.302 142.363 224.332 143.162C223.756 143.639 222.953 143.711 222.205 143.703C220.396 143.683 218.388 143.365 216.945 144.45C216.118 145.074 215.57 146.104 214.588 146.41C213.606 146.716 212.532 146.14 212.023 145.269C211.553 144.363 211.449 143.311 211.733 142.331C211.85 141.65 212.122 141.005 212.529 140.446C212.936 139.887 213.466 139.43 214.079 139.111Z" fill="#55EFC4"/>
<path d="M209.312 129.911C210.584 131.728 213.057 131.124 214.206 130.018C215.355 128.913 215.836 127.299 216.277 125.768C217.283 122.266 218.301 118.612 217.55 115.034C217.37 113.953 216.896 112.943 216.178 112.116C215.815 111.707 215.351 111.401 214.833 111.227C214.314 111.054 213.76 111.021 213.224 111.13C211.976 111.46 211.204 112.68 210.644 113.845C208.993 117.274 208.127 121.028 208.111 124.834C208.111 126.603 208.314 128.46 209.304 129.923" fill="#55EFC4"/>
<path d="M205.818 132.519C207.201 130.877 207.464 128.488 206.848 126.432C206.231 124.377 204.86 122.632 203.246 121.204C201.362 119.529 199.171 118.237 196.793 117.4C195.873 117.027 194.883 116.858 193.891 116.907C193.396 116.935 192.915 117.084 192.49 117.34C192.065 117.596 191.71 117.953 191.454 118.378C190.774 119.674 191.426 121.244 192.13 122.528C193.371 124.787 194.788 126.944 196.368 128.981C197.64 130.619 199.095 132.233 201.031 132.957C202.967 133.68 204.979 133.613 206.025 132.285" fill="#55EFC4"/>
<path d="M209.23 157.319C209.296 157.05 209.334 156.774 209.345 156.497C209.401 155.892 209.476 155.141 209.564 154.242C209.675 153.132 209.843 152.028 210.069 150.935C210.363 149.605 210.762 148.301 211.261 147.034C211.755 145.77 212.424 144.582 213.249 143.504C213.923 142.628 214.784 141.913 215.77 141.413C216.441 141.086 217.161 140.869 217.901 140.769C218.178 140.757 218.454 140.718 218.724 140.649C218.446 140.618 218.166 140.618 217.889 140.649C217.123 140.708 216.373 140.901 215.674 141.222C214.639 141.712 213.73 142.434 213.019 143.333C212.157 144.426 211.462 145.639 210.955 146.935C210.443 148.223 210.044 149.553 209.762 150.911C209.549 152.017 209.401 153.135 209.321 154.258C209.25 155.216 209.226 155.992 209.21 156.528C209.188 156.792 209.195 157.057 209.23 157.319Z" fill="#263238"/>
<path d="M209.384 155.586C209.399 155.454 209.399 155.321 209.384 155.188V154.091C209.384 153.141 209.384 151.765 209.432 150.068C209.515 146.669 209.829 143.011 210.374 137.855C210.907 133.008 211.626 127.363 212.386 123.697C212.545 122.862 212.712 122.107 212.863 121.455C213.014 120.803 213.137 120.226 213.26 119.765C213.384 119.304 213.451 118.97 213.519 118.704C213.558 118.575 213.581 118.441 213.586 118.306C213.526 118.419 213.48 118.539 213.451 118.664C213.368 118.938 213.264 119.288 213.133 119.714C213.002 120.139 212.847 120.731 212.684 121.391C212.521 122.051 212.33 122.795 212.151 123.626C211.215 127.958 210.509 132.338 210.036 136.745C209.472 141.914 209.217 146.617 209.193 150.02C209.193 151.726 209.193 153.105 209.253 154.055C209.281 154.501 209.305 154.851 209.321 155.149C209.322 155.297 209.343 155.444 209.384 155.586Z" fill="#263238"/>
<path d="M209.403 146.514C209.433 146.132 209.433 145.75 209.403 145.369C209.338 144.33 209.221 143.295 209.053 142.268C208.804 140.744 208.468 139.236 208.047 137.751C207.551 135.928 206.916 134.146 206.147 132.42C204.831 129.226 202.945 126.299 200.581 123.781C200.171 123.35 199.736 122.945 199.277 122.568C199.074 122.401 198.899 122.23 198.716 122.099L198.211 121.749C197.917 121.514 197.605 121.303 197.277 121.117C197.221 121.189 198.641 122.027 200.434 123.932C202.71 126.473 204.537 129.384 205.837 132.539C206.586 134.26 207.221 136.029 207.737 137.835C208.23 139.496 208.56 141.015 208.806 142.307C209.053 143.599 209.18 144.649 209.264 145.38C209.283 145.761 209.33 146.14 209.403 146.514Z" fill="#263238"/>
<path d="M200.637 162.519L201.543 174.975H217.545L218.456 162.519H200.637Z" fill="#263238"/>
<path d="M220.365 157.609H199.091V162.519H220.365V157.609Z" fill="#263238"/>
<path d="M199.091 174.498V175.858H200.089H220.015V174.498H199.091Z" fill="#455A64"/>
<path d="M201.072 178.255L200.09 175.858H219.253L218.108 178.255H201.072Z" fill="#455A64"/>
<path d="M218.159 166.61C218.139 166.651 218.113 166.688 218.083 166.722C218.019 166.809 217.944 166.913 217.845 167.04L216.914 168.233L216.871 168.288L216.831 168.233L214.541 165.052H214.672L212.418 168.233L212.346 168.332L212.267 168.241L209.595 165.06H209.75C209.702 165.116 209.651 165.179 209.603 165.243L207.218 168.241L207.138 168.34L207.067 168.237L204.808 165.056H204.94C203.83 166.324 202.884 167.398 202.157 168.237L202.109 168.292L202.073 168.229C201.703 167.616 201.413 167.123 201.202 166.77C201.111 166.61 201.035 166.483 200.98 166.372C200.95 166.329 200.925 166.282 200.908 166.233C200.908 166.233 200.944 166.273 201.004 166.356L201.25 166.73L202.165 168.165H202.077L204.808 164.961L204.88 164.881L204.94 164.969L207.218 168.149H207.059L209.444 165.147L209.591 164.965L209.671 164.869L209.746 164.961C210.684 166.078 211.583 167.155 212.414 168.141H212.263L214.541 164.961L214.608 164.869L214.672 164.961L216.914 168.165H216.835L217.805 167.008L218.063 166.706C218.124 166.624 218.156 166.592 218.159 166.61Z" fill="#E0E0E0"/>
<path d="M218.678 162.436C218.678 162.491 214.667 162.535 209.725 162.535C204.783 162.535 200.768 162.491 200.768 162.436C200.768 162.38 204.775 162.336 209.725 162.336C214.674 162.336 218.678 162.38 218.678 162.436Z" fill="#455A64"/>
<path d="M219.486 175.993C219.486 176.049 215.113 176.092 209.754 176.092C204.395 176.092 200.021 176.049 200.021 175.993C200.021 175.937 204.395 175.894 209.754 175.894C215.113 175.894 219.486 175.937 219.486 175.993Z" fill="#263238"/>
</svg>
