<svg width="345" height="44" viewBox="0 0 345 44" fill="none" xmlns="http://www.w3.org/2000/svg">
<rect width="345" height="44" rx="5" fill="#DCFFEE"/>
<path fill-rule="evenodd" clip-rule="evenodd" d="M125 34C118.373 34 113 28.6274 113 22C113 15.3726 118.373 10 125 10C131.627 10 137 15.3726 137 22C137 28.6274 131.627 34 125 34ZM125.396 28.6763C129.33 28.6747 132.529 25.4741 132.531 21.5408C132.532 19.6342 131.79 17.8414 130.443 16.4927C129.096 15.1439 127.304 14.4008 125.395 14.4C121.462 14.4 118.261 17.6008 118.26 21.5351C118.259 22.7927 118.588 24.0203 119.212 25.1024L118.2 28.8L121.983 27.8077C123.025 28.3762 124.198 28.6758 125.393 28.6763H125.396Z" fill="#25D366"/>
<path fill-rule="evenodd" clip-rule="evenodd" d="M122.158 26.5159L119.913 27.1048L120.513 24.9162L120.372 24.6918C119.778 23.7476 119.464 22.6562 119.465 21.5355C119.466 18.2656 122.127 15.6052 125.398 15.6052C126.982 15.6058 128.471 16.2235 129.591 17.3445C130.711 18.4655 131.327 19.9556 131.327 21.5403C131.325 24.8106 128.665 27.4712 125.396 27.4712H125.393C124.329 27.4708 123.285 27.1848 122.375 26.6445L122.158 26.5159ZM128.991 23.2376C128.946 23.1632 128.827 23.1186 128.649 23.0293C128.471 22.9401 127.594 22.5088 127.431 22.4492C127.267 22.3898 127.148 22.36 127.029 22.5385C126.911 22.7169 126.569 23.1186 126.465 23.2376C126.361 23.3565 126.257 23.3715 126.079 23.2822C125.9 23.193 125.326 23.0047 124.645 22.3972C124.115 21.9245 123.757 21.3406 123.653 21.1621C123.549 20.9836 123.642 20.8872 123.731 20.7983C123.811 20.7184 123.909 20.59 123.999 20.4859C124.088 20.3818 124.117 20.3074 124.177 20.1885C124.236 20.0694 124.207 19.9654 124.162 19.8761C124.117 19.7869 123.761 18.9093 123.612 18.5523C123.468 18.2046 123.321 18.2517 123.211 18.2462C123.107 18.241 122.988 18.2399 122.869 18.2399C122.751 18.2399 122.557 18.2845 122.394 18.463C122.231 18.6415 121.77 19.0729 121.77 19.9504C121.77 20.828 122.409 21.6758 122.498 21.7948C122.587 21.9138 123.755 23.7147 125.544 24.4869C125.969 24.6707 126.301 24.7804 126.56 24.8625C126.987 24.9983 127.376 24.9791 127.683 24.9332C128.026 24.882 128.738 24.5019 128.887 24.0854C129.035 23.6689 129.035 23.3119 128.991 23.2376Z" fill="#25D366"/>
<path d="M155.701 22.7168C155.701 24.2051 155.461 25.3105 154.98 26.0332C154.504 26.7559 153.773 27.1172 152.789 27.1172C151.836 27.1172 151.113 26.7441 150.621 25.998C150.129 25.252 149.883 24.1582 149.883 22.7168C149.883 21.2051 150.121 20.0918 150.598 19.377C151.078 18.6582 151.809 18.2988 152.789 18.2988C153.746 18.2988 154.471 18.6738 154.963 19.4238C155.455 20.1738 155.701 21.2715 155.701 22.7168ZM151.277 22.7168C151.277 23.8848 151.396 24.7188 151.635 25.2188C151.877 25.7188 152.262 25.9688 152.789 25.9688C153.316 25.9688 153.701 25.7148 153.943 25.207C154.189 24.6992 154.312 23.8691 154.312 22.7168C154.312 21.5684 154.189 20.7383 153.943 20.2266C153.701 19.7109 153.316 19.4531 152.789 19.4531C152.262 19.4531 151.877 19.7051 151.635 20.209C151.396 20.7129 151.277 21.5488 151.277 22.7168ZM159.645 18.3223C160.457 18.3223 161.1 18.5098 161.572 18.8848C162.045 19.2559 162.281 19.7539 162.281 20.3789C162.281 21.2578 161.754 21.957 160.699 22.4766C161.371 22.8125 161.848 23.166 162.129 23.5371C162.414 23.9082 162.557 24.3223 162.557 24.7793C162.557 25.4863 162.297 26.0527 161.777 26.4785C161.258 26.9043 160.555 27.1172 159.668 27.1172C158.738 27.1172 158.018 26.918 157.506 26.5195C156.994 26.1211 156.738 25.5566 156.738 24.8262C156.738 24.3496 156.871 23.9219 157.137 23.543C157.406 23.1602 157.846 22.8203 158.455 22.5234C157.932 22.2109 157.559 21.8809 157.336 21.5332C157.113 21.1855 157.002 20.7949 157.002 20.3613C157.002 19.7402 157.246 19.2461 157.734 18.8789C158.223 18.5078 158.859 18.3223 159.645 18.3223ZM158.057 24.7793C158.057 25.1855 158.199 25.502 158.484 25.7285C158.77 25.9512 159.156 26.0625 159.645 26.0625C160.148 26.0625 160.539 25.9473 160.816 25.7168C161.098 25.4824 161.238 25.166 161.238 24.7676C161.238 24.4512 161.109 24.1621 160.852 23.9004C160.594 23.6387 160.203 23.3965 159.68 23.1738L159.51 23.0977C158.994 23.3242 158.623 23.5742 158.396 23.8477C158.17 24.1172 158.057 24.4277 158.057 24.7793ZM159.633 19.3828C159.242 19.3828 158.928 19.4805 158.689 19.6758C158.451 19.8672 158.332 20.1289 158.332 20.4609C158.332 20.6641 158.375 20.8457 158.461 21.0059C158.547 21.166 158.672 21.3125 158.836 21.4453C159 21.5742 159.277 21.7305 159.668 21.9141C160.137 21.707 160.467 21.4902 160.658 21.2637C160.854 21.0332 160.951 20.7656 160.951 20.4609C160.951 20.1289 160.83 19.8672 160.588 19.6758C160.35 19.4805 160.031 19.3828 159.633 19.3828ZM169.09 20.4023C169.09 20.9453 168.932 21.3984 168.615 21.7617C168.299 22.1211 167.854 22.3633 167.279 22.4883V22.5352C167.967 22.6211 168.482 22.8359 168.826 23.1797C169.17 23.5195 169.342 23.9727 169.342 24.5391C169.342 25.3633 169.051 26 168.469 26.4492C167.887 26.8945 167.059 27.1172 165.984 27.1172C165.035 27.1172 164.234 26.9629 163.582 26.6543V25.4297C163.945 25.6094 164.33 25.748 164.736 25.8457C165.143 25.9434 165.533 25.9922 165.908 25.9922C166.572 25.9922 167.068 25.8691 167.396 25.623C167.725 25.377 167.889 24.9961 167.889 24.4805C167.889 24.0234 167.707 23.6875 167.344 23.4727C166.98 23.2578 166.41 23.1504 165.633 23.1504H164.889V22.0312H165.645C167.012 22.0312 167.695 21.5586 167.695 20.6133C167.695 20.2461 167.576 19.9629 167.338 19.7637C167.1 19.5645 166.748 19.4648 166.283 19.4648C165.959 19.4648 165.646 19.5117 165.346 19.6055C165.045 19.6953 164.689 19.873 164.279 20.1387L163.605 19.1777C164.391 18.5996 165.303 18.3105 166.342 18.3105C167.205 18.3105 167.879 18.4961 168.363 18.8672C168.848 19.2383 169.09 19.75 169.09 20.4023ZM170.484 23.3496C170.484 19.998 171.85 18.3223 174.58 18.3223C175.01 18.3223 175.373 18.3555 175.67 18.4219V19.5703C175.373 19.4844 175.029 19.4414 174.639 19.4414C173.721 19.4414 173.031 19.6875 172.57 20.1797C172.109 20.6719 171.859 21.4609 171.82 22.5469H171.891C172.074 22.2305 172.332 21.9863 172.664 21.8145C172.996 21.6387 173.387 21.5508 173.836 21.5508C174.613 21.5508 175.219 21.7891 175.652 22.2656C176.086 22.7422 176.303 23.3887 176.303 24.2051C176.303 25.1035 176.051 25.8145 175.547 26.3379C175.047 26.8574 174.363 27.1172 173.496 27.1172C172.883 27.1172 172.35 26.9707 171.896 26.6777C171.443 26.3809 171.094 25.9512 170.848 25.3887C170.605 24.8223 170.484 24.1426 170.484 23.3496ZM173.473 25.9805C173.945 25.9805 174.309 25.8281 174.562 25.5234C174.82 25.2188 174.949 24.7832 174.949 24.2168C174.949 23.7246 174.828 23.3379 174.586 23.0566C174.348 22.7754 173.988 22.6348 173.508 22.6348C173.211 22.6348 172.938 22.6992 172.688 22.8281C172.438 22.9531 172.24 23.127 172.096 23.3496C171.951 23.5684 171.879 23.793 171.879 24.0234C171.879 24.5742 172.027 25.0391 172.324 25.418C172.625 25.793 173.008 25.9805 173.473 25.9805ZM183.123 27H177.316V25.957L179.525 23.7363C180.178 23.0684 180.609 22.5957 180.82 22.3184C181.035 22.0371 181.191 21.7734 181.289 21.5273C181.387 21.2812 181.436 21.0176 181.436 20.7363C181.436 20.3496 181.318 20.0449 181.084 19.8223C180.854 19.5996 180.533 19.4883 180.123 19.4883C179.795 19.4883 179.477 19.5488 179.168 19.6699C178.863 19.791 178.51 20.0098 178.107 20.3262L177.363 19.418C177.84 19.0156 178.303 18.7305 178.752 18.5625C179.201 18.3945 179.68 18.3105 180.188 18.3105C180.984 18.3105 181.623 18.5195 182.104 18.9375C182.584 19.3516 182.824 19.9102 182.824 20.6133C182.824 21 182.754 21.3672 182.613 21.7148C182.477 22.0625 182.264 22.4219 181.975 22.793C181.689 23.1602 181.213 23.6582 180.545 24.2871L179.057 25.7285V25.7871H183.123V27ZM189.656 20.4023C189.656 20.9453 189.498 21.3984 189.182 21.7617C188.865 22.1211 188.42 22.3633 187.846 22.4883V22.5352C188.533 22.6211 189.049 22.8359 189.393 23.1797C189.736 23.5195 189.908 23.9727 189.908 24.5391C189.908 25.3633 189.617 26 189.035 26.4492C188.453 26.8945 187.625 27.1172 186.551 27.1172C185.602 27.1172 184.801 26.9629 184.148 26.6543V25.4297C184.512 25.6094 184.896 25.748 185.303 25.8457C185.709 25.9434 186.1 25.9922 186.475 25.9922C187.139 25.9922 187.635 25.8691 187.963 25.623C188.291 25.377 188.455 24.9961 188.455 24.4805C188.455 24.0234 188.273 23.6875 187.91 23.4727C187.547 23.2578 186.977 23.1504 186.199 23.1504H185.455V22.0312H186.211C187.578 22.0312 188.262 21.5586 188.262 20.6133C188.262 20.2461 188.143 19.9629 187.904 19.7637C187.666 19.5645 187.314 19.4648 186.85 19.4648C186.525 19.4648 186.213 19.5117 185.912 19.6055C185.611 19.6953 185.256 19.873 184.846 20.1387L184.172 19.1777C184.957 18.5996 185.869 18.3105 186.908 18.3105C187.771 18.3105 188.445 18.4961 188.93 18.8672C189.414 19.2383 189.656 19.75 189.656 20.4023ZM192 27L195.387 19.6582H190.934V18.4453H196.857V19.4062L193.488 27H192ZM203.689 27H197.883V25.957L200.092 23.7363C200.744 23.0684 201.176 22.5957 201.387 22.3184C201.602 22.0371 201.758 21.7734 201.855 21.5273C201.953 21.2812 202.002 21.0176 202.002 20.7363C202.002 20.3496 201.885 20.0449 201.65 19.8223C201.42 19.5996 201.1 19.4883 200.689 19.4883C200.361 19.4883 200.043 19.5488 199.734 19.6699C199.43 19.791 199.076 20.0098 198.674 20.3262L197.93 19.418C198.406 19.0156 198.869 18.7305 199.318 18.5625C199.768 18.3945 200.246 18.3105 200.754 18.3105C201.551 18.3105 202.189 18.5195 202.67 18.9375C203.15 19.3516 203.391 19.9102 203.391 20.6133C203.391 21 203.32 21.3672 203.18 21.7148C203.043 22.0625 202.83 22.4219 202.541 22.793C202.256 23.1602 201.779 23.6582 201.111 24.2871L199.623 25.7285V25.7871H203.689V27ZM210.223 20.4023C210.223 20.9453 210.064 21.3984 209.748 21.7617C209.432 22.1211 208.986 22.3633 208.412 22.4883V22.5352C209.1 22.6211 209.615 22.8359 209.959 23.1797C210.303 23.5195 210.475 23.9727 210.475 24.5391C210.475 25.3633 210.184 26 209.602 26.4492C209.02 26.8945 208.191 27.1172 207.117 27.1172C206.168 27.1172 205.367 26.9629 204.715 26.6543V25.4297C205.078 25.6094 205.463 25.748 205.869 25.8457C206.275 25.9434 206.666 25.9922 207.041 25.9922C207.705 25.9922 208.201 25.8691 208.529 25.623C208.857 25.377 209.021 24.9961 209.021 24.4805C209.021 24.0234 208.84 23.6875 208.477 23.4727C208.113 23.2578 207.543 23.1504 206.766 23.1504H206.021V22.0312H206.777C208.145 22.0312 208.828 21.5586 208.828 20.6133C208.828 20.2461 208.709 19.9629 208.471 19.7637C208.232 19.5645 207.881 19.4648 207.416 19.4648C207.092 19.4648 206.779 19.5117 206.479 19.6055C206.178 19.6953 205.822 19.873 205.412 20.1387L204.738 19.1777C205.523 18.5996 206.436 18.3105 207.475 18.3105C208.338 18.3105 209.012 18.4961 209.496 18.8672C209.98 19.2383 210.223 19.75 210.223 20.4023ZM217.4 27H211.594V25.957L213.803 23.7363C214.455 23.0684 214.887 22.5957 215.098 22.3184C215.312 22.0371 215.469 21.7734 215.566 21.5273C215.664 21.2812 215.713 21.0176 215.713 20.7363C215.713 20.3496 215.596 20.0449 215.361 19.8223C215.131 19.5996 214.811 19.4883 214.4 19.4883C214.072 19.4883 213.754 19.5488 213.445 19.6699C213.141 19.791 212.787 20.0098 212.385 20.3262L211.641 19.418C212.117 19.0156 212.58 18.7305 213.029 18.5625C213.479 18.3945 213.957 18.3105 214.465 18.3105C215.262 18.3105 215.9 18.5195 216.381 18.9375C216.861 19.3516 217.102 19.9102 217.102 20.6133C217.102 21 217.031 21.3672 216.891 21.7148C216.754 22.0625 216.541 22.4219 216.252 22.793C215.967 23.1602 215.49 23.6582 214.822 24.2871L213.334 25.7285V25.7871H217.4V27ZM223.934 20.4023C223.934 20.9453 223.775 21.3984 223.459 21.7617C223.143 22.1211 222.697 22.3633 222.123 22.4883V22.5352C222.811 22.6211 223.326 22.8359 223.67 23.1797C224.014 23.5195 224.186 23.9727 224.186 24.5391C224.186 25.3633 223.895 26 223.312 26.4492C222.73 26.8945 221.902 27.1172 220.828 27.1172C219.879 27.1172 219.078 26.9629 218.426 26.6543V25.4297C218.789 25.6094 219.174 25.748 219.58 25.8457C219.986 25.9434 220.377 25.9922 220.752 25.9922C221.416 25.9922 221.912 25.8691 222.24 25.623C222.568 25.377 222.732 24.9961 222.732 24.4805C222.732 24.0234 222.551 23.6875 222.188 23.4727C221.824 23.2578 221.254 23.1504 220.477 23.1504H219.732V22.0312H220.488C221.855 22.0312 222.539 21.5586 222.539 20.6133C222.539 20.2461 222.42 19.9629 222.182 19.7637C221.943 19.5645 221.592 19.4648 221.127 19.4648C220.803 19.4648 220.49 19.5117 220.189 19.6055C219.889 19.6953 219.533 19.873 219.123 20.1387L218.449 19.1777C219.234 18.5996 220.146 18.3105 221.186 18.3105C222.049 18.3105 222.723 18.4961 223.207 18.8672C223.691 19.2383 223.934 19.75 223.934 20.4023ZM231.111 27H225.305V25.957L227.514 23.7363C228.166 23.0684 228.598 22.5957 228.809 22.3184C229.023 22.0371 229.18 21.7734 229.277 21.5273C229.375 21.2812 229.424 21.0176 229.424 20.7363C229.424 20.3496 229.307 20.0449 229.072 19.8223C228.842 19.5996 228.521 19.4883 228.111 19.4883C227.783 19.4883 227.465 19.5488 227.156 19.6699C226.852 19.791 226.498 20.0098 226.096 20.3262L225.352 19.418C225.828 19.0156 226.291 18.7305 226.74 18.5625C227.189 18.3945 227.668 18.3105 228.176 18.3105C228.973 18.3105 229.611 18.5195 230.092 18.9375C230.572 19.3516 230.812 19.9102 230.812 20.6133C230.812 21 230.742 21.3672 230.602 21.7148C230.465 22.0625 230.252 22.4219 229.963 22.793C229.678 23.1602 229.201 23.6582 228.533 24.2871L227.045 25.7285V25.7871H231.111V27Z" fill="#3D3D3D"/>
</svg>
