<svg width="184" height="147" viewBox="0 0 184 147" fill="none" xmlns="http://www.w3.org/2000/svg">
<path d="M20.1934 125.721C20.1934 126.475 19.9199 127.062 19.373 127.484C18.8262 127.906 18.084 128.117 17.1465 128.117C16.1309 128.117 15.3496 127.986 14.8027 127.725V126.764C15.1543 126.912 15.5371 127.029 15.9512 127.115C16.3652 127.201 16.7754 127.244 17.1816 127.244C17.8457 127.244 18.3457 127.119 18.6816 126.869C19.0176 126.615 19.1855 126.264 19.1855 125.814C19.1855 125.518 19.125 125.275 19.0039 125.088C18.8867 124.896 18.6875 124.721 18.4062 124.561C18.1289 124.4 17.7051 124.219 17.1348 124.016C16.3379 123.73 15.7676 123.393 15.4238 123.002C15.084 122.611 14.9141 122.102 14.9141 121.473C14.9141 120.812 15.1621 120.287 15.6582 119.896C16.1543 119.506 16.8105 119.311 17.627 119.311C18.4785 119.311 19.2617 119.467 19.9766 119.779L19.666 120.646C18.959 120.35 18.2715 120.201 17.6035 120.201C17.0762 120.201 16.6641 120.314 16.3672 120.541C16.0703 120.768 15.9219 121.082 15.9219 121.484C15.9219 121.781 15.9766 122.025 16.0859 122.217C16.1953 122.404 16.3789 122.578 16.6367 122.738C16.8984 122.895 17.2969 123.068 17.832 123.26C18.7305 123.58 19.3477 123.924 19.6836 124.291C20.0234 124.658 20.1934 125.135 20.1934 125.721ZM22.7715 128H21.7988V121.578H22.7715V128ZM21.7168 119.838C21.7168 119.615 21.7715 119.453 21.8809 119.352C21.9902 119.246 22.127 119.193 22.291 119.193C22.4473 119.193 22.582 119.246 22.6953 119.352C22.8086 119.457 22.8652 119.619 22.8652 119.838C22.8652 120.057 22.8086 120.221 22.6953 120.33C22.582 120.436 22.4473 120.488 22.291 120.488C22.127 120.488 21.9902 120.436 21.8809 120.33C21.7715 120.221 21.7168 120.057 21.7168 119.838ZM25.8066 128H24.834V118.883H25.8066V128ZM31.8184 128L31.625 127.086H31.5781C31.2578 127.488 30.9375 127.762 30.6172 127.906C30.3008 128.047 29.9043 128.117 29.4277 128.117C28.791 128.117 28.291 127.953 27.9277 127.625C27.5684 127.297 27.3887 126.83 27.3887 126.225C27.3887 124.928 28.4258 124.248 30.5 124.186L31.5898 124.15V123.752C31.5898 123.248 31.4805 122.877 31.2617 122.639C31.0469 122.396 30.7012 122.275 30.2246 122.275C29.6895 122.275 29.084 122.439 28.4082 122.768L28.1094 122.023C28.4258 121.852 28.7715 121.717 29.1465 121.619C29.5254 121.521 29.9043 121.473 30.2832 121.473C31.0488 121.473 31.6152 121.643 31.9824 121.982C32.3535 122.322 32.5391 122.867 32.5391 123.617V128H31.8184ZM29.6211 127.314C30.2266 127.314 30.7012 127.148 31.0449 126.816C31.3926 126.484 31.5664 126.02 31.5664 125.422V124.842L30.5938 124.883C29.8203 124.91 29.2617 125.031 28.918 125.246C28.5781 125.457 28.4082 125.787 28.4082 126.236C28.4082 126.588 28.5137 126.855 28.7246 127.039C28.9395 127.223 29.2383 127.314 29.6211 127.314ZM38.9434 128V123.846C38.9434 123.322 38.8242 122.932 38.5859 122.674C38.3477 122.416 37.9746 122.287 37.4668 122.287C36.791 122.287 36.2969 122.471 35.9844 122.838C35.6758 123.205 35.5215 123.807 35.5215 124.643V128H34.5488V118.883H35.5215V121.643C35.5215 121.975 35.5059 122.25 35.4746 122.469H35.5332C35.7246 122.16 35.9961 121.918 36.3477 121.742C36.7031 121.562 37.1074 121.473 37.5605 121.473C38.3457 121.473 38.9336 121.66 39.3242 122.035C39.7188 122.406 39.916 122.998 39.916 123.811V128H38.9434ZM42.8809 124.713C43.0488 124.475 43.3047 124.162 43.6484 123.775L45.7227 121.578H46.877L44.2754 124.314L47.0586 128H45.8809L43.6133 124.965L42.8809 125.598V128H41.9199V118.883H42.8809V123.717C42.8809 123.932 42.8652 124.264 42.834 124.713H42.8809ZM52.1738 128L51.9805 127.086H51.9336C51.6133 127.488 51.293 127.762 50.9727 127.906C50.6562 128.047 50.2598 128.117 49.7832 128.117C49.1465 128.117 48.6465 127.953 48.2832 127.625C47.9238 127.297 47.7441 126.83 47.7441 126.225C47.7441 124.928 48.7812 124.248 50.8555 124.186L51.9453 124.15V123.752C51.9453 123.248 51.8359 122.877 51.6172 122.639C51.4023 122.396 51.0566 122.275 50.5801 122.275C50.0449 122.275 49.4395 122.439 48.7637 122.768L48.4648 122.023C48.7812 121.852 49.127 121.717 49.502 121.619C49.8809 121.521 50.2598 121.473 50.6387 121.473C51.4043 121.473 51.9707 121.643 52.3379 121.982C52.709 122.322 52.8945 122.867 52.8945 123.617V128H52.1738ZM49.9766 127.314C50.582 127.314 51.0566 127.148 51.4004 126.816C51.748 126.484 51.9219 126.02 51.9219 125.422V124.842L50.9492 124.883C50.1758 124.91 49.6172 125.031 49.2734 125.246C48.9336 125.457 48.7637 125.787 48.7637 126.236C48.7637 126.588 48.8691 126.855 49.0801 127.039C49.2949 127.223 49.5938 127.314 49.9766 127.314ZM59.2988 128V123.846C59.2988 123.322 59.1797 122.932 58.9414 122.674C58.7031 122.416 58.3301 122.287 57.8223 122.287C57.1504 122.287 56.6582 122.469 56.3457 122.832C56.0332 123.195 55.877 123.795 55.877 124.631V128H54.9043V121.578H55.6953L55.8535 122.457H55.9004C56.0996 122.141 56.3789 121.896 56.7383 121.725C57.0977 121.549 57.498 121.461 57.9395 121.461C58.7129 121.461 59.2949 121.648 59.6855 122.023C60.0762 122.395 60.2715 122.99 60.2715 123.811V128H59.2988ZM67.4668 127.314C67.6387 127.314 67.8047 127.303 67.9648 127.279C68.125 127.252 68.252 127.225 68.3457 127.197V127.941C68.2402 127.992 68.084 128.033 67.877 128.064C67.6738 128.1 67.4902 128.117 67.3262 128.117C66.084 128.117 65.4629 127.463 65.4629 126.154V122.334H64.543V121.865L65.4629 121.461L65.873 120.09H66.4355V121.578H68.2988V122.334H66.4355V126.113C66.4355 126.5 66.5273 126.797 66.7109 127.004C66.8945 127.211 67.1465 127.314 67.4668 127.314ZM73.584 128L73.3906 127.086H73.3438C73.0234 127.488 72.7031 127.762 72.3828 127.906C72.0664 128.047 71.6699 128.117 71.1934 128.117C70.5566 128.117 70.0566 127.953 69.6934 127.625C69.334 127.297 69.1543 126.83 69.1543 126.225C69.1543 124.928 70.1914 124.248 72.2656 124.186L73.3555 124.15V123.752C73.3555 123.248 73.2461 122.877 73.0273 122.639C72.8125 122.396 72.4668 122.275 71.9902 122.275C71.4551 122.275 70.8496 122.439 70.1738 122.768L69.875 122.023C70.1914 121.852 70.5371 121.717 70.9121 121.619C71.291 121.521 71.6699 121.473 72.0488 121.473C72.8145 121.473 73.3809 121.643 73.748 121.982C74.1191 122.322 74.3047 122.867 74.3047 123.617V128H73.584ZM71.3867 127.314C71.9922 127.314 72.4668 127.148 72.8105 126.816C73.1582 126.484 73.332 126.02 73.332 125.422V124.842L72.3594 124.883C71.5859 124.91 71.0273 125.031 70.6836 125.246C70.3438 125.457 70.1738 125.787 70.1738 126.236C70.1738 126.588 70.2793 126.855 70.4902 127.039C70.7051 127.223 71.0039 127.314 71.3867 127.314ZM84.5 128V123.822C84.5 123.311 84.3906 122.928 84.1719 122.674C83.9531 122.416 83.6133 122.287 83.1523 122.287C82.5469 122.287 82.0996 122.461 81.8105 122.809C81.5215 123.156 81.377 123.691 81.377 124.414V128H80.4043V123.822C80.4043 123.311 80.2949 122.928 80.0762 122.674C79.8574 122.416 79.5156 122.287 79.0508 122.287C78.4414 122.287 77.9941 122.471 77.709 122.838C77.4277 123.201 77.2871 123.799 77.2871 124.631V128H76.3145V121.578H77.1055L77.2637 122.457H77.3105C77.4941 122.145 77.752 121.9 78.084 121.725C78.4199 121.549 78.7949 121.461 79.209 121.461C80.2129 121.461 80.8691 121.824 81.1777 122.551H81.2246C81.416 122.215 81.6934 121.949 82.0566 121.754C82.4199 121.559 82.834 121.461 83.2988 121.461C84.0254 121.461 84.5684 121.648 84.9277 122.023C85.291 122.395 85.4727 122.99 85.4727 123.811V128H84.5ZM90.4707 121.473C91.3145 121.473 91.9688 121.762 92.4336 122.34C92.9023 122.914 93.1367 123.729 93.1367 124.783C93.1367 125.838 92.9004 126.658 92.4277 127.244C91.959 127.826 91.3066 128.117 90.4707 128.117C90.0527 128.117 89.6699 128.041 89.3223 127.889C88.9785 127.732 88.6895 127.494 88.4551 127.174H88.3848L88.1797 128H87.4824V118.883H88.4551V121.098C88.4551 121.594 88.4395 122.039 88.4082 122.434H88.4551C88.9082 121.793 89.5801 121.473 90.4707 121.473ZM90.3301 122.287C89.666 122.287 89.1875 122.479 88.8945 122.861C88.6016 123.24 88.4551 123.881 88.4551 124.783C88.4551 125.686 88.6055 126.332 88.9062 126.723C89.207 127.109 89.6895 127.303 90.3535 127.303C90.9512 127.303 91.3965 127.086 91.6895 126.652C91.9824 126.215 92.1289 125.588 92.1289 124.771C92.1289 123.936 91.9824 123.312 91.6895 122.902C91.3965 122.492 90.9434 122.287 90.3301 122.287ZM98.791 128L98.5977 127.086H98.5508C98.2305 127.488 97.9102 127.762 97.5898 127.906C97.2734 128.047 96.877 128.117 96.4004 128.117C95.7637 128.117 95.2637 127.953 94.9004 127.625C94.541 127.297 94.3613 126.83 94.3613 126.225C94.3613 124.928 95.3984 124.248 97.4727 124.186L98.5625 124.15V123.752C98.5625 123.248 98.4531 122.877 98.2344 122.639C98.0195 122.396 97.6738 122.275 97.1973 122.275C96.6621 122.275 96.0566 122.439 95.3809 122.768L95.082 122.023C95.3984 121.852 95.7441 121.717 96.1191 121.619C96.498 121.521 96.877 121.473 97.2559 121.473C98.0215 121.473 98.5879 121.643 98.9551 121.982C99.3262 122.322 99.5117 122.867 99.5117 123.617V128H98.791ZM96.5938 127.314C97.1992 127.314 97.6738 127.148 98.0176 126.816C98.3652 126.484 98.5391 126.02 98.5391 125.422V124.842L97.5664 124.883C96.793 124.91 96.2344 125.031 95.8906 125.246C95.5508 125.457 95.3809 125.787 95.3809 126.236C95.3809 126.588 95.4863 126.855 95.6973 127.039C95.9121 127.223 96.2109 127.314 96.5938 127.314ZM105.916 128V123.846C105.916 123.322 105.797 122.932 105.559 122.674C105.32 122.416 104.947 122.287 104.439 122.287C103.764 122.287 103.27 122.471 102.957 122.838C102.648 123.205 102.494 123.807 102.494 124.643V128H101.521V118.883H102.494V121.643C102.494 121.975 102.479 122.25 102.447 122.469H102.506C102.697 122.16 102.969 121.918 103.32 121.742C103.676 121.562 104.08 121.473 104.533 121.473C105.318 121.473 105.906 121.66 106.297 122.035C106.691 122.406 106.889 122.998 106.889 123.811V128H105.916ZM109.854 124.713C110.021 124.475 110.277 124.162 110.621 123.775L112.695 121.578H113.85L111.248 124.314L114.031 128H112.854L110.586 124.965L109.854 125.598V128H108.893V118.883H109.854V123.717C109.854 123.932 109.838 124.264 109.807 124.713H109.854ZM119.146 128L118.953 127.086H118.906C118.586 127.488 118.266 127.762 117.945 127.906C117.629 128.047 117.232 128.117 116.756 128.117C116.119 128.117 115.619 127.953 115.256 127.625C114.896 127.297 114.717 126.83 114.717 126.225C114.717 124.928 115.754 124.248 117.828 124.186L118.918 124.15V123.752C118.918 123.248 118.809 122.877 118.59 122.639C118.375 122.396 118.029 122.275 117.553 122.275C117.018 122.275 116.412 122.439 115.736 122.768L115.438 122.023C115.754 121.852 116.1 121.717 116.475 121.619C116.854 121.521 117.232 121.473 117.611 121.473C118.377 121.473 118.943 121.643 119.311 121.982C119.682 122.322 119.867 122.867 119.867 123.617V128H119.146ZM116.949 127.314C117.555 127.314 118.029 127.148 118.373 126.816C118.721 126.484 118.895 126.02 118.895 125.422V124.842L117.922 124.883C117.148 124.91 116.59 125.031 116.246 125.246C115.906 125.457 115.736 125.787 115.736 126.236C115.736 126.588 115.842 126.855 116.053 127.039C116.268 127.223 116.566 127.314 116.949 127.314ZM126.271 128V123.846C126.271 123.322 126.152 122.932 125.914 122.674C125.676 122.416 125.303 122.287 124.795 122.287C124.123 122.287 123.631 122.469 123.318 122.832C123.006 123.195 122.85 123.795 122.85 124.631V128H121.877V121.578H122.668L122.826 122.457H122.873C123.072 122.141 123.352 121.896 123.711 121.725C124.07 121.549 124.471 121.461 124.912 121.461C125.686 121.461 126.268 121.648 126.658 122.023C127.049 122.395 127.244 122.99 127.244 123.811V128H126.271ZM136.314 128L136.121 127.086H136.074C135.754 127.488 135.434 127.762 135.113 127.906C134.797 128.047 134.4 128.117 133.924 128.117C133.287 128.117 132.787 127.953 132.424 127.625C132.064 127.297 131.885 126.83 131.885 126.225C131.885 124.928 132.922 124.248 134.996 124.186L136.086 124.15V123.752C136.086 123.248 135.977 122.877 135.758 122.639C135.543 122.396 135.197 122.275 134.721 122.275C134.186 122.275 133.58 122.439 132.904 122.768L132.605 122.023C132.922 121.852 133.268 121.717 133.643 121.619C134.021 121.521 134.4 121.473 134.779 121.473C135.545 121.473 136.111 121.643 136.479 121.982C136.85 122.322 137.035 122.867 137.035 123.617V128H136.314ZM134.117 127.314C134.723 127.314 135.197 127.148 135.541 126.816C135.889 126.484 136.062 126.02 136.062 125.422V124.842L135.09 124.883C134.316 124.91 133.758 125.031 133.414 125.246C133.074 125.457 132.904 125.787 132.904 126.236C132.904 126.588 133.01 126.855 133.221 127.039C133.436 127.223 133.734 127.314 134.117 127.314ZM140.018 128H139.045V118.883H140.018V128ZM146.029 128L145.836 127.086H145.789C145.469 127.488 145.148 127.762 144.828 127.906C144.512 128.047 144.115 128.117 143.639 128.117C143.002 128.117 142.502 127.953 142.139 127.625C141.779 127.297 141.6 126.83 141.6 126.225C141.6 124.928 142.637 124.248 144.711 124.186L145.801 124.15V123.752C145.801 123.248 145.691 122.877 145.473 122.639C145.258 122.396 144.912 122.275 144.436 122.275C143.9 122.275 143.295 122.439 142.619 122.768L142.32 122.023C142.637 121.852 142.982 121.717 143.357 121.619C143.736 121.521 144.115 121.473 144.494 121.473C145.26 121.473 145.826 121.643 146.193 121.982C146.564 122.322 146.75 122.867 146.75 123.617V128H146.029ZM143.832 127.314C144.438 127.314 144.912 127.148 145.256 126.816C145.604 126.484 145.777 126.02 145.777 125.422V124.842L144.805 124.883C144.031 124.91 143.473 125.031 143.129 125.246C142.789 125.457 142.619 125.787 142.619 126.236C142.619 126.588 142.725 126.855 142.936 127.039C143.15 127.223 143.449 127.314 143.832 127.314ZM156.945 128V123.822C156.945 123.311 156.836 122.928 156.617 122.674C156.398 122.416 156.059 122.287 155.598 122.287C154.992 122.287 154.545 122.461 154.256 122.809C153.967 123.156 153.822 123.691 153.822 124.414V128H152.85V123.822C152.85 123.311 152.74 122.928 152.521 122.674C152.303 122.416 151.961 122.287 151.496 122.287C150.887 122.287 150.439 122.471 150.154 122.838C149.873 123.201 149.732 123.799 149.732 124.631V128H148.76V121.578H149.551L149.709 122.457H149.756C149.939 122.145 150.197 121.9 150.529 121.725C150.865 121.549 151.24 121.461 151.654 121.461C152.658 121.461 153.314 121.824 153.623 122.551H153.67C153.861 122.215 154.139 121.949 154.502 121.754C154.865 121.559 155.279 121.461 155.744 121.461C156.471 121.461 157.014 121.648 157.373 122.023C157.736 122.395 157.918 122.99 157.918 123.811V128H156.945ZM163.877 128L163.684 127.086H163.637C163.316 127.488 162.996 127.762 162.676 127.906C162.359 128.047 161.963 128.117 161.486 128.117C160.85 128.117 160.35 127.953 159.986 127.625C159.627 127.297 159.447 126.83 159.447 126.225C159.447 124.928 160.484 124.248 162.559 124.186L163.648 124.15V123.752C163.648 123.248 163.539 122.877 163.32 122.639C163.105 122.396 162.76 122.275 162.283 122.275C161.748 122.275 161.143 122.439 160.467 122.768L160.168 122.023C160.484 121.852 160.83 121.717 161.205 121.619C161.584 121.521 161.963 121.473 162.342 121.473C163.107 121.473 163.674 121.643 164.041 121.982C164.412 122.322 164.598 122.867 164.598 123.617V128H163.877ZM161.68 127.314C162.285 127.314 162.76 127.148 163.104 126.816C163.451 126.484 163.625 126.02 163.625 125.422V124.842L162.652 124.883C161.879 124.91 161.32 125.031 160.977 125.246C160.637 125.457 160.467 125.787 160.467 126.236C160.467 126.588 160.572 126.855 160.783 127.039C160.998 127.223 161.297 127.314 161.68 127.314ZM168.682 127.314C168.854 127.314 169.02 127.303 169.18 127.279C169.34 127.252 169.467 127.225 169.561 127.197V127.941C169.455 127.992 169.299 128.033 169.092 128.064C168.889 128.1 168.705 128.117 168.541 128.117C167.299 128.117 166.678 127.463 166.678 126.154V122.334H165.758V121.865L166.678 121.461L167.088 120.09H167.65V121.578H169.514V122.334H167.65V126.113C167.65 126.5 167.742 126.797 167.926 127.004C168.109 127.211 168.361 127.314 168.682 127.314ZM48.3008 144.117C47.8828 144.117 47.5 144.041 47.1523 143.889C46.8086 143.732 46.5195 143.494 46.2852 143.174H46.2148C46.2617 143.549 46.2852 143.904 46.2852 144.24V146.883H45.3125V137.578H46.1035L46.2383 138.457H46.2852C46.5352 138.105 46.8262 137.852 47.1582 137.695C47.4902 137.539 47.8711 137.461 48.3008 137.461C49.1523 137.461 49.8086 137.752 50.2695 138.334C50.7344 138.916 50.9668 139.732 50.9668 140.783C50.9668 141.838 50.7305 142.658 50.2578 143.244C49.7891 143.826 49.1367 144.117 48.3008 144.117ZM48.1602 138.287C47.5039 138.287 47.0293 138.469 46.7363 138.832C46.4434 139.195 46.293 139.773 46.2852 140.566V140.783C46.2852 141.686 46.4355 142.332 46.7363 142.723C47.0371 143.109 47.5195 143.303 48.1836 143.303C48.7383 143.303 49.1719 143.078 49.4844 142.629C49.8008 142.18 49.959 141.561 49.959 140.771C49.959 139.971 49.8008 139.357 49.4844 138.932C49.1719 138.502 48.7305 138.287 48.1602 138.287ZM55.3848 144.117C54.4355 144.117 53.6855 143.828 53.1348 143.25C52.5879 142.672 52.3145 141.869 52.3145 140.842C52.3145 139.807 52.5684 138.984 53.0762 138.375C53.5879 137.766 54.2734 137.461 55.1328 137.461C55.9375 137.461 56.5742 137.727 57.043 138.258C57.5117 138.785 57.7461 139.482 57.7461 140.35V140.965H53.3223C53.3418 141.719 53.5312 142.291 53.8906 142.682C54.2539 143.072 54.7637 143.268 55.4199 143.268C56.1113 143.268 56.7949 143.123 57.4707 142.834V143.701C57.127 143.85 56.8008 143.955 56.4922 144.018C56.1875 144.084 55.8184 144.117 55.3848 144.117ZM55.1211 138.275C54.6055 138.275 54.1934 138.443 53.8848 138.779C53.5801 139.115 53.4004 139.58 53.3457 140.174H56.7031C56.7031 139.561 56.5664 139.092 56.293 138.768C56.0195 138.439 55.6289 138.275 55.1211 138.275ZM63.8047 144V139.846C63.8047 139.322 63.6855 138.932 63.4473 138.674C63.209 138.416 62.8359 138.287 62.3281 138.287C61.6562 138.287 61.1641 138.469 60.8516 138.832C60.5391 139.195 60.3828 139.795 60.3828 140.631V144H59.4102V137.578H60.2012L60.3594 138.457H60.4062C60.6055 138.141 60.8848 137.896 61.2441 137.725C61.6035 137.549 62.0039 137.461 62.4453 137.461C63.2188 137.461 63.8008 137.648 64.1914 138.023C64.582 138.395 64.7773 138.99 64.7773 139.811V144H63.8047ZM72.0371 137.578V138.193L70.8477 138.334C70.957 138.471 71.0547 138.65 71.1406 138.873C71.2266 139.092 71.2695 139.34 71.2695 139.617C71.2695 140.246 71.0547 140.748 70.625 141.123C70.1953 141.498 69.6055 141.686 68.8555 141.686C68.6641 141.686 68.4844 141.67 68.3164 141.639C67.9023 141.857 67.6953 142.133 67.6953 142.465C67.6953 142.641 67.7676 142.771 67.9121 142.857C68.0566 142.939 68.3047 142.98 68.6562 142.98H69.793C70.4883 142.98 71.0215 143.127 71.3926 143.42C71.7676 143.713 71.9551 144.139 71.9551 144.697C71.9551 145.408 71.6699 145.949 71.0996 146.32C70.5293 146.695 69.6973 146.883 68.6035 146.883C67.7637 146.883 67.1152 146.727 66.6582 146.414C66.2051 146.102 65.9785 145.66 65.9785 145.09C65.9785 144.699 66.1035 144.361 66.3535 144.076C66.6035 143.791 66.9551 143.598 67.4082 143.496C67.2441 143.422 67.1055 143.307 66.9922 143.15C66.8828 142.994 66.8281 142.812 66.8281 142.605C66.8281 142.371 66.8906 142.166 67.0156 141.99C67.1406 141.814 67.3379 141.645 67.6074 141.48C67.2754 141.344 67.0039 141.111 66.793 140.783C66.5859 140.455 66.4824 140.08 66.4824 139.658C66.4824 138.955 66.6934 138.414 67.1152 138.035C67.5371 137.652 68.1348 137.461 68.9082 137.461C69.2441 137.461 69.5469 137.5 69.8164 137.578H72.0371ZM66.916 145.078C66.916 145.426 67.0625 145.689 67.3555 145.869C67.6484 146.049 68.0684 146.139 68.6152 146.139C69.4316 146.139 70.0352 146.016 70.4258 145.77C70.8203 145.527 71.0176 145.197 71.0176 144.779C71.0176 144.432 70.9102 144.189 70.6953 144.053C70.4805 143.92 70.0762 143.854 69.4824 143.854H68.3164C67.875 143.854 67.5312 143.959 67.2852 144.17C67.0391 144.381 66.916 144.684 66.916 145.078ZM67.4434 139.635C67.4434 140.084 67.5703 140.424 67.8242 140.654C68.0781 140.885 68.4316 141 68.8848 141C69.834 141 70.3086 140.539 70.3086 139.617C70.3086 138.652 69.8281 138.17 68.8672 138.17C68.4102 138.17 68.0586 138.293 67.8125 138.539C67.5664 138.785 67.4434 139.15 67.4434 139.635ZM74.3281 144H73.3555V137.578H74.3281V144ZM73.2734 135.838C73.2734 135.615 73.3281 135.453 73.4375 135.352C73.5469 135.246 73.6836 135.193 73.8477 135.193C74.0039 135.193 74.1387 135.246 74.252 135.352C74.3652 135.457 74.4219 135.619 74.4219 135.838C74.4219 136.057 74.3652 136.221 74.252 136.33C74.1387 136.436 74.0039 136.488 73.8477 136.488C73.6836 136.488 73.5469 136.436 73.4375 136.33C73.3281 136.221 73.2734 136.057 73.2734 135.838ZM79.3203 137.461C79.6055 137.461 79.8613 137.484 80.0879 137.531L79.9531 138.434C79.6875 138.375 79.4531 138.346 79.25 138.346C78.7305 138.346 78.2852 138.557 77.9141 138.979C77.5469 139.4 77.3633 139.926 77.3633 140.555V144H76.3906V137.578H77.1934L77.3047 138.768H77.3516C77.5898 138.35 77.877 138.027 78.2129 137.801C78.5488 137.574 78.918 137.461 79.3203 137.461ZM82.2617 144H81.2891V137.578H82.2617V144ZM81.207 135.838C81.207 135.615 81.2617 135.453 81.3711 135.352C81.4805 135.246 81.6172 135.193 81.7812 135.193C81.9375 135.193 82.0723 135.246 82.1855 135.352C82.2988 135.457 82.3555 135.619 82.3555 135.838C82.3555 136.057 82.2988 136.221 82.1855 136.33C82.0723 136.436 81.9375 136.488 81.7812 136.488C81.6172 136.488 81.4805 136.436 81.3711 136.33C81.2617 136.221 81.207 136.057 81.207 135.838ZM92.5098 144V139.822C92.5098 139.311 92.4004 138.928 92.1816 138.674C91.9629 138.416 91.623 138.287 91.1621 138.287C90.5566 138.287 90.1094 138.461 89.8203 138.809C89.5312 139.156 89.3867 139.691 89.3867 140.414V144H88.4141V139.822C88.4141 139.311 88.3047 138.928 88.0859 138.674C87.8672 138.416 87.5254 138.287 87.0605 138.287C86.4512 138.287 86.0039 138.471 85.7188 138.838C85.4375 139.201 85.2969 139.799 85.2969 140.631V144H84.3242V137.578H85.1152L85.2734 138.457H85.3203C85.5039 138.145 85.7617 137.9 86.0938 137.725C86.4297 137.549 86.8047 137.461 87.2188 137.461C88.2227 137.461 88.8789 137.824 89.1875 138.551H89.2344C89.4258 138.215 89.7031 137.949 90.0664 137.754C90.4297 137.559 90.8438 137.461 91.3086 137.461C92.0352 137.461 92.5781 137.648 92.9375 138.023C93.3008 138.395 93.4824 138.99 93.4824 139.811V144H92.5098ZM99.4414 144L99.248 143.086H99.2012C98.8809 143.488 98.5605 143.762 98.2402 143.906C97.9238 144.047 97.5273 144.117 97.0508 144.117C96.4141 144.117 95.9141 143.953 95.5508 143.625C95.1914 143.297 95.0117 142.83 95.0117 142.225C95.0117 140.928 96.0488 140.248 98.123 140.186L99.2129 140.15V139.752C99.2129 139.248 99.1035 138.877 98.8848 138.639C98.6699 138.396 98.3242 138.275 97.8477 138.275C97.3125 138.275 96.707 138.439 96.0312 138.768L95.7324 138.023C96.0488 137.852 96.3945 137.717 96.7695 137.619C97.1484 137.521 97.5273 137.473 97.9062 137.473C98.6719 137.473 99.2383 137.643 99.6055 137.982C99.9766 138.322 100.162 138.867 100.162 139.617V144H99.4414ZM97.2441 143.314C97.8496 143.314 98.3242 143.148 98.668 142.816C99.0156 142.484 99.1895 142.02 99.1895 141.422V140.842L98.2168 140.883C97.4434 140.91 96.8848 141.031 96.541 141.246C96.2012 141.457 96.0312 141.787 96.0312 142.236C96.0312 142.588 96.1367 142.855 96.3477 143.039C96.5625 143.223 96.8613 143.314 97.2441 143.314ZM106.566 144V139.846C106.566 139.322 106.447 138.932 106.209 138.674C105.971 138.416 105.598 138.287 105.09 138.287C104.418 138.287 103.926 138.469 103.613 138.832C103.301 139.195 103.145 139.795 103.145 140.631V144H102.172V137.578H102.963L103.121 138.457H103.168C103.367 138.141 103.646 137.896 104.006 137.725C104.365 137.549 104.766 137.461 105.207 137.461C105.98 137.461 106.562 137.648 106.953 138.023C107.344 138.395 107.539 138.99 107.539 139.811V144H106.566ZM116.609 144L116.416 143.086H116.369C116.049 143.488 115.729 143.762 115.408 143.906C115.092 144.047 114.695 144.117 114.219 144.117C113.582 144.117 113.082 143.953 112.719 143.625C112.359 143.297 112.18 142.83 112.18 142.225C112.18 140.928 113.217 140.248 115.291 140.186L116.381 140.15V139.752C116.381 139.248 116.271 138.877 116.053 138.639C115.838 138.396 115.492 138.275 115.016 138.275C114.48 138.275 113.875 138.439 113.199 138.768L112.9 138.023C113.217 137.852 113.562 137.717 113.938 137.619C114.316 137.521 114.695 137.473 115.074 137.473C115.84 137.473 116.406 137.643 116.773 137.982C117.145 138.322 117.33 138.867 117.33 139.617V144H116.609ZM114.412 143.314C115.018 143.314 115.492 143.148 115.836 142.816C116.184 142.484 116.357 142.02 116.357 141.422V140.842L115.385 140.883C114.611 140.91 114.053 141.031 113.709 141.246C113.369 141.457 113.199 141.787 113.199 142.236C113.199 142.588 113.305 142.855 113.516 143.039C113.73 143.223 114.029 143.314 114.412 143.314ZM123.734 144V139.846C123.734 139.322 123.615 138.932 123.377 138.674C123.139 138.416 122.766 138.287 122.258 138.287C121.586 138.287 121.094 138.469 120.781 138.832C120.469 139.195 120.312 139.795 120.312 140.631V144H119.34V137.578H120.131L120.289 138.457H120.336C120.535 138.141 120.814 137.896 121.174 137.725C121.533 137.549 121.934 137.461 122.375 137.461C123.148 137.461 123.73 137.648 124.121 138.023C124.512 138.395 124.707 138.99 124.707 139.811V144H123.734ZM131.082 143.139H131.029C130.58 143.791 129.908 144.117 129.014 144.117C128.174 144.117 127.52 143.83 127.051 143.256C126.586 142.682 126.354 141.865 126.354 140.807C126.354 139.748 126.588 138.926 127.057 138.34C127.525 137.754 128.178 137.461 129.014 137.461C129.885 137.461 130.553 137.777 131.018 138.41H131.094L131.053 137.947L131.029 137.496V134.883H132.002V144H131.211L131.082 143.139ZM129.137 143.303C129.801 143.303 130.281 143.123 130.578 142.764C130.879 142.4 131.029 141.816 131.029 141.012V140.807C131.029 139.896 130.877 139.248 130.572 138.861C130.271 138.471 129.789 138.275 129.125 138.275C128.555 138.275 128.117 138.498 127.812 138.943C127.512 139.385 127.361 140.01 127.361 140.818C127.361 141.639 127.512 142.258 127.812 142.676C128.113 143.094 128.555 143.303 129.137 143.303ZM138.02 144L137.826 143.086H137.779C137.459 143.488 137.139 143.762 136.818 143.906C136.502 144.047 136.105 144.117 135.629 144.117C134.992 144.117 134.492 143.953 134.129 143.625C133.77 143.297 133.59 142.83 133.59 142.225C133.59 140.928 134.627 140.248 136.701 140.186L137.791 140.15V139.752C137.791 139.248 137.682 138.877 137.463 138.639C137.248 138.396 136.902 138.275 136.426 138.275C135.891 138.275 135.285 138.439 134.609 138.768L134.311 138.023C134.627 137.852 134.973 137.717 135.348 137.619C135.727 137.521 136.105 137.473 136.484 137.473C137.25 137.473 137.816 137.643 138.184 137.982C138.555 138.322 138.74 138.867 138.74 139.617V144H138.02ZM135.822 143.314C136.428 143.314 136.902 143.148 137.246 142.816C137.594 142.484 137.768 142.02 137.768 141.422V140.842L136.795 140.883C136.021 140.91 135.463 141.031 135.119 141.246C134.779 141.457 134.609 141.787 134.609 142.236C134.609 142.588 134.715 142.855 134.926 143.039C135.141 143.223 135.439 143.314 135.822 143.314Z" fill="#747474"/>
<path d="M83.3906 127.756C83.2775 126.18 83.5294 124.597 84.12 123.173C84.7105 121.749 85.6181 120.536 86.7481 119.66C87.878 118.784 89.1889 118.277 90.544 118.193C91.8991 118.109 93.2487 118.451 94.452 119.182C95.0343 117.367 95.632 115.52 96.6618 114.001C97.6916 112.483 99.2486 111.318 100.91 111.39V127.756H83.3906Z" fill="#EBEBEB"/>
<path d="M37.2325 64.3516L28.2768 85.4161L30.9525 85.534L23.3607 102.272H27.3481L21.1294 117.142H55.8918L48.2356 102.272L51.9044 102.086L44.57 85.3554L47.2794 85.1696L37.2325 64.3516Z" fill="#EBEBEB"/>
<path d="M38.7499 88.7856C38.7928 88.7856 38.7161 97.7174 38.5782 108.707C38.4403 119.697 38.2932 128.628 38.2472 128.625C38.2012 128.621 38.2809 119.693 38.4188 108.703C38.5568 97.7138 38.7039 88.7856 38.7499 88.7856Z" fill="#E0E0E0"/>
<path d="M43.0099 93.6978C42.8377 94.0396 42.6419 94.3646 42.4245 94.6695C42.0475 95.2554 41.505 96.045 40.892 96.9096L39.3289 99.1139C39.1231 99.4293 38.8988 99.7277 38.6577 100.007C38.8275 99.6631 39.0223 99.3368 39.2401 99.0318C39.6201 98.4494 40.1595 97.6563 40.7725 96.7917L42.3356 94.5873C42.5408 94.2714 42.7662 93.974 43.0099 93.6978Z" fill="#E0E0E0"/>
<path d="M38.6704 100.007C37.987 99.5011 37.3318 98.945 36.7088 98.3423C36.0533 97.7855 35.4298 97.1792 34.8423 96.5273C35.527 97.0328 36.1832 97.5889 36.8069 98.1922C37.4626 98.7473 38.0852 99.3537 38.6704 100.007Z" fill="#E0E0E0"/>
<path d="M38.4281 110.336C38.1929 110.159 37.9733 109.956 37.7722 109.729C37.3799 109.339 36.8528 108.803 36.2398 108.224C35.6268 107.646 35.069 107.135 34.6644 106.767C34.4348 106.58 34.2194 106.371 34.0208 106.142C34.2709 106.286 34.5081 106.46 34.7288 106.66C35.1548 107.017 35.7279 107.499 36.3409 108.089C36.9539 108.678 37.4841 109.225 37.8581 109.639C38.0669 109.85 38.2578 110.083 38.4281 110.336Z" fill="#E0E0E0"/>
<path d="M43.3811 103.951C43.337 104.054 43.2825 104.15 43.2187 104.237C43.1084 104.412 42.9398 104.659 42.7253 104.952C42.2931 105.548 41.6679 106.341 40.9599 107.202C40.2519 108.063 39.6174 108.835 39.1669 109.41C38.9351 109.732 38.6885 110.038 38.4282 110.328C38.4682 110.225 38.522 110.13 38.5876 110.046C38.6979 109.868 38.8665 109.621 39.081 109.332C39.5132 108.731 40.1385 107.938 40.8465 107.081C41.5545 106.223 42.1889 105.445 42.6394 104.869C42.8717 104.547 43.1193 104.241 43.3811 103.951Z" fill="#E0E0E0"/>
<path d="M110.147 88.3209H146.467L153.253 77.0884L160.366 88.6389L168.724 88.4817L159.717 74.3374L119.22 74.5339L110.147 88.3209Z" fill="#E0E0E0"/>
<path d="M128.31 88.4822V127.857H164.578V88.4822H160.422L153.253 77.0889L146.445 88.3107L128.31 88.4822Z" fill="#F5F5F5"/>
<path d="M141.919 110.786H133.435V127.857H141.919V110.786Z" fill="#E0E0E0"/>
<path d="M160.367 110.304H147.003V119.954H160.367V110.304Z" fill="#E0E0E0"/>
<path d="M151.015 110.304H150.709V120.043H151.015V110.304Z" fill="#EBEBEB"/>
<path d="M156.572 110.304H156.266V120.043H156.572V110.304Z" fill="#EBEBEB"/>
<path d="M156.419 115.288H150.862V115.645H156.419V115.288Z" fill="#EBEBEB"/>
<path d="M160.367 90.9937H147.003V100.643H160.367V90.9937Z" fill="#E0E0E0"/>
<path d="M151.015 90.9937H150.709V100.733H151.015V90.9937Z" fill="#EBEBEB"/>
<path d="M156.572 90.9937H156.266V100.733H156.572V90.9937Z" fill="#EBEBEB"/>
<path d="M156.419 95.9771H150.862V96.3343H156.419V95.9771Z" fill="#EBEBEB"/>
<path d="M141.033 91.0791H132.604V100.382H141.033V91.0791Z" fill="#E0E0E0"/>
<path d="M128.313 88.4819H113.593V127.853H128.313V88.4819Z" fill="#E0E0E0"/>
<path d="M136.972 91.0791H136.665V100.382H136.972V91.0791Z" fill="#EBEBEB"/>
<path d="M141.033 95.7808H132.604V96.1381H141.033V95.7808Z" fill="#EBEBEB"/>
<path d="M153.234 86.6882C154.221 86.6882 155.021 85.7557 155.021 84.6053C155.021 83.455 154.221 82.5225 153.234 82.5225C152.247 82.5225 151.447 83.455 151.447 84.6053C151.447 85.7557 152.247 86.6882 153.234 86.6882Z" fill="#E0E0E0"/>
<path d="M140.487 82.051L142.74 78.807V71.0078H138.02V82.1118L140.487 82.051Z" fill="#F5F5F5"/>
<path d="M140.487 82.051V71.0078H142.74V78.807L140.487 82.051Z" fill="#EBEBEB"/>
<path d="M143.059 69.8613H137.493V71.0082H143.059V69.8613Z" fill="#EBEBEB"/>
<path d="M128.31 105.706H100.922V127.856H128.31V105.706Z" fill="#F5F5F5"/>
<path d="M118.07 105.706H100.922V127.856H118.07V105.706Z" fill="#E0E0E0"/>
<path d="M115.517 112.848H104.302V127.817H115.517V112.848Z" fill="#F5F5F5"/>
<path d="M126.802 112.787H119.578V114.93H126.802V112.787Z" fill="#EBEBEB"/>
<path d="M110.147 88.3208V89.4604H146.445V88.3101L110.147 88.3208Z" fill="#EBEBEB"/>
<path d="M146.445 89.4611L153.234 78.3536L153.253 77.0889L146.467 88.3214L146.445 89.4611Z" fill="#EBEBEB"/>
<path d="M168.55 88.4819H160.422V89.2179H168.55V88.4819Z" fill="#EBEBEB"/>
<path d="M139.025 108.171H136.025V109.5H139.025V108.171Z" fill="#E0E0E0"/>
<path d="M184 127.856C184 127.906 142.807 127.949 92.0031 127.949C41.1988 127.949 0 127.906 0 127.856C0 127.806 41.1835 127.756 92 127.756C142.817 127.756 184 127.802 184 127.856Z" fill="#263238"/>
<path d="M112.82 24.2263C106.031 13.3403 96.162 8.26709 85.8485 8.26709C85.8485 8.26709 60.6272 8.26709 53.158 34.5871C50.3996 44.2869 51.0126 54.8192 54.3533 64.2654C55.6076 67.8564 57.1879 71.2806 59.0672 74.4797C65.5924 85.4478 85.87 115.391 85.87 115.391H90.2774C95.9352 106.23 110.178 75.8016 114.444 66.0446C119.793 53.801 120.614 36.7235 112.82 24.2263ZM90.069 72.9113C85.8073 72.9113 81.6414 71.4382 78.0981 68.6782C74.5547 65.9183 71.793 61.9955 70.1623 57.4059C68.5316 52.8164 68.1051 47.7662 68.9367 42.8941C69.7684 38.022 71.8208 33.5467 74.8344 30.0343C77.848 26.522 81.6875 24.1302 85.8673 23.1615C90.0471 22.1928 94.3795 22.6907 98.3166 24.5922C102.254 26.4937 105.618 29.7134 107.986 33.8442C110.353 37.975 111.616 42.8312 111.615 47.7989C111.615 54.4594 109.344 60.8469 105.304 65.5562C101.263 70.2656 95.7829 72.9113 90.069 72.9113Z" fill="#4584FF"/>
<path opacity="0.4" d="M112.82 24.2263C106.031 13.3403 96.162 8.26709 85.8485 8.26709C85.8485 8.26709 60.6272 8.26709 53.158 34.5871C50.3996 44.2869 51.0126 54.8192 54.3533 64.2654C55.6076 67.8564 57.1879 71.2806 59.0672 74.4797C65.5924 85.4478 85.87 115.391 85.87 115.391H90.2774C95.9352 106.23 110.178 75.8016 114.444 66.0446C119.793 53.801 120.614 36.7235 112.82 24.2263ZM90.069 72.9113C85.8073 72.9113 81.6414 71.4382 78.0981 68.6782C74.5547 65.9183 71.793 61.9955 70.1623 57.4059C68.5316 52.8164 68.1051 47.7662 68.9367 42.8941C69.7684 38.022 71.8208 33.5467 74.8344 30.0343C77.848 26.522 81.6875 24.1302 85.8673 23.1615C90.0471 22.1928 94.3795 22.6907 98.3166 24.5922C102.254 26.4937 105.618 29.7134 107.986 33.8442C110.353 37.975 111.616 42.8312 111.615 47.7989C111.615 54.4594 109.344 60.8469 105.304 65.5562C101.263 70.2656 95.7829 72.9113 90.069 72.9113Z" fill="black"/>
<path d="M117.255 24.4302C110.466 13.5478 100.597 8.47461 90.2836 8.47461C90.2836 8.47461 65.0623 8.47461 57.5931 34.7946C54.8346 44.4944 55.4476 55.0267 58.7915 64.4729C60.044 68.0641 61.6233 71.4885 63.5023 74.6872C70.0275 85.6517 90.2959 115.609 90.2959 115.609C90.2959 115.609 113.715 78.0562 118.87 66.2664C124.228 54.0013 125.052 36.931 117.255 24.4302ZM90.0967 73.1188C85.8352 73.1188 81.6694 71.6457 78.1261 68.886C74.5828 66.1262 71.8211 62.2036 70.1903 57.6143C68.5595 53.0249 68.1328 47.9749 68.9642 43.1029C69.7956 38.2309 71.8477 33.7557 74.861 30.2431C77.8743 26.7306 81.7135 24.3385 85.8931 23.3694C90.0728 22.4003 94.405 22.8977 98.3421 24.7987C102.279 26.6996 105.644 29.9188 108.012 34.0491C110.379 38.1794 111.643 43.0353 111.643 48.0028C111.664 51.308 111.121 54.5851 110.046 57.6434C108.971 60.7018 107.385 63.4804 105.38 65.8176C103.375 68.1548 100.991 70.0038 98.3671 71.2573C95.7434 72.5107 92.9321 73.1435 90.0967 73.1188Z" fill="#4584FF"/>
<path d="M90.0692 22.6836C85.6166 22.6836 81.2734 24.2915 77.6368 27.2862C74.0002 30.2809 71.2488 34.5154 69.761 39.4073C71.4234 35.1246 74.2432 31.5941 77.7893 29.3558C81.3355 27.1174 85.4129 26.2941 89.3983 27.0119C93.3837 27.7297 97.0578 29.9489 99.8591 33.3305C102.66 36.7121 104.435 41.0698 104.911 45.7377C105.387 50.4057 104.538 55.1269 102.495 59.1797C100.452 63.2325 97.3267 66.394 93.5967 68.1808C89.8667 69.9677 85.7374 70.2817 81.8399 69.0747C77.9424 67.8678 74.4911 65.2063 72.0137 61.4972C74.0503 65.1437 76.8647 68.1108 80.1812 70.1076C83.4976 72.1045 87.2023 73.0627 90.9321 72.8882C94.6618 72.7137 98.2887 71.4125 101.457 69.1123C104.626 66.812 107.227 63.5915 109.006 59.7665C110.786 55.9415 111.682 51.6433 111.607 47.293C111.532 42.9427 110.489 38.6897 108.58 34.9509C106.671 31.212 103.961 28.1156 100.716 25.9651C97.4706 23.8146 93.802 22.6838 90.0692 22.6836Z" fill="#4584FF"/>
<path opacity="0.4" d="M90.0692 22.6836C85.6166 22.6836 81.2734 24.2915 77.6368 27.2862C74.0002 30.2809 71.2488 34.5154 69.761 39.4073C71.4234 35.1246 74.2432 31.5941 77.7893 29.3558C81.3355 27.1174 85.4129 26.2941 89.3983 27.0119C93.3837 27.7297 97.0578 29.9489 99.8591 33.3305C102.66 36.7121 104.435 41.0698 104.911 45.7377C105.387 50.4057 104.538 55.1269 102.495 59.1797C100.452 63.2325 97.3267 66.394 93.5967 68.1808C89.8667 69.9677 85.7374 70.2817 81.8399 69.0747C77.9424 67.8678 74.4911 65.2063 72.0137 61.4972C74.0503 65.1437 76.8647 68.1108 80.1812 70.1076C83.4976 72.1045 87.2023 73.0627 90.9321 72.8882C94.6618 72.7137 98.2887 71.4125 101.457 69.1123C104.626 66.812 107.227 63.5915 109.006 59.7665C110.786 55.9415 111.682 51.6433 111.607 47.293C111.532 42.9427 110.489 38.6897 108.58 34.9509C106.671 31.212 103.961 28.1156 100.716 25.9651C97.4706 23.8146 93.802 22.6838 90.0692 22.6836Z" fill="black"/>
<path d="M133.03 59.3138C132.164 58.6196 131.112 58.3115 130.066 58.4457C128.301 58.6815 125.742 58.9852 125.742 58.9852V59.0816L113.381 59.9676L109.596 51.0181L103.861 55.4232C103.861 55.4232 104.615 56.8308 107.83 63.7511C108.458 65.1019 109.426 66.1955 110.604 66.8843C111.782 67.573 113.113 67.8237 114.417 67.6025L128.972 65.1016V65.0694C130.477 64.973 132.105 64.8086 132.344 64.555C132.797 64.0762 133.208 62.3256 133.208 62.3256C133.208 62.3256 135.801 64.112 136.301 64.162C136.8 64.212 136.892 63.7154 137.202 63.2009C137.422 62.883 134.75 60.6786 133.03 59.3138Z" fill="#FFBE9D"/>
<path d="M110.368 50.4467C110.368 50.4467 107.965 45.0555 105.771 39.9645C103.067 33.7158 97.1061 32.4618 97.1061 32.4618L88.4691 31.1399C88.4691 31.1399 81.242 27.335 74.5298 36.7848L69.0129 43.9694L70.1868 45.202L75.6577 50.9183L76.7396 52.0544L79.2161 49.0819L78.0667 56.6096L76.0347 67.1061L80.4267 66.4881L83.3967 45.3199L100.143 46.874L98.8071 60.2323C99.0768 60.1859 101.103 59.7214 101.762 56.5131C101.974 55.4893 101.974 54.4215 101.762 53.3977L102.73 56.2881L110.368 50.4467Z" fill="#455A64"/>
<path d="M83.3754 45.3306L80.4055 66.4987L76.0134 67.1168C78.9472 70.0673 82.5099 72.0397 86.3256 72.8257C90.1412 73.6118 94.0681 73.1823 97.6917 71.5827L98.8073 60.2322L100.122 46.8847L83.3754 45.3306Z" fill="#263238"/>
<path d="M84.3685 30.0892L84.0068 47.2845L86.7898 47.799L87.1637 30.3714C87.1637 30.3714 86.1921 29.8355 84.3685 30.0892Z" fill="#263238"/>
<path d="M96.1865 47.3705L98.4883 32.601C98.6201 32.4367 100.508 33.2262 101.078 33.9765L99.0124 47.6778L96.1865 47.3705Z" fill="#263238"/>
<path d="M86.9001 45.2692C86.9297 45.3629 86.9442 45.4622 86.943 45.5621C86.9639 45.8331 86.9639 46.1057 86.943 46.3767C86.9215 46.7924 86.8016 47.1931 86.5967 47.5342C86.4704 47.738 86.303 47.9024 86.1093 48.013C85.8953 48.1256 85.6568 48.1592 85.4259 48.1094C85.2095 48.0561 85.0048 47.9515 84.8245 47.8022C84.6441 47.6528 84.4921 47.4619 84.3777 47.2413C84.2003 46.8843 84.0954 46.4846 84.0712 46.073C84.0508 45.802 84.0508 45.5295 84.0712 45.2584C84.0696 45.157 84.0852 45.0563 84.1171 44.9619C84.1447 44.9619 84.1171 45.3906 84.1815 46.0587C84.2243 46.438 84.3338 46.8029 84.5033 47.1305C84.6094 47.3278 84.7484 47.4981 84.9122 47.6313C85.076 47.7645 85.2611 47.8578 85.4565 47.9058C85.6502 47.9457 85.8495 47.9205 86.0313 47.8332C86.2132 47.7459 86.3699 47.6001 86.4833 47.4128C86.6789 47.0974 86.8004 46.7279 86.8357 46.341C86.9032 45.6979 86.8694 45.2692 86.9001 45.2692Z" fill="#455A64"/>
<path d="M85.257 46.7884C85.0997 46.7154 84.9738 46.5726 84.9068 46.3914C84.8398 46.2101 84.8374 46.0053 84.9 45.822C84.9626 45.6386 85.0851 45.4918 85.2406 45.4137C85.396 45.3357 85.5717 45.3328 85.729 45.4058C85.8069 45.4419 85.8779 45.4955 85.938 45.5637C85.9981 45.6318 86.0461 45.713 86.0793 45.8028C86.1124 45.8925 86.1301 45.989 86.1313 46.0867C86.1324 46.1844 86.1171 46.2814 86.0861 46.3722C86.0551 46.463 86.0091 46.5457 85.9506 46.6158C85.8922 46.6858 85.8225 46.7418 85.7455 46.7804C85.6685 46.8191 85.5858 46.8397 85.502 46.8411C85.4181 46.8424 85.3349 46.8245 85.257 46.7884Z" fill="#455A64"/>
<path d="M98.3505 46.8808C98.3511 47.0287 98.314 47.1734 98.244 47.2966C98.174 47.4199 98.0742 47.5162 97.9572 47.5732C97.8402 47.6303 97.7113 47.6456 97.5868 47.6172C97.4624 47.5888 97.3479 47.5179 97.258 47.4137C97.1682 47.3094 97.1068 47.1763 97.0819 47.0314C97.0569 46.8864 97.0694 46.7361 97.1178 46.5995C97.1662 46.4628 97.2483 46.346 97.3537 46.2638C97.4591 46.1816 97.5831 46.1377 97.7099 46.1377C97.8793 46.1377 98.0417 46.2159 98.1618 46.3551C98.2818 46.4944 98.3496 46.6834 98.3505 46.8808Z" fill="#455A64"/>
<path d="M99.2057 46.3671C99.2007 46.6639 99.1519 46.9576 99.0617 47.2352C98.9756 47.5509 98.83 47.8402 98.6357 48.0819C98.5116 48.2318 98.36 48.3469 98.1922 48.4187C98.0245 48.4905 97.845 48.517 97.6671 48.4964C97.3122 48.4516 96.9844 48.2541 96.7477 47.9426C96.5634 47.6882 96.4407 47.3811 96.3921 47.053C96.3566 46.8376 96.3503 46.6169 96.3737 46.3992C96.3775 46.3181 96.3963 46.2388 96.4289 46.167C96.4331 46.4559 96.4577 46.7438 96.5025 47.028C96.5621 47.325 96.6843 47.6001 96.858 47.8283C97.074 48.0996 97.3668 48.2708 97.6825 48.3106C97.8384 48.3296 97.996 48.3073 98.1435 48.2455C98.2911 48.1836 98.4247 48.0838 98.5345 47.9533C98.7199 47.7358 98.864 47.4753 98.9575 47.1888C99.1169 46.6922 99.1782 46.3563 99.2057 46.3671Z" fill="#455A64"/>
<path d="M85.2048 53.444C85.1834 53.444 85.1742 53.3011 85.1803 53.0867C85.1803 52.9759 85.1803 52.8402 85.1957 52.6937C85.1957 52.6151 85.1957 52.5365 85.211 52.4615V52.34V52.2757V52.215L85.2999 52.1221C85.6599 52.1363 86.0162 52.2122 86.3573 52.3471C85.9988 52.3939 85.6364 52.3795 85.2815 52.3043C85.2631 52.3257 85.45 52.1292 85.3704 52.215V52.2686V52.3329V52.4579C85.3704 52.5365 85.355 52.6115 85.3458 52.6937C85.3458 52.8438 85.3121 52.9759 85.2968 53.0903C85.257 53.2939 85.2263 53.444 85.2048 53.444Z" fill="#455A64"/>
<path d="M84.7575 58.3532C84.7172 57.9402 84.7285 57.5226 84.7913 57.1135C84.8025 56.6975 84.8665 56.2857 84.9813 55.8916C85.0255 56.3042 85.0151 56.7223 84.9506 57.1313C84.9366 57.5473 84.8716 57.9587 84.7575 58.3532Z" fill="#455A64"/>
<path d="M85.3796 62.6148C85.0294 62.5142 84.6938 62.3541 84.3835 62.1396C84.3835 62.161 84.3008 61.9645 84.3375 62.0467V61.9931V61.9288V61.8038L84.3651 61.5715C84.3835 61.4251 84.4019 61.2893 84.4172 61.1786C84.454 60.957 84.4847 60.8213 84.5061 60.8213C84.5276 60.8213 84.5368 60.9678 84.5306 61.1786C84.5306 61.2929 84.5245 61.4251 84.5123 61.5751C84.5123 61.6573 84.5123 61.7323 84.4939 61.8109V61.9324V61.9967V62.0539C84.5337 62.136 84.4418 61.9395 84.4509 61.961C84.7863 62.1247 85.0992 62.3449 85.3796 62.6148Z" fill="#455A64"/>
<path d="M88.2117 64.2547C87.6961 64.099 87.2125 63.8245 86.7896 63.4473C87.0532 63.4978 87.3054 63.6096 87.5313 63.7759C87.783 63.8814 88.0143 64.0442 88.2117 64.2547Z" fill="#455A64"/>
<path d="M91.5829 65.1588C91.2863 65.3988 90.961 65.5866 90.6175 65.7161H90.5409H90.5164L90.4673 65.6875L90.3723 65.6303L90.1945 65.5232L89.888 65.3267C89.7225 65.2123 89.6245 65.1302 89.6337 65.1052C89.6428 65.0802 89.7593 65.1052 89.9401 65.2088C90.029 65.2516 90.1363 65.3052 90.2466 65.3695L90.4275 65.4696L90.5255 65.5232L90.5746 65.5482H90.5991H90.547C90.8738 65.3592 91.223 65.2279 91.5829 65.1588Z" fill="#455A64"/>
<path d="M93.8726 64.0764C93.8879 64.1265 93.6458 64.2837 93.3301 64.4337C93.0144 64.5838 92.7447 64.6659 92.7171 64.6195C92.6896 64.573 92.9439 64.4123 93.2596 64.2622C93.5753 64.1122 93.8542 64.03 93.8726 64.0764Z" fill="#455A64"/>
<path d="M96.1222 61.8223C96.1626 62.2399 96.1523 62.662 96.0915 63.0763L96.0394 63.1549H96.0149L95.9628 63.1799L95.8647 63.2263L95.6778 63.3085C95.5552 63.3585 95.4479 63.405 95.3529 63.4371C95.169 63.5086 95.0464 63.5407 95.0464 63.5157C95.0464 63.4907 95.1445 63.4193 95.3161 63.3157L95.6226 63.1477L95.8095 63.0549L95.9076 63.0084L95.9567 62.9834H95.9842L95.9352 63.062C95.9439 62.6402 96.0069 62.2222 96.1222 61.8223Z" fill="#455A64"/>
<path d="M96.5301 57.1919C96.5706 57.9715 96.5012 58.7536 96.3247 59.507C96.282 59.1196 96.2903 58.7268 96.3492 58.3423C96.3577 57.9502 96.4187 57.562 96.5301 57.1919Z" fill="#455A64"/>
<path d="M95.7791 53.5014C96.1375 53.4547 96.5 53.4691 96.8549 53.5443L96.9254 53.6443V53.7015V53.7658V53.8873C96.9254 53.9659 96.91 54.0409 96.9008 54.1195C96.8824 54.2696 96.8671 54.4018 96.8487 54.5161C96.815 54.7376 96.7813 54.8734 96.7598 54.8734C96.7384 54.8734 96.7323 54.7269 96.7353 54.5161C96.7353 54.4018 96.7353 54.266 96.7537 54.1159L96.769 53.8837V53.7587V53.6408L96.8395 53.7408C96.4779 53.7223 96.1205 53.6416 95.7791 53.5014Z" fill="#455A64"/>
<path d="M92.0186 53.0297C92.6528 52.9838 93.2891 53.0635 93.9004 53.2655C93.5847 53.3176 93.2637 53.3091 92.9503 53.2405C92.6321 53.2284 92.3176 53.1572 92.0186 53.0297Z" fill="#455A64"/>
<path d="M88.2579 52.5546C88.5736 52.5026 88.8946 52.511 89.208 52.5796C89.5221 52.5933 89.8324 52.6644 90.1275 52.7904C89.4933 52.8364 88.857 52.7566 88.2456 52.5546H88.2579Z" fill="#455A64"/>
<path d="M68.5531 46.5025C68.5317 46.9312 68.5225 47.3635 68.5225 47.7994C68.5214 49.4962 68.6683 51.1889 68.9607 52.8511V52.9012C68.9975 53.1084 69.0404 53.312 69.0834 53.5157C69.2489 54.3231 69.4481 55.1198 69.6688 55.9058C69.6963 56.0022 69.7239 56.1023 69.7546 56.1987C70.5453 55.9915 72.8379 53.6764 75.4768 50.7861L70.009 45.0698C69.2519 45.9416 68.8014 46.4024 68.5531 46.5025Z" fill="#FFBE9D"/>
<path d="M103.071 9.39648C103.261 11.8652 105.673 13.9445 107.8 13.8695C108.97 13.8266 110.157 13.2193 111.281 13.598C113.169 14.2375 113.933 17.3064 115.879 17.7173C117.326 18.0245 118.659 16.6455 120.127 16.5669C121.206 16.499 122.223 17.1278 123.118 17.8352C124.013 18.5426 124.865 19.3607 125.877 19.7644C126.888 20.1681 127.838 19.4536 128.871 19.0856C129.125 19.8502 129.294 20.7933 129.622 21.5865C129.95 22.3796 130.348 23.848 129.766 24.1624C129.766 24.1624 128.139 25.1449 127.198 25.0913C127.578 25.538 128.052 25.8598 128.573 26.0242C129.094 26.1885 129.643 26.1896 130.164 26.0273C130.425 27.8637 130.621 29.9823 129.552 31.3649C129.052 31.9643 128.413 32.3803 127.713 32.5618C124.298 33.5907 120.728 30.8076 117.261 31.565C115.839 31.8794 114.536 32.7726 113.099 32.9941C112.39 33.0965 111.671 33.0326 110.983 32.8062C110.296 32.5798 109.654 32.1954 109.096 31.6757C107.729 30.386 106.788 28.2281 105.054 27.8887C104.284 27.7422 103.506 27.9994 102.752 28.246C101.998 28.4925 101.219 28.7283 100.45 28.5389C99.6807 28.3496 98.9696 27.5922 99.0033 26.6847" fill="#263238"/>
<path d="M96.2908 33.3727C96.6739 30.8718 97.1153 28.2745 97.1153 28.2745C97.1153 28.2745 99.9473 28.3066 101.152 24.2373C102.298 20.3574 103.126 11.0184 103.126 11.0184C101.309 9.70023 99.1898 9.06212 97.0528 9.18986C94.9159 9.3176 92.8637 10.2051 91.1724 11.7329L88.3496 32.0079C88.0216 34.3623 89.4959 36.5631 91.6597 36.9525C93.8389 37.3669 95.9138 35.7449 96.2908 33.3727Z" fill="#FFBE9D"/>
<path d="M101.008 18.0134C100.988 18.1533 100.922 18.2788 100.824 18.3629C100.726 18.447 100.604 18.4831 100.484 18.4635C100.424 18.4573 100.366 18.4372 100.313 18.4044C100.26 18.3715 100.213 18.3266 100.175 18.2723C100.138 18.2179 100.11 18.1553 100.093 18.0881C100.077 18.021 100.072 17.9506 100.079 17.8812C100.099 17.741 100.166 17.6155 100.264 17.5314C100.363 17.4474 100.485 17.4114 100.606 17.431C100.666 17.4377 100.723 17.4581 100.776 17.4912C100.828 17.5242 100.875 17.5692 100.912 17.6235C100.95 17.6778 100.977 17.7402 100.994 17.8072C101.01 17.8742 101.015 17.9443 101.008 18.0134Z" fill="#263238"/>
<path d="M101.844 17.5671C101.777 17.6242 101.473 17.2527 100.977 17.1526C100.48 17.0526 100.076 17.2634 100.033 17.1848C99.9901 17.1062 100.088 17.0311 100.266 16.9311C100.507 16.8005 100.777 16.7606 101.038 16.8168C101.295 16.8712 101.53 17.0173 101.713 17.2348C101.844 17.4027 101.878 17.5385 101.844 17.5671Z" fill="#263238"/>
<path d="M95.92 17.0739C95.8996 17.2141 95.8332 17.3396 95.7348 17.4237C95.6363 17.5077 95.5137 17.5437 95.3928 17.5241C95.3334 17.5174 95.2757 17.497 95.2231 17.4639C95.1705 17.4309 95.1241 17.3859 95.0867 17.3316C95.0493 17.2773 95.0216 17.2149 95.0052 17.1479C94.9888 17.0809 94.9841 17.0108 94.9913 16.9417C95.0117 16.8015 95.0781 16.676 95.1766 16.592C95.275 16.5079 95.3977 16.4719 95.5185 16.4916C95.578 16.4982 95.6357 16.5187 95.6882 16.5517C95.7408 16.5848 95.7872 16.6298 95.8246 16.684C95.862 16.7383 95.8897 16.8008 95.9061 16.8677C95.9225 16.9347 95.9272 17.0048 95.92 17.0739Z" fill="#263238"/>
<path d="M96.6436 16.7132C96.5762 16.7704 96.2727 16.3988 95.7762 16.2988C95.2797 16.1987 94.8751 16.4131 94.8292 16.3309C94.7832 16.2487 94.8843 16.1809 95.0652 16.0773C95.3059 15.9498 95.5743 15.9111 95.8345 15.9665C96.0928 16.0179 96.3301 16.1644 96.5118 16.3845C96.6436 16.5524 96.6773 16.6882 96.6436 16.7132Z" fill="#263238"/>
<path d="M97.7927 21.3686C98.0685 21.3275 98.3476 21.3275 98.6233 21.3686C98.752 21.3686 98.8777 21.3686 98.9145 21.2793C98.9474 21.1293 98.941 20.9713 98.8961 20.8255C98.8317 20.4433 98.7643 20.0431 98.6907 19.6251C98.4118 17.9209 98.2371 16.5276 98.2954 16.5133C98.3536 16.499 98.6264 17.8745 98.9084 19.5822C98.9727 20.0003 99.0371 20.4004 99.0953 20.7827C99.1492 20.977 99.1416 21.1874 99.0739 21.3757C99.0477 21.4238 99.0127 21.4645 98.9713 21.4948C98.93 21.5251 98.8833 21.5442 98.8348 21.5508C98.7615 21.5604 98.6875 21.5604 98.6141 21.5508C98.3349 21.5298 98.059 21.4686 97.7927 21.3686Z" fill="#263238"/>
<path d="M97.1031 28.2748C95.4063 27.9525 93.8199 27.0866 92.521 25.7739C92.521 25.7739 93.2535 28.8893 96.9069 29.2323L97.1031 28.2748Z" fill="#EB996E"/>
<path d="M97.3728 22.7191C97.2984 22.5625 97.1916 22.4301 97.062 22.334C96.9324 22.2379 96.7843 22.1811 96.6311 22.1689C96.5206 22.159 96.4095 22.1747 96.3043 22.2151C96.1991 22.2556 96.1018 22.3201 96.0181 22.4047C95.9373 22.4878 95.8804 22.5979 95.8551 22.72C95.8299 22.8421 95.8376 22.9703 95.8771 23.0871C95.9409 23.2051 96.0329 23.2988 96.1419 23.3566C96.2508 23.4144 96.3718 23.4337 96.4901 23.4122C96.7379 23.3618 96.9752 23.2562 97.1889 23.1014C97.2522 23.0663 97.3093 23.0179 97.3575 22.9585C97.3805 22.9305 97.3957 22.8951 97.4011 22.8568C97.4066 22.8186 97.4021 22.7793 97.3881 22.7441" fill="#EB996E"/>
<path d="M96.2911 21.4682C96.3739 21.4682 96.2911 22.1042 96.6712 22.6437C97.0512 23.1831 97.6489 23.2332 97.6397 23.3225C97.6305 23.4118 97.4926 23.4154 97.2504 23.3761C96.9348 23.3165 96.6473 23.1293 96.4382 22.8473C96.2363 22.5761 96.1339 22.2232 96.1532 21.8648C96.1562 21.6004 96.239 21.454 96.2911 21.4682Z" fill="#263238"/>
<path d="M93.6028 8.73914C94.5621 11.2079 97.6699 14.2089 100.073 15.2736C99.8522 14.7662 98.5036 13.3336 98.286 12.8263C99.2545 14.0517 100.655 15.7166 102.136 16.1346C102.306 16.2004 102.489 16.2066 102.663 16.1524C102.758 16.0955 102.842 16.0137 102.906 15.9134C102.97 15.813 103.014 15.6968 103.034 15.5737C103.321 14.3293 103.491 13.0524 103.542 11.7652C103.593 10.6797 103.286 9.6126 102.684 8.78201C101.866 7.7102 100.539 7.19574 99.2453 6.8742C98.1809 6.554 97.0728 6.48116 95.9842 6.65984C94.9207 6.89564 93.9277 7.61017 93.6089 8.66411" fill="#263238"/>
<path d="M87.8745 18.0316C87.8568 17.0776 87.8875 16.1232 87.9664 15.1735C88.2086 12.9941 88.794 5.07348 95.0648 7.10991L94.3967 9.14277C94.3967 9.14277 94.8779 14.241 91.6597 16.9777C91.6597 16.9777 91.675 22.0688 89.4437 23.9051C89.4437 23.9051 87.8898 20.4539 87.8745 18.0459" fill="#263238"/>
<path d="M91.7947 16.6201C91.4238 16.4449 91.0189 16.3918 90.6239 16.4665C90.2294 16.5462 89.8774 16.8027 89.6431 17.181C89.4304 17.5793 89.3548 18.0567 89.4316 18.5172C89.5108 18.9743 89.6762 19.4051 89.9159 19.7784C90.0711 20.0591 90.2812 20.2929 90.5289 20.4608C90.6551 20.5399 90.7962 20.5813 90.9396 20.5813C91.0829 20.5813 91.224 20.5399 91.3503 20.4608" fill="#FFBE9D"/>
<path d="M91.1724 19.2893C91.2122 19.3143 91.0038 19.5501 90.6697 19.3679C90.582 19.3121 90.5046 19.2367 90.442 19.146C90.3794 19.0552 90.3328 18.9509 90.305 18.8391C90.234 18.5871 90.2069 18.3211 90.2253 18.0567C90.2381 17.7739 90.3382 17.5062 90.5073 17.3028C90.5776 17.2155 90.6642 17.1483 90.7604 17.1061C90.8566 17.064 90.9598 17.0482 91.062 17.0599C91.4267 17.1242 91.4942 17.4386 91.4513 17.4386C91.4084 17.4386 91.3011 17.285 91.0528 17.3028C90.899 17.3384 90.7612 17.4367 90.664 17.5801C90.5668 17.7235 90.5167 17.9026 90.5226 18.0853C90.495 18.5569 90.5839 19.0106 90.777 19.1571C90.9701 19.3035 91.154 19.2464 91.1724 19.2893Z" fill="#EB996E"/>
<path d="M128.105 16.9631C128.063 17.0709 128.006 17.1699 127.936 17.2561C127.735 17.5043 127.476 17.6783 127.191 17.7562C126.739 17.8883 126.263 17.8495 125.831 17.6455C125.276 17.3604 124.759 16.9825 124.298 16.5237C123.771 16.0592 123.182 15.509 122.428 15.3197C122.039 15.2338 121.637 15.2533 121.255 15.3768C120.846 15.5154 120.451 15.7009 120.075 15.9306C119.682 16.1628 119.284 16.4201 118.849 16.6451C118.415 16.8926 117.945 17.0382 117.463 17.0739C116.955 17.0934 116.455 16.9245 116.035 16.5915C115.62 16.2396 115.257 15.8098 114.962 15.3197C114.349 14.3693 113.853 13.3368 113.105 12.6616C112.742 12.3292 112.309 12.1169 111.851 12.0471C111.409 11.9889 110.961 12.0118 110.524 12.115C109.666 12.3007 108.863 12.6187 108.072 12.7366C107.339 12.8399 106.594 12.7645 105.887 12.5151C104.861 12.159 103.943 11.4686 103.242 10.5251C102.985 10.1847 102.77 9.8034 102.604 9.39258C102.623 9.41348 102.638 9.43759 102.65 9.46403C102.681 9.52477 102.721 9.59622 102.77 9.68554C103.5 11.0048 104.62 11.9659 105.918 12.3865C106.613 12.6245 107.344 12.6914 108.063 12.583C108.835 12.4615 109.632 12.14 110.515 11.9471C110.966 11.8356 111.43 11.8103 111.888 11.872C112.372 11.9442 112.83 12.1663 113.215 12.5151C114 13.2296 114.499 14.2729 115.106 15.2089C115.39 15.6828 115.739 16.0982 116.139 16.4379C116.531 16.7502 116.998 16.9091 117.472 16.8917C117.935 16.8583 118.387 16.7186 118.803 16.4808C119.223 16.2664 119.618 16.0128 120.013 15.7663C120.399 15.5308 120.805 15.3417 121.224 15.2018C121.624 15.076 122.043 15.0577 122.45 15.1482C123.16 15.395 123.813 15.8235 124.362 16.4022C124.812 16.8594 125.316 17.2395 125.858 17.5312C126.273 17.734 126.731 17.7827 127.17 17.6705C127.447 17.5983 127.702 17.4403 127.909 17.2132C128.05 17.0667 128.099 16.9595 128.105 16.9631Z" fill="#263238"/>
<path d="M57.5137 87.9351L51.9539 101.008L53.612 101.079L48.9012 111.468H51.3777L47.5159 120.697H69.0899L64.3393 111.468L66.6165 111.35L62.0651 100.968L63.7477 100.854L57.5137 87.9351Z" fill="#455A64"/>
<path d="M58.4516 103.105C58.4976 103.105 58.4516 108.643 58.378 115.47C58.3045 122.297 58.1849 127.832 58.142 127.832C58.0991 127.832 58.142 122.294 58.2186 115.466C58.2953 108.639 58.4087 103.105 58.4516 103.105Z" fill="#263238"/>
<path d="M61.0966 106.459C61.0116 106.669 60.8989 106.862 60.7625 107.031C60.4598 107.461 60.1364 107.87 59.794 108.257C59.4017 108.717 59.0462 109.128 58.7979 109.439C58.6733 109.618 58.5336 109.782 58.3811 109.929C58.4651 109.718 58.5767 109.524 58.7121 109.353C59.0166 108.926 59.3399 108.517 59.6806 108.128C60.076 107.667 60.4315 107.256 60.6798 106.945C60.8028 106.766 60.9426 106.603 61.0966 106.459Z" fill="#263238"/>
<path d="M58.3993 110.061C57.9624 109.776 57.5516 109.439 57.1734 109.057C56.76 108.719 56.3779 108.333 56.0332 107.903C56.4703 108.188 56.8811 108.524 57.2592 108.907C57.6731 109.243 58.0553 109.63 58.3993 110.061Z" fill="#263238"/>
<path d="M58.2523 116.474C57.7711 116.077 57.3096 115.649 56.87 115.191C56.396 114.781 55.9427 114.34 55.5122 113.869C56.0374 114.191 56.5273 114.586 56.9711 115.045C57.4472 115.457 57.8775 115.937 58.2523 116.474Z" fill="#263238"/>
<path d="M61.3264 112.508C61.3662 112.544 60.7349 113.501 59.846 114.555L58.7273 115.92C58.5859 116.123 58.4267 116.309 58.2523 116.474C58.2124 116.438 58.8438 115.481 59.7326 114.427L60.8513 113.066C60.9933 112.862 61.1525 112.675 61.3264 112.508Z" fill="#263238"/>
</svg>
