<svg width="372" height="222" viewBox="0 0 372 222" fill="none" xmlns="http://www.w3.org/2000/svg">
<rect x="4.64697" y="126.749" width="70" height="5" fill="#4584FF"/>
<path d="M4.56641 110.785V82.2305H10.6211V105.785H22.2031V110.785H4.56641ZM31.4609 99.8281C31.4609 101.99 31.8125 103.624 32.5156 104.73C33.2318 105.837 34.3906 106.391 35.9922 106.391C37.5807 106.391 38.7201 105.844 39.4102 104.75C40.1133 103.643 40.4648 102.003 40.4648 99.8281C40.4648 97.6667 40.1133 96.0456 39.4102 94.9648C38.707 93.8841 37.5547 93.3438 35.9531 93.3438C34.3646 93.3438 33.2188 93.8841 32.5156 94.9648C31.8125 96.0326 31.4609 97.6536 31.4609 99.8281ZM46.5586 99.8281C46.5586 103.383 45.6211 106.163 43.7461 108.168C41.8711 110.173 39.2604 111.176 35.9141 111.176C33.8177 111.176 31.9688 110.72 30.3672 109.809C28.7656 108.884 27.5352 107.562 26.6758 105.844C25.8164 104.125 25.3867 102.12 25.3867 99.8281C25.3867 96.2604 26.3177 93.487 28.1797 91.5078C30.0417 89.5286 32.6589 88.5391 36.0312 88.5391C38.1276 88.5391 39.9766 88.9948 41.5781 89.9062C43.1797 90.8177 44.4102 92.1263 45.2695 93.832C46.1289 95.5378 46.5586 97.5365 46.5586 99.8281ZM70.4844 88.9492V91.9766L67.0664 92.8555C67.6914 93.832 68.0039 94.9258 68.0039 96.1367C68.0039 98.4805 67.1836 100.31 65.543 101.625C63.9154 102.927 61.6497 103.578 58.7461 103.578L57.6719 103.52L56.793 103.422C56.181 103.891 55.875 104.411 55.875 104.984C55.875 105.844 56.9688 106.273 59.1562 106.273H62.8672C65.263 106.273 67.0859 106.788 68.3359 107.816C69.599 108.845 70.2305 110.355 70.2305 112.348C70.2305 114.9 69.1628 116.879 67.0273 118.285C64.9049 119.691 61.8516 120.395 57.8672 120.395C54.8203 120.395 52.4896 119.861 50.875 118.793C49.2734 117.738 48.4727 116.254 48.4727 114.34C48.4727 113.025 48.8828 111.924 49.7031 111.039C50.5234 110.154 51.7279 109.522 53.3164 109.145C52.7044 108.884 52.1706 108.461 51.7148 107.875C51.2591 107.276 51.0312 106.645 51.0312 105.98C51.0312 105.147 51.2721 104.457 51.7539 103.91C52.2357 103.35 52.9323 102.803 53.8438 102.27C52.6979 101.775 51.7865 100.98 51.1094 99.8867C50.4453 98.793 50.1133 97.5039 50.1133 96.0195C50.1133 93.6367 50.888 91.7943 52.4375 90.4922C53.987 89.1901 56.2005 88.5391 59.0781 88.5391C59.6901 88.5391 60.4128 88.5977 61.2461 88.7148C62.0924 88.819 62.6328 88.8971 62.8672 88.9492H70.4844ZM53.6289 113.871C53.6289 114.691 54.0195 115.336 54.8008 115.805C55.5951 116.273 56.7018 116.508 58.1211 116.508C60.2565 116.508 61.9297 116.215 63.1406 115.629C64.3516 115.043 64.957 114.242 64.957 113.227C64.957 112.406 64.599 111.84 63.8828 111.527C63.1667 111.215 62.0599 111.059 60.5625 111.059H57.4766C56.3828 111.059 55.4648 111.312 54.7227 111.82C53.9935 112.341 53.6289 113.025 53.6289 113.871ZM55.7969 96.0977C55.7969 97.2826 56.0638 98.2201 56.5977 98.9102C57.1445 99.6003 57.9714 99.9453 59.0781 99.9453C60.1979 99.9453 61.0182 99.6003 61.5391 98.9102C62.0599 98.2201 62.3203 97.2826 62.3203 96.0977C62.3203 93.4674 61.2396 92.1523 59.0781 92.1523C56.8906 92.1523 55.7969 93.4674 55.7969 96.0977ZM73.8438 83.3047C73.8438 81.3646 74.9245 80.3945 77.0859 80.3945C79.2474 80.3945 80.3281 81.3646 80.3281 83.3047C80.3281 84.2292 80.0547 84.9518 79.5078 85.4727C78.974 85.9805 78.1667 86.2344 77.0859 86.2344C74.9245 86.2344 73.8438 85.2578 73.8438 83.3047ZM80.0547 110.785H74.0977V88.9492H80.0547V110.785ZM106.48 110.785H100.523V98.0312C100.523 96.4557 100.243 95.2773 99.6836 94.4961C99.1237 93.7018 98.2318 93.3047 97.0078 93.3047C95.3411 93.3047 94.1367 93.8646 93.3945 94.9844C92.6523 96.0911 92.2812 97.9336 92.2812 100.512V110.785H86.3242V88.9492H90.875L91.6758 91.7422H92.0078C92.6719 90.6875 93.5833 89.8932 94.7422 89.3594C95.9141 88.8125 97.2422 88.5391 98.7266 88.5391C101.266 88.5391 103.193 89.2292 104.508 90.6094C105.823 91.9766 106.48 93.9557 106.48 96.5469V110.785Z" fill="#3D3D3D"/>
<path d="M406.809 194.556H110V194.705H406.809V194.556Z" fill="#EBEBEB"/>
<path d="M377.068 204.108H364.199V204.256H377.068V204.108Z" fill="#EBEBEB"/>
<path d="M314.603 201.033H294.354V201.181H314.603V201.033Z" fill="#EBEBEB"/>
<path d="M371.857 198.599H345.423V198.747H371.857V198.599Z" fill="#EBEBEB"/>
<path d="M212.708 201.591H206.095V201.739H212.708V201.591Z" fill="#EBEBEB"/>
<path d="M200.806 201.591H178.017V201.739H200.806V201.591Z" fill="#EBEBEB"/>
<path d="M165.806 199.086H149.363V199.234H165.806V199.086Z" fill="#EBEBEB"/>
<path d="M250.688 168.081H136.066C135.168 168.08 134.307 167.722 133.673 167.086C133.039 166.451 132.682 165.59 132.682 164.692V3.56581C132.69 2.67302 133.05 1.81937 133.683 1.19028C134.317 0.561188 135.173 0.207462 136.066 0.205933H250.688C251.587 0.205933 252.449 0.563046 253.085 1.19871C253.72 1.83438 254.077 2.69652 254.077 3.59549V164.692C254.077 165.591 253.72 166.453 253.085 167.088C252.449 167.724 251.587 168.081 250.688 168.081ZM136.066 0.324657C135.207 0.326229 134.385 0.6684 133.778 1.27606C133.171 1.88373 132.831 2.70723 132.831 3.56581V164.692C132.831 165.55 133.171 166.374 133.778 166.981C134.385 167.589 135.207 167.931 136.066 167.933H250.688C251.547 167.931 252.37 167.589 252.978 166.982C253.585 166.374 253.927 165.551 253.929 164.692V3.56581C253.927 2.70669 253.585 1.8832 252.978 1.2757C252.37 0.668207 251.547 0.326226 250.688 0.324657H136.066Z" fill="#EBEBEB"/>
<path d="M379.093 168.081H264.465C263.567 168.08 262.706 167.722 262.07 167.087C261.435 166.451 261.077 165.59 261.076 164.692V3.56581C261.085 2.67248 261.446 1.81884 262.081 1.18991C262.715 0.560981 263.572 0.207445 264.465 0.205933H379.093C379.985 0.209022 380.839 0.563439 381.472 1.19236C382.104 1.82129 382.463 2.67405 382.471 3.56581V164.692C382.471 165.588 382.115 166.449 381.482 167.084C380.849 167.719 379.99 168.078 379.093 168.081ZM264.465 0.324657C263.606 0.326226 262.783 0.668207 262.175 1.2757C261.568 1.8832 261.226 2.70669 261.224 3.56581V164.692C261.226 165.551 261.568 166.374 262.175 166.982C262.783 167.589 263.606 167.931 264.465 167.933H379.093C379.952 167.931 380.775 167.589 381.383 166.982C381.99 166.374 382.332 165.551 382.334 164.692V3.56581C382.332 2.70669 381.99 1.8832 381.383 1.2757C380.775 0.668207 379.952 0.326226 379.093 0.324657H264.465Z" fill="#EBEBEB"/>
<path d="M178.266 71.2204C181.558 71.2204 184.715 69.9126 187.043 67.5848C189.371 65.257 190.678 62.0998 190.678 58.8078C190.678 55.5158 189.371 52.3586 187.043 50.0308C184.715 47.703 181.558 46.3953 178.266 46.3953H176.74V71.2204H178.266Z" fill="#E0E0E0"/>
<path d="M176.728 71.2204C183.583 71.2204 189.141 65.6631 189.141 58.8078C189.141 51.9526 183.583 46.3953 176.728 46.3953C169.873 46.3953 164.315 51.9526 164.315 58.8078C164.315 65.6631 169.873 71.2204 176.728 71.2204Z" fill="#F5F5F5"/>
<path d="M176.158 60.3631C171.75 60.3631 167.522 58.6119 164.405 55.4948C161.288 52.3777 159.537 48.15 159.537 43.7418V33.8224C159.537 33.4084 159.702 33.0113 159.994 32.7185C160.287 32.4257 160.684 32.2612 161.098 32.2612C161.512 32.2612 161.909 32.4257 162.202 32.7185C162.495 33.0113 162.66 33.4084 162.66 33.8224V43.7477C162.663 47.3259 164.085 50.7566 166.615 53.2873C169.144 55.818 172.574 57.2419 176.152 57.2466C176.365 57.2335 176.578 57.264 176.779 57.3364C176.979 57.4088 177.163 57.5214 177.318 57.6674C177.473 57.8134 177.597 57.9896 177.682 58.1852C177.766 58.3809 177.81 58.5917 177.81 58.8049C177.81 59.018 177.766 59.2289 177.682 59.4245C177.597 59.6201 177.473 59.7963 177.318 59.9423C177.163 60.0883 176.979 60.2009 176.779 60.2733C176.578 60.3457 176.365 60.3762 176.152 60.3631H176.158Z" fill="#E0E0E0"/>
<path d="M147.297 42.5606H174.912C175.354 42.5606 175.789 42.4593 176.186 42.2644C176.582 42.0695 176.928 41.7862 177.198 41.4364C177.467 41.0866 177.653 40.6795 177.74 40.2466C177.828 39.8137 177.815 39.3665 177.702 38.9395L175.298 29.8868C175.136 29.2718 174.775 28.7277 174.271 28.3391C173.768 27.9505 173.15 27.7391 172.514 27.7379H149.695C149.058 27.7388 148.44 27.9499 147.935 28.3385C147.431 28.7271 147.069 29.2714 146.905 29.8868L144.531 38.9276C144.415 39.3536 144.399 39.8004 144.484 40.2335C144.568 40.6667 144.751 41.0746 145.019 41.4257C145.286 41.7768 145.631 42.0618 146.026 42.2586C146.421 42.4553 146.856 42.5587 147.297 42.5606Z" fill="#F5F5F5"/>
<path d="M353.55 71.2204C356.842 71.2204 359.999 69.9126 362.327 67.5848C364.655 65.257 365.962 62.0998 365.962 58.8078C365.962 55.5158 364.655 52.3586 362.327 50.0308C359.999 47.703 356.842 46.3953 353.55 46.3953H352.024V71.2204H353.55Z" fill="#E0E0E0"/>
<path d="M352.024 71.2204C358.879 71.2204 364.437 65.6631 364.437 58.8078C364.437 51.9526 358.879 46.3953 352.024 46.3953C345.169 46.3953 339.612 51.9526 339.612 58.8078C339.612 65.6631 345.169 71.2204 352.024 71.2204Z" fill="#F5F5F5"/>
<path d="M351.454 60.3631C347.046 60.3631 342.818 58.6119 339.701 55.4948C336.584 52.3777 334.833 48.15 334.833 43.7418V33.8224C334.833 33.4084 334.997 33.0113 335.29 32.7185C335.583 32.4257 335.98 32.2612 336.394 32.2612C336.808 32.2612 337.205 32.4257 337.498 32.7185C337.791 33.0113 337.955 33.4084 337.955 33.8224V43.7477C337.959 47.3259 339.381 50.7566 341.911 53.2873C344.44 55.818 347.87 57.2419 351.448 57.2466C351.661 57.2335 351.874 57.264 352.075 57.3364C352.275 57.4088 352.459 57.5214 352.614 57.6674C352.769 57.8134 352.893 57.9896 352.978 58.1852C353.062 58.3809 353.106 58.5917 353.106 58.8049C353.106 59.018 353.062 59.2289 352.978 59.4245C352.893 59.6201 352.769 59.7963 352.614 59.9423C352.459 60.0883 352.275 60.2009 352.075 60.2733C351.874 60.3457 351.661 60.3762 351.448 60.3631H351.454Z" fill="#E0E0E0"/>
<path d="M322.592 42.5606H350.207C350.649 42.5607 351.085 42.4594 351.481 42.2645C351.877 42.0696 352.224 41.7863 352.493 41.4365C352.763 41.0866 352.948 40.6796 353.036 40.2467C353.123 39.8138 353.11 39.3666 352.997 38.9396L350.623 29.8988C350.461 29.2838 350.1 28.7397 349.596 28.351C349.093 27.9624 348.475 27.7511 347.839 27.7499H324.991C324.354 27.7508 323.735 27.9619 323.231 28.3505C322.726 28.739 322.364 29.2833 322.201 29.8988L319.826 38.9396C319.713 39.3647 319.698 39.8102 319.784 40.2419C319.869 40.6735 320.053 41.0797 320.32 41.4294C320.587 41.7791 320.931 42.0629 321.325 42.259C321.719 42.4551 322.152 42.5583 322.592 42.5606Z" fill="#F5F5F5"/>
<path d="M189.533 155.057H198.562V120.075H189.533V155.057Z" fill="#E6E6E6"/>
<path d="M165.058 155.051H195.018L199.541 114.109H169.581L165.058 155.051Z" fill="#F0F0F0"/>
<path d="M161.811 155.051H192.762L197.286 114.109H166.34L161.811 155.051Z" fill="#F5F5F5"/>
<path d="M190.524 151.828L194.335 117.339H168.572L164.761 151.828H190.524Z" fill="white"/>
<path d="M185.206 143.464L185.39 142.081C186.345 133.426 180.943 125.715 173.927 125.715L173.767 127.122C172.811 135.771 178.213 143.482 185.235 143.482L185.206 143.464Z" fill="#F5F5F5"/>
<path d="M145.077 194.556H171.695V155.051H145.077V194.556Z" fill="#E6E6E6"/>
<path d="M147.749 194.557H145.071V186.94H150.556L147.749 194.557Z" fill="#F0F0F0"/>
<path d="M219.677 194.556H246.295V155.051H219.677V194.556Z" fill="#E6E6E6"/>
<path d="M145.071 189.885H222.01V155.057H145.071V189.885Z" fill="#F0F0F0"/>
<path d="M219.332 194.557H222.009V186.94H216.524L219.332 194.557Z" fill="#F0F0F0"/>
<path d="M147.149 171.286H219.932V157.23H147.149V171.286Z" fill="#E6E6E6"/>
<path d="M178.687 166.419H188.393C190.48 166.42 192.545 165.995 194.462 165.17C196.379 164.345 198.107 163.138 199.541 161.623H167.539C168.974 163.137 170.703 164.344 172.619 165.169C174.536 165.993 176.601 166.419 178.687 166.419Z" fill="#F0F0F0"/>
<path d="M147.149 187.611H219.932V173.554H147.149V187.611Z" fill="#E6E6E6"/>
<path d="M178.687 182.72H188.393C190.48 182.721 192.545 182.296 194.462 181.471C196.379 180.646 198.107 179.439 199.541 177.923H167.539C168.974 179.438 170.703 180.645 172.619 181.47C174.536 182.294 176.601 182.72 178.687 182.72Z" fill="#F0F0F0"/>
<path d="M217.136 153.442H217.824C217.824 152.024 217.824 148.432 217.896 140.199C218.02 125.269 218.258 124.361 218.258 124.361L216.619 131.253C215.581 138.881 216.922 146.551 217.136 153.442Z" fill="#E6E6E6"/>
<path d="M215.777 130.208C213.402 127.4 208.386 126.581 203.234 125.881C201.21 125.608 208.547 130.232 212.138 133.515C214.928 136.067 216.709 136.774 217.481 139.314C217.872 136.144 217.807 132.648 215.777 130.208Z" fill="#E6E6E6"/>
<path d="M218.905 135.242C221.28 132.434 226.296 131.621 231.448 130.921C233.473 130.648 226.106 135.272 222.544 138.555C219.754 141.107 217.973 141.814 217.202 144.354C216.81 141.184 216.851 137.664 218.905 135.242Z" fill="#E6E6E6"/>
<path d="M217.896 123.678C219.676 120.319 224.105 117.149 229.097 115.961C231.056 115.492 224.556 122.159 222.087 126.463C220.169 129.799 217.628 133.728 217.231 136.554C216.637 130.986 216.127 127.056 217.896 123.678Z" fill="#E6E6E6"/>
<path d="M217.682 155.051C215.581 155.051 213.841 154 213.717 152.647L213.366 150.344H222.004L221.647 152.647C221.529 154 219.819 155.051 217.682 155.051Z" fill="#F0F0F0"/>
<path d="M222.562 151.228H212.809L212.53 148.658H222.841L222.562 151.228Z" fill="#F0F0F0"/>
<path d="M210.642 102.142L305.746 102.142V15.3966L210.642 15.3966V102.142Z" fill="#E6E6E6"/>
<path d="M208.505 102.142L304.813 102.142V15.3966L208.505 15.3966V102.142Z" fill="#F5F5F5"/>
<path d="M300.967 98.2597V19.2848L212.34 19.2848V98.2597H300.967Z" fill="#FAFAFA"/>
<path d="M290.097 98.2597L255.216 19.2848H243.368L278.249 98.2597H290.097Z" fill="white"/>
<path d="M274.89 98.2597L240.009 19.2848H231.852L266.733 98.2597H274.89Z" fill="white"/>
<path d="M245.25 98.2538V19.2788H240.667V98.2538H245.25Z" fill="#E6E6E6"/>
<path d="M275.715 98.2538V19.2788H271.132V98.2538H275.715Z" fill="#E6E6E6"/>
<path d="M244.425 100.723V16.3939H238.631V100.723H244.425Z" fill="#F5F5F5"/>
<path d="M274.889 100.723V16.3939H269.095V100.723H274.889Z" fill="#F5F5F5"/>
<path d="M212.755 98.2597V19.2848H212.346V98.2597H212.755Z" fill="#E6E6E6"/>
<path d="M206.89 10.3983H309.919C310.05 10.3998 310.176 10.4528 310.269 10.546C310.363 10.6392 310.416 10.7651 310.417 10.8969C310.416 11.0281 310.362 11.1534 310.269 11.2457C310.176 11.3379 310.05 11.3896 309.919 11.3896H206.89C206.759 11.3896 206.633 11.3379 206.54 11.2457C206.446 11.1534 206.393 11.0281 206.392 10.8969C206.393 10.7651 206.446 10.6392 206.539 10.546C206.633 10.4528 206.758 10.3998 206.89 10.3983Z" fill="#E6E6E6"/>
<path d="M305.745 13.6692C305.922 13.6676 306.091 13.5963 306.216 13.4706C306.34 13.345 306.41 13.1753 306.41 12.9984V11.5618C306.411 11.474 306.395 11.3869 306.361 11.3056C306.328 11.2242 306.28 11.1502 306.218 11.0879C306.156 11.0255 306.082 10.976 306.001 10.9422C305.92 10.9084 305.833 10.891 305.745 10.8911C305.569 10.891 305.399 10.9609 305.273 11.0854C305.148 11.2099 305.076 11.379 305.075 11.5559V12.9925C305.075 13.1709 305.145 13.3422 305.271 13.4689C305.396 13.5956 305.567 13.6676 305.745 13.6692Z" fill="#E6E6E6"/>
<path d="M214.358 13.6692C214.536 13.6676 214.706 13.5965 214.831 13.471C214.957 13.3455 215.028 13.1758 215.029 12.9984V11.5618C215.029 11.3839 214.959 11.2133 214.833 11.0875C214.707 10.9617 214.536 10.8911 214.358 10.8911C214.182 10.8911 214.013 10.9611 213.888 11.0858C213.764 11.2105 213.694 11.3796 213.694 11.5559V12.9925C213.693 13.0806 213.709 13.1679 213.742 13.2496C213.775 13.3313 213.824 13.4057 213.886 13.4685C213.948 13.5314 214.021 13.5814 214.102 13.6159C214.183 13.6503 214.27 13.6684 214.358 13.6692Z" fill="#E6E6E6"/>
<path opacity="0.6" d="M207.045 78.8246L303.288 78.8246V10.891L207.045 10.891V78.8246Z" fill="#E0E0E0"/>
<path d="M312.002 121.88H295.405C293.641 121.88 292.211 123.31 292.211 125.074V132.755C292.211 134.519 293.641 135.949 295.405 135.949H312.002C313.766 135.949 315.196 134.519 315.196 132.755V125.074C315.196 123.31 313.766 121.88 312.002 121.88Z" fill="#FAFAFA"/>
<path d="M314.121 119.28H293.285C292.692 119.28 292.211 119.761 292.211 120.354V121.221C292.211 121.814 292.692 122.295 293.285 122.295H314.121C314.715 122.295 315.196 121.814 315.196 121.221V120.354C315.196 119.761 314.715 119.28 314.121 119.28Z" fill="#E6E6E6"/>
<path d="M292.549 151.579C292.549 151.579 292.852 161.474 304.38 161.474C315.908 161.474 316.211 151.579 316.211 151.579H292.549Z" fill="#F0F0F0"/>
<path d="M318.835 151.579C318.835 151.579 319.138 161.474 330.666 161.474C342.194 161.474 342.497 151.579 342.497 151.579H318.835Z" fill="#F0F0F0"/>
<path d="M336.786 115.51H313.991C311.565 115.51 309.598 117.477 309.598 119.903V131.562C309.598 133.988 311.565 135.955 313.991 135.955H336.786C339.212 135.955 341.179 133.988 341.179 131.562V119.903C341.179 117.477 339.212 115.51 336.786 115.51Z" fill="#F0F0F0"/>
<path d="M339.707 111.937H311.071C310.258 111.937 309.598 112.596 309.598 113.409V114.608C309.598 115.421 310.258 116.08 311.071 116.08H339.707C340.52 116.08 341.179 115.421 341.179 114.608V113.409C341.179 112.596 340.52 111.937 339.707 111.937Z" fill="#F5F5F5"/>
<path d="M283.865 194.556H286.857V145.5H283.865V194.556Z" fill="#E6E6E6"/>
<path d="M370.254 135.949H354.054V145.494H370.254V135.949Z" fill="#E6E6E6"/>
<path d="M273.506 145.5H354.048V135.954H273.506V145.5Z" fill="#F5F5F5"/>
<path d="M370.254 161.444H354.054V170.99H370.254V161.444Z" fill="#E6E6E6"/>
<path d="M273.506 170.99H354.048V161.444H273.506V170.99Z" fill="#F5F5F5"/>
<path d="M364.407 194.556H367.399V145.5H364.407V194.556Z" fill="#E6E6E6"/>
<path d="M351.062 194.556H354.054V145.5H351.062V194.556Z" fill="#F5F5F5"/>
<path d="M273.506 194.556H276.498V145.5H273.506V194.556Z" fill="#F5F5F5"/>
<path d="M258.404 221.364C321.97 221.364 373.501 218.356 373.501 214.645C373.501 210.933 321.97 207.925 258.404 207.925C194.838 207.925 143.308 210.933 143.308 214.645C143.308 218.356 194.838 221.364 258.404 221.364Z" fill="#F5F5F5"/>
<path d="M264.585 184.524H188.857C187.639 184.507 186.473 184.03 185.592 183.189C184.711 182.347 184.181 181.204 184.108 179.989L177.317 48.4727C177.279 47.8877 177.363 47.3013 177.562 46.7501C177.762 46.1989 178.073 45.6949 178.477 45.2697C178.88 44.8445 179.367 44.5071 179.907 44.2789C180.447 44.0507 181.029 43.9365 181.615 43.9434H257.343C258.56 43.9592 259.726 44.4349 260.607 45.2751C261.488 46.1153 262.018 47.2576 262.091 48.4727L268.871 179.989C268.908 180.573 268.825 181.159 268.626 181.709C268.427 182.26 268.117 182.764 267.715 183.189C267.313 183.615 266.827 183.953 266.289 184.183C265.75 184.412 265.17 184.529 264.585 184.524Z" fill="#407BFF"/>
<path opacity="0.8" d="M264.585 184.524H188.857C187.639 184.507 186.473 184.03 185.592 183.189C184.711 182.347 184.181 181.204 184.108 179.989L177.317 48.4727C177.279 47.8877 177.363 47.3013 177.562 46.7501C177.762 46.1989 178.073 45.6949 178.477 45.2697C178.88 44.8445 179.367 44.5071 179.907 44.2789C180.447 44.0507 181.029 43.9365 181.615 43.9434H257.343C258.56 43.9592 259.726 44.4349 260.607 45.2751C261.488 46.1153 262.018 47.2576 262.091 48.4727L268.871 179.989C268.908 180.573 268.825 181.159 268.626 181.709C268.427 182.26 268.117 182.764 267.715 183.189C267.313 183.615 266.827 183.953 266.289 184.183C265.75 184.412 265.17 184.529 264.585 184.524Z" fill="white"/>
<path d="M249.869 39.6575H241.493V40.2511H249.869V39.6575Z" fill="#407BFF"/>
<path d="M238.59 39.6575H235.521V40.2511H238.59V39.6575Z" fill="#407BFF"/>
<path d="M267.844 176.178H195.422C194.256 176.166 193.137 175.714 192.291 174.911C191.446 174.108 190.935 173.014 190.863 171.85L184.381 46.0626C184.345 45.5028 184.425 44.9415 184.616 44.414C184.807 43.8866 185.105 43.4043 185.491 42.9974C185.878 42.5906 186.344 42.2679 186.861 42.0496C187.377 41.8314 187.934 41.7223 188.495 41.7292H260.916C262.082 41.7421 263.2 42.1962 264.045 43.0003C264.89 43.8043 265.399 44.8985 265.469 46.0626L271.952 171.85C271.988 172.409 271.908 172.97 271.717 173.497C271.526 174.023 271.229 174.505 270.843 174.911C270.457 175.318 269.992 175.64 269.476 175.858C268.959 176.076 268.404 176.185 267.844 176.178Z" fill="#407BFF"/>
<path d="M267.844 173.287H195.422C194.998 173.272 194.593 173.102 194.286 172.809C193.978 172.516 193.789 172.119 193.754 171.696L187.266 45.9142C187.251 45.7469 187.272 45.5784 187.328 45.4198C187.383 45.2611 187.471 45.1161 187.587 44.9941C187.702 44.8724 187.843 44.7767 187.998 44.7132C188.154 44.6498 188.321 44.6201 188.489 44.6261H260.91C261.334 44.6421 261.737 44.8128 262.043 45.106C262.35 45.3991 262.538 45.7944 262.572 46.2169L269.09 171.999C269.105 172.165 269.084 172.333 269.028 172.491C268.973 172.649 268.885 172.794 268.77 172.915C268.656 173.037 268.516 173.133 268.362 173.197C268.207 173.261 268.041 173.292 267.873 173.287H267.844ZM188.489 44.7745C188.341 44.7697 188.194 44.7957 188.057 44.8509C187.92 44.9061 187.796 44.9892 187.693 45.095C187.594 45.2046 187.519 45.3332 187.471 45.473C187.423 45.6128 187.403 45.7609 187.414 45.9083L193.897 171.69C193.93 172.075 194.102 172.435 194.382 172.702C194.662 172.969 195.03 173.124 195.416 173.138H267.838C267.985 173.144 268.131 173.119 268.267 173.063C268.403 173.008 268.526 172.924 268.627 172.818C268.729 172.71 268.806 172.581 268.854 172.441C268.902 172.301 268.92 172.152 268.906 172.005L262.43 46.2229C262.398 45.8382 262.227 45.4784 261.948 45.2115C261.669 44.9446 261.302 44.7891 260.916 44.7745H188.489Z" fill="white"/>
<path opacity="0.3" d="M242.512 90.4687C250.749 82.016 250.212 68.1338 241.314 59.4619C232.415 50.7901 218.523 50.6124 210.286 59.0651C202.049 67.5178 202.585 81.4 211.484 90.0718C220.383 98.7437 234.275 98.9214 242.512 90.4687Z" fill="white"/>
<path d="M244.158 74.77C244.324 77.6872 243.737 80.5981 242.454 83.2232C241.065 86.0388 238.909 88.4047 236.234 90.0484C233.559 91.692 230.474 92.5464 227.335 92.5133C224.081 92.484 220.891 91.613 218.074 89.985C215.257 88.357 212.909 86.0275 211.259 83.2232C209.722 80.6587 208.837 77.7561 208.683 74.77C208.537 72.48 208.865 70.1844 209.646 68.0269C210.428 65.8694 211.646 63.8965 213.225 62.2315C214.805 60.5666 216.71 59.2455 218.823 58.351C220.937 57.4564 223.212 57.0076 225.506 57.0327C230.282 57.0825 234.861 58.9401 238.322 62.2313C241.783 65.5225 243.868 70.0029 244.158 74.77Z" fill="white"/>
<path d="M242.436 83.223C241.047 86.0386 238.891 88.4046 236.216 90.0482C233.541 91.6918 230.456 92.5463 227.317 92.5131C224.063 92.4838 220.873 91.6128 218.056 89.9848C215.239 88.3568 212.891 86.0273 211.242 83.223C215.753 80.1076 221.11 78.4502 226.593 78.4741C232.221 78.4953 237.724 80.1446 242.436 83.223Z" fill="#407BFF"/>
<path d="M231.898 74.3576C234.866 71.3122 234.672 66.3098 231.464 63.1842C228.257 60.0587 223.251 59.9937 220.284 63.039C217.316 66.0843 217.51 71.0868 220.718 74.2123C223.925 77.3378 228.931 77.4029 231.898 74.3576Z" fill="#407BFF"/>
<path d="M257.462 127.24H200.753C200.259 127.235 199.786 127.043 199.428 126.702C199.07 126.362 198.854 125.899 198.824 125.406L198.397 117.095C198.382 116.859 198.416 116.622 198.497 116.399C198.578 116.177 198.704 115.973 198.868 115.801C199.031 115.63 199.228 115.494 199.446 115.402C199.664 115.31 199.899 115.264 200.136 115.267H256.844C257.337 115.272 257.81 115.463 258.168 115.802C258.526 116.141 258.742 116.603 258.774 117.095L259.201 125.406C259.217 125.642 259.183 125.88 259.102 126.103C259.022 126.327 258.896 126.531 258.732 126.703C258.569 126.875 258.372 127.012 258.153 127.104C257.934 127.197 257.699 127.243 257.462 127.24Z" fill="white"/>
<path opacity="0.3" d="M240.098 110.678H216.413C215.917 110.674 215.441 110.482 215.081 110.14C214.722 109.798 214.506 109.333 214.478 108.838L214.388 107.057C214.373 106.82 214.406 106.582 214.487 106.359C214.568 106.136 214.694 105.932 214.857 105.759C215.02 105.587 215.218 105.45 215.436 105.358C215.655 105.266 215.89 105.219 216.128 105.222H239.807C240.301 105.228 240.775 105.42 241.133 105.76C241.491 106.1 241.706 106.564 241.736 107.057L241.831 108.838C241.846 109.074 241.812 109.311 241.731 109.534C241.651 109.757 241.526 109.96 241.363 110.133C241.201 110.305 241.005 110.443 240.787 110.536C240.569 110.63 240.335 110.678 240.098 110.678Z" fill="black"/>
<path opacity="0.3" d="M248.907 167.196H213.427C212.587 167.186 211.782 166.859 211.173 166.279C210.564 165.7 210.197 164.913 210.144 164.074L209.936 159.978C209.915 159.575 209.977 159.173 210.116 158.795C210.256 158.417 210.471 158.071 210.749 157.779C211.027 157.487 211.361 157.254 211.732 157.095C212.102 156.937 212.501 156.855 212.904 156.856H248.373C249.213 156.866 250.018 157.193 250.627 157.773C251.236 158.352 251.604 159.139 251.656 159.978L251.864 164.074C251.885 164.476 251.824 164.877 251.685 165.254C251.546 165.632 251.331 165.977 251.055 166.269C250.778 166.561 250.446 166.794 250.076 166.953C249.707 167.113 249.31 167.195 248.907 167.196Z" fill="black"/>
<path d="M258.5 147.34H201.786C201.292 147.333 200.819 147.141 200.461 146.801C200.104 146.461 199.888 145.998 199.856 145.506L199.429 137.195C199.414 136.958 199.448 136.721 199.529 136.498C199.61 136.275 199.736 136.072 199.899 135.899C200.063 135.727 200.259 135.591 200.478 135.498C200.696 135.405 200.931 135.359 201.168 135.361H257.876C258.37 135.366 258.844 135.558 259.202 135.898C259.56 136.239 259.776 136.702 259.806 137.195L260.239 145.506C260.253 145.742 260.218 145.979 260.137 146.201C260.055 146.424 259.929 146.627 259.766 146.799C259.603 146.971 259.407 147.108 259.189 147.201C258.971 147.294 258.737 147.341 258.5 147.34Z" fill="white"/>
<path d="M207.947 121.25C207.964 121.513 207.926 121.775 207.836 122.022C207.746 122.269 207.606 122.495 207.425 122.686C207.244 122.876 207.026 123.028 206.784 123.13C206.541 123.232 206.281 123.283 206.018 123.28C205.472 123.274 204.949 123.061 204.553 122.684C204.158 122.308 203.92 121.795 203.887 121.25C203.87 120.988 203.907 120.725 203.996 120.479C204.085 120.232 204.224 120.006 204.405 119.815C204.586 119.624 204.804 119.473 205.045 119.371C205.287 119.268 205.548 119.217 205.81 119.22C206.357 119.227 206.881 119.439 207.277 119.816C207.673 120.192 207.913 120.705 207.947 121.25Z" fill="#263238"/>
<path d="M214.198 121.25C214.215 121.512 214.178 121.775 214.089 122.022C214 122.269 213.86 122.495 213.68 122.686C213.499 122.876 213.281 123.027 213.039 123.13C212.798 123.232 212.537 123.283 212.275 123.28C211.728 123.275 211.204 123.063 210.808 122.686C210.413 122.309 210.175 121.796 210.143 121.25C210.126 120.988 210.163 120.725 210.253 120.479C210.342 120.232 210.481 120.006 210.662 119.815C210.842 119.624 211.06 119.473 211.302 119.371C211.544 119.268 211.804 119.217 212.067 119.22C212.613 119.225 213.137 119.438 213.533 119.815C213.929 120.192 214.166 120.705 214.198 121.25Z" fill="#263238"/>
<path d="M220.414 121.25C220.431 121.512 220.394 121.775 220.305 122.022C220.215 122.269 220.076 122.495 219.896 122.686C219.715 122.876 219.497 123.027 219.255 123.13C219.013 123.232 218.753 123.283 218.49 123.28C217.944 123.274 217.42 123.061 217.023 122.685C216.627 122.308 216.388 121.796 216.353 121.25C216.337 120.988 216.375 120.725 216.465 120.478C216.555 120.231 216.694 120.005 216.875 119.815C217.057 119.624 217.275 119.473 217.517 119.371C217.759 119.268 218.02 119.217 218.283 119.22C218.829 119.227 219.352 119.44 219.747 119.816C220.143 120.193 220.381 120.705 220.414 121.25Z" fill="#263238"/>
<path d="M226.676 121.25C226.692 121.512 226.654 121.775 226.565 122.021C226.475 122.268 226.336 122.493 226.156 122.684C225.975 122.874 225.758 123.025 225.516 123.128C225.275 123.231 225.015 123.283 224.753 123.28C224.206 123.274 223.682 123.061 223.286 122.685C222.889 122.308 222.65 121.796 222.616 121.25C222.599 120.989 222.637 120.726 222.726 120.48C222.816 120.233 222.955 120.007 223.136 119.817C223.316 119.627 223.534 119.475 223.775 119.373C224.017 119.27 224.277 119.218 224.539 119.22C225.085 119.227 225.609 119.439 226.006 119.816C226.402 120.192 226.641 120.705 226.676 121.25Z" fill="#263238"/>
<path d="M208.998 141.338C209.015 141.6 208.978 141.863 208.889 142.11C208.8 142.357 208.661 142.583 208.48 142.774C208.299 142.964 208.081 143.115 207.84 143.218C207.598 143.32 207.337 143.371 207.075 143.368C206.528 143.362 206.004 143.149 205.608 142.773C205.212 142.396 204.972 141.884 204.938 141.338C204.921 141.076 204.959 140.813 205.049 140.566C205.139 140.319 205.279 140.093 205.46 139.903C205.641 139.712 205.859 139.561 206.102 139.459C206.344 139.356 206.604 139.305 206.867 139.308C207.413 139.315 207.936 139.528 208.332 139.904C208.727 140.281 208.965 140.793 208.998 141.338Z" fill="#263238"/>
<path d="M215.237 141.338C215.254 141.6 215.216 141.863 215.126 142.109C215.037 142.356 214.898 142.581 214.717 142.772C214.537 142.962 214.319 143.113 214.078 143.216C213.836 143.319 213.576 143.371 213.314 143.368C212.767 143.362 212.243 143.149 211.847 142.773C211.451 142.396 211.211 141.884 211.177 141.338C211.16 141.076 211.197 140.814 211.286 140.567C211.375 140.32 211.514 140.094 211.695 139.903C211.876 139.712 212.094 139.561 212.336 139.459C212.577 139.356 212.838 139.305 213.1 139.308C213.647 139.315 214.171 139.527 214.567 139.904C214.964 140.28 215.203 140.793 215.237 141.338Z" fill="#263238"/>
<path d="M221.476 141.338C221.492 141.601 221.454 141.863 221.364 142.11C221.274 142.357 221.134 142.583 220.953 142.774C220.772 142.964 220.554 143.116 220.312 143.218C220.07 143.32 219.809 143.371 219.546 143.368C219 143.363 218.476 143.151 218.08 142.774C217.684 142.397 217.447 141.884 217.415 141.338C217.398 141.076 217.435 140.814 217.524 140.567C217.613 140.32 217.753 140.094 217.933 139.903C218.114 139.712 218.332 139.561 218.574 139.459C218.816 139.356 219.076 139.305 219.339 139.308C219.885 139.315 220.409 139.527 220.805 139.904C221.202 140.28 221.441 140.793 221.476 141.338Z" fill="#263238"/>
<path d="M227.709 141.338C227.726 141.6 227.689 141.863 227.6 142.11C227.511 142.357 227.372 142.583 227.191 142.774C227.01 142.964 226.792 143.115 226.55 143.218C226.309 143.32 226.048 143.371 225.786 143.368C225.239 143.362 224.715 143.149 224.319 142.773C223.922 142.396 223.683 141.884 223.649 141.338C223.632 141.076 223.67 140.813 223.76 140.566C223.85 140.319 223.99 140.093 224.171 139.903C224.352 139.712 224.57 139.561 224.812 139.459C225.055 139.356 225.315 139.305 225.578 139.308C226.124 139.313 226.648 139.526 227.044 139.903C227.44 140.28 227.677 140.793 227.709 141.338Z" fill="#263238"/>
<path d="M233.948 141.338C233.965 141.601 233.928 141.863 233.839 142.11C233.75 142.357 233.61 142.583 233.43 142.774C233.249 142.964 233.031 143.116 232.789 143.218C232.547 143.32 232.287 143.372 232.025 143.369C231.478 143.362 230.954 143.149 230.558 142.773C230.161 142.396 229.922 141.884 229.887 141.338C229.871 141.077 229.909 140.814 229.998 140.568C230.088 140.321 230.227 140.096 230.408 139.905C230.588 139.715 230.806 139.563 231.047 139.461C231.289 139.358 231.548 139.306 231.811 139.308C232.357 139.315 232.881 139.527 233.278 139.904C233.674 140.28 233.913 140.793 233.948 141.338Z" fill="#263238"/>
<path d="M240.187 141.338C240.203 141.601 240.165 141.863 240.076 142.11C239.986 142.357 239.846 142.583 239.665 142.774C239.484 142.964 239.265 143.116 239.023 143.218C238.781 143.32 238.521 143.371 238.258 143.368C237.712 143.362 237.188 143.149 236.793 142.772C236.398 142.396 236.16 141.883 236.127 141.338C236.109 141.076 236.147 140.814 236.236 140.567C236.325 140.32 236.464 140.094 236.645 139.903C236.825 139.712 237.043 139.561 237.285 139.459C237.527 139.356 237.787 139.305 238.05 139.308C238.597 139.315 239.121 139.527 239.517 139.904C239.913 140.28 240.153 140.793 240.187 141.338Z" fill="#263238"/>
<path d="M307.674 72.4016C307.822 72.6272 307.899 72.7459 307.994 72.9062L308.261 73.3455C308.434 73.6423 308.588 73.9391 308.736 74.23C309.033 74.8236 309.33 75.4172 309.567 76.0108C310.065 77.1898 310.493 78.3969 310.85 79.6259C311.568 82.0538 312.042 84.5476 312.262 87.0699L312.304 87.5389C312.309 87.6338 312.309 87.7289 312.304 87.8238V88.1384C312.314 88.5513 312.29 88.9642 312.233 89.3732C312.119 90.1312 311.92 90.874 311.639 91.5874C311.118 92.8615 310.427 94.0595 309.585 95.1491C308.015 97.1593 306.152 98.9222 304.059 100.379L302.42 98.4615C303.911 96.7777 305.231 94.9503 306.362 93.0061C306.87 92.1241 307.269 91.1832 307.549 90.2042C307.662 89.7896 307.728 89.3634 307.745 88.9339C307.763 88.7503 307.763 88.5654 307.745 88.3818V88.2572C307.751 88.2019 307.751 88.1462 307.745 88.0909L307.674 87.6754C307.292 85.4631 306.752 83.2809 306.059 81.1456C305.715 80.083 305.293 79.0561 304.872 78.0529C304.664 77.5483 304.427 77.0556 304.189 76.5807L303.821 75.8802L303.637 75.5537L303.483 75.2925L307.674 72.4016Z" fill="#803E3C"/>
<path d="M302.153 100.391L304.302 104.932L306.006 101.091C306.006 101.091 304.492 97.7669 302.444 98.0755L302.153 100.391Z" fill="#7F3E3B"/>
<path d="M305.84 105.157L307.549 102.356L306.006 101.091L304.302 104.932L305.84 105.157Z" fill="#7F3E3B"/>
<path d="M296.175 209.884C296.62 209.872 297.061 209.813 297.493 209.705C297.515 209.699 297.534 209.687 297.55 209.67C297.566 209.653 297.577 209.633 297.582 209.61C297.586 209.588 297.582 209.564 297.573 209.543C297.563 209.522 297.548 209.504 297.529 209.492C297.356 209.379 295.849 208.405 295.267 208.667C295.202 208.697 295.147 208.743 295.106 208.802C295.066 208.86 295.041 208.928 295.035 208.999C295.017 209.106 295.026 209.217 295.06 209.32C295.094 209.424 295.153 209.517 295.231 209.593C295.5 209.801 295.836 209.904 296.175 209.884ZM297.155 209.533C296.294 209.711 295.641 209.682 295.374 209.45C295.319 209.396 295.279 209.329 295.257 209.255C295.236 209.182 295.233 209.104 295.249 209.029C295.249 208.928 295.308 208.898 295.35 208.88C295.671 208.738 296.543 209.159 297.155 209.533Z" fill="#407BFF"/>
<path d="M297.464 209.706H297.523C297.541 209.694 297.556 209.678 297.566 209.66C297.576 209.641 297.582 209.62 297.582 209.599C297.582 209.539 297.582 208.109 297.036 207.628C296.969 207.568 296.89 207.523 296.804 207.496C296.718 207.469 296.627 207.462 296.538 207.474C296.444 207.474 296.353 207.507 296.281 207.567C296.209 207.626 296.159 207.708 296.14 207.8C296.027 208.364 296.929 209.433 297.404 209.706H297.464ZM296.615 207.693C296.663 207.692 296.711 207.7 296.755 207.717C296.8 207.735 296.841 207.761 296.876 207.794C297.189 208.256 297.351 208.804 297.339 209.361C296.864 208.981 296.3 208.174 296.371 207.836C296.371 207.782 296.413 207.711 296.561 207.693H296.615Z" fill="#407BFF"/>
<path d="M290.571 207.462C290.585 207.444 290.594 207.423 290.597 207.401C290.601 207.379 290.598 207.357 290.589 207.336C290.581 207.316 290.567 207.298 290.549 207.284C290.531 207.271 290.51 207.262 290.488 207.26C290.245 207.26 288.114 207.159 287.627 207.681V207.717C287.587 207.768 287.561 207.829 287.551 207.894C287.542 207.958 287.55 208.024 287.574 208.085C287.605 208.187 287.661 208.28 287.737 208.355C287.812 208.431 287.905 208.487 288.007 208.518C288.695 208.732 289.912 207.954 290.577 207.474L290.571 207.462ZM287.805 207.836C288.072 207.551 289.248 207.473 290.126 207.485C289.206 208.115 288.44 208.411 288.054 208.293C287.987 208.272 287.926 208.236 287.876 208.186C287.826 208.136 287.79 208.075 287.769 208.008C287.757 207.985 287.751 207.959 287.751 207.934C287.751 207.908 287.757 207.882 287.769 207.859L287.805 207.836Z" fill="#407BFF"/>
<path d="M290.572 207.462C290.581 207.443 290.586 207.423 290.586 207.402C290.586 207.382 290.581 207.361 290.572 207.343C290.542 207.295 289.877 206.156 289.094 205.918C288.981 205.885 288.863 205.876 288.747 205.89C288.631 205.904 288.518 205.942 288.417 206.001C288.132 206.167 288.114 206.363 288.15 206.488C288.304 207.04 289.818 207.527 290.471 207.521C290.492 207.521 290.512 207.515 290.529 207.505C290.547 207.494 290.562 207.479 290.572 207.462ZM288.441 206.274C288.474 206.241 288.512 206.213 288.554 206.191C288.627 206.144 288.71 206.114 288.796 206.103C288.882 206.092 288.969 206.1 289.052 206.126C289.569 206.262 290.05 206.927 290.269 207.254C289.563 207.177 288.488 206.743 288.399 206.411C288.392 206.386 288.392 206.359 288.399 206.333C288.406 206.308 288.421 206.286 288.441 206.268V206.274Z" fill="#407BFF"/>
<path d="M297.107 55.0146C296.514 57.9827 295.232 64.3997 297.292 66.3705C297.292 66.3705 296.484 69.3386 291.005 69.3386C284.974 69.3386 288.126 66.3705 288.126 66.3705C291.415 65.5869 291.332 63.1412 290.756 60.8499L297.107 55.0146Z" fill="#7F3E3B"/>
<path d="M287.063 48.0575C287.097 48.0629 287.131 48.0629 287.164 48.0575C287.193 48.0436 287.218 48.0243 287.238 48.0006C287.259 47.9769 287.275 47.9493 287.285 47.9195C287.295 47.8897 287.299 47.8582 287.296 47.8269C287.294 47.7955 287.285 47.765 287.271 47.7369C287.112 47.3983 286.873 47.103 286.576 46.8757C286.278 46.6485 285.93 46.4959 285.562 46.431C285.5 46.4258 285.438 46.4444 285.39 46.483C285.341 46.5216 285.309 46.5773 285.3 46.6387C285.294 46.7008 285.312 46.7631 285.351 46.812C285.39 46.8609 285.446 46.8925 285.508 46.8999C285.799 46.9558 286.073 47.0803 286.306 47.263C286.539 47.4457 286.726 47.6815 286.85 47.9506C286.873 47.9857 286.905 48.0141 286.942 48.0329C286.98 48.0517 287.022 48.0601 287.063 48.0575Z" fill="#263238"/>
<path d="M285.264 50.6635C284.797 51.53 284.214 52.3288 283.531 53.0379C283.716 53.2071 283.935 53.334 284.174 53.4099C284.413 53.4857 284.666 53.5087 284.914 53.4772L285.264 50.6635Z" fill="#630F0F"/>
<path d="M285.71 49.9927C285.663 50.3904 285.408 50.6872 285.152 50.6576C284.897 50.6279 284.719 50.2776 284.766 49.8799C284.814 49.4822 285.069 49.1854 285.36 49.2151C285.651 49.2447 285.752 49.595 285.71 49.9927Z" fill="#263238"/>
<path d="M285.437 49.2506L284.522 48.8826C284.522 48.8826 284.908 49.6661 285.437 49.2506Z" fill="#263238"/>
<path d="M295.813 206.334L290.969 207.462L288.025 196.325L292.869 195.197L295.813 206.334Z" fill="#7F3E3B"/>
<path d="M303.245 209.587H298.276L298.662 198.077H303.637L303.245 209.587Z" fill="#7F3E3B"/>
<path d="M297.879 209.011H303.465C303.562 209.01 303.655 209.045 303.729 209.108C303.802 209.171 303.849 209.259 303.862 209.355L304.498 213.772C304.51 213.883 304.499 213.996 304.465 214.103C304.43 214.211 304.374 214.309 304.299 214.393C304.223 214.476 304.131 214.543 304.029 214.588C303.926 214.634 303.815 214.657 303.702 214.656C301.755 214.627 300.817 214.508 298.36 214.508C296.846 214.508 294.638 214.668 292.554 214.668C290.47 214.668 290.352 212.602 291.224 212.418C295.118 211.575 295.736 210.424 297.048 209.32C297.279 209.122 297.574 209.012 297.879 209.011Z" fill="#263238"/>
<path d="M290.542 206.72L295.617 204.387C295.704 204.346 295.802 204.337 295.894 204.364C295.986 204.39 296.065 204.449 296.116 204.529L298.544 208.281C298.601 208.377 298.637 208.485 298.649 208.596C298.662 208.707 298.651 208.82 298.618 208.927C298.584 209.034 298.528 209.132 298.454 209.216C298.38 209.3 298.29 209.368 298.188 209.415C296.407 210.198 295.505 210.489 293.273 211.516C291.901 212.145 289.117 213.594 287.23 214.484C285.342 215.375 284.368 213.528 285.081 212.994C288.269 210.62 289.183 208.916 289.913 207.367C290.036 207.081 290.26 206.851 290.542 206.72Z" fill="#263238"/>
<path opacity="0.2" d="M288.025 196.325L289.604 202.297L294.389 200.938L292.875 195.197L288.025 196.325Z" fill="black"/>
<path opacity="0.2" d="M303.637 198.077H298.663L298.467 204.013H303.441L303.637 198.077Z" fill="black"/>
<path d="M305.893 67.4982C307.958 67.9553 310.167 75.3815 310.167 75.3815L304.325 81.5967C304.325 81.5967 299.476 74.6157 300.467 72.0513C301.47 69.3741 303.429 66.964 305.893 67.4982Z" fill="#263238"/>
<path opacity="0.4" d="M302.592 72.2296C301.548 71.2739 300.841 71.5588 300.36 72.3187C299.885 74.5269 302.699 79.1512 303.833 80.9024C304.355 78.8129 304.955 74.4082 302.592 72.2296Z" fill="black"/>
<path d="M279.721 67.6469C279.721 67.6469 277.346 68.4779 282.095 97.6543H302.278C301.94 89.4386 301.928 84.3691 305.84 67.4985C303.012 66.915 300.145 66.538 297.262 66.3706C294.211 66.1507 291.148 66.1507 288.097 66.3706C284.185 66.7327 279.721 67.6469 279.721 67.6469Z" fill="#263238"/>
<path opacity="0.4" d="M279.536 78.8425C279.666 80.2612 279.839 81.858 280.064 83.6626C281.72 82.1727 283.074 77.9342 282.575 75.4648C281.392 76.4251 280.366 77.5648 279.536 78.8425Z" fill="black"/>
<path d="M281.697 74.408C280.608 77.1492 279.381 79.8338 278.022 82.4516C276.679 85.1639 275.089 87.7471 273.273 90.1686L272.893 90.6376L272.704 90.8691C272.638 90.9462 272.585 91.0175 272.484 91.1243C272.127 91.5141 271.729 91.8643 271.297 92.1691C270.533 92.6976 269.697 93.1135 268.815 93.4038C267.277 93.8951 265.68 94.1786 264.066 94.2468C261.045 94.3669 258.02 94.0976 255.067 93.4454L255.394 90.9522C256.759 90.9522 258.19 90.9522 259.549 90.8394C260.914 90.7722 262.274 90.6216 263.621 90.3882C264.872 90.1931 266.096 89.8503 267.266 89.3672C267.739 89.1653 268.18 88.8975 268.578 88.5718C268.73 88.4447 268.867 88.3013 268.987 88.1444C268.987 88.1444 269.059 88.0494 269.106 87.9841L269.243 87.7882L269.522 87.3964C271.011 85.0956 272.338 82.6935 273.493 80.2077C274.68 77.6848 275.868 75.067 276.954 72.4907L281.697 74.408Z" fill="#803E3C"/>
<path d="M279.72 67.6468C277.245 68.2404 274.205 75.0314 274.205 75.0314L279.334 82.5704C279.334 82.5704 286.167 73.9688 285.353 71.345C284.522 68.6085 282.742 66.9107 279.72 67.6468Z" fill="#263238"/>
<path d="M256.818 91.3322L252.538 89.3554L252.111 93.6117C252.111 93.6117 255.673 94.6624 257.454 93.6117L256.818 91.3322Z" fill="#7F3E3B"/>
<path d="M249.98 88.9281L249.57 92.1693L252.111 93.6117L252.538 89.3555L249.98 88.9281Z" fill="#7F3E3B"/>
<path d="M299.256 50.2835C298.348 55.1333 298.069 57.211 295.291 59.4133C291.135 62.7257 285.347 60.5531 284.789 55.5311C284.279 51.0077 285.846 43.8368 290.874 42.4715C291.982 42.1659 293.149 42.1492 294.265 42.4228C295.381 42.6965 296.408 43.2515 297.248 44.0348C298.089 44.8182 298.715 45.8038 299.066 46.8977C299.417 47.9915 299.483 49.1572 299.256 50.2835Z" fill="#7F3E3B"/>
<path d="M288.601 51.3044C288.322 53.7798 288.215 60.2087 293.652 60.4105C300.307 60.6539 302.301 54.967 301.708 52.6935C305.174 49.8738 305.673 45.0239 301.779 41.3138C297.885 37.6037 289.313 39.6754 286.939 43.2906C283.929 47.7724 288.601 51.3044 288.601 51.3044Z" fill="#263238"/>
<path d="M295.267 42.7563C294.946 40.1444 295.196 38.3458 297.641 38.3458C300.087 38.3458 303.423 39.2303 304.646 41.7294C305.869 44.2285 305.97 48.1405 302.556 47.7427C299.143 47.345 295.653 45.8788 295.267 42.7563Z" fill="#407BFF"/>
<path d="M299.055 42.1271C298.461 39.0166 301.245 30.2548 308.006 29.6612C311.141 29.394 312.589 32.7658 310.974 33.3238C313.943 33.2882 315.842 37.212 313.076 37.7997C315.26 39.2006 314.72 42.0737 311.604 43.4865C309.283 44.555 299.856 46.4368 299.055 42.1271Z" fill="#263238"/>
<path d="M306.279 45.4692C304.101 45.4692 301.827 45.1486 300.414 44.2048C300.019 43.9667 299.687 43.6378 299.444 43.2456C299.201 42.8533 299.056 42.4088 299.019 41.949C299.017 41.91 299.031 41.8718 299.056 41.842C299.081 41.8123 299.117 41.7932 299.156 41.7888C299.175 41.7863 299.195 41.7879 299.214 41.7936C299.233 41.7993 299.251 41.8088 299.266 41.8217C299.281 41.8345 299.293 41.8504 299.302 41.8682C299.311 41.8861 299.315 41.9055 299.316 41.9253C299.352 42.3402 299.485 42.7408 299.705 43.0946C299.924 43.4484 300.224 43.7454 300.58 43.9614C303.269 45.7423 309.485 45.1487 311.42 44.555C313.094 44.0089 314.228 42.9463 314.453 41.7235C314.524 41.2747 314.468 40.8153 314.293 40.3961C314.118 39.977 313.83 39.6145 313.462 39.349C313.448 39.3357 313.436 39.3196 313.429 39.3017C313.421 39.2838 313.417 39.2646 313.417 39.2451C313.417 39.2256 313.421 39.2064 313.429 39.1885C313.436 39.1707 313.448 39.1546 313.462 39.1412C313.49 39.114 313.527 39.0988 313.566 39.0988C313.605 39.0988 313.642 39.114 313.67 39.1412C314.084 39.4436 314.406 39.8552 314.6 40.33C314.794 40.8049 314.852 41.3244 314.768 41.8303C314.525 43.166 313.319 44.3057 311.539 44.8875C309.82 45.3206 308.051 45.5163 306.279 45.4692Z" fill="#263238"/>
<path d="M287.087 50.6633C286.534 51.4387 286.306 52.3995 286.451 53.3405C286.647 54.5871 287.858 54.6703 288.737 53.8748C289.615 53.0794 290.381 51.6428 289.734 50.6099C289.59 50.3868 289.392 50.2042 289.157 50.0795C288.923 49.9548 288.661 49.8921 288.395 49.8975C288.13 49.9028 287.87 49.976 287.641 50.1101C287.412 50.2441 287.221 50.4346 287.087 50.6633Z" fill="#7F3E3B"/>
<path d="M287.425 97.6541C287.425 97.6541 290.31 131.781 293.308 151.014C295.724 166.549 297.635 202.861 297.635 202.861H304.414C304.414 202.861 306.824 167.636 305.602 152.273C302.497 113.391 309.425 110.221 302.295 97.66L287.425 97.6541Z" fill="#407BFF"/>
<path opacity="0.4" d="M295.962 110.553C293.275 113.373 291.107 116.645 289.557 120.218C290.346 127.887 291.284 136.4 292.281 143.855C296.373 133.261 297.642 121.785 295.962 110.553Z" fill="black"/>
<path d="M282.682 97.4405C282.682 97.4405 276.419 134.714 275.434 151.513C277.892 167.048 287.948 199.887 287.948 199.887L294.115 197.649C294.115 197.649 290.702 161.842 286.992 152.041C295.344 123.922 301.482 116.81 299.695 97.6542C295.415 97.6542 282.682 97.4405 282.682 97.4405Z" fill="#407BFF"/>
<path d="M287.123 201.526L295.457 199.264L294.982 195.94L286.06 198.356L287.123 201.526Z" fill="#263238"/>
<path d="M296.704 202.998H305.341L305.792 199.97L296.656 199.661L296.704 202.998Z" fill="#263238"/>
<path d="M302.592 96.4669L303.501 98.2774C303.572 98.4199 303.406 98.5623 303.174 98.5623H281.994C281.816 98.5623 281.661 98.4733 281.65 98.3546L281.466 96.5737C281.466 96.449 281.614 96.3422 281.81 96.3422H302.26C302.321 96.3338 302.384 96.3408 302.442 96.3626C302.5 96.3843 302.552 96.4202 302.592 96.4669Z" fill="#407BFF"/>
<path opacity="0.5" d="M302.592 96.4669L303.501 98.2774C303.572 98.4199 303.406 98.5623 303.174 98.5623H281.994C281.816 98.5623 281.661 98.4733 281.65 98.3546L281.466 96.5737C281.466 96.449 281.614 96.3422 281.81 96.3422H302.26C302.321 96.3338 302.384 96.3408 302.442 96.3626C302.5 96.3843 302.552 96.4202 302.592 96.4669Z" fill="black"/>
<path d="M299.844 98.7465H300.39C300.503 98.7465 300.586 98.6871 300.58 98.6218L300.319 96.2473C300.319 96.1761 300.218 96.1227 300.111 96.1227H299.559C299.452 96.1227 299.369 96.1761 299.375 96.2473L299.63 98.6218C299.642 98.699 299.737 98.7465 299.844 98.7465Z" fill="#407BFF"/>
<path d="M292.495 81.4603C292.43 81.4593 292.366 81.4375 292.314 81.398C292.262 81.3585 292.223 81.3034 292.204 81.2406C290.269 74.0816 286.268 68.181 284.327 67.2906C284.176 67.198 283.995 67.1681 283.822 67.2075C283.787 67.2264 283.747 67.2377 283.707 67.2409C283.666 67.244 283.626 67.2388 283.587 67.2256C283.549 67.2124 283.514 67.1915 283.484 67.1642C283.454 67.1369 283.43 67.1038 283.413 67.0668C283.397 67.0299 283.388 66.9899 283.387 66.9494C283.387 66.9089 283.394 66.8687 283.41 66.8313C283.425 66.7938 283.448 66.76 283.477 66.7318C283.507 66.7036 283.541 66.6816 283.579 66.6673C283.741 66.6077 283.915 66.5843 284.087 66.5987C284.259 66.613 284.426 66.6648 284.576 66.7504C286.63 67.724 290.691 73.5414 292.721 80.8607C294.175 80.8607 296.419 80.6648 296.965 80.6173C297.642 79.81 302.616 73.5889 300.758 66.7801C300.748 66.7427 300.744 66.7035 300.749 66.6648C300.754 66.6262 300.766 66.5889 300.786 66.5551C300.805 66.5213 300.831 66.4918 300.862 66.4682C300.893 66.4447 300.928 66.4276 300.966 66.418C301.042 66.398 301.122 66.4086 301.19 66.4475C301.258 66.4864 301.307 66.5504 301.328 66.6258C303.4 74.2003 297.393 81.0329 297.327 81.0982C297.304 81.127 297.275 81.1508 297.243 81.1681C297.21 81.1855 297.174 81.196 297.137 81.1991C297.108 81.1991 294.145 81.4603 292.495 81.4603Z" fill="#407BFF"/>
<path d="M302.331 85.6513C299.096 79.5904 297.772 79.163 297.196 77.2159C297.633 76.1272 298.255 75.1228 299.037 74.2479C298.645 74.1351 297.802 73.9689 297.256 73.8679C297.315 73.6008 297.38 73.3396 297.44 73.0844C296.846 73.0179 296.244 73.0459 295.659 73.1675V72.5739C294.905 72.4098 294.131 72.3598 293.362 72.4255C293.429 72.7064 293.494 72.9914 293.558 73.2803C292.964 73.3931 292.062 73.5771 291.628 73.7017C292.47 74.6554 293.089 75.785 293.439 77.0082C291.694 80.006 284.914 99.2748 295.944 100.753C306.973 102.231 305.561 91.718 302.331 85.6513Z" fill="#407BFF"/>
<path opacity="0.4" d="M302.331 85.6513C299.096 79.5904 297.772 79.163 297.196 77.2159C297.633 76.1272 298.255 75.1228 299.037 74.2479C298.645 74.1351 297.802 73.9689 297.256 73.8679C297.315 73.6008 297.38 73.3396 297.44 73.0844C296.846 73.0179 296.244 73.0459 295.659 73.1675V72.5739C294.905 72.4098 294.131 72.3598 293.362 72.4255C293.429 72.7064 293.494 72.9914 293.558 73.2803C292.964 73.3931 292.062 73.5771 291.628 73.7017C292.47 74.6554 293.089 75.785 293.439 77.0082C291.694 80.006 284.914 99.2748 295.944 100.753C306.973 102.231 305.561 91.718 302.331 85.6513Z" fill="white"/>
<path d="M292.987 76.4323C292.918 76.738 292.888 77.0511 292.898 77.3643C292.898 77.5839 293.492 77.7323 294.151 77.7976C294.809 77.8629 297.576 77.9698 297.487 77.6611C297.398 77.3524 297.623 76.931 297.635 76.6698C297.647 76.4086 296.537 76.3967 295.605 76.4323C294.673 76.4679 293.171 76.0999 292.987 76.4323Z" fill="#407BFF"/>
<path d="M286.57 98.7465H287.116C287.223 98.7465 287.306 98.6871 287.3 98.6218L287.045 96.2473C287.045 96.1761 286.944 96.1227 286.831 96.1227H286.303C286.196 96.1227 286.113 96.1761 286.119 96.2473L286.374 98.6218C286.362 98.699 286.457 98.7465 286.57 98.7465Z" fill="#407BFF"/>
</svg>
