<svg width="217" height="163" viewBox="0 0 217 163" fill="none" xmlns="http://www.w3.org/2000/svg">
<path d="M216.728 142.565H0.272461V142.674H216.728V142.565Z" fill="#EBEBEB"/>
<path d="M195.04 149.531H185.654V149.639H195.04V149.531Z" fill="#EBEBEB"/>
<path d="M149.484 147.288H134.718V147.397H149.484V147.288Z" fill="#EBEBEB"/>
<path d="M191.239 145.513H171.961V145.622H191.239V145.513Z" fill="#EBEBEB"/>
<path d="M75.1752 147.695H70.3525V147.804H75.1752V147.695Z" fill="#EBEBEB"/>
<path d="M66.4955 147.695H49.876V147.804H66.4955V147.695Z" fill="#EBEBEB"/>
<path d="M40.9702 145.868H28.9785V145.977H40.9702V145.868Z" fill="#EBEBEB"/>
<path d="M102.873 123.257H19.2821C18.6272 123.256 17.9996 122.995 17.5369 122.532C17.0743 122.068 16.8145 121.44 16.8145 120.785V3.28012C16.8202 2.62903 17.0825 2.00648 17.5445 1.5477C18.0066 1.08891 18.6309 0.830949 19.2821 0.829834H102.873C103.529 0.829834 104.157 1.09027 104.621 1.55384C105.085 2.01742 105.345 2.64617 105.345 3.30176V120.785C105.345 121.441 105.085 122.07 104.621 122.533C104.157 122.997 103.529 123.257 102.873 123.257ZM19.2821 0.916417C18.6559 0.917563 18.0558 1.1671 17.6135 1.61026C17.1711 2.05341 16.9227 2.65397 16.9227 3.28012V120.785C16.9227 121.412 17.1711 122.012 17.6135 122.455C18.0558 122.898 18.6559 123.148 19.2821 123.149H102.873C103.5 123.148 104.1 122.899 104.543 122.456C104.986 122.013 105.236 121.412 105.237 120.785V3.28012C105.236 2.65358 104.986 2.05302 104.543 1.60999C104.1 1.16696 103.5 0.917561 102.873 0.916417H19.2821Z" fill="#EBEBEB"/>
<path d="M196.515 123.257H112.92C112.265 123.256 111.637 122.995 111.174 122.532C110.71 122.069 110.449 121.441 110.448 120.785V3.28012C110.455 2.62863 110.718 2.00609 111.181 1.54743C111.644 1.08876 112.269 0.830937 112.92 0.829834H196.515C197.166 0.832087 197.789 1.09055 198.25 1.54922C198.711 2.00788 198.973 2.62977 198.979 3.28012V120.785C198.979 121.44 198.72 122.067 198.258 122.53C197.796 122.994 197.17 123.255 196.515 123.257ZM112.92 0.916417C112.294 0.917561 111.693 1.16696 111.25 1.60999C110.807 2.05302 110.558 2.65358 110.556 3.28012V120.785C110.558 121.412 110.807 122.013 111.25 122.456C111.693 122.899 112.294 123.148 112.92 123.149H196.515C197.142 123.148 197.743 122.899 198.186 122.456C198.629 122.013 198.878 121.412 198.879 120.785V3.28012C198.878 2.65358 198.629 2.05302 198.186 1.60999C197.743 1.16696 197.142 0.917561 196.515 0.916417H112.92Z" fill="#EBEBEB"/>
<path d="M50.0569 52.6193C52.4577 52.6193 54.7602 51.6656 56.4578 49.9679C58.1554 48.2703 59.1091 45.9679 59.1091 43.5671C59.1091 41.1663 58.1554 38.8638 56.4578 37.1662C54.7602 35.4686 52.4577 34.5149 50.0569 34.5149H48.9443V52.6193H50.0569Z" fill="#E0E0E0"/>
<path d="M48.936 52.6193C53.9354 52.6193 57.9882 48.5665 57.9882 43.5671C57.9882 38.5677 53.9354 34.5149 48.936 34.5149C43.9366 34.5149 39.8838 38.5677 39.8838 43.5671C39.8838 48.5665 43.9366 52.6193 48.936 52.6193Z" fill="#F5F5F5"/>
<path d="M48.52 44.7013C45.3051 44.7013 42.222 43.4242 39.9488 41.151C37.6755 38.8778 36.3984 35.7946 36.3984 32.5798V25.3458C36.3984 25.0439 36.5184 24.7543 36.7319 24.5408C36.9454 24.3272 37.235 24.2073 37.537 24.2073C37.839 24.2073 38.1286 24.3272 38.3421 24.5408C38.5556 24.7543 38.6756 25.0439 38.6756 25.3458V32.5841C38.6778 35.1936 39.7152 37.6956 41.5599 39.5411C43.4047 41.3867 45.9062 42.4251 48.5156 42.4285C48.6708 42.419 48.8262 42.4412 48.9724 42.494C49.1186 42.5468 49.2525 42.629 49.3657 42.7354C49.4789 42.8419 49.5692 42.9704 49.6309 43.1131C49.6926 43.2557 49.7244 43.4095 49.7244 43.5649C49.7244 43.7204 49.6926 43.8741 49.6309 44.0168C49.5692 44.1595 49.4789 44.288 49.3657 44.3945C49.2525 44.5009 49.1186 44.5831 48.9724 44.6358C48.8262 44.6886 48.6708 44.7109 48.5156 44.7013H48.52Z" fill="#E0E0E0"/>
<path d="M27.4725 31.7183H47.6115C47.9336 31.7183 48.2514 31.6444 48.5404 31.5023C48.8294 31.3602 49.082 31.1536 49.2785 30.8984C49.4751 30.6433 49.6105 30.3464 49.6742 30.0307C49.738 29.715 49.7284 29.3889 49.6462 29.0775L47.8929 22.4756C47.7746 22.0271 47.5114 21.6303 47.1442 21.3469C46.777 21.0635 46.3264 20.9093 45.8626 20.9084H29.2214C28.757 20.9091 28.3059 21.0631 27.9379 21.3464C27.57 21.6298 27.3059 22.0267 27.1868 22.4756L25.4551 29.0688C25.3708 29.3795 25.3591 29.7053 25.4208 30.0212C25.4825 30.3371 25.616 30.6346 25.811 30.8906C26.006 31.1467 26.2572 31.3545 26.5453 31.498C26.8334 31.6415 27.1506 31.7169 27.4725 31.7183Z" fill="#F5F5F5"/>
<path d="M177.888 52.6193C180.289 52.6193 182.591 51.6656 184.289 49.9679C185.986 48.2703 186.94 45.9679 186.94 43.5671C186.94 41.1663 185.986 38.8638 184.289 37.1662C182.591 35.4686 180.289 34.5149 177.888 34.5149H176.775V52.6193H177.888Z" fill="#E0E0E0"/>
<path d="M176.775 52.6193C181.774 52.6193 185.827 48.5665 185.827 43.5671C185.827 38.5677 181.774 34.5149 176.775 34.5149C171.775 34.5149 167.723 38.5677 167.723 43.5671C167.723 48.5665 171.775 52.6193 176.775 52.6193Z" fill="#F5F5F5"/>
<path d="M176.36 44.7013C173.145 44.7013 170.062 43.4242 167.789 41.151C165.515 38.8778 164.238 35.7946 164.238 32.5798V25.3458C164.238 25.0439 164.358 24.7543 164.572 24.5408C164.785 24.3272 165.075 24.2073 165.377 24.2073C165.679 24.2073 165.968 24.3272 166.182 24.5408C166.395 24.7543 166.515 25.0439 166.515 25.3458V32.5841C166.518 35.1936 167.555 37.6956 169.4 39.5411C171.245 41.3867 173.746 42.4251 176.355 42.4285C176.511 42.419 176.666 42.4412 176.812 42.494C176.958 42.5468 177.092 42.629 177.206 42.7354C177.319 42.8419 177.409 42.9704 177.471 43.1131C177.532 43.2557 177.564 43.4095 177.564 43.5649C177.564 43.7204 177.532 43.8741 177.471 44.0168C177.409 44.1595 177.319 44.288 177.206 44.3945C177.092 44.5009 176.958 44.5831 176.812 44.6358C176.666 44.6886 176.511 44.7109 176.355 44.7013H176.36Z" fill="#E0E0E0"/>
<path d="M155.311 31.7181H175.45C175.772 31.7182 176.09 31.6443 176.379 31.5022C176.668 31.36 176.92 31.1534 177.117 30.8983C177.314 30.6432 177.449 30.3463 177.513 30.0306C177.576 29.7149 177.567 29.3888 177.485 29.0774L175.753 22.4841C175.635 22.0356 175.371 21.6388 175.004 21.3554C174.637 21.072 174.187 20.9179 173.723 20.917H157.06C156.596 20.9176 156.144 21.0716 155.776 21.355C155.409 21.6384 155.144 22.0353 155.025 22.4841L153.294 29.0774C153.211 29.3874 153.2 29.7123 153.263 30.0271C153.325 30.3419 153.459 30.6381 153.654 30.8932C153.849 31.1482 154.099 31.3551 154.387 31.4981C154.674 31.6412 154.99 31.7164 155.311 31.7181Z" fill="#F5F5F5"/>
<path d="M58.2738 113.76H64.8584V88.248H58.2738V113.76Z" fill="#E6E6E6"/>
<path d="M40.4248 113.755H62.2739L65.5727 83.897H43.7236L40.4248 113.755Z" fill="#F0F0F0"/>
<path d="M38.0566 113.755H60.6287L63.9275 83.897H41.3598L38.0566 113.755Z" fill="#F5F5F5"/>
<path d="M58.9974 111.404L61.7767 86.2522H42.9883L40.209 111.404H58.9974Z" fill="white"/>
<path d="M55.1176 105.305L55.2518 104.296C55.9488 97.9841 52.0093 92.3606 46.8923 92.3606L46.7754 93.3866C46.0784 99.6941 50.0179 105.318 55.1393 105.318L55.1176 105.305Z" fill="#F5F5F5"/>
<path d="M25.8529 142.565H45.2646V113.755H25.8529L25.8529 142.565Z" fill="#E6E6E6"/>
<path d="M27.8011 142.565H25.8486V137.011H29.8487L27.8011 142.565Z" fill="#F0F0F0"/>
<path d="M80.2572 142.565H99.6689V113.755H80.2572V142.565Z" fill="#E6E6E6"/>
<path d="M25.8493 139.158H81.959V113.759H25.8493V139.158Z" fill="#F0F0F0"/>
<path d="M80.0057 142.565H81.9581V137.011H77.958L80.0057 142.565Z" fill="#F0F0F0"/>
<path d="M27.364 125.595H80.4434V115.344H27.364V125.595Z" fill="#E6E6E6"/>
<path d="M50.3645 122.045H57.4426C58.9644 122.046 60.4703 121.736 61.8683 121.135C63.2662 120.533 64.5267 119.653 65.5727 118.547H42.2344C43.2808 119.652 44.5414 120.532 45.9392 121.134C47.337 121.735 48.8428 122.045 50.3645 122.045Z" fill="#F0F0F0"/>
<path d="M27.364 137.5H80.4434V127.249H27.364V137.5Z" fill="#E6E6E6"/>
<path d="M50.3645 133.933H57.4426C58.9644 133.934 60.4703 133.624 61.8683 133.023C63.2662 132.421 64.5267 131.541 65.5727 130.435H42.2344C43.2808 131.54 44.5414 132.42 45.9392 133.021C47.337 133.623 48.8428 133.933 50.3645 133.933Z" fill="#F0F0F0"/>
<path d="M78.4042 112.582H78.9064C78.9064 111.547 78.9064 108.928 78.9583 102.924C79.0492 92.0359 79.2224 91.3735 79.2224 91.3735L78.0276 96.3997C77.27 101.963 78.2483 107.556 78.4042 112.582Z" fill="#E6E6E6"/>
<path d="M77.4132 95.6377C75.6816 93.5901 72.0235 92.9927 68.2658 92.4818C66.7896 92.2827 72.1404 95.6551 74.7595 98.0491C76.7942 99.9106 78.0929 100.426 78.6557 102.279C78.9414 99.9669 78.8938 97.417 77.4132 95.6377Z" fill="#E6E6E6"/>
<path d="M79.6948 99.3087C81.4264 97.261 85.0845 96.6679 88.8422 96.1571C90.3184 95.958 84.946 99.3303 82.3485 101.724C80.3138 103.586 79.0151 104.101 78.4523 105.954C78.1666 103.642 78.1969 101.075 79.6948 99.3087Z" fill="#E6E6E6"/>
<path d="M78.9586 90.8757C80.2573 88.4254 83.4868 86.1136 87.1276 85.2478C88.5562 84.9058 83.8159 89.7674 82.0149 92.906C80.6166 95.339 78.7638 98.2049 78.4737 100.266C78.0408 96.2048 77.6685 93.339 78.9586 90.8757Z" fill="#E6E6E6"/>
<path d="M78.8025 113.755C77.27 113.755 76.0016 112.989 75.9107 112.002L75.6553 110.322H81.9541L81.6944 112.002C81.6078 112.989 80.361 113.755 78.8025 113.755Z" fill="#F0F0F0"/>
<path d="M82.3611 110.967H75.2484L75.0449 109.093H82.5646L82.3611 110.967Z" fill="#F0F0F0"/>
<path d="M73.6686 75.1697L143.025 75.1697V11.9082L73.6686 11.9082L73.6686 75.1697Z" fill="#E6E6E6"/>
<path d="M72.11 75.1697L142.346 75.1697V11.9082L72.11 11.9082L72.11 75.1697Z" fill="#F5F5F5"/>
<path d="M139.54 72.3383V14.7437L74.9063 14.7437V72.3383H139.54Z" fill="#FAFAFA"/>
<path d="M131.613 72.3383L106.175 14.7437H97.5342L122.972 72.3383H131.613Z" fill="white"/>
<path d="M120.523 72.3383L95.0849 14.7437H89.1367L114.575 72.3383H120.523Z" fill="white"/>
<path d="M98.9072 72.3341V14.7395H95.5651V72.3341H98.9072Z" fill="#E6E6E6"/>
<path d="M121.124 72.3341V14.7395H117.782V72.3341H121.124Z" fill="#E6E6E6"/>
<path d="M98.3047 74.135V12.6355H94.0795V74.135H98.3047Z" fill="#F5F5F5"/>
<path d="M120.522 74.135V12.6355H116.297V74.135H120.522Z" fill="#F5F5F5"/>
<path d="M75.21 72.3383V14.7437H74.9113V72.3383H75.21Z" fill="#E6E6E6"/>
<path d="M70.932 8.26294H146.068C146.164 8.26406 146.256 8.30274 146.324 8.37069C146.392 8.43865 146.431 8.53049 146.432 8.62659C146.431 8.72228 146.392 8.81367 146.324 8.88093C146.256 8.94819 146.164 8.98591 146.068 8.9859H70.932C70.8363 8.98591 70.7445 8.94819 70.6764 8.88093C70.6083 8.81367 70.5695 8.72228 70.5684 8.62659C70.5695 8.53049 70.6082 8.43865 70.6761 8.37069C70.7441 8.30274 70.8359 8.26406 70.932 8.26294Z" fill="#E6E6E6"/>
<path d="M143.025 10.6483C143.154 10.6472 143.278 10.5952 143.368 10.5035C143.459 10.4119 143.51 10.2881 143.51 10.1592V9.1115C143.511 9.04747 143.499 8.98395 143.475 8.92463C143.45 8.8653 143.415 8.81134 143.37 8.76585C143.325 8.72037 143.271 8.68427 143.212 8.65963C143.153 8.635 143.089 8.62231 143.025 8.62231C142.896 8.62231 142.773 8.67325 142.681 8.76406C142.589 8.85487 142.537 8.97819 142.536 9.10718V10.1548C142.536 10.285 142.588 10.4098 142.679 10.5023C142.771 10.5947 142.895 10.6472 143.025 10.6483Z" fill="#E6E6E6"/>
<path d="M76.3784 10.6483C76.5078 10.6472 76.6316 10.5953 76.7231 10.5038C76.8146 10.4123 76.8665 10.2885 76.8676 10.1592V9.1115C76.8676 8.98176 76.8161 8.85734 76.7243 8.7656C76.6326 8.67385 76.5082 8.62231 76.3784 8.62231C76.2498 8.62231 76.1265 8.6734 76.0356 8.76433C75.9447 8.85526 75.8936 8.97858 75.8936 9.10718V10.1548C75.893 10.2191 75.9051 10.2828 75.9292 10.3424C75.9532 10.4019 75.9888 10.4562 76.0338 10.502C76.0788 10.5478 76.1324 10.5843 76.1916 10.6095C76.2507 10.6346 76.3142 10.6478 76.3784 10.6483Z" fill="#E6E6E6"/>
<path opacity="0.6" d="M71.0454 58.1648L141.233 58.1648V8.62235L71.0454 8.62235V58.1648Z" fill="#E0E0E0"/>
<path d="M147.588 89.564H135.483C134.197 89.564 133.154 90.6067 133.154 91.893V97.4949C133.154 98.7812 134.197 99.824 135.483 99.824H147.588C148.874 99.824 149.917 98.7812 149.917 97.4949V91.893C149.917 90.6067 148.874 89.564 147.588 89.564Z" fill="#FAFAFA"/>
<path d="M149.133 87.6677H133.938C133.505 87.6677 133.154 88.0185 133.154 88.4513V89.0833C133.154 89.5161 133.505 89.8669 133.938 89.8669H149.133C149.566 89.8669 149.917 89.5161 149.917 89.0833V88.4513C149.917 88.0185 149.566 87.6677 149.133 87.6677Z" fill="#E6E6E6"/>
<path d="M133.401 111.222C133.401 111.222 133.622 118.439 142.029 118.439C150.436 118.439 150.657 111.222 150.657 111.222H133.401Z" fill="#F0F0F0"/>
<path d="M152.571 111.222C152.571 111.222 152.792 118.439 161.199 118.439C169.606 118.439 169.827 111.222 169.827 111.222H152.571Z" fill="#F0F0F0"/>
<path d="M165.662 84.9187H149.039C147.269 84.9187 145.835 86.353 145.835 88.1223V96.6246C145.835 98.3939 147.269 99.8282 149.039 99.8282H165.662C167.432 99.8282 168.866 98.3939 168.866 96.6246V88.1223C168.866 86.353 167.432 84.9187 165.662 84.9187Z" fill="#F0F0F0"/>
<path d="M167.792 82.3125H146.909C146.316 82.3125 145.835 82.7932 145.835 83.3861V84.2606C145.835 84.8535 146.316 85.3342 146.909 85.3342H167.792C168.385 85.3342 168.866 84.8535 168.866 84.2606V83.3861C168.866 82.7932 168.385 82.3125 167.792 82.3125Z" fill="#F5F5F5"/>
<path d="M127.068 142.565H129.25V106.79H127.068V142.565Z" fill="#E6E6E6"/>
<path d="M190.07 99.824H178.256V106.785H190.07V99.824Z" fill="#E6E6E6"/>
<path d="M119.513 106.789L178.251 106.789V99.8281H119.513V106.789Z" fill="#F5F5F5"/>
<path d="M190.07 118.417H178.256V125.379H190.07V118.417Z" fill="#E6E6E6"/>
<path d="M119.513 125.379L178.251 125.379V118.417H119.513V125.379Z" fill="#F5F5F5"/>
<path d="M185.805 142.565H187.987V106.79H185.805V142.565Z" fill="#E6E6E6"/>
<path d="M176.074 142.565H178.256V106.79H176.074V142.565Z" fill="#F5F5F5"/>
<path d="M119.513 142.565H121.695V106.79H119.513V142.565Z" fill="#F5F5F5"/>
<path d="M108.5 162.116C154.857 162.116 192.437 159.922 192.437 157.215C192.437 154.509 154.857 152.314 108.5 152.314C62.1425 152.314 24.5625 154.509 24.5625 157.215C24.5625 159.922 62.1425 162.116 108.5 162.116Z" fill="#F5F5F5"/>
<path d="M113.007 135.249H57.7806C56.8925 135.236 56.042 134.889 55.3997 134.275C54.7574 133.662 54.3708 132.828 54.3173 131.942L49.3648 36.0299C49.3374 35.6033 49.3983 35.1756 49.5439 34.7736C49.6894 34.3717 49.9165 34.0041 50.2107 33.694C50.505 33.3839 50.8602 33.1379 51.2539 32.9715C51.6477 32.805 52.0716 32.7217 52.4991 32.7268H107.726C108.613 32.7383 109.464 33.0852 110.106 33.698C110.749 34.3107 111.135 35.1438 111.189 36.0299L116.133 131.942C116.16 132.368 116.099 132.795 115.954 133.196C115.809 133.598 115.583 133.965 115.29 134.276C114.997 134.586 114.643 134.833 114.25 135C113.857 135.168 113.434 135.252 113.007 135.249Z" fill="#407BFF"/>
<path opacity="0.8" d="M113.007 135.249H57.7806C56.8925 135.236 56.042 134.889 55.3997 134.275C54.7574 133.662 54.3708 132.828 54.3173 131.942L49.3648 36.0299C49.3374 35.6033 49.3983 35.1756 49.5439 34.7736C49.6894 34.3717 49.9165 34.0041 50.2107 33.694C50.505 33.3839 50.8602 33.1379 51.2539 32.9715C51.6477 32.805 52.0716 32.7217 52.4991 32.7268H107.726C108.613 32.7383 109.464 33.0852 110.106 33.698C110.749 34.3107 111.135 35.1438 111.189 36.0299L116.133 131.942C116.16 132.368 116.099 132.795 115.954 133.196C115.809 133.598 115.583 133.965 115.29 134.276C114.997 134.586 114.643 134.833 114.25 135C113.857 135.168 113.434 135.252 113.007 135.249Z" fill="white"/>
<path d="M102.275 29.6011H96.167V30.034H102.275V29.6011Z" fill="#407BFF"/>
<path d="M94.0507 29.6011H91.8125V30.034H94.0507V29.6011Z" fill="#407BFF"/>
<path d="M115.384 129.162H62.569C61.7185 129.154 60.9027 128.824 60.2858 128.238C59.6689 127.653 59.2968 126.855 59.2443 126.006L54.5169 34.2723C54.4906 33.864 54.549 33.4547 54.6883 33.07C54.8277 32.6854 55.045 32.3337 55.3267 32.0369C55.6084 31.7402 55.9483 31.5049 56.3252 31.3457C56.7021 31.1866 57.1079 31.107 57.5169 31.112H110.332C111.183 31.1214 111.998 31.4526 112.614 32.039C113.23 32.6254 113.601 33.4233 113.653 34.2723L118.38 126.006C118.406 126.414 118.348 126.823 118.209 127.207C118.07 127.591 117.853 127.942 117.572 128.239C117.29 128.535 116.951 128.77 116.574 128.929C116.198 129.088 115.793 129.167 115.384 129.162Z" fill="#407BFF"/>
<path d="M115.384 127.054H62.5687C62.259 127.043 61.9639 126.919 61.7397 126.705C61.5154 126.492 61.3775 126.203 61.3522 125.894L56.6205 34.1641C56.6098 34.0421 56.6251 33.9192 56.6654 33.8035C56.7057 33.6878 56.7701 33.582 56.8543 33.4931C56.9387 33.4043 57.0411 33.3345 57.1545 33.2882C57.2679 33.242 57.3899 33.2203 57.5123 33.2247H110.328C110.637 33.2363 110.931 33.3609 111.154 33.5747C111.377 33.7885 111.515 34.0767 111.54 34.3849L116.293 126.115C116.304 126.236 116.288 126.359 116.248 126.474C116.208 126.589 116.144 126.694 116.06 126.783C115.976 126.872 115.874 126.942 115.762 126.988C115.649 127.035 115.528 127.058 115.406 127.054H115.384ZM57.5123 33.3329C57.4047 33.3294 57.2975 33.3484 57.1976 33.3887C57.0977 33.4289 57.0073 33.4895 56.9322 33.5667C56.8599 33.6466 56.8046 33.7404 56.7697 33.8423C56.7347 33.9443 56.7208 34.0523 56.7287 34.1598L61.4561 125.889C61.4802 126.17 61.6062 126.433 61.8103 126.627C62.0144 126.822 62.2826 126.935 62.5644 126.946H115.38C115.487 126.95 115.593 126.931 115.693 126.891C115.792 126.851 115.882 126.79 115.955 126.712C116.029 126.633 116.086 126.54 116.121 126.437C116.156 126.335 116.169 126.227 116.159 126.119L111.436 34.3892C111.413 34.1086 111.288 33.8462 111.084 33.6516C110.881 33.457 110.613 33.3436 110.332 33.3329H57.5123Z" fill="white"/>
<path opacity="0.3" d="M96.9104 66.6566C102.918 60.4923 102.526 50.3683 96.0366 44.0441C89.547 37.7199 79.4163 37.5904 73.4091 43.7547C67.402 49.9191 67.7932 60.043 74.2829 66.3672C80.7725 72.6914 90.9032 72.821 96.9104 66.6566Z" fill="white"/>
<path d="M98.1104 55.2079C98.2316 57.3353 97.8037 59.4581 96.868 61.3725C95.855 63.4259 94.2826 65.1513 92.3318 66.35C90.381 67.5487 88.1312 68.1718 85.8417 68.1476C83.469 68.1262 81.1423 67.491 79.0879 66.3038C77.0336 65.1165 75.3215 63.4177 74.1184 61.3725C72.9972 59.5023 72.352 57.3855 72.2396 55.2079C72.1329 53.5378 72.372 51.8637 72.942 50.2903C73.512 48.7169 74.4006 47.278 75.5522 46.0638C76.7038 44.8496 78.0937 43.8862 79.6347 43.2338C81.1758 42.5814 82.835 42.2542 84.5083 42.2725C87.9911 42.3088 91.3308 43.6634 93.8547 46.0636C96.3786 48.4639 97.8993 51.7313 98.1104 55.2079Z" fill="white"/>
<path d="M96.855 61.3724C95.842 63.4258 94.2696 65.1512 92.3188 66.3499C90.368 67.5485 88.1182 68.1717 85.8287 68.1475C83.4561 68.1261 81.1293 67.4909 79.075 66.3036C77.0206 65.1164 75.3086 63.4175 74.1055 61.3724C77.3953 59.1004 81.3025 57.8917 85.3006 57.9091C89.4055 57.9246 93.4183 59.1274 96.855 61.3724Z" fill="#407BFF"/>
<path d="M89.1703 54.9069C91.3346 52.686 91.1929 49.0379 88.8538 46.7585C86.5148 44.4791 82.8642 44.4317 80.7 46.6526C78.5357 48.8734 78.6774 52.5216 81.0164 54.801C83.3555 57.0804 87.0061 57.1278 89.1703 54.9069Z" fill="#407BFF"/>
<path d="M107.813 93.4729H66.4564C66.0962 93.4692 65.7508 93.3291 65.4897 93.0809C65.2287 92.8327 65.0714 92.4948 65.0495 92.1352L64.7378 86.0744C64.727 85.902 64.752 85.7293 64.8111 85.5669C64.8702 85.4046 64.9621 85.2563 65.0812 85.1311C65.2002 85.0059 65.3439 84.9067 65.503 84.8396C65.6622 84.7725 65.8335 84.7389 66.0062 84.7411H107.362C107.722 84.7447 108.067 84.8842 108.328 85.1315C108.589 85.3788 108.746 85.7156 108.769 86.0744L109.081 92.1352C109.092 92.308 109.068 92.4812 109.009 92.644C108.95 92.8068 108.858 92.9558 108.739 93.0814C108.62 93.207 108.476 93.3066 108.317 93.374C108.157 93.4414 107.986 93.4751 107.813 93.4729Z" fill="white"/>
<path opacity="0.3" d="M95.1496 81.3946H77.8764C77.5147 81.3919 77.1676 81.2517 76.9055 81.0025C76.6434 80.7532 76.486 80.4136 76.4651 80.0525L76.4002 78.7538C76.3888 78.5811 76.4133 78.4078 76.4721 78.245C76.5309 78.0822 76.6228 77.9333 76.7419 77.8076C76.861 77.682 77.0048 77.5824 77.1643 77.515C77.3238 77.4476 77.4955 77.4139 77.6686 77.4161H94.9375C95.2977 77.4198 95.6431 77.5599 95.9042 77.8081C96.1652 78.0563 96.3225 78.3942 96.3444 78.7538L96.4137 80.0525C96.4243 80.225 96.3995 80.3978 96.3408 80.5603C96.282 80.7227 96.1906 80.8715 96.0722 80.9972C95.9537 81.123 95.8107 81.2231 95.652 81.2915C95.4934 81.3598 95.3224 81.3949 95.1496 81.3946Z" fill="black"/>
<path opacity="0.3" d="M101.574 122.612H75.6988C75.0861 122.605 74.4989 122.366 74.0549 121.943C73.611 121.521 73.343 120.947 73.3048 120.335L73.1533 117.348C73.138 117.054 73.1827 116.761 73.2846 116.485C73.3865 116.209 73.5435 115.957 73.7461 115.744C73.9486 115.531 74.1925 115.361 74.4627 115.246C74.7329 115.13 75.0239 115.07 75.3179 115.071H101.184C101.797 115.078 102.384 115.317 102.828 115.74C103.272 116.162 103.54 116.736 103.578 117.348L103.73 120.335C103.745 120.628 103.701 120.921 103.599 121.196C103.498 121.471 103.342 121.723 103.14 121.936C102.938 122.149 102.696 122.318 102.426 122.435C102.157 122.551 101.867 122.611 101.574 122.612Z" fill="black"/>
<path d="M108.57 108.131H67.2094C66.8495 108.127 66.5046 107.986 66.2437 107.738C65.9829 107.49 65.8253 107.153 65.8024 106.794L65.4907 100.733C65.48 100.56 65.5049 100.387 65.564 100.225C65.623 100.062 65.7149 99.9135 65.8339 99.788C65.9529 99.6625 66.0965 99.5628 66.2556 99.4953C66.4148 99.4277 66.5862 99.3935 66.7591 99.3951H108.115C108.475 99.3988 108.821 99.5388 109.082 99.7871C109.343 100.035 109.5 100.373 109.522 100.733L109.838 106.794C109.848 106.966 109.823 107.139 109.764 107.301C109.704 107.463 109.612 107.612 109.494 107.737C109.375 107.862 109.231 107.962 109.072 108.03C108.914 108.098 108.743 108.132 108.57 108.131Z" fill="white"/>
<path d="M71.7034 89.1047C71.7153 89.296 71.6876 89.4877 71.6221 89.6678C71.5566 89.848 71.4546 90.0127 71.3226 90.1516C71.1905 90.2905 71.0312 90.4008 70.8547 90.4754C70.6781 90.55 70.4881 90.5874 70.2964 90.5852C69.8982 90.5805 69.5166 90.4252 69.2282 90.1505C68.9399 89.8758 68.7663 89.5022 68.7422 89.1047C68.7297 88.9136 68.7568 88.722 68.8218 88.5418C68.8868 88.3617 68.9884 88.197 69.1201 88.0579C69.2518 87.9189 69.4108 87.8086 69.5872 87.734C69.7635 87.6593 69.9534 87.6219 70.1449 87.6241C70.5435 87.6288 70.9256 87.784 71.2147 88.0585C71.5037 88.3331 71.6783 88.7068 71.7034 89.1047Z" fill="#263238"/>
<path d="M76.2615 89.1047C76.2741 89.2958 76.247 89.4874 76.182 89.6675C76.1169 89.8476 76.0154 90.0124 75.8837 90.1514C75.752 90.2904 75.593 90.4007 75.4166 90.4754C75.2403 90.55 75.0504 90.5874 74.8589 90.5852C74.4604 90.5815 74.0782 90.4265 73.7897 90.1516C73.5011 89.8768 73.3278 89.5025 73.3047 89.1047C73.2922 88.9136 73.3193 88.722 73.3843 88.5418C73.4493 88.3617 73.5509 88.197 73.6826 88.0579C73.8143 87.9189 73.9733 87.8086 74.1497 87.734C74.326 87.6593 74.5159 87.6219 74.7074 87.6241C75.1059 87.6278 75.4881 87.7828 75.7766 88.0577C76.0652 88.3326 76.2385 88.7068 76.2615 89.1047Z" fill="#263238"/>
<path d="M80.7939 89.1047C80.8064 89.2958 80.7793 89.4874 80.7143 89.6675C80.6493 89.8476 80.5477 90.0124 80.416 90.1514C80.2843 90.2904 80.1253 90.4007 79.949 90.4754C79.7726 90.55 79.5827 90.5874 79.3913 90.5852C78.9926 90.5806 78.6105 90.4254 78.3215 90.1508C78.0324 89.8762 77.8579 89.5025 77.8328 89.1047C77.8209 88.9134 77.8485 88.7216 77.914 88.5415C77.9796 88.3614 78.0815 88.1967 78.2136 88.0577C78.3456 87.9188 78.5049 87.8086 78.6815 87.734C78.858 87.6593 79.0481 87.622 79.2397 87.6241C79.6379 87.6289 80.0196 87.7842 80.3079 88.0589C80.5962 88.3335 80.7699 88.7072 80.7939 89.1047Z" fill="#263238"/>
<path d="M85.3613 89.1049C85.3732 89.2958 85.3456 89.4872 85.2804 89.667C85.2151 89.8468 85.1135 90.0113 84.982 90.1502C84.8504 90.2891 84.6916 90.3994 84.5156 90.4743C84.3395 90.5492 84.1499 90.587 83.9586 90.5854C83.56 90.5808 83.1779 90.4256 82.8888 90.151C82.5998 89.8764 82.4252 89.5027 82.4002 89.1049C82.3883 88.9139 82.4158 88.7226 82.4811 88.5427C82.5463 88.3629 82.6479 88.1984 82.7795 88.0595C82.911 87.9207 83.0698 87.8103 83.2459 87.7355C83.4219 87.6606 83.6115 87.6228 83.8028 87.6243C84.2014 87.629 84.5836 87.7842 84.8726 88.0587C85.1616 88.3333 85.3362 88.707 85.3613 89.1049Z" fill="#263238"/>
<path d="M72.4687 103.755C72.4812 103.946 72.4542 104.137 72.3891 104.317C72.3241 104.498 72.2226 104.662 72.0909 104.801C71.9592 104.94 71.8001 105.051 71.6238 105.125C71.4474 105.2 71.2576 105.237 71.0661 105.235C70.6674 105.23 70.2853 105.075 69.9963 104.801C69.7072 104.526 69.5327 104.152 69.5076 103.755C69.4957 103.563 69.5233 103.372 69.5888 103.191C69.6544 103.011 69.7563 102.847 69.8884 102.708C70.0204 102.569 70.1797 102.458 70.3563 102.384C70.5328 102.309 70.7229 102.272 70.9145 102.274C71.3127 102.279 71.6944 102.434 71.9827 102.709C72.271 102.983 72.4447 103.357 72.4687 103.755Z" fill="#263238"/>
<path d="M77.0188 103.755C77.0307 103.946 77.0031 104.137 76.9379 104.317C76.8726 104.497 76.771 104.661 76.6395 104.8C76.5079 104.939 76.3491 105.049 76.1731 105.124C75.997 105.199 75.8075 105.237 75.6161 105.235C75.2175 105.23 74.8354 105.075 74.5464 104.801C74.2573 104.526 74.0828 104.152 74.0577 103.755C74.0451 103.563 74.0722 103.372 74.1372 103.192C74.2023 103.012 74.3038 102.847 74.4355 102.708C74.5672 102.569 74.7262 102.459 74.9026 102.384C75.0789 102.309 75.2688 102.272 75.4603 102.274C75.8589 102.279 76.2411 102.434 76.5301 102.708C76.8191 102.983 76.9937 103.357 77.0188 103.755Z" fill="#263238"/>
<path d="M81.5686 103.755C81.5805 103.946 81.5528 104.138 81.4873 104.318C81.4218 104.498 81.3198 104.663 81.1878 104.802C81.0558 104.94 80.8965 105.051 80.7199 105.125C80.5434 105.2 80.3533 105.237 80.1616 105.235C79.7631 105.231 79.3809 105.076 79.0924 104.802C78.8038 104.527 78.6305 104.152 78.6075 103.755C78.5949 103.563 78.622 103.372 78.687 103.192C78.7521 103.012 78.8536 102.847 78.9853 102.708C79.117 102.569 79.276 102.459 79.4524 102.384C79.6287 102.309 79.8186 102.272 80.0101 102.274C80.4087 102.279 80.7909 102.434 81.0799 102.708C81.3689 102.983 81.5435 103.357 81.5686 103.755Z" fill="#263238"/>
<path d="M86.1152 103.755C86.1277 103.946 86.1006 104.137 86.0356 104.317C85.9706 104.498 85.869 104.662 85.7373 104.801C85.6056 104.94 85.4466 105.051 85.2703 105.125C85.0939 105.2 84.904 105.237 84.7126 105.235C84.3139 105.23 83.9318 105.075 83.6427 104.801C83.3537 104.526 83.1792 104.152 83.1541 103.755C83.1421 103.563 83.1698 103.372 83.2353 103.191C83.3009 103.011 83.4028 102.847 83.5349 102.708C83.6669 102.569 83.8262 102.458 84.0027 102.384C84.1793 102.309 84.3694 102.272 84.561 102.274C84.9595 102.278 85.3417 102.433 85.6303 102.708C85.9188 102.982 86.0921 103.357 86.1152 103.755Z" fill="#263238"/>
<path d="M90.664 103.755C90.6765 103.946 90.6495 104.137 90.5844 104.317C90.5194 104.497 90.4179 104.662 90.2862 104.801C90.1545 104.94 89.9954 105.051 89.8191 105.125C89.6427 105.2 89.4529 105.237 89.2614 105.235C88.8627 105.23 88.4806 105.075 88.1916 104.801C87.9025 104.526 87.728 104.152 87.7029 103.755C87.691 103.564 87.7185 103.372 87.7838 103.192C87.8491 103.013 87.9506 102.848 88.0822 102.709C88.2138 102.57 88.3725 102.46 88.5486 102.385C88.7246 102.31 88.9142 102.272 89.1055 102.274C89.5042 102.279 89.8863 102.434 90.1753 102.708C90.4644 102.983 90.6389 103.357 90.664 103.755Z" fill="#263238"/>
<path d="M95.2141 103.755C95.226 103.946 95.1984 104.138 95.1328 104.318C95.0673 104.498 94.9653 104.663 94.8333 104.802C94.7013 104.94 94.542 105.051 94.3654 105.125C94.1889 105.2 93.9988 105.237 93.8071 105.235C93.4089 105.23 93.0273 105.075 92.739 104.8C92.4507 104.526 92.277 104.152 92.253 103.755C92.2404 103.563 92.2675 103.372 92.3326 103.192C92.3976 103.012 92.4991 102.847 92.6308 102.708C92.7625 102.569 92.9215 102.459 93.0979 102.384C93.2743 102.309 93.4641 102.272 93.6556 102.274C94.0543 102.279 94.4364 102.434 94.7254 102.708C95.0144 102.983 95.189 103.357 95.2141 103.755Z" fill="#263238"/>
<path d="M144.431 53.4807C144.539 53.6452 144.595 53.7318 144.665 53.8487L144.859 54.169C144.985 54.3855 145.098 54.602 145.206 54.8141C145.422 55.247 145.639 55.6799 145.812 56.1128C146.175 56.9726 146.487 57.8529 146.747 58.7493C147.271 60.5198 147.616 62.3385 147.777 64.178L147.808 64.52C147.811 64.5892 147.811 64.6586 147.808 64.7278V64.9572C147.815 65.2583 147.797 65.5594 147.756 65.8577C147.673 66.4105 147.527 66.9522 147.323 67.4724C146.942 68.4016 146.439 69.2753 145.825 70.0699C144.68 71.5359 143.321 72.8216 141.794 73.8839L140.6 72.4856C141.687 71.2576 142.65 69.9249 143.474 68.5071C143.845 67.8639 144.136 67.1777 144.34 66.4637C144.423 66.1614 144.471 65.8505 144.483 65.5373C144.496 65.4034 144.496 65.2686 144.483 65.1347V65.0438C144.487 65.0035 144.487 64.9629 144.483 64.9226L144.431 64.6195C144.152 63.0061 143.759 61.4147 143.253 59.8575C143.002 59.0826 142.695 58.3337 142.388 57.602C142.236 57.2341 142.063 56.8747 141.89 56.5284L141.621 56.0176L141.487 55.7795L141.375 55.589L144.431 53.4807Z" fill="#803E3C"/>
<path d="M140.405 73.8923L141.972 77.2041L143.215 74.4032C143.215 74.4032 142.111 71.9789 140.617 72.204L140.405 73.8923Z" fill="#7F3E3B"/>
<path d="M143.094 77.3688L144.341 75.3254L143.215 74.4033L141.973 77.2043L143.094 77.3688Z" fill="#7F3E3B"/>
<path d="M136.046 153.743C136.37 153.735 136.692 153.691 137.007 153.613C137.023 153.608 137.037 153.599 137.049 153.587C137.06 153.575 137.068 153.56 137.072 153.544C137.075 153.527 137.072 153.51 137.065 153.495C137.058 153.479 137.047 153.466 137.033 153.457C136.907 153.375 135.808 152.665 135.384 152.856C135.337 152.878 135.296 152.911 135.267 152.954C135.237 152.997 135.219 153.046 135.215 153.098C135.202 153.176 135.208 153.257 135.233 153.332C135.258 153.408 135.3 153.476 135.358 153.531C135.554 153.682 135.798 153.758 136.046 153.743ZM136.76 153.488C136.133 153.617 135.656 153.596 135.461 153.427C135.422 153.388 135.393 153.339 135.377 153.285C135.361 153.231 135.359 153.174 135.371 153.12C135.371 153.046 135.414 153.024 135.444 153.011C135.678 152.908 136.314 153.215 136.76 153.488Z" fill="#407BFF"/>
<path d="M136.985 153.613H137.028C137.041 153.605 137.052 153.593 137.06 153.58C137.067 153.566 137.071 153.551 137.072 153.535C137.072 153.492 137.072 152.449 136.673 152.098C136.625 152.054 136.567 152.021 136.504 152.002C136.441 151.983 136.375 151.977 136.31 151.986C136.242 151.986 136.175 152.01 136.123 152.053C136.07 152.097 136.034 152.157 136.02 152.224C135.937 152.635 136.596 153.414 136.942 153.613H136.985ZM136.366 152.146C136.401 152.145 136.436 152.151 136.469 152.163C136.501 152.176 136.531 152.195 136.557 152.219C136.785 152.556 136.903 152.956 136.894 153.362C136.548 153.085 136.137 152.496 136.189 152.25C136.189 152.211 136.219 152.159 136.327 152.146H136.366Z" fill="#407BFF"/>
<path d="M131.959 151.977C131.969 151.964 131.976 151.949 131.978 151.933C131.981 151.917 131.979 151.9 131.972 151.885C131.966 151.87 131.956 151.857 131.943 151.847C131.93 151.838 131.915 151.832 131.899 151.83C131.721 151.83 130.167 151.756 129.812 152.137V152.163C129.783 152.2 129.764 152.245 129.757 152.292C129.75 152.339 129.756 152.387 129.773 152.431C129.796 152.506 129.837 152.573 129.892 152.628C129.947 152.683 130.015 152.724 130.089 152.747C130.591 152.903 131.479 152.336 131.964 151.986L131.959 151.977ZM129.942 152.25C130.137 152.042 130.994 151.986 131.635 151.994C130.963 152.453 130.405 152.67 130.124 152.583C130.075 152.568 130.03 152.541 129.994 152.505C129.957 152.469 129.931 152.424 129.916 152.375C129.907 152.358 129.903 152.34 129.903 152.321C129.903 152.302 129.907 152.284 129.916 152.267L129.942 152.25Z" fill="#407BFF"/>
<path d="M131.959 151.977C131.965 151.963 131.969 151.949 131.969 151.934C131.969 151.919 131.965 151.904 131.959 151.89C131.937 151.856 131.452 151.024 130.881 150.851C130.799 150.827 130.713 150.82 130.628 150.831C130.543 150.841 130.461 150.869 130.387 150.912C130.179 151.033 130.166 151.176 130.192 151.267C130.305 151.669 131.409 152.024 131.885 152.02C131.9 152.02 131.915 152.016 131.928 152.008C131.941 152.001 131.951 151.99 131.959 151.977ZM130.405 151.111C130.429 151.087 130.457 151.067 130.487 151.05C130.54 151.016 130.601 150.994 130.663 150.986C130.726 150.978 130.79 150.984 130.85 151.003C131.227 151.102 131.578 151.587 131.738 151.825C131.223 151.769 130.439 151.453 130.374 151.211C130.369 151.192 130.369 151.173 130.374 151.154C130.379 151.136 130.39 151.119 130.405 151.107V151.111Z" fill="#407BFF"/>
<path d="M136.726 40.8008C136.293 42.9653 135.358 47.6451 136.86 49.0824C136.86 49.0824 136.271 51.247 132.275 51.247C127.877 51.247 130.176 49.0824 130.176 49.0824C132.574 48.5109 132.513 46.7273 132.093 45.0563L136.726 40.8008Z" fill="#7F3E3B"/>
<path d="M129.401 35.7271C129.425 35.731 129.45 35.731 129.475 35.7271C129.495 35.717 129.514 35.7029 129.529 35.6856C129.544 35.6683 129.555 35.6482 129.562 35.6265C129.57 35.6047 129.573 35.5818 129.571 35.5589C129.569 35.536 129.563 35.5138 129.553 35.4933C129.436 35.2464 129.262 35.031 129.045 34.8652C128.828 34.6995 128.575 34.5883 128.306 34.5409C128.261 34.5371 128.216 34.5507 128.18 34.5789C128.145 34.607 128.122 34.6477 128.115 34.6924C128.11 34.7377 128.124 34.7831 128.152 34.8188C128.18 34.8544 128.222 34.8775 128.267 34.8829C128.479 34.9237 128.679 35.0144 128.849 35.1477C129.019 35.2809 129.155 35.4529 129.245 35.6492C129.262 35.6748 129.285 35.6955 129.313 35.7091C129.34 35.7228 129.37 35.729 129.401 35.7271Z" fill="#263238"/>
<path d="M128.088 37.6274C127.748 38.2594 127.322 38.842 126.824 39.3591C126.959 39.4825 127.119 39.575 127.293 39.6303C127.467 39.6856 127.652 39.7024 127.833 39.6794L128.088 37.6274Z" fill="#630F0F"/>
<path d="M128.414 37.1384C128.379 37.4285 128.193 37.6449 128.007 37.6233C127.821 37.6016 127.691 37.3462 127.725 37.0562C127.76 36.7661 127.946 36.5497 128.158 36.5713C128.37 36.593 128.444 36.8484 128.414 37.1384Z" fill="#263238"/>
<path d="M128.214 36.5973L127.547 36.3289C127.547 36.3289 127.828 36.9003 128.214 36.5973Z" fill="#263238"/>
<path d="M135.781 151.154L132.249 151.977L130.102 143.855L133.634 143.033L135.781 151.154Z" fill="#7F3E3B"/>
<path d="M141.202 153.527H137.578L137.86 145.133H141.487L141.202 153.527Z" fill="#7F3E3B"/>
<path d="M137.288 153.107H141.362C141.432 153.106 141.501 153.131 141.554 153.177C141.608 153.224 141.642 153.288 141.652 153.358L142.115 156.579C142.124 156.66 142.116 156.743 142.091 156.821C142.066 156.899 142.025 156.971 141.97 157.032C141.915 157.092 141.848 157.141 141.773 157.174C141.698 157.207 141.617 157.224 141.535 157.224C140.115 157.202 139.431 157.115 137.639 157.115C136.535 157.115 134.924 157.232 133.405 157.232C131.885 157.232 131.799 155.726 132.435 155.592C135.275 154.977 135.725 154.137 136.682 153.332C136.851 153.187 137.066 153.108 137.288 153.107Z" fill="#263238"/>
<path d="M131.937 151.436L135.639 149.734C135.702 149.704 135.773 149.698 135.84 149.718C135.907 149.737 135.965 149.78 136.002 149.838L137.773 152.574C137.814 152.645 137.84 152.723 137.85 152.804C137.859 152.885 137.851 152.967 137.827 153.045C137.802 153.123 137.762 153.195 137.708 153.256C137.654 153.318 137.587 153.367 137.513 153.401C136.214 153.973 135.556 154.185 133.929 154.934C132.929 155.393 130.898 156.449 129.522 157.098C128.145 157.748 127.435 156.401 127.955 156.012C130.279 154.28 130.946 153.037 131.478 151.908C131.568 151.699 131.732 151.532 131.937 151.436Z" fill="#263238"/>
<path opacity="0.2" d="M130.102 143.855L131.253 148.21L134.742 147.219L133.638 143.033L130.102 143.855Z" fill="black"/>
<path opacity="0.2" d="M141.487 145.133H137.86L137.717 149.462H141.345L141.487 145.133Z" fill="black"/>
<path d="M143.132 49.9047C144.639 50.238 146.249 55.6537 146.249 55.6537L141.99 60.1863C141.99 60.1863 138.453 55.0953 139.176 53.2251C139.907 51.2727 141.336 49.5151 143.132 49.9047Z" fill="#263238"/>
<path opacity="0.4" d="M140.725 53.3553C139.963 52.6583 139.448 52.8661 139.098 53.4202C138.751 55.0306 140.803 58.403 141.63 59.6801C142.011 58.1563 142.448 54.9441 140.725 53.3553Z" fill="black"/>
<path d="M124.045 50.0129C124.045 50.0129 122.314 50.619 125.777 71.8966H140.496C140.249 65.9051 140.24 62.2081 143.093 49.9047C141.031 49.4792 138.94 49.2043 136.838 49.0822C134.613 48.9218 132.379 48.9218 130.154 49.0822C127.301 49.3463 124.045 50.0129 124.045 50.0129Z" fill="#263238"/>
<path opacity="0.4" d="M123.911 58.1779C124.006 59.2125 124.132 60.3771 124.296 61.6931C125.504 60.6065 126.491 57.5155 126.128 55.7146C125.265 56.415 124.517 57.2461 123.911 58.1779Z" fill="black"/>
<path d="M125.487 54.944C124.693 56.943 123.798 58.9008 122.807 60.8099C121.827 62.788 120.668 64.6718 119.344 66.4378L119.067 66.7798L118.928 66.9486C118.881 67.0049 118.842 67.0568 118.768 67.1348C118.508 67.419 118.217 67.6744 117.902 67.8967C117.345 68.2821 116.736 68.5854 116.093 68.7971C114.971 69.1554 113.806 69.3622 112.629 69.4119C110.426 69.4995 108.22 69.3031 106.066 68.8274L106.305 67.0092C107.3 67.0092 108.344 67.0092 109.335 66.927C110.331 66.878 111.322 66.7681 112.305 66.5979C113.217 66.4556 114.109 66.2057 114.963 65.8533C115.307 65.7061 115.63 65.5108 115.919 65.2732C116.03 65.1805 116.13 65.076 116.218 64.9615C116.218 64.9615 116.27 64.8923 116.305 64.8447L116.404 64.7018L116.608 64.4161C117.694 62.7381 118.662 60.9863 119.504 59.1735C120.37 57.3336 121.236 55.4245 122.028 53.5457L125.487 54.944Z" fill="#803E3C"/>
<path d="M124.045 50.013C122.24 50.4459 120.023 55.3984 120.023 55.3984L123.764 60.8964C123.764 60.8964 128.747 54.6235 128.154 52.71C127.547 50.7143 126.249 49.4762 124.045 50.013Z" fill="#263238"/>
<path d="M107.344 67.2863L104.223 65.8447L103.911 68.9487C103.911 68.9487 106.509 69.715 107.807 68.9487L107.344 67.2863Z" fill="#7F3E3B"/>
<path d="M102.356 65.533L102.058 67.8967L103.91 68.9486L104.222 65.8446L102.356 65.533Z" fill="#7F3E3B"/>
<path d="M138.293 37.3503C137.63 40.8872 137.427 42.4024 135.401 44.0085C132.37 46.4242 128.15 44.8397 127.743 41.1773C127.37 37.8785 128.513 32.6489 132.18 31.6532C132.988 31.4304 133.839 31.4182 134.653 31.6177C135.467 31.8173 136.216 32.2221 136.829 32.7933C137.442 33.3646 137.898 34.0834 138.154 34.8811C138.411 35.6789 138.458 36.5289 138.293 37.3503Z" fill="#7F3E3B"/>
<path d="M130.521 38.0949C130.318 39.9002 130.24 44.5886 134.205 44.7358C139.058 44.9133 140.513 40.766 140.08 39.108C142.608 37.0516 142.972 33.5147 140.132 30.809C137.292 28.1033 131.041 29.6142 129.309 32.2506C127.114 35.5191 130.521 38.0949 130.521 38.0949Z" fill="#263238"/>
<path d="M135.383 31.8611C135.149 29.9563 135.331 28.6445 137.115 28.6445C138.898 28.6445 141.331 29.2896 142.223 31.1121C143.115 32.9347 143.189 35.7876 140.699 35.4975C138.21 35.2075 135.665 34.1382 135.383 31.8611Z" fill="#407BFF"/>
<path d="M138.146 31.4022C137.713 29.1337 139.743 22.7439 144.674 22.311C146.96 22.1162 148.016 24.5751 146.839 24.9821C149.003 24.9561 150.388 27.8177 148.371 28.2462C149.964 29.2679 149.57 31.3632 147.297 32.3935C145.605 33.1728 138.73 34.5451 138.146 31.4022Z" fill="#263238"/>
<path d="M143.414 33.8394C141.825 33.8394 140.167 33.6056 139.137 32.9173C138.849 32.7436 138.606 32.5038 138.429 32.2177C138.252 31.9316 138.146 31.6075 138.119 31.2722C138.118 31.2437 138.128 31.2159 138.146 31.1942C138.164 31.1725 138.191 31.1586 138.219 31.1553C138.233 31.1535 138.248 31.1547 138.262 31.1588C138.275 31.163 138.288 31.1699 138.299 31.1793C138.31 31.1887 138.319 31.2002 138.325 31.2133C138.332 31.2263 138.335 31.2405 138.336 31.2549C138.362 31.5575 138.459 31.8497 138.619 32.1077C138.779 32.3657 138.998 32.5822 139.258 32.7398C141.219 34.0385 145.751 33.6056 147.163 33.1727C148.384 32.7744 149.21 31.9995 149.375 31.1077C149.426 30.7805 149.386 30.4454 149.258 30.1397C149.131 29.834 148.921 29.5697 148.652 29.3761C148.642 29.3663 148.633 29.3546 148.628 29.3416C148.622 29.3285 148.619 29.3145 148.619 29.3003C148.619 29.2861 148.622 29.2721 148.628 29.259C148.633 29.246 148.642 29.2343 148.652 29.2245C148.672 29.2047 148.699 29.1936 148.728 29.1936C148.756 29.1936 148.783 29.2047 148.804 29.2245C149.106 29.445 149.341 29.7452 149.482 30.0915C149.624 30.4378 149.666 30.8166 149.604 31.1856C149.427 32.1597 148.548 32.9909 147.249 33.4151C145.996 33.731 144.706 33.8738 143.414 33.8394Z" fill="#263238"/>
<path d="M129.417 37.6274C129.014 38.1928 128.848 38.8935 128.954 39.5798C129.097 40.4889 129.98 40.5495 130.621 39.9694C131.262 39.3893 131.82 38.3417 131.348 37.5884C131.243 37.4257 131.099 37.2925 130.928 37.2016C130.757 37.1106 130.565 37.0649 130.372 37.0688C130.178 37.0727 129.989 37.1261 129.822 37.2239C129.655 37.3216 129.516 37.4605 129.417 37.6274Z" fill="#7F3E3B"/>
<path d="M129.664 71.8967C129.664 71.8967 131.768 96.7848 133.954 110.811C135.716 122.14 137.11 148.622 137.11 148.622H142.054C142.054 148.622 143.812 122.933 142.92 111.729C140.656 83.3732 145.708 81.0615 140.509 71.9011L129.664 71.8967Z" fill="#407BFF"/>
<path opacity="0.4" d="M135.89 81.304C133.931 83.3603 132.349 85.7462 131.219 88.3518C131.795 93.945 132.479 100.153 133.206 105.59C136.19 97.8643 137.115 89.4952 135.89 81.304Z" fill="black"/>
<path d="M126.206 71.741C126.206 71.741 121.639 98.9235 120.92 111.175C122.712 122.504 130.046 146.453 130.046 146.453L134.544 144.821C134.544 144.821 132.054 118.708 129.349 111.56C135.44 91.0532 139.916 85.8669 138.613 71.8968C135.492 71.8968 126.206 71.741 126.206 71.741Z" fill="#407BFF"/>
<path d="M129.444 147.648L135.522 145.998L135.176 143.574L128.669 145.336L129.444 147.648Z" fill="#263238"/>
<path d="M136.431 148.721H142.73L143.059 146.513L136.396 146.288L136.431 148.721Z" fill="#263238"/>
<path d="M140.726 71.0309L141.388 72.3513C141.44 72.4552 141.319 72.5591 141.15 72.5591H125.704C125.574 72.5591 125.461 72.4942 125.453 72.4076L125.318 71.1088C125.318 71.0179 125.427 70.94 125.569 70.94H140.483C140.528 70.9339 140.574 70.939 140.616 70.9549C140.658 70.9707 140.696 70.9969 140.726 71.0309Z" fill="#407BFF"/>
<path opacity="0.5" d="M140.726 71.0309L141.388 72.3513C141.44 72.4552 141.319 72.5591 141.15 72.5591H125.704C125.574 72.5591 125.461 72.4942 125.453 72.4076L125.318 71.1088C125.318 71.0179 125.427 70.94 125.569 70.94H140.483C140.528 70.9339 140.574 70.939 140.616 70.9549C140.658 70.9707 140.696 70.9969 140.726 71.0309Z" fill="black"/>
<path d="M138.721 72.6933H139.119C139.202 72.6933 139.262 72.65 139.258 72.6023L139.067 70.8707C139.067 70.8187 138.994 70.7798 138.916 70.7798H138.513C138.435 70.7798 138.375 70.8187 138.379 70.8707L138.565 72.6023C138.574 72.6586 138.643 72.6933 138.721 72.6933Z" fill="#407BFF"/>
<path d="M133.362 60.0868C133.314 60.0861 133.268 60.0702 133.23 60.0414C133.192 60.0126 133.164 59.9724 133.15 59.9267C131.739 54.7057 128.821 50.4026 127.405 49.7532C127.295 49.6857 127.163 49.6639 127.037 49.6926C127.011 49.7064 126.982 49.7147 126.953 49.7169C126.923 49.7192 126.894 49.7154 126.866 49.7058C126.838 49.6962 126.812 49.681 126.79 49.6611C126.769 49.6412 126.751 49.617 126.739 49.59C126.727 49.5631 126.72 49.534 126.72 49.5044C126.719 49.4749 126.725 49.4455 126.736 49.4182C126.748 49.3909 126.764 49.3663 126.786 49.3457C126.807 49.3251 126.832 49.3091 126.86 49.2987C126.978 49.2552 127.104 49.2381 127.23 49.2486C127.356 49.2591 127.477 49.2968 127.587 49.3593C129.085 50.0693 132.046 54.3118 133.526 59.6496C134.587 59.6496 136.223 59.5067 136.622 59.4721C137.115 58.8833 140.743 54.3464 139.388 49.3809C139.38 49.3536 139.378 49.325 139.381 49.2969C139.385 49.2687 139.394 49.2415 139.408 49.2168C139.422 49.1922 139.441 49.1707 139.464 49.1535C139.486 49.1363 139.512 49.1239 139.54 49.1168C139.595 49.1022 139.653 49.11 139.703 49.1383C139.752 49.1667 139.788 49.2134 139.804 49.2684C141.315 54.7923 136.933 59.7751 136.886 59.8228C136.869 59.8438 136.848 59.8611 136.824 59.8738C136.8 59.8864 136.774 59.8941 136.747 59.8964C136.726 59.8964 134.565 60.0868 133.362 60.0868Z" fill="#407BFF"/>
<path d="M140.535 63.1432C138.175 58.7232 137.21 58.4115 136.79 56.9916C137.108 56.1975 137.562 55.465 138.132 54.827C137.846 54.7447 137.232 54.6235 136.833 54.5499C136.877 54.3551 136.924 54.1646 136.968 53.9785C136.534 53.93 136.096 53.9505 135.669 54.0391V53.6062C135.119 53.4865 134.554 53.4501 133.993 53.498C134.043 53.7029 134.09 53.9107 134.136 54.1213C133.703 54.2036 133.045 54.3378 132.729 54.4287C133.343 55.1242 133.795 55.948 134.05 56.84C132.777 59.0262 127.833 73.0786 135.877 74.1565C143.92 75.2345 142.89 67.5676 140.535 63.1432Z" fill="#407BFF"/>
<path opacity="0.4" d="M140.535 63.1432C138.175 58.7232 137.21 58.4115 136.79 56.9916C137.108 56.1975 137.562 55.465 138.132 54.827C137.846 54.7447 137.232 54.6235 136.833 54.5499C136.877 54.3551 136.924 54.1646 136.968 53.9785C136.534 53.93 136.096 53.9505 135.669 54.0391V53.6062C135.119 53.4865 134.554 53.4501 133.993 53.498C134.043 53.7029 134.09 53.9107 134.136 54.1213C133.703 54.2036 133.045 54.3378 132.729 54.4287C133.343 55.1242 133.795 55.948 134.05 56.84C132.777 59.0262 127.833 73.0786 135.877 74.1565C143.92 75.2345 142.89 67.5676 140.535 63.1432Z" fill="white"/>
<path d="M133.721 56.4201C133.67 56.643 133.649 56.8714 133.656 57.0997C133.656 57.2599 134.088 57.3682 134.569 57.4158C135.05 57.4634 137.067 57.5413 137.002 57.3162C136.937 57.0911 137.102 56.7837 137.11 56.5932C137.119 56.4028 136.309 56.3941 135.63 56.4201C134.95 56.446 133.855 56.1776 133.721 56.4201Z" fill="#407BFF"/>
<path d="M129.041 72.6933H129.439C129.517 72.6933 129.578 72.65 129.574 72.6023L129.387 70.8707C129.387 70.8187 129.314 70.7798 129.232 70.7798H128.846C128.768 70.7798 128.708 70.8187 128.712 70.8707L128.898 72.6023C128.89 72.6586 128.959 72.6933 129.041 72.6933Z" fill="#407BFF"/>
</svg>
