<svg width="372" height="222" viewBox="0 0 372 222" fill="none" xmlns="http://www.w3.org/2000/svg">
<path d="M408.014 194.556H111.205V194.705H408.014V194.556Z" fill="#EBEBEB"/>
<path d="M378.274 204.108H365.404V204.256H378.274V204.108Z" fill="#EBEBEB"/>
<path d="M315.808 201.033H295.56V201.181H315.808V201.033Z" fill="#EBEBEB"/>
<path d="M373.062 198.599H346.628V198.747H373.062V198.599Z" fill="#EBEBEB"/>
<path d="M213.913 201.591H207.3V201.739H213.913V201.591Z" fill="#EBEBEB"/>
<path d="M202.011 201.591H179.222V201.739H202.011V201.591Z" fill="#EBEBEB"/>
<path d="M167.012 199.086H150.568V199.234H167.012V199.086Z" fill="#EBEBEB"/>
<path d="M251.893 168.081H137.271C136.373 168.08 135.513 167.722 134.878 167.086C134.244 166.451 133.888 165.59 133.888 164.692V3.56581C133.896 2.67302 134.255 1.81937 134.889 1.19028C135.522 0.561188 136.378 0.207462 137.271 0.205933H251.893C252.792 0.205933 253.654 0.563046 254.29 1.19871C254.925 1.83438 255.283 2.69652 255.283 3.59549V164.692C255.283 165.591 254.925 166.453 254.29 167.088C253.654 167.724 252.792 168.081 251.893 168.081ZM137.271 0.324657C136.413 0.326229 135.59 0.6684 134.983 1.27606C134.377 1.88373 134.036 2.70723 134.036 3.56581V164.692C134.036 165.55 134.377 166.374 134.983 166.981C135.59 167.589 136.413 167.931 137.271 167.933H251.893C252.752 167.931 253.576 167.589 254.183 166.982C254.791 166.374 255.133 165.551 255.134 164.692V3.56581C255.133 2.70669 254.791 1.8832 254.183 1.2757C253.576 0.668207 252.752 0.326226 251.893 0.324657H137.271Z" fill="#EBEBEB"/>
<path d="M380.298 168.081H265.671C264.772 168.08 263.911 167.722 263.276 167.087C262.64 166.451 262.283 165.59 262.281 164.692V3.56581C262.29 2.67248 262.651 1.81884 263.286 1.18991C263.92 0.560981 264.777 0.207445 265.671 0.205933H380.298C381.19 0.209022 382.045 0.563439 382.677 1.19236C383.309 1.82129 383.668 2.67405 383.676 3.56581V164.692C383.676 165.588 383.32 166.449 382.687 167.084C382.054 167.719 381.195 168.078 380.298 168.081ZM265.671 0.324657C264.811 0.326226 263.988 0.668207 263.38 1.2757C262.773 1.8832 262.431 2.70669 262.429 3.56581V164.692C262.431 165.551 262.773 166.374 263.38 166.982C263.988 167.589 264.811 167.931 265.671 167.933H380.298C381.157 167.931 381.981 167.589 382.588 166.982C383.196 166.374 383.538 165.551 383.539 164.692V3.56581C383.538 2.70669 383.196 1.8832 382.588 1.2757C381.981 0.668207 381.157 0.326226 380.298 0.324657H265.671Z" fill="#EBEBEB"/>
<path d="M179.471 71.2204C182.763 71.2204 185.92 69.9126 188.248 67.5848C190.576 65.257 191.884 62.0998 191.884 58.8078C191.884 55.5158 190.576 52.3586 188.248 50.0308C185.92 47.703 182.763 46.3953 179.471 46.3953H177.946V71.2204H179.471Z" fill="#E0E0E0"/>
<path d="M177.934 71.2204C184.789 71.2204 190.346 65.6631 190.346 58.8078C190.346 51.9526 184.789 46.3953 177.934 46.3953C171.078 46.3953 165.521 51.9526 165.521 58.8078C165.521 65.6631 171.078 71.2204 177.934 71.2204Z" fill="#F5F5F5"/>
<path d="M177.364 60.3631C172.955 60.3631 168.728 58.6119 165.611 55.4948C162.494 52.3777 160.742 48.15 160.742 43.7418V33.8224C160.742 33.4084 160.907 33.0113 161.2 32.7185C161.492 32.4257 161.89 32.2612 162.304 32.2612C162.718 32.2612 163.115 32.4257 163.408 32.7185C163.7 33.0113 163.865 33.4084 163.865 33.8224V43.7477C163.868 47.3259 165.29 50.7566 167.82 53.2873C170.35 55.818 173.78 57.2419 177.358 57.2466C177.571 57.2335 177.784 57.264 177.984 57.3364C178.185 57.4088 178.368 57.5214 178.523 57.6674C178.679 57.8134 178.802 57.9896 178.887 58.1852C178.972 58.3809 179.015 58.5917 179.015 58.8049C179.015 59.018 178.972 59.2289 178.887 59.4245C178.802 59.6201 178.679 59.7963 178.523 59.9423C178.368 60.0883 178.185 60.2009 177.984 60.2733C177.784 60.3457 177.571 60.3762 177.358 60.3631H177.364Z" fill="#E0E0E0"/>
<path d="M148.502 42.5606H176.117C176.559 42.5606 176.995 42.4593 177.391 42.2644C177.787 42.0695 178.134 41.7862 178.403 41.4364C178.673 41.0866 178.858 40.6795 178.946 40.2466C179.033 39.8137 179.02 39.3665 178.907 38.9395L176.503 29.8868C176.341 29.2718 175.98 28.7277 175.476 28.3391C174.973 27.9505 174.355 27.7391 173.719 27.7379H150.9C150.264 27.7388 149.645 27.9499 149.14 28.3385C148.636 28.7271 148.274 29.2714 148.11 29.8868L145.736 38.9276C145.62 39.3536 145.604 39.8004 145.689 40.2335C145.774 40.6667 145.957 41.0746 146.224 41.4257C146.491 41.7768 146.836 42.0618 147.231 42.2586C147.626 42.4553 148.061 42.5587 148.502 42.5606Z" fill="#F5F5F5"/>
<path d="M354.755 71.2204C358.047 71.2204 361.204 69.9126 363.532 67.5848C365.86 65.257 367.168 62.0998 367.168 58.8078C367.168 55.5158 365.86 52.3586 363.532 50.0308C361.204 47.703 358.047 46.3953 354.755 46.3953H353.229V71.2204H354.755Z" fill="#E0E0E0"/>
<path d="M353.229 71.2204C360.085 71.2204 365.642 65.6631 365.642 58.8078C365.642 51.9526 360.085 46.3953 353.229 46.3953C346.374 46.3953 340.817 51.9526 340.817 58.8078C340.817 65.6631 346.374 71.2204 353.229 71.2204Z" fill="#F5F5F5"/>
<path d="M352.66 60.3631C348.251 60.3631 344.024 58.6119 340.907 55.4948C337.79 52.3777 336.038 48.15 336.038 43.7418V33.8224C336.038 33.4084 336.203 33.0113 336.496 32.7185C336.788 32.4257 337.185 32.2612 337.6 32.2612C338.014 32.2612 338.411 32.4257 338.703 32.7185C338.996 33.0113 339.161 33.4084 339.161 33.8224V43.7477C339.164 47.3259 340.586 50.7566 343.116 53.2873C345.645 55.818 349.076 57.2419 352.654 57.2466C352.866 57.2335 353.08 57.264 353.28 57.3364C353.481 57.4088 353.664 57.5214 353.819 57.6674C353.975 57.8134 354.098 57.9896 354.183 58.1852C354.268 58.3809 354.311 58.5917 354.311 58.8049C354.311 59.018 354.268 59.2289 354.183 59.4245C354.098 59.6201 353.975 59.7963 353.819 59.9423C353.664 60.0883 353.481 60.2009 353.28 60.2733C353.08 60.3457 352.866 60.3762 352.654 60.3631H352.66Z" fill="#E0E0E0"/>
<path d="M323.798 42.5606H351.413C351.854 42.5607 352.29 42.4594 352.686 42.2645C353.083 42.0696 353.429 41.7863 353.699 41.4365C353.968 41.0866 354.154 40.6796 354.241 40.2467C354.329 39.8138 354.315 39.3666 354.203 38.9396L351.828 29.8988C351.666 29.2838 351.305 28.7397 350.802 28.351C350.298 27.9624 349.68 27.7511 349.044 27.7499H326.196C325.559 27.7508 324.94 27.9619 324.436 28.3505C323.931 28.739 323.569 29.2833 323.406 29.8988L321.031 38.9396C320.918 39.3647 320.903 39.8102 320.989 40.2419C321.075 40.6735 321.258 41.0797 321.525 41.4294C321.792 41.7791 322.136 42.0629 322.53 42.259C322.924 42.4551 323.358 42.5583 323.798 42.5606Z" fill="#F5F5F5"/>
<path d="M190.738 155.057H199.767V120.075H190.738V155.057Z" fill="#E6E6E6"/>
<path d="M166.263 155.051H196.223L200.747 114.109H170.787L166.263 155.051Z" fill="#F0F0F0"/>
<path d="M163.016 155.051H193.968L198.491 114.109H167.546L163.016 155.051Z" fill="#F5F5F5"/>
<path d="M191.73 151.828L195.541 117.339H169.778L165.967 151.828H191.73Z" fill="white"/>
<path d="M186.411 143.464L186.595 142.081C187.551 133.426 182.149 125.715 175.132 125.715L174.972 127.122C174.016 135.771 179.418 143.482 186.441 143.482L186.411 143.464Z" fill="#F5F5F5"/>
<path d="M146.282 194.556H172.9V155.051H146.282V194.556Z" fill="#E6E6E6"/>
<path d="M148.954 194.557H146.277V186.94H151.762L148.954 194.557Z" fill="#F0F0F0"/>
<path d="M220.883 194.556H247.5V155.051H220.883V194.556Z" fill="#E6E6E6"/>
<path d="M146.276 189.885H223.215V155.057H146.276V189.885Z" fill="#F0F0F0"/>
<path d="M220.538 194.557H223.215V186.94H217.73L220.538 194.557Z" fill="#F0F0F0"/>
<path d="M148.354 171.286H221.138V157.23H148.354V171.286Z" fill="#E6E6E6"/>
<path d="M179.893 166.419H189.598C191.685 166.42 193.75 165.995 195.667 165.17C197.584 164.345 199.312 163.138 200.747 161.623H168.745C170.18 163.137 171.908 164.344 173.825 165.169C175.742 165.993 177.806 166.419 179.893 166.419Z" fill="#F0F0F0"/>
<path d="M148.354 187.611H221.138V173.554H148.354V187.611Z" fill="#E6E6E6"/>
<path d="M179.893 182.72H189.598C191.685 182.721 193.75 182.296 195.667 181.471C197.584 180.646 199.312 179.439 200.747 177.923H168.745C170.18 179.438 171.908 180.645 173.825 181.47C175.742 182.294 177.806 182.72 179.893 182.72Z" fill="#F0F0F0"/>
<path d="M218.341 153.442H219.03C219.03 152.024 219.03 148.432 219.101 140.199C219.226 125.269 219.463 124.361 219.463 124.361L217.825 131.253C216.786 138.881 218.128 146.551 218.341 153.442Z" fill="#E6E6E6"/>
<path d="M216.983 130.208C214.608 127.4 209.592 126.581 204.439 125.881C202.415 125.608 209.752 130.232 213.344 133.515C216.134 136.067 217.914 136.774 218.686 139.314C219.078 136.144 219.013 132.648 216.983 130.208Z" fill="#E6E6E6"/>
<path d="M220.111 135.242C222.485 132.434 227.501 131.621 232.654 130.921C234.678 130.648 227.311 135.272 223.749 138.555C220.959 141.107 219.179 141.814 218.407 144.354C218.015 141.184 218.057 137.664 220.111 135.242Z" fill="#E6E6E6"/>
<path d="M219.101 123.678C220.882 120.319 225.31 117.149 230.303 115.961C232.261 115.492 225.761 122.159 223.292 126.463C221.375 129.799 218.834 133.728 218.436 136.554C217.842 130.986 217.332 127.056 219.101 123.678Z" fill="#E6E6E6"/>
<path d="M218.887 155.051C216.786 155.051 215.047 154 214.922 152.647L214.572 150.344H223.209L222.853 152.647C222.734 154 221.024 155.051 218.887 155.051Z" fill="#F0F0F0"/>
<path d="M223.767 151.228H214.014L213.735 148.658H224.046L223.767 151.228Z" fill="#F0F0F0"/>
<path d="M211.848 102.142L306.951 102.142V15.3966L211.848 15.3966V102.142Z" fill="#E6E6E6"/>
<path d="M209.71 102.142L306.019 102.142V15.3966L209.71 15.3966V102.142Z" fill="#F5F5F5"/>
<path d="M302.172 98.2597V19.2848L213.545 19.2848V98.2597H302.172Z" fill="#FAFAFA"/>
<path d="M291.303 98.2597L256.422 19.2848H244.573L279.454 98.2597H291.303Z" fill="white"/>
<path d="M276.095 98.2597L241.214 19.2848H233.058L267.939 98.2597H276.095Z" fill="white"/>
<path d="M246.455 98.2538V19.2788H241.872V98.2538H246.455Z" fill="#E6E6E6"/>
<path d="M276.92 98.2538V19.2788H272.337V98.2538H276.92Z" fill="#E6E6E6"/>
<path d="M245.63 100.723V16.3939H239.836V100.723H245.63Z" fill="#F5F5F5"/>
<path d="M276.094 100.723V16.3939H270.301V100.723H276.094Z" fill="#F5F5F5"/>
<path d="M213.96 98.2597V19.2848H213.551V98.2597H213.96Z" fill="#E6E6E6"/>
<path d="M208.096 10.3983H311.124C311.256 10.3998 311.382 10.4528 311.475 10.546C311.568 10.6392 311.621 10.7651 311.623 10.8969C311.621 11.0281 311.568 11.1534 311.474 11.2457C311.381 11.3379 311.255 11.3896 311.124 11.3896H208.096C207.964 11.3896 207.838 11.3379 207.745 11.2457C207.652 11.1534 207.598 11.0281 207.597 10.8969C207.598 10.7651 207.651 10.6392 207.745 10.546C207.838 10.4528 207.964 10.3998 208.096 10.3983Z" fill="#E6E6E6"/>
<path d="M306.951 13.6692C307.128 13.6676 307.297 13.5963 307.421 13.4706C307.546 13.345 307.616 13.1753 307.616 12.9984V11.5618C307.616 11.474 307.6 11.3869 307.567 11.3056C307.534 11.2242 307.485 11.1502 307.423 11.0879C307.361 11.0255 307.288 10.976 307.207 10.9422C307.126 10.9084 307.039 10.891 306.951 10.8911C306.774 10.891 306.604 10.9609 306.479 11.0854C306.353 11.2099 306.282 11.379 306.28 11.5559V12.9925C306.28 13.1709 306.351 13.3422 306.476 13.4689C306.602 13.5956 306.772 13.6676 306.951 13.6692Z" fill="#E6E6E6"/>
<path d="M215.564 13.6692C215.741 13.6676 215.911 13.5965 216.036 13.471C216.162 13.3455 216.233 13.1758 216.235 12.9984V11.5618C216.235 11.3839 216.164 11.2133 216.038 11.0875C215.912 10.9617 215.742 10.8911 215.564 10.8911C215.387 10.8911 215.218 10.9611 215.094 11.0858C214.969 11.2105 214.899 11.3796 214.899 11.5559V12.9925C214.898 13.0806 214.915 13.1679 214.948 13.2496C214.981 13.3313 215.029 13.4057 215.091 13.4685C215.153 13.5314 215.226 13.5814 215.308 13.6159C215.389 13.6503 215.476 13.6684 215.564 13.6692Z" fill="#E6E6E6"/>
<path opacity="0.6" d="M208.25 78.8246L304.494 78.8246V10.891L208.25 10.891V78.8246Z" fill="#E0E0E0"/>
<path d="M313.207 121.88H296.61C294.846 121.88 293.416 123.31 293.416 125.074V132.755C293.416 134.519 294.846 135.949 296.61 135.949H313.207C314.971 135.949 316.401 134.519 316.401 132.755V125.074C316.401 123.31 314.971 121.88 313.207 121.88Z" fill="#FAFAFA"/>
<path d="M315.327 119.28H294.491C293.897 119.28 293.416 119.761 293.416 120.354V121.221C293.416 121.814 293.897 122.295 294.491 122.295H315.327C315.92 122.295 316.401 121.814 316.401 121.221V120.354C316.401 119.761 315.92 119.28 315.327 119.28Z" fill="#E6E6E6"/>
<path d="M293.754 151.579C293.754 151.579 294.057 161.474 305.585 161.474C317.113 161.474 317.416 151.579 317.416 151.579H293.754Z" fill="#F0F0F0"/>
<path d="M320.04 151.579C320.04 151.579 320.343 161.474 331.871 161.474C343.399 161.474 343.702 151.579 343.702 151.579H320.04Z" fill="#F0F0F0"/>
<path d="M337.991 115.51H315.196C312.77 115.51 310.804 117.477 310.804 119.903V131.562C310.804 133.988 312.77 135.955 315.196 135.955H337.991C340.417 135.955 342.384 133.988 342.384 131.562V119.903C342.384 117.477 340.417 115.51 337.991 115.51Z" fill="#F0F0F0"/>
<path d="M340.912 111.937H312.276C311.463 111.937 310.804 112.596 310.804 113.409V114.608C310.804 115.421 311.463 116.08 312.276 116.08H340.912C341.725 116.08 342.384 115.421 342.384 114.608V113.409C342.384 112.596 341.725 111.937 340.912 111.937Z" fill="#F5F5F5"/>
<path d="M285.07 194.556H288.062V145.5H285.07V194.556Z" fill="#E6E6E6"/>
<path d="M371.459 135.949H355.259V145.494H371.459V135.949Z" fill="#E6E6E6"/>
<path d="M274.712 145.5H355.254V135.954H274.712V145.5Z" fill="#F5F5F5"/>
<path d="M371.459 161.444H355.259V170.99H371.459V161.444Z" fill="#E6E6E6"/>
<path d="M274.712 170.99H355.254V161.444H274.712V170.99Z" fill="#F5F5F5"/>
<path d="M365.612 194.556H368.604V145.5H365.612V194.556Z" fill="#E6E6E6"/>
<path d="M352.267 194.556H355.259V145.5H352.267V194.556Z" fill="#F5F5F5"/>
<path d="M274.711 194.556H277.703V145.5H274.711V194.556Z" fill="#F5F5F5"/>
<path d="M259.61 221.364C323.176 221.364 374.706 218.356 374.706 214.645C374.706 210.933 323.176 207.925 259.61 207.925C196.043 207.925 144.513 210.933 144.513 214.645C144.513 218.356 196.043 221.364 259.61 221.364Z" fill="#F5F5F5"/>
<path d="M265.79 184.524H190.062C188.844 184.507 187.678 184.03 186.797 183.189C185.917 182.347 185.386 181.204 185.313 179.989L178.522 48.4727C178.485 47.8877 178.568 47.3013 178.768 46.7501C178.967 46.1989 179.279 45.6949 179.682 45.2697C180.086 44.8445 180.573 44.5071 181.113 44.2789C181.653 44.0507 182.234 43.9365 182.82 43.9434H258.548C259.765 43.9592 260.931 44.4349 261.812 45.2751C262.693 46.1153 263.223 47.2576 263.297 48.4727L270.076 179.989C270.113 180.573 270.03 181.159 269.831 181.709C269.633 182.26 269.322 182.764 268.92 183.189C268.518 183.615 268.033 183.953 267.494 184.183C266.956 184.412 266.375 184.529 265.79 184.524Z" fill="#407BFF"/>
<path opacity="0.8" d="M265.79 184.524H190.062C188.844 184.507 187.678 184.03 186.797 183.189C185.917 182.347 185.386 181.204 185.313 179.989L178.522 48.4727C178.485 47.8877 178.568 47.3013 178.768 46.7501C178.967 46.1989 179.279 45.6949 179.682 45.2697C180.086 44.8445 180.573 44.5071 181.113 44.2789C181.653 44.0507 182.234 43.9365 182.82 43.9434H258.548C259.765 43.9592 260.931 44.4349 261.812 45.2751C262.693 46.1153 263.223 47.2576 263.297 48.4727L270.076 179.989C270.113 180.573 270.03 181.159 269.831 181.709C269.633 182.26 269.322 182.764 268.92 183.189C268.518 183.615 268.033 183.953 267.494 184.183C266.956 184.412 266.375 184.529 265.79 184.524Z" fill="white"/>
<path d="M251.074 39.6575H242.698V40.2511H251.074V39.6575Z" fill="#407BFF"/>
<path d="M239.796 39.6575H236.727V40.2511H239.796V39.6575Z" fill="#407BFF"/>
<path d="M269.049 176.178H196.628C195.461 176.166 194.343 175.714 193.497 174.911C192.651 174.108 192.141 173.014 192.069 171.85L185.586 46.0626C185.55 45.5028 185.63 44.9415 185.821 44.414C186.012 43.8866 186.31 43.4043 186.697 42.9974C187.083 42.5906 187.549 42.2679 188.066 42.0496C188.583 41.8314 189.139 41.7223 189.7 41.7292H262.121C263.288 41.7421 264.406 42.1962 265.25 43.0003C266.095 43.8043 266.604 44.8985 266.675 46.0626L273.157 171.85C273.193 172.409 273.113 172.97 272.922 173.497C272.731 174.023 272.434 174.505 272.048 174.911C271.662 175.318 271.197 175.64 270.681 175.858C270.165 176.076 269.609 176.185 269.049 176.178Z" fill="#407BFF"/>
<path d="M269.049 173.287H196.628C196.203 173.272 195.798 173.102 195.491 172.809C195.183 172.516 194.994 172.119 194.96 171.696L188.471 45.9142C188.457 45.7469 188.478 45.5784 188.533 45.4198C188.588 45.2611 188.676 45.1161 188.792 44.9941C188.908 44.8724 189.048 44.7767 189.204 44.7132C189.359 44.6498 189.526 44.6201 189.694 44.6261H262.116C262.539 44.6421 262.942 44.8128 263.249 45.106C263.555 45.3991 263.743 45.7944 263.778 46.2169L270.296 171.999C270.31 172.165 270.289 172.333 270.234 172.491C270.179 172.649 270.091 172.794 269.976 172.915C269.861 173.037 269.722 173.133 269.567 173.197C269.412 173.261 269.246 173.292 269.079 173.287H269.049ZM189.694 44.7745C189.547 44.7697 189.4 44.7957 189.263 44.8509C189.126 44.9061 189.002 44.9892 188.899 45.095C188.8 45.2046 188.724 45.3332 188.676 45.473C188.628 45.6128 188.609 45.7609 188.62 45.9083L195.102 171.69C195.135 172.075 195.308 172.435 195.588 172.702C195.868 172.969 196.235 173.124 196.622 173.138H269.043C269.19 173.144 269.336 173.119 269.472 173.063C269.609 173.008 269.731 172.924 269.833 172.818C269.934 172.71 270.012 172.581 270.06 172.441C270.108 172.301 270.125 172.152 270.112 172.005L263.635 46.2229C263.604 45.8382 263.432 45.4784 263.153 45.2115C262.874 44.9446 262.507 44.7891 262.122 44.7745H189.694Z" fill="white"/>
<path opacity="0.3" d="M243.717 90.4687C251.954 82.016 251.418 68.1338 242.519 59.4619C233.62 50.7901 219.729 50.6124 211.492 59.0651C203.254 67.5178 203.791 81.4 212.69 90.0718C221.588 98.7437 235.48 98.9214 243.717 90.4687Z" fill="white"/>
<path d="M245.363 74.77C245.529 77.6872 244.943 80.5981 243.659 83.2232C242.27 86.0388 240.114 88.4047 237.439 90.0484C234.764 91.692 231.679 92.5464 228.54 92.5133C225.286 92.484 222.096 91.613 219.279 89.985C216.462 88.357 214.114 86.0275 212.465 83.2232C210.927 80.6587 210.043 77.7561 209.888 74.77C209.742 72.48 210.07 70.1844 210.852 68.0269C211.633 65.8694 212.852 63.8965 214.431 62.2315C216.01 60.5666 217.916 59.2455 220.029 58.351C222.142 57.4564 224.417 57.0076 226.712 57.0327C231.487 57.0825 236.067 58.9401 239.528 62.2313C242.988 65.5225 245.074 70.0029 245.363 74.77Z" fill="white"/>
<path d="M243.642 83.223C242.253 86.0386 240.096 88.4046 237.421 90.0482C234.747 91.6918 231.662 92.5463 228.522 92.5131C225.269 92.4838 222.078 91.6128 219.261 89.9848C216.444 88.3568 214.097 86.0273 212.447 83.223C216.958 80.1076 222.316 78.4502 227.798 78.4741C233.427 78.4953 238.929 80.1446 243.642 83.223Z" fill="#407BFF"/>
<path d="M233.104 74.3576C236.071 71.3122 235.877 66.3098 232.67 63.1842C229.462 60.0587 224.457 59.9937 221.489 63.039C218.521 66.0843 218.716 71.0868 221.923 74.2123C225.13 77.3378 230.136 77.4029 233.104 74.3576Z" fill="#407BFF"/>
<path d="M258.667 127.24H201.959C201.465 127.235 200.991 127.043 200.633 126.702C200.275 126.362 200.059 125.899 200.029 125.406L199.602 117.095C199.587 116.859 199.621 116.622 199.702 116.399C199.784 116.177 199.91 115.973 200.073 115.801C200.236 115.63 200.433 115.494 200.651 115.402C200.87 115.31 201.104 115.264 201.341 115.267H258.05C258.543 115.272 259.015 115.463 259.373 115.802C259.731 116.141 259.947 116.603 259.979 117.095L260.406 125.406C260.422 125.642 260.388 125.88 260.308 126.103C260.227 126.327 260.101 126.531 259.938 126.703C259.774 126.875 259.577 127.012 259.358 127.104C259.14 127.197 258.904 127.243 258.667 127.24Z" fill="white"/>
<path opacity="0.3" d="M241.303 110.678H217.618C217.122 110.674 216.646 110.482 216.287 110.14C215.927 109.798 215.711 109.333 215.683 108.838L215.594 107.057C215.578 106.82 215.612 106.582 215.692 106.359C215.773 106.136 215.899 105.932 216.062 105.759C216.226 105.587 216.423 105.45 216.642 105.358C216.86 105.266 217.096 105.219 217.333 105.222H241.013C241.506 105.228 241.98 105.42 242.338 105.76C242.696 106.1 242.912 106.564 242.942 107.057L243.037 108.838C243.051 109.074 243.017 109.311 242.937 109.534C242.856 109.757 242.731 109.96 242.568 110.133C242.406 110.305 242.21 110.443 241.992 110.536C241.775 110.63 241.54 110.678 241.303 110.678Z" fill="black"/>
<path opacity="0.3" d="M250.113 167.196H214.632C213.792 167.186 212.987 166.859 212.378 166.279C211.769 165.7 211.402 164.913 211.349 164.074L211.142 159.978C211.121 159.575 211.182 159.173 211.322 158.795C211.462 158.417 211.677 158.071 211.955 157.779C212.232 157.487 212.567 157.254 212.937 157.095C213.308 156.937 213.707 156.855 214.11 156.856H249.578C250.419 156.866 251.224 157.193 251.833 157.773C252.441 158.352 252.809 159.139 252.861 159.978L253.069 164.074C253.09 164.476 253.029 164.877 252.89 165.254C252.751 165.632 252.537 165.977 252.26 166.269C251.984 166.561 251.651 166.794 251.282 166.953C250.913 167.113 250.515 167.195 250.113 167.196Z" fill="black"/>
<path d="M259.705 147.34H202.991C202.497 147.333 202.024 147.141 201.667 146.801C201.309 146.461 201.093 145.998 201.062 145.506L200.634 137.195C200.619 136.958 200.654 136.721 200.735 136.498C200.816 136.275 200.942 136.072 201.105 135.899C201.268 135.727 201.465 135.591 201.683 135.498C201.901 135.405 202.136 135.359 202.373 135.361H259.082C259.576 135.366 260.049 135.558 260.407 135.898C260.765 136.239 260.981 136.702 261.011 137.195L261.444 145.506C261.458 145.742 261.423 145.979 261.342 146.201C261.261 146.424 261.135 146.627 260.972 146.799C260.809 146.971 260.612 147.108 260.394 147.201C260.177 147.294 259.942 147.341 259.705 147.34Z" fill="white"/>
<path d="M209.153 121.25C209.169 121.513 209.131 121.775 209.041 122.022C208.951 122.269 208.811 122.495 208.63 122.686C208.449 122.876 208.231 123.028 207.989 123.13C207.747 123.232 207.486 123.283 207.223 123.28C206.677 123.274 206.154 123.061 205.759 122.684C205.363 122.308 205.125 121.795 205.092 121.25C205.075 120.988 205.112 120.725 205.201 120.479C205.29 120.232 205.43 120.006 205.61 119.815C205.791 119.624 206.009 119.473 206.251 119.371C206.493 119.268 206.753 119.217 207.016 119.22C207.562 119.227 208.086 119.439 208.482 119.816C208.879 120.192 209.118 120.705 209.153 121.25Z" fill="#263238"/>
<path d="M215.403 121.25C215.42 121.512 215.383 121.775 215.294 122.022C215.205 122.269 215.066 122.495 214.885 122.686C214.705 122.876 214.486 123.027 214.245 123.13C214.003 123.232 213.742 123.283 213.48 123.28C212.933 123.275 212.409 123.063 212.014 122.686C211.618 122.309 211.38 121.796 211.349 121.25C211.332 120.988 211.369 120.725 211.458 120.479C211.547 120.232 211.686 120.006 211.867 119.815C212.048 119.624 212.266 119.473 212.507 119.371C212.749 119.268 213.01 119.217 213.272 119.22C213.819 119.225 214.343 119.438 214.738 119.815C215.134 120.192 215.372 120.705 215.403 121.25Z" fill="#263238"/>
<path d="M221.619 121.25C221.636 121.512 221.599 121.775 221.51 122.022C221.421 122.269 221.281 122.495 221.101 122.686C220.92 122.876 220.702 123.027 220.46 123.13C220.219 123.232 219.958 123.283 219.696 123.28C219.149 123.274 218.625 123.061 218.229 122.685C217.832 122.308 217.593 121.796 217.559 121.25C217.542 120.988 217.58 120.725 217.67 120.478C217.76 120.231 217.9 120.005 218.081 119.815C218.262 119.624 218.48 119.473 218.722 119.371C218.964 119.268 219.225 119.217 219.488 119.22C220.034 119.227 220.557 119.44 220.953 119.816C221.348 120.193 221.586 120.705 221.619 121.25Z" fill="#263238"/>
<path d="M227.881 121.25C227.897 121.512 227.86 121.775 227.77 122.021C227.681 122.268 227.541 122.493 227.361 122.684C227.181 122.874 226.963 123.025 226.722 123.128C226.48 123.231 226.22 123.283 225.958 123.28C225.411 123.274 224.887 123.061 224.491 122.685C224.095 122.308 223.855 121.796 223.821 121.25C223.805 120.989 223.842 120.726 223.932 120.48C224.021 120.233 224.161 120.007 224.341 119.817C224.521 119.627 224.739 119.475 224.98 119.373C225.222 119.27 225.482 119.218 225.744 119.22C226.291 119.227 226.815 119.439 227.211 119.816C227.607 120.192 227.847 120.705 227.881 121.25Z" fill="#263238"/>
<path d="M210.203 141.338C210.22 141.6 210.183 141.863 210.094 142.11C210.005 142.357 209.866 142.583 209.685 142.774C209.505 142.964 209.286 143.115 209.045 143.218C208.803 143.32 208.542 143.371 208.28 143.368C207.733 143.362 207.209 143.149 206.813 142.773C206.417 142.396 206.177 141.884 206.143 141.338C206.127 141.076 206.164 140.813 206.254 140.566C206.344 140.319 206.484 140.093 206.665 139.903C206.846 139.712 207.064 139.561 207.307 139.459C207.549 139.356 207.809 139.305 208.072 139.308C208.618 139.315 209.141 139.528 209.537 139.904C209.932 140.281 210.17 140.793 210.203 141.338Z" fill="#263238"/>
<path d="M216.443 141.338C216.459 141.6 216.421 141.863 216.332 142.109C216.242 142.356 216.103 142.581 215.922 142.772C215.742 142.962 215.524 143.113 215.283 143.216C215.042 143.319 214.782 143.371 214.519 143.368C213.973 143.362 213.449 143.149 213.052 142.773C212.656 142.396 212.417 141.884 212.382 141.338C212.365 141.076 212.402 140.814 212.491 140.567C212.581 140.32 212.72 140.094 212.9 139.903C213.081 139.712 213.299 139.561 213.541 139.459C213.783 139.356 214.043 139.305 214.306 139.308C214.852 139.315 215.376 139.527 215.773 139.904C216.169 140.28 216.408 140.793 216.443 141.338Z" fill="#263238"/>
<path d="M222.681 141.338C222.697 141.601 222.659 141.863 222.569 142.11C222.48 142.357 222.34 142.583 222.159 142.774C221.978 142.964 221.759 143.116 221.517 143.218C221.275 143.32 221.014 143.371 220.752 143.368C220.205 143.363 219.681 143.151 219.285 142.774C218.89 142.397 218.652 141.884 218.621 141.338C218.603 141.076 218.64 140.814 218.73 140.567C218.819 140.32 218.958 140.094 219.139 139.903C219.319 139.712 219.537 139.561 219.779 139.459C220.021 139.356 220.281 139.305 220.544 139.308C221.09 139.315 221.614 139.527 222.011 139.904C222.407 140.28 222.646 140.793 222.681 141.338Z" fill="#263238"/>
<path d="M228.914 141.338C228.932 141.6 228.894 141.863 228.805 142.11C228.716 142.357 228.577 142.583 228.396 142.774C228.216 142.964 227.998 143.115 227.756 143.218C227.514 143.32 227.254 143.371 226.991 143.368C226.444 143.362 225.92 143.149 225.524 142.773C225.128 142.396 224.888 141.884 224.854 141.338C224.838 141.076 224.876 140.813 224.965 140.566C225.055 140.319 225.195 140.093 225.376 139.903C225.557 139.712 225.776 139.561 226.018 139.459C226.26 139.356 226.52 139.305 226.783 139.308C227.33 139.313 227.854 139.526 228.249 139.903C228.645 140.28 228.883 140.793 228.914 141.338Z" fill="#263238"/>
<path d="M235.153 141.338C235.17 141.601 235.133 141.863 235.044 142.11C234.955 142.357 234.816 142.583 234.635 142.774C234.454 142.964 234.236 143.116 233.995 143.218C233.753 143.32 233.492 143.372 233.23 143.369C232.683 143.362 232.159 143.149 231.763 142.773C231.367 142.396 231.127 141.884 231.093 141.338C231.077 141.077 231.114 140.814 231.204 140.568C231.293 140.321 231.433 140.096 231.613 139.905C231.793 139.715 232.011 139.563 232.252 139.461C232.494 139.358 232.754 139.306 233.016 139.308C233.563 139.315 234.087 139.527 234.483 139.904C234.879 140.28 235.119 140.793 235.153 141.338Z" fill="#263238"/>
<path d="M241.392 141.338C241.409 141.601 241.371 141.863 241.281 142.11C241.191 142.357 241.051 142.583 240.87 142.774C240.689 142.964 240.471 143.116 240.229 143.218C239.986 143.32 239.726 143.371 239.463 143.368C238.917 143.362 238.394 143.149 237.998 142.772C237.603 142.396 237.365 141.883 237.332 141.338C237.315 141.076 237.352 140.814 237.441 140.567C237.53 140.32 237.669 140.094 237.85 139.903C238.031 139.712 238.249 139.561 238.491 139.459C238.732 139.356 238.993 139.305 239.255 139.308C239.802 139.315 240.326 139.527 240.722 139.904C241.119 140.28 241.358 140.793 241.392 141.338Z" fill="#263238"/>
<path d="M308.879 72.4016C309.027 72.6272 309.105 72.7459 309.2 72.9062L309.467 73.3455C309.639 73.6423 309.793 73.9391 309.942 74.23C310.238 74.8236 310.535 75.4172 310.773 76.0108C311.27 77.1898 311.698 78.3969 312.055 79.6259C312.774 82.0538 313.247 84.5476 313.468 87.0699L313.509 87.5389C313.514 87.6338 313.514 87.7289 313.509 87.8238V88.1384C313.519 88.5513 313.495 88.9642 313.438 89.3732C313.324 90.1312 313.125 90.874 312.844 91.5874C312.323 92.8615 311.632 94.0595 310.79 95.1491C309.221 97.1593 307.358 98.9222 305.264 100.379L303.625 98.4615C305.116 96.7777 306.437 94.9503 307.567 93.0061C308.076 92.1241 308.475 91.1832 308.754 90.2042C308.868 89.7896 308.933 89.3634 308.95 88.9339C308.969 88.7503 308.969 88.5654 308.95 88.3818V88.2572C308.956 88.2019 308.956 88.1462 308.95 88.0909L308.879 87.6754C308.497 85.4631 307.958 83.2809 307.264 81.1456C306.92 80.083 306.499 79.0561 306.077 78.0529C305.869 77.5483 305.632 77.0556 305.394 76.5807L305.026 75.8802L304.842 75.5537L304.688 75.2925L308.879 72.4016Z" fill="#803E3C"/>
<path d="M303.358 100.391L305.507 104.932L307.211 101.091C307.211 101.091 305.697 97.7669 303.649 98.0755L303.358 100.391Z" fill="#7F3E3B"/>
<path d="M307.045 105.157L308.755 102.356L307.211 101.091L305.508 104.932L307.045 105.157Z" fill="#7F3E3B"/>
<path d="M297.38 209.884C297.825 209.872 298.267 209.813 298.698 209.705C298.72 209.699 298.74 209.687 298.755 209.67C298.771 209.653 298.782 209.633 298.787 209.61C298.791 209.588 298.788 209.564 298.778 209.543C298.769 209.522 298.753 209.504 298.734 209.492C298.562 209.379 297.054 208.405 296.472 208.667C296.408 208.697 296.352 208.743 296.312 208.802C296.271 208.86 296.247 208.928 296.241 208.999C296.223 209.106 296.231 209.217 296.265 209.32C296.299 209.424 296.358 209.517 296.437 209.593C296.706 209.801 297.041 209.904 297.38 209.884ZM298.36 209.533C297.499 209.711 296.846 209.682 296.579 209.45C296.525 209.396 296.485 209.329 296.463 209.255C296.441 209.182 296.438 209.104 296.454 209.029C296.454 208.928 296.514 208.898 296.555 208.88C296.876 208.738 297.748 209.159 298.36 209.533Z" fill="#407BFF"/>
<path d="M298.669 209.706H298.728C298.746 209.694 298.761 209.678 298.771 209.66C298.782 209.641 298.787 209.62 298.788 209.599C298.788 209.539 298.788 208.109 298.241 207.628C298.174 207.568 298.095 207.523 298.009 207.496C297.923 207.469 297.832 207.462 297.743 207.474C297.649 207.474 297.559 207.507 297.486 207.567C297.414 207.626 297.364 207.708 297.345 207.8C297.232 208.364 298.135 209.433 298.61 209.706H298.669ZM297.82 207.693C297.868 207.692 297.916 207.7 297.961 207.717C298.006 207.735 298.047 207.761 298.081 207.794C298.394 208.256 298.556 208.804 298.544 209.361C298.069 208.981 297.505 208.174 297.577 207.836C297.577 207.782 297.618 207.711 297.767 207.693H297.82Z" fill="#407BFF"/>
<path d="M291.777 207.462C291.791 207.444 291.8 207.423 291.803 207.401C291.806 207.379 291.803 207.357 291.795 207.336C291.786 207.316 291.772 207.298 291.754 207.284C291.737 207.271 291.716 207.262 291.693 207.26C291.45 207.26 289.319 207.159 288.832 207.681V207.717C288.792 207.768 288.766 207.829 288.757 207.894C288.747 207.958 288.755 208.024 288.779 208.085C288.811 208.187 288.867 208.28 288.942 208.355C289.018 208.431 289.11 208.487 289.212 208.518C289.901 208.732 291.118 207.954 291.783 207.474L291.777 207.462ZM289.01 207.836C289.277 207.551 290.453 207.473 291.331 207.485C290.411 208.115 289.646 208.411 289.26 208.293C289.192 208.272 289.131 208.236 289.082 208.186C289.032 208.136 288.995 208.075 288.975 208.008C288.963 207.985 288.957 207.959 288.957 207.934C288.957 207.908 288.963 207.882 288.975 207.859L289.01 207.836Z" fill="#407BFF"/>
<path d="M291.777 207.462C291.786 207.443 291.791 207.423 291.791 207.402C291.791 207.382 291.786 207.361 291.777 207.343C291.748 207.295 291.083 206.156 290.299 205.918C290.187 205.885 290.069 205.876 289.952 205.89C289.836 205.904 289.724 205.942 289.622 206.001C289.337 206.167 289.32 206.363 289.355 206.488C289.51 207.04 291.023 207.527 291.676 207.521C291.697 207.521 291.717 207.515 291.735 207.505C291.752 207.494 291.767 207.479 291.777 207.462ZM289.646 206.274C289.68 206.241 289.718 206.213 289.759 206.191C289.832 206.144 289.915 206.114 290.001 206.103C290.087 206.092 290.175 206.1 290.258 206.126C290.774 206.262 291.255 206.927 291.475 207.254C290.768 207.177 289.694 206.743 289.605 206.411C289.597 206.386 289.597 206.359 289.604 206.333C289.612 206.308 289.626 206.286 289.646 206.268V206.274Z" fill="#407BFF"/>
<path d="M298.313 55.0146C297.719 57.9827 296.437 64.3997 298.497 66.3705C298.497 66.3705 297.69 69.3386 292.21 69.3386C286.179 69.3386 289.331 66.3705 289.331 66.3705C292.62 65.5869 292.537 63.1412 291.961 60.8499L298.313 55.0146Z" fill="#7F3E3B"/>
<path d="M288.269 48.0575C288.302 48.0629 288.336 48.0629 288.37 48.0575C288.398 48.0436 288.423 48.0243 288.444 48.0006C288.464 47.9769 288.48 47.9493 288.49 47.9195C288.5 47.8897 288.504 47.8582 288.502 47.8269C288.499 47.7955 288.491 47.765 288.477 47.7369C288.317 47.3983 288.078 47.103 287.781 46.8757C287.483 46.6485 287.136 46.4959 286.767 46.431C286.705 46.4258 286.644 46.4444 286.595 46.483C286.547 46.5216 286.515 46.5773 286.506 46.6387C286.499 46.7008 286.517 46.7631 286.556 46.812C286.595 46.8609 286.652 46.8925 286.714 46.8999C287.005 46.9558 287.278 47.0803 287.511 47.263C287.745 47.4457 287.931 47.6815 288.055 47.9506C288.078 47.9857 288.11 48.0141 288.148 48.0329C288.185 48.0517 288.227 48.0601 288.269 48.0575Z" fill="#263238"/>
<path d="M286.47 50.6635C286.002 51.53 285.419 52.3288 284.736 53.0379C284.921 53.2071 285.141 53.334 285.38 53.4099C285.618 53.4857 285.871 53.5087 286.119 53.4772L286.47 50.6635Z" fill="#630F0F"/>
<path d="M286.916 49.9927C286.868 50.3904 286.613 50.6872 286.358 50.6576C286.102 50.6279 285.924 50.2776 285.972 49.8799C286.019 49.4822 286.275 49.1854 286.565 49.2151C286.856 49.2447 286.957 49.595 286.916 49.9927Z" fill="#263238"/>
<path d="M286.642 49.2506L285.728 48.8826C285.728 48.8826 286.114 49.6661 286.642 49.2506Z" fill="#263238"/>
<path d="M297.019 206.334L292.175 207.462L289.23 196.325L294.074 195.197L297.019 206.334Z" fill="#7F3E3B"/>
<path d="M304.45 209.587H299.482L299.868 198.077H304.842L304.45 209.587Z" fill="#7F3E3B"/>
<path d="M299.084 209.011H304.67C304.767 209.01 304.861 209.045 304.934 209.108C305.007 209.171 305.055 209.259 305.068 209.355L305.703 213.772C305.716 213.883 305.704 213.996 305.67 214.103C305.636 214.211 305.579 214.309 305.504 214.393C305.429 214.476 305.337 214.543 305.234 214.588C305.131 214.634 305.02 214.657 304.907 214.656C302.96 214.627 302.023 214.508 299.565 214.508C298.051 214.508 295.843 214.668 293.759 214.668C291.676 214.668 291.557 212.602 292.43 212.418C296.324 211.575 296.941 210.424 298.253 209.32C298.485 209.122 298.779 209.012 299.084 209.011Z" fill="#263238"/>
<path d="M291.747 206.72L296.823 204.387C296.909 204.346 297.007 204.337 297.099 204.364C297.191 204.39 297.27 204.449 297.321 204.529L299.749 208.281C299.806 208.377 299.842 208.485 299.855 208.596C299.867 208.707 299.856 208.82 299.823 208.927C299.789 209.034 299.734 209.132 299.66 209.216C299.586 209.3 299.495 209.368 299.393 209.415C297.612 210.198 296.71 210.489 294.478 211.516C293.107 212.145 290.323 213.594 288.435 214.484C286.547 215.375 285.574 213.528 286.286 212.994C289.474 210.62 290.388 208.916 291.118 207.367C291.242 207.081 291.466 206.851 291.747 206.72Z" fill="#263238"/>
<path opacity="0.2" d="M289.23 196.325L290.809 202.297L295.594 200.938L294.08 195.197L289.23 196.325Z" fill="black"/>
<path opacity="0.2" d="M304.843 198.077H299.868L299.672 204.013H304.647L304.843 198.077Z" fill="black"/>
<path d="M307.098 67.4982C309.164 67.9553 311.372 75.3815 311.372 75.3815L305.531 81.5967C305.531 81.5967 300.681 74.6157 301.672 72.0513C302.675 69.3741 304.634 66.964 307.098 67.4982Z" fill="#263238"/>
<path opacity="0.4" d="M303.798 72.2296C302.753 71.2739 302.047 71.5588 301.566 72.3187C301.091 74.5269 303.905 79.1512 305.038 80.9024C305.561 78.8129 306.16 74.4082 303.798 72.2296Z" fill="black"/>
<path d="M280.926 67.6469C280.926 67.6469 278.551 68.4779 283.3 97.6543H303.483C303.145 89.4386 303.133 84.3691 307.045 67.4985C304.217 66.915 301.35 66.538 298.467 66.3706C295.416 66.1507 292.353 66.1507 289.302 66.3706C285.39 66.7327 280.926 67.6469 280.926 67.6469Z" fill="#263238"/>
<path opacity="0.4" d="M280.741 78.8425C280.872 80.2612 281.044 81.858 281.27 83.6626C282.926 82.1727 284.279 77.9342 283.781 75.4648C282.597 76.4251 281.572 77.5648 280.741 78.8425Z" fill="black"/>
<path d="M282.902 74.408C281.813 77.1492 280.587 79.8338 279.228 82.4516C277.884 85.1639 276.295 87.7471 274.479 90.1686L274.099 90.6376L273.909 90.8691C273.844 90.9462 273.79 91.0175 273.689 91.1243C273.332 91.5141 272.934 91.8643 272.502 92.1691C271.738 92.6976 270.903 93.1135 270.021 93.4038C268.482 93.8951 266.885 94.1786 265.272 94.2468C262.25 94.3669 259.225 94.0976 256.272 93.4454L256.599 90.9522C257.964 90.9522 259.395 90.9522 260.754 90.8394C262.12 90.7722 263.48 90.6216 264.826 90.3882C266.078 90.1931 267.301 89.8503 268.471 89.3672C268.944 89.1653 269.386 88.8975 269.783 88.5718C269.935 88.4447 270.072 88.3013 270.193 88.1444C270.193 88.1444 270.264 88.0494 270.312 87.9841L270.448 87.7882L270.727 87.3964C272.217 85.0956 273.544 82.6935 274.698 80.2077C275.886 77.6848 277.073 75.067 278.159 72.4907L282.902 74.408Z" fill="#803E3C"/>
<path d="M280.925 67.6468C278.45 68.2404 275.411 75.0314 275.411 75.0314L280.54 82.5704C280.54 82.5704 287.372 73.9688 286.559 71.345C285.728 68.6085 283.947 66.9107 280.925 67.6468Z" fill="#263238"/>
<path d="M258.024 91.3322L253.744 89.3554L253.316 93.6117C253.316 93.6117 256.878 94.6624 258.659 93.6117L258.024 91.3322Z" fill="#7F3E3B"/>
<path d="M251.185 88.9281L250.776 92.1693L253.316 93.6117L253.744 89.3555L251.185 88.9281Z" fill="#7F3E3B"/>
<path d="M300.461 50.2835C299.553 55.1333 299.274 57.211 296.496 59.4133C292.341 62.7257 286.553 60.5531 285.995 55.5311C285.484 51.0077 287.051 43.8368 292.079 42.4715C293.187 42.1659 294.354 42.1492 295.47 42.4228C296.586 42.6965 297.613 43.2515 298.454 44.0348C299.294 44.8182 299.92 45.8038 300.271 46.8977C300.623 47.9915 300.688 49.1572 300.461 50.2835Z" fill="#7F3E3B"/>
<path d="M289.806 51.3044C289.527 53.7798 289.42 60.2087 294.858 60.4105C301.512 60.6539 303.507 54.967 302.913 52.6935C306.38 49.8738 306.878 45.0239 302.984 41.3138C299.09 37.6037 290.518 39.6754 288.144 43.2906C285.134 47.7724 289.806 51.3044 289.806 51.3044Z" fill="#263238"/>
<path d="M296.472 42.7563C296.152 40.1444 296.401 38.3458 298.847 38.3458C301.292 38.3458 304.628 39.2303 305.851 41.7294C307.074 44.2285 307.175 48.1405 303.762 47.7427C300.348 47.345 296.858 45.8788 296.472 42.7563Z" fill="#407BFF"/>
<path d="M300.26 42.1271C299.666 39.0166 302.45 30.2548 309.212 29.6612C312.346 29.394 313.794 32.7658 312.18 33.3238C315.148 33.2882 317.047 37.212 314.281 37.7997C316.466 39.2006 315.926 42.0737 312.809 43.4865C310.488 44.555 301.061 46.4368 300.26 42.1271Z" fill="#263238"/>
<path d="M307.484 45.4692C305.306 45.4692 303.032 45.1486 301.62 44.2048C301.224 43.9667 300.892 43.6378 300.649 43.2456C300.407 42.8533 300.261 42.4088 300.225 41.949C300.223 41.91 300.236 41.8718 300.261 41.842C300.287 41.8123 300.322 41.7932 300.361 41.7888C300.381 41.7863 300.401 41.7879 300.42 41.7936C300.439 41.7993 300.456 41.8088 300.471 41.8217C300.486 41.8345 300.499 41.8504 300.507 41.8682C300.516 41.8861 300.521 41.9055 300.521 41.9253C300.557 42.3402 300.69 42.7408 300.91 43.0946C301.13 43.4484 301.43 43.7454 301.786 43.9614C304.475 45.7423 310.69 45.1487 312.625 44.555C314.299 44.0089 315.433 42.9463 315.659 41.7235C315.729 41.2747 315.673 40.8153 315.499 40.3961C315.324 39.977 315.036 39.6145 314.667 39.349C314.653 39.3357 314.642 39.3196 314.634 39.3017C314.626 39.2838 314.622 39.2646 314.622 39.2451C314.622 39.2256 314.626 39.2064 314.634 39.1885C314.642 39.1707 314.653 39.1546 314.667 39.1412C314.695 39.114 314.732 39.0988 314.771 39.0988C314.81 39.0988 314.847 39.114 314.875 39.1412C315.289 39.4436 315.612 39.8552 315.805 40.33C315.999 40.8049 316.057 41.3244 315.973 41.8303C315.73 43.166 314.525 44.3057 312.744 44.8875C311.026 45.3206 309.256 45.5163 307.484 45.4692Z" fill="#263238"/>
<path d="M288.292 50.6633C287.739 51.4387 287.511 52.3995 287.657 53.3405C287.853 54.5871 289.064 54.6703 289.942 53.8748C290.821 53.0794 291.586 51.6428 290.939 50.6099C290.796 50.3868 290.597 50.2042 290.363 50.0795C290.128 49.9548 289.866 49.8921 289.601 49.8975C289.335 49.9028 289.076 49.976 288.847 50.1101C288.618 50.2441 288.427 50.4346 288.292 50.6633Z" fill="#7F3E3B"/>
<path d="M288.63 97.6541C288.63 97.6541 291.515 131.781 294.513 151.014C296.929 166.549 298.841 202.861 298.841 202.861H305.62C305.62 202.861 308.03 167.636 306.807 152.273C303.702 113.391 310.63 110.221 303.5 97.66L288.63 97.6541Z" fill="#407BFF"/>
<path opacity="0.4" d="M297.167 110.553C294.48 113.373 292.312 116.645 290.762 120.218C291.551 127.887 292.489 136.4 293.487 143.855C297.579 133.261 298.847 121.785 297.167 110.553Z" fill="black"/>
<path d="M283.887 97.4405C283.887 97.4405 277.625 134.714 276.639 151.513C279.097 167.048 289.153 199.887 289.153 199.887L295.321 197.649C295.321 197.649 291.907 161.842 288.197 152.041C296.549 123.922 302.687 116.81 300.901 97.6542C296.621 97.6542 283.887 97.4405 283.887 97.4405Z" fill="#407BFF"/>
<path d="M288.328 201.526L296.663 199.264L296.188 195.94L287.266 198.356L288.328 201.526Z" fill="#263238"/>
<path d="M297.909 202.998H306.546L306.997 199.97L297.862 199.661L297.909 202.998Z" fill="#263238"/>
<path d="M303.798 96.4669L304.706 98.2774C304.777 98.4199 304.611 98.5623 304.38 98.5623H283.199C283.021 98.5623 282.867 98.4733 282.855 98.3546L282.671 96.5737C282.671 96.449 282.819 96.3422 283.015 96.3422H303.465C303.527 96.3338 303.589 96.3408 303.647 96.3626C303.705 96.3843 303.757 96.4202 303.798 96.4669Z" fill="#407BFF"/>
<path opacity="0.5" d="M303.798 96.4669L304.706 98.2774C304.777 98.4199 304.611 98.5623 304.38 98.5623H283.199C283.021 98.5623 282.867 98.4733 282.855 98.3546L282.671 96.5737C282.671 96.449 282.819 96.3422 283.015 96.3422H303.465C303.527 96.3338 303.589 96.3408 303.647 96.3626C303.705 96.3843 303.757 96.4202 303.798 96.4669Z" fill="black"/>
<path d="M301.049 98.7465H301.595C301.708 98.7465 301.791 98.6871 301.785 98.6218L301.524 96.2473C301.524 96.1761 301.423 96.1227 301.316 96.1227H300.764C300.657 96.1227 300.574 96.1761 300.58 96.2473L300.835 98.6218C300.847 98.699 300.942 98.7465 301.049 98.7465Z" fill="#407BFF"/>
<path d="M293.7 81.4603C293.635 81.4593 293.571 81.4375 293.519 81.398C293.467 81.3585 293.429 81.3034 293.41 81.2406C291.474 74.0816 287.473 68.181 285.532 67.2906C285.381 67.198 285.2 67.1681 285.028 67.2075C284.992 67.2264 284.953 67.2377 284.912 67.2409C284.872 67.244 284.831 67.2388 284.793 67.2256C284.754 67.2124 284.719 67.1915 284.689 67.1642C284.659 67.1369 284.635 67.1038 284.619 67.0668C284.602 67.0299 284.593 66.9899 284.593 66.9494C284.592 66.9089 284.6 66.8687 284.615 66.8313C284.631 66.7938 284.654 66.76 284.683 66.7318C284.712 66.7036 284.746 66.6816 284.784 66.6673C284.947 66.6077 285.12 66.5843 285.292 66.5987C285.464 66.613 285.631 66.6648 285.782 66.7504C287.836 67.724 291.896 73.5414 293.926 80.8607C295.38 80.8607 297.624 80.6648 298.17 80.6173C298.847 79.81 303.822 73.5889 301.964 66.7801C301.953 66.7427 301.95 66.7035 301.954 66.6648C301.959 66.6262 301.972 66.5889 301.991 66.5551C302.01 66.5213 302.036 66.4918 302.067 66.4682C302.098 66.4447 302.134 66.4276 302.171 66.418C302.247 66.398 302.327 66.4086 302.395 66.4475C302.463 66.4864 302.513 66.5504 302.534 66.6258C304.605 74.2003 298.598 81.0329 298.533 81.0982C298.509 81.127 298.481 81.1508 298.448 81.1681C298.415 81.1855 298.379 81.196 298.343 81.1991C298.313 81.1991 295.351 81.4603 293.7 81.4603Z" fill="#407BFF"/>
<path d="M303.537 85.6513C300.301 79.5904 298.978 79.163 298.402 77.2159C298.838 76.1272 299.461 75.1228 300.242 74.2479C299.85 74.1351 299.007 73.9689 298.461 73.8679C298.52 73.6008 298.586 73.3396 298.645 73.0844C298.051 73.0179 297.45 73.0459 296.864 73.1675V72.5739C296.11 72.4098 295.336 72.3598 294.567 72.4255C294.634 72.7064 294.7 72.9914 294.763 73.2803C294.169 73.3931 293.267 73.5771 292.834 73.7017C293.676 74.6554 294.294 75.785 294.644 77.0082C292.899 80.006 286.12 99.2748 297.149 100.753C308.179 102.231 306.766 91.718 303.537 85.6513Z" fill="#407BFF"/>
<path opacity="0.4" d="M303.537 85.6513C300.301 79.5904 298.978 79.163 298.402 77.2159C298.838 76.1272 299.461 75.1228 300.242 74.2479C299.85 74.1351 299.007 73.9689 298.461 73.8679C298.52 73.6008 298.586 73.3396 298.645 73.0844C298.051 73.0179 297.45 73.0459 296.864 73.1675V72.5739C296.11 72.4098 295.336 72.3598 294.567 72.4255C294.634 72.7064 294.7 72.9914 294.763 73.2803C294.169 73.3931 293.267 73.5771 292.834 73.7017C293.676 74.6554 294.294 75.785 294.644 77.0082C292.899 80.006 286.12 99.2748 297.149 100.753C308.179 102.231 306.766 91.718 303.537 85.6513Z" fill="white"/>
<path d="M294.192 76.4323C294.124 76.738 294.094 77.0511 294.103 77.3643C294.103 77.5839 294.697 77.7323 295.356 77.7976C296.015 77.8629 298.781 77.9698 298.692 77.6611C298.603 77.3524 298.828 76.931 298.84 76.6698C298.852 76.4086 297.742 76.3967 296.81 76.4323C295.878 76.4679 294.376 76.0999 294.192 76.4323Z" fill="#407BFF"/>
<path d="M287.775 98.7465H288.322C288.428 98.7465 288.512 98.6871 288.506 98.6218L288.25 96.2473C288.25 96.1761 288.149 96.1227 288.037 96.1227H287.508C287.401 96.1227 287.318 96.1761 287.324 96.2473L287.58 98.6218C287.568 98.699 287.663 98.7465 287.775 98.7465Z" fill="#407BFF"/>
<rect x="4.64697" y="126.749" width="70" height="5" fill="#4584FF"/>
<path d="M10.6484 94.9062H12.6016C14.5156 94.9062 15.9284 94.5872 16.8398 93.9492C17.7513 93.3112 18.207 92.3086 18.207 90.9414C18.207 89.5872 17.7383 88.6237 16.8008 88.0508C15.8763 87.4779 14.4375 87.1914 12.4844 87.1914H10.6484V94.9062ZM10.6484 99.8281V110.785H4.59375V82.2305H12.9141C16.7943 82.2305 19.6654 82.9401 21.5273 84.3594C23.3893 85.7656 24.3203 87.9076 24.3203 90.7852C24.3203 92.4648 23.8581 93.9622 22.9336 95.2773C22.0091 96.5794 20.7005 97.6016 19.0078 98.3438C23.3047 104.763 26.1042 108.91 27.4062 110.785H20.6875L13.8711 99.8281H10.6484ZM39.5742 92.7773C38.3112 92.7773 37.3216 93.181 36.6055 93.9883C35.8893 94.7826 35.4792 95.9154 35.375 97.3867H43.7344C43.7083 95.9154 43.3242 94.7826 42.582 93.9883C41.8398 93.181 40.8372 92.7773 39.5742 92.7773ZM40.4141 111.176C36.8984 111.176 34.151 110.206 32.1719 108.266C30.1927 106.326 29.2031 103.578 29.2031 100.023C29.2031 96.3646 30.1146 93.5391 31.9375 91.5469C33.7734 89.5417 36.306 88.5391 39.5352 88.5391C42.6211 88.5391 45.0234 89.418 46.7422 91.1758C48.4609 92.9336 49.3203 95.362 49.3203 98.4609V101.352H35.2383C35.3034 103.044 35.8047 104.366 36.7422 105.316C37.6797 106.267 38.9948 106.742 40.6875 106.742C42.0026 106.742 43.2461 106.605 44.418 106.332C45.5898 106.059 46.8138 105.622 48.0898 105.023V109.633C47.0482 110.154 45.9349 110.538 44.75 110.785C43.5651 111.046 42.1198 111.176 40.4141 111.176ZM73.168 88.9492V91.9766L69.75 92.8555C70.375 93.832 70.6875 94.9258 70.6875 96.1367C70.6875 98.4805 69.8672 100.31 68.2266 101.625C66.599 102.927 64.3333 103.578 61.4297 103.578L60.3555 103.52L59.4766 103.422C58.8646 103.891 58.5586 104.411 58.5586 104.984C58.5586 105.844 59.6523 106.273 61.8398 106.273H65.5508C67.9466 106.273 69.7695 106.788 71.0195 107.816C72.2826 108.845 72.9141 110.355 72.9141 112.348C72.9141 114.9 71.8464 116.879 69.7109 118.285C67.5885 119.691 64.5352 120.395 60.5508 120.395C57.5039 120.395 55.1732 119.861 53.5586 118.793C51.957 117.738 51.1562 116.254 51.1562 114.34C51.1562 113.025 51.5664 111.924 52.3867 111.039C53.207 110.154 54.4115 109.522 56 109.145C55.388 108.884 54.8542 108.461 54.3984 107.875C53.9427 107.276 53.7148 106.645 53.7148 105.98C53.7148 105.147 53.9557 104.457 54.4375 103.91C54.9193 103.35 55.6159 102.803 56.5273 102.27C55.3815 101.775 54.4701 100.98 53.793 99.8867C53.1289 98.793 52.7969 97.5039 52.7969 96.0195C52.7969 93.6367 53.5716 91.7943 55.1211 90.4922C56.6706 89.1901 58.8841 88.5391 61.7617 88.5391C62.3737 88.5391 63.0964 88.5977 63.9297 88.7148C64.776 88.819 65.3164 88.8971 65.5508 88.9492H73.168ZM56.3125 113.871C56.3125 114.691 56.7031 115.336 57.4844 115.805C58.2786 116.273 59.3854 116.508 60.8047 116.508C62.9401 116.508 64.6133 116.215 65.8242 115.629C67.0352 115.043 67.6406 114.242 67.6406 113.227C67.6406 112.406 67.2826 111.84 66.5664 111.527C65.8503 111.215 64.7435 111.059 63.2461 111.059H60.1602C59.0664 111.059 58.1484 111.312 57.4062 111.82C56.6771 112.341 56.3125 113.025 56.3125 113.871ZM58.4805 96.0977C58.4805 97.2826 58.7474 98.2201 59.2812 98.9102C59.8281 99.6003 60.6549 99.9453 61.7617 99.9453C62.8815 99.9453 63.7018 99.6003 64.2227 98.9102C64.7435 98.2201 65.0039 97.2826 65.0039 96.0977C65.0039 93.4674 63.9232 92.1523 61.7617 92.1523C59.5742 92.1523 58.4805 93.4674 58.4805 96.0977ZM76.5273 83.3047C76.5273 81.3646 77.6081 80.3945 79.7695 80.3945C81.931 80.3945 83.0117 81.3646 83.0117 83.3047C83.0117 84.2292 82.7383 84.9518 82.1914 85.4727C81.6576 85.9805 80.8503 86.2344 79.7695 86.2344C77.6081 86.2344 76.5273 85.2578 76.5273 83.3047ZM82.7383 110.785H76.7812V88.9492H82.7383V110.785ZM104.242 104.301C104.242 106.54 103.461 108.246 101.898 109.418C100.349 110.59 98.0247 111.176 94.9258 111.176C93.3372 111.176 91.9831 111.065 90.8633 110.844C89.7435 110.635 88.6953 110.323 87.7188 109.906V104.984C88.8255 105.505 90.069 105.941 91.4492 106.293C92.8424 106.645 94.0664 106.82 95.1211 106.82C97.2826 106.82 98.3633 106.195 98.3633 104.945C98.3633 104.477 98.2201 104.099 97.9336 103.812C97.6471 103.513 97.1523 103.181 96.4492 102.816C95.7461 102.439 94.8086 102.003 93.6367 101.508C91.957 100.805 90.7201 100.154 89.9258 99.5547C89.1445 98.9557 88.5716 98.2721 88.207 97.5039C87.8555 96.7227 87.6797 95.7656 87.6797 94.6328C87.6797 92.6927 88.4284 91.1953 89.9258 90.1406C91.4362 89.0729 93.5716 88.5391 96.332 88.5391C98.9622 88.5391 101.521 89.112 104.008 90.2578L102.211 94.5547C101.117 94.0859 100.095 93.7018 99.1445 93.4023C98.194 93.1029 97.224 92.9531 96.2344 92.9531C94.4766 92.9531 93.5977 93.4284 93.5977 94.3789C93.5977 94.9128 93.8776 95.375 94.4375 95.7656C95.0104 96.1562 96.2539 96.7357 98.168 97.5039C99.8737 98.194 101.124 98.8385 101.918 99.4375C102.712 100.036 103.298 100.727 103.676 101.508C104.053 102.289 104.242 103.22 104.242 104.301ZM118.09 106.43C119.132 106.43 120.382 106.202 121.84 105.746V110.18C120.355 110.844 118.533 111.176 116.371 111.176C113.988 111.176 112.25 110.577 111.156 109.379C110.076 108.168 109.535 106.358 109.535 103.949V93.4219H106.684V90.9023L109.965 88.9102L111.684 84.3008H115.492V88.9492H121.605V93.4219H115.492V103.949C115.492 104.796 115.727 105.421 116.195 105.824C116.677 106.228 117.309 106.43 118.09 106.43ZM135.316 92.7773C134.053 92.7773 133.064 93.181 132.348 93.9883C131.632 94.7826 131.221 95.9154 131.117 97.3867H139.477C139.451 95.9154 139.066 94.7826 138.324 93.9883C137.582 93.181 136.579 92.7773 135.316 92.7773ZM136.156 111.176C132.641 111.176 129.893 110.206 127.914 108.266C125.935 106.326 124.945 103.578 124.945 100.023C124.945 96.3646 125.857 93.5391 127.68 91.5469C129.516 89.5417 132.048 88.5391 135.277 88.5391C138.363 88.5391 140.766 89.418 142.484 91.1758C144.203 92.9336 145.062 95.362 145.062 98.4609V101.352H130.98C131.046 103.044 131.547 104.366 132.484 105.316C133.422 106.267 134.737 106.742 136.43 106.742C137.745 106.742 138.988 106.605 140.16 106.332C141.332 106.059 142.556 105.622 143.832 105.023V109.633C142.79 110.154 141.677 110.538 140.492 110.785C139.307 111.046 137.862 111.176 136.156 111.176ZM162.094 88.5391C162.901 88.5391 163.572 88.5977 164.105 88.7148L163.656 94.3008C163.174 94.1706 162.589 94.1055 161.898 94.1055C159.997 94.1055 158.513 94.5938 157.445 95.5703C156.391 96.5469 155.863 97.9141 155.863 99.6719V110.785H149.906V88.9492H154.418L155.297 92.6211H155.59C156.267 91.3971 157.178 90.4141 158.324 89.6719C159.483 88.9167 160.74 88.5391 162.094 88.5391Z" fill="#3D3D3D"/>
</svg>
