<svg width="218" height="196" viewBox="0 0 218 196" fill="none" xmlns="http://www.w3.org/2000/svg">
<path d="M217.226 186.448C217.226 186.514 168.595 186.57 108.618 186.57C48.6406 186.57 0 186.514 0 186.448C0 186.382 48.6265 186.326 108.613 186.326C168.599 186.326 217.226 186.378 217.226 186.448Z" fill="#455A64"/>
<path d="M104.62 63.8555C98.9351 69.109 94.8626 80.3892 93.7519 87.9063C92.6412 95.4233 92.0695 103.372 87.9407 109.745C86.7972 111.512 85.3397 113.321 85.4756 115.416C85.6631 118.354 88.9108 120.154 91.8445 120.402C94.7782 120.65 97.7588 119.933 100.65 120.463C105.969 121.452 110.126 126.555 115.534 126.49C119.565 126.457 123.08 123.42 124.879 119.812C126.679 116.203 127.087 112.088 127.471 108.095C128.628 96.0091 129.486 87.3064 130.644 75.2201" fill="#4584FF"/>
<path d="M91.8165 108.353C91.3542 108.083 90.9611 107.709 90.6682 107.261C90.3754 106.813 90.1909 106.303 90.1294 105.771C90.1997 105.771 90.4012 106.422 90.8699 107.13C91.3385 107.838 91.8634 108.292 91.8165 108.353Z" fill="#FAFAFA"/>
<path d="M114.902 121.395C114.798 121.408 114.692 121.408 114.588 121.395L113.693 121.344C112.915 121.288 111.818 121.199 110.412 121.053C107.643 120.767 103.828 120.252 99.6616 119.418C97.6894 119.072 95.7466 118.576 93.8505 117.932C92.297 117.389 90.8643 116.549 89.6327 115.458C88.8021 114.719 88.1267 113.822 87.6456 112.819C87.5193 112.547 87.4113 112.267 87.3223 111.98C87.2862 111.882 87.2626 111.78 87.252 111.676C87.252 111.676 87.3832 112.088 87.7206 112.777C88.222 113.749 88.9044 114.616 89.7311 115.331C90.9618 116.386 92.3821 117.197 93.9161 117.721C95.8084 118.349 97.7445 118.836 99.7085 119.179C103.865 120.008 107.675 120.552 110.431 120.88L113.712 121.25L114.602 121.344C114.704 121.349 114.804 121.367 114.902 121.395Z" fill="#FAFAFA"/>
<path d="M112.648 115.214C112.138 115.052 111.668 114.784 111.27 114.427C110.931 114.171 110.618 113.884 110.333 113.57L110.3 113.527V113.495C110.375 113.316 110.436 113.213 110.459 113.223C110.483 113.232 110.459 113.345 110.436 113.537V113.462L111.429 114.235C111.866 114.522 112.274 114.85 112.648 115.214Z" fill="#FAFAFA"/>
<path d="M99.0479 74.7001C99.0479 74.7657 98.6683 74.7376 98.3684 74.4189C98.0685 74.1003 98.045 73.7347 98.1106 73.73C98.1762 73.7254 98.2934 73.9972 98.5418 74.2502C98.7902 74.5033 99.062 74.6345 99.0479 74.7001Z" fill="#FAFAFA"/>
<path d="M97.2247 80.5019C97.2247 80.5675 96.7139 80.5769 96.2874 80.1738C95.861 79.7708 95.7907 79.2646 95.8563 79.2646C95.9219 79.2646 96.0672 79.6583 96.4515 79.9957C96.8357 80.3332 97.2341 80.4316 97.2247 80.5019Z" fill="#FAFAFA"/>
<path d="M95.73 87.0205C95.73 87.0533 95.5988 87.0861 95.3832 87.058C95.1055 87.0126 94.8459 86.8909 94.6333 86.7065C94.4166 86.5283 94.2543 86.2929 94.1647 86.027C94.0991 85.8208 94.1131 85.6849 94.1647 85.6802C94.2162 85.6755 94.3615 86.1489 94.8161 86.5191C95.2707 86.8893 95.7347 86.9502 95.73 87.0205Z" fill="#FAFAFA"/>
<path d="M94.4597 93.4408C94.4222 93.4971 94.0754 93.3518 93.6818 93.1128C93.2881 92.8738 92.9976 92.6441 93.0304 92.5739C93.0632 92.5036 93.4146 92.6629 93.8083 92.9019C94.202 93.1409 94.4925 93.3846 94.4597 93.4408Z" fill="#FAFAFA"/>
<path d="M93.2789 100.789C93.2414 100.846 92.8336 100.635 92.4822 100.199C92.1307 99.763 92.0135 99.3178 92.0744 99.299C92.1354 99.2803 92.3463 99.6458 92.6743 100.044C93.0024 100.443 93.3163 100.733 93.2789 100.789Z" fill="#FAFAFA"/>
<path d="M85.0305 166.934L82.3686 178.95L77.5228 187.854C77.4395 188.005 77.3885 188.173 77.3728 188.345C77.3572 188.517 77.3773 188.691 77.4318 188.855C77.4864 189.019 77.5742 189.17 77.6899 189.298C77.8055 189.427 77.9465 189.53 78.1039 189.602C78.2858 189.688 78.4859 189.728 78.6867 189.719C78.8876 189.71 79.0833 189.652 79.2568 189.55C81.5156 188.248 89.7872 183.411 89.9325 182.521C90.1012 181.49 93.5832 170.022 93.5832 170.022L85.0305 166.934Z" fill="#FF725E"/>
<g opacity="0.6">
<path opacity="0.6" d="M78.104 189.607L90.1294 181.719L90.0076 182.225C89.9005 182.664 89.6415 183.051 89.2765 183.317C88.297 184.02 85.5273 185.914 79.2944 189.564C79.1152 189.67 78.9125 189.729 78.7045 189.737C78.4966 189.744 78.2902 189.699 78.104 189.607Z" fill="white"/>
</g>
<g opacity="0.6">
<path opacity="0.6" d="M88.6204 177.244C88.4427 177.316 88.2987 177.453 88.2171 177.626C88.1355 177.8 88.1222 177.998 88.1799 178.181C88.2457 178.358 88.3766 178.502 88.5458 178.585C88.7149 178.668 88.9093 178.683 89.0891 178.626C89.2741 178.551 89.4246 178.409 89.5112 178.229C89.5978 178.049 89.6143 177.843 89.5577 177.651C89.4706 177.475 89.3186 177.339 89.1335 177.271C88.9483 177.204 88.7444 177.211 88.5642 177.291" fill="white"/>
</g>
<path d="M82.1201 185.052C81.9574 184.59 81.6737 184.18 81.2986 183.865C80.9236 183.55 80.4709 183.342 79.9878 183.261C79.9878 183.229 80.1565 183.172 80.4564 183.205C80.8373 183.257 81.1945 183.42 81.4828 183.674C81.7769 183.919 81.9935 184.245 82.1061 184.611C82.1764 184.869 82.1529 185.052 82.1201 185.052Z" fill="#263238"/>
<path d="M80.8739 186.443C80.8082 186.481 80.5177 185.998 79.9366 185.67C79.569 185.503 79.1919 185.357 78.8071 185.234C79.0189 185.165 79.2441 185.148 79.4641 185.183C79.6841 185.218 79.8926 185.304 80.0725 185.436C80.7333 185.815 80.9629 186.429 80.8739 186.443Z" fill="#263238"/>
<path d="M84.2103 183.388C83.79 182.924 83.3357 182.491 82.8513 182.094C82.3155 181.77 81.7562 181.487 81.1782 181.246C81.8351 181.277 82.4693 181.496 83.0065 181.875C83.5436 182.254 83.9613 182.779 84.2103 183.388Z" fill="#263238"/>
<path d="M85.3257 179.798C85.2741 179.863 84.6836 179.423 83.8307 179.184C82.9778 178.945 82.2467 178.978 82.2373 178.898C82.7854 178.755 83.3619 178.763 83.9057 178.922C84.4495 179.08 84.9402 179.383 85.3257 179.798Z" fill="#263238"/>
<path d="M86.1974 176.306C85.7163 176.011 85.1977 175.78 84.6556 175.622C84.0975 175.544 83.5313 175.544 82.9731 175.622C82.9731 175.594 83.1278 175.472 83.4418 175.383C83.8564 175.273 84.291 175.262 84.7108 175.35C85.1306 175.438 85.5241 175.622 85.86 175.889C86.1177 176.091 86.2208 176.264 86.1974 176.306Z" fill="#263238"/>
<path d="M84.8432 174.943C84.8353 174.781 84.8675 174.62 84.9369 174.474C85.0795 174.069 85.3009 173.696 85.5883 173.377C85.7759 173.124 86.0433 172.94 86.3476 172.857C86.4506 172.84 86.5564 172.855 86.651 172.899C86.7455 172.943 86.8244 173.015 86.8771 173.105C86.9673 173.287 86.9873 173.496 86.9334 173.691C86.8069 174.086 86.547 174.425 86.1983 174.65C85.8495 174.875 85.4335 174.972 85.0213 174.924C84.6151 174.867 84.2351 174.69 83.9297 174.416C83.6242 174.143 83.4072 173.784 83.3061 173.387C83.2812 173.286 83.278 173.182 83.2966 173.08C83.3151 172.978 83.3551 172.881 83.4138 172.796C83.483 172.718 83.5747 172.663 83.6764 172.64C83.778 172.616 83.8845 172.625 83.9809 172.665C84.2596 172.803 84.4972 173.011 84.6698 173.269C84.9323 173.608 85.1322 173.99 85.2603 174.399C85.3219 174.547 85.3491 174.707 85.34 174.868C85.1435 174.338 84.8669 173.842 84.5198 173.396C84.3604 173.18 84.1515 173.005 83.9106 172.885C83.8584 172.862 83.8 172.856 83.7441 172.868C83.6883 172.881 83.6381 172.912 83.6013 172.956C83.5658 173.014 83.5429 173.079 83.5341 173.147C83.5252 173.215 83.5305 173.284 83.5498 173.349C83.6484 173.689 83.8426 173.993 84.1093 174.226C84.376 174.459 84.704 174.61 85.0541 174.661C85.4023 174.702 85.754 174.624 86.0513 174.438C86.3486 174.252 86.5738 173.971 86.6897 173.64C86.7377 173.508 86.7377 173.364 86.6897 173.232C86.6626 173.181 86.6198 173.139 86.5675 173.114C86.5152 173.089 86.4562 173.081 86.3991 173.091C86.1422 173.164 85.9134 173.313 85.743 173.518C85.3595 173.934 85.0546 174.417 84.8432 174.943Z" fill="#263238"/>
<path d="M122.531 171.353L122.166 180.993C122.166 180.993 131.834 184.602 131.937 186.387L113.238 186.35L113.191 171.32L122.531 171.353Z" fill="#FF725E"/>
<g opacity="0.6">
<path opacity="0.6" d="M116.383 180.164C116.203 180.218 116.049 180.337 115.951 180.498C115.854 180.659 115.819 180.85 115.853 181.035C115.901 181.217 116.017 181.373 116.176 181.471C116.336 181.57 116.527 181.603 116.711 181.565C116.905 181.508 117.07 181.379 117.174 181.206C117.277 181.032 117.311 180.825 117.269 180.627C117.202 180.445 117.067 180.294 116.893 180.207C116.719 180.12 116.518 180.103 116.331 180.159" fill="white"/>
</g>
<g opacity="0.6">
<path opacity="0.6" d="M113.238 186.34L113.29 184.827L131.201 185.427C131.201 185.427 132.031 185.792 131.937 186.364L113.238 186.34Z" fill="white"/>
</g>
<path d="M122.466 180.89C122.466 180.984 121.997 181.021 121.557 181.316C121.116 181.612 120.868 181.991 120.783 181.954C120.699 181.916 120.835 181.391 121.388 181.045C121.941 180.698 122.489 180.806 122.466 180.89Z" fill="#263238"/>
<path d="M124.43 181.705C124.43 181.795 124.055 181.949 123.741 182.333C123.427 182.718 123.342 183.13 123.272 183.125C123.202 183.121 123.127 182.605 123.521 182.132C123.914 181.659 124.425 181.621 124.43 181.705Z" fill="#263238"/>
<path d="M125.536 184.058C125.456 184.058 125.329 183.617 125.564 183.12C125.798 182.624 126.225 182.422 126.267 182.497C126.309 182.572 126.037 182.839 125.85 183.252C125.662 183.664 125.629 184.048 125.536 184.058Z" fill="#263238"/>
<path d="M122.306 178.688C122.269 178.772 121.838 178.645 121.332 178.688C120.826 178.73 120.394 178.884 120.366 178.805C120.338 178.725 120.708 178.402 121.304 178.369C121.899 178.336 122.353 178.617 122.306 178.688Z" fill="#263238"/>
<g opacity="0.3">
<path opacity="0.3" d="M122.457 173.26L122.391 174.975L113.201 174.877L113.191 173.331L122.457 173.26Z" fill="black"/>
</g>
<path d="M122.344 176.742C122.038 176.828 121.713 176.828 121.407 176.742C121.069 176.684 120.74 176.584 120.427 176.442C120.243 176.359 120.065 176.263 119.893 176.156C119.788 176.098 119.693 176.024 119.612 175.936C119.556 175.873 119.522 175.793 119.514 175.709C119.507 175.624 119.526 175.54 119.57 175.468C119.614 175.403 119.673 175.35 119.743 175.314C119.812 175.278 119.89 175.26 119.968 175.261C120.087 175.261 120.205 175.276 120.32 175.308C120.519 175.358 120.714 175.425 120.901 175.51C121.216 175.653 121.507 175.844 121.763 176.077C122.199 176.48 122.344 176.822 122.316 176.841C122.288 176.859 122.063 176.583 121.622 176.25C121.365 176.06 121.085 175.902 120.788 175.782C120.613 175.713 120.433 175.658 120.249 175.618C120.052 175.566 119.884 175.561 119.832 175.65C119.781 175.739 119.809 175.697 119.832 175.753C119.894 175.818 119.965 175.873 120.043 175.917C120.201 176.022 120.365 176.116 120.535 176.199C120.825 176.344 121.128 176.462 121.44 176.55C121.746 176.591 122.048 176.655 122.344 176.742Z" fill="#263238"/>
<path d="M122.227 176.874C122.048 176.607 121.961 176.29 121.979 175.969C121.965 175.622 122.009 175.275 122.11 174.943C122.171 174.747 122.251 174.557 122.349 174.376C122.4 174.253 122.483 174.145 122.588 174.063C122.693 173.981 122.817 173.927 122.949 173.907C123.031 173.913 123.11 173.94 123.178 173.986C123.247 174.032 123.302 174.096 123.338 174.17C123.385 174.279 123.418 174.394 123.436 174.512C123.467 174.722 123.467 174.935 123.436 175.144C123.382 175.494 123.244 175.826 123.033 176.11C122.668 176.578 122.283 176.7 122.279 176.672C122.274 176.644 122.564 176.452 122.846 175.983C123.009 175.717 123.111 175.418 123.146 175.107C123.171 174.927 123.171 174.744 123.146 174.563C123.117 174.366 123.042 174.207 122.967 174.226C122.892 174.245 122.719 174.371 122.639 174.531C122.547 174.692 122.471 174.861 122.41 175.037C122.301 175.338 122.238 175.654 122.222 175.974C122.204 176.518 122.274 176.86 122.227 176.874Z" fill="#263238"/>
<path d="M104.282 65.6035C104.282 65.6035 98.3682 74.9436 97.5152 78.5193C96.6623 82.0951 80.644 168.396 80.644 168.396L97.937 173.598L113.037 102.992L108.613 173.078C108.608 173.142 108.616 173.207 108.637 173.269C108.658 173.33 108.692 173.386 108.736 173.434C108.78 173.481 108.833 173.519 108.893 173.545C108.952 173.571 109.017 173.584 109.081 173.584L126.463 173.05C126.584 173.05 126.699 173.004 126.787 172.921C126.874 172.838 126.926 172.725 126.932 172.604C127.358 165.795 132.645 80.7501 131.675 78.2803C130.662 75.6934 128.01 66.7142 128.01 66.7142L104.282 65.6035Z" fill="#263238"/>
<path d="M91.526 36.6786C90.5887 37.3675 90.5465 38.7266 90.748 39.8654C90.9495 41.0042 91.3151 42.2086 90.9167 43.2724C90.5953 43.9336 90.1905 44.551 89.7123 45.1095C89.2952 45.7141 88.9765 46.4826 89.2437 47.1762C89.7123 48.465 91.7322 48.5822 92.243 49.8522C92.5336 50.5786 92.2008 51.3987 91.8025 52.0689C91.4041 52.739 90.912 53.4092 90.8652 54.1918C90.8589 54.4869 90.9147 54.7801 91.0291 55.0522C91.1434 55.3243 91.3138 55.5693 91.529 55.7713C91.7443 55.9733 91.9996 56.1277 92.2784 56.2246C92.5573 56.3215 92.8534 56.3586 93.1475 56.3335C93.991 56.207 94.6518 55.5743 95.3688 55.115C96.0859 54.6558 97.0935 54.3746 97.7449 54.9276C98.5088 55.579 98.2135 56.8022 98.2135 57.791C98.2074 58.3374 98.3471 58.8755 98.6181 59.3499C98.8891 59.8244 99.2817 60.2181 99.7554 60.4904C100.241 60.7413 100.802 60.8034 101.331 60.665C101.86 60.5265 102.318 60.1972 102.619 59.7406C102.881 59.2719 102.994 58.6205 103.495 58.419C104.123 58.1612 104.732 58.822 105.393 58.9861C105.767 59.0466 106.15 58.9831 106.484 58.8054C106.819 58.6277 107.085 58.3455 107.244 58.0019C107.547 57.3033 107.614 56.5254 107.436 55.7852C106.902 52.8468 104.723 50.5317 103.275 47.9214C102.106 45.8137 101.407 43.4779 101.227 41.0745C101.114 39.5936 101.227 38.1033 101.072 36.627C101.008 35.136 100.52 33.6941 99.6663 32.4702C98.7618 31.2986 97.234 30.5206 95.7859 30.8346" fill="#FF725E"/>
<path d="M110.689 2.04116C106.176 1.91463 101.845 5.45289 101.072 9.90032C100.669 12.2107 101.1 14.718 100.037 16.8034C98.6306 19.5638 94.9377 20.8385 94.1082 23.8331C93.4146 26.331 95.0455 29.0397 94.3566 31.5376C93.8457 33.3419 92.2289 34.6166 91.4416 36.3178C91.0618 37.1442 90.8958 38.0528 90.9589 38.9602C91.0219 39.8675 91.312 40.7444 91.8024 41.5104C92.3112 42.2637 93.0178 42.8621 93.8446 43.24C94.6714 43.6178 95.5863 43.7604 96.4889 43.6521C97.6277 43.488 98.6587 42.9069 99.7694 42.5508C102.113 41.7728 104.7 42.0587 107.165 42.4008C109.63 42.7429 112.16 43.1412 114.579 42.5742C116.997 42.0071 119.321 40.231 119.682 37.7472C119.916 36.1491 119.317 34.5651 118.824 33.0279C115.581 22.8677 117.048 11.8124 114.78 1.38037" fill="#FF725E"/>
<path d="M122.705 6.99512C123.103 9.67576 123.83 12.3283 124.982 13.9873C125.92 15.3229 127.729 16.0915 128.005 17.6943C128.235 19.0486 127.429 20.3937 127.56 21.7574C127.766 23.9085 130.138 25.2207 130.808 27.2733C131.37 28.9839 130.597 30.9194 129.294 32.1566C127.991 33.3938 126.248 34.0546 124.509 34.5233C122.03 35.1887 119.026 35.3949 117.245 33.5391C116.027 32.2738 115.75 30.3898 115.6 28.6371C115.183 23.9507 115.202 19.2314 115.216 14.5262" fill="#FF725E"/>
<path d="M106.499 11.5081C106.365 10.4344 106.448 9.34468 106.744 8.30374C107.039 7.26281 107.541 6.29187 108.219 5.4486C108.897 4.60533 109.737 3.90693 110.691 3.3949C111.644 2.88287 112.69 2.56764 113.768 2.46795C118.07 2.06023 121.894 5.27982 122.536 9.5351C123.103 13.2843 123.591 17.0615 123.572 18.4393C123.52 22.5822 121.097 24.1943 120.113 24.677C119.76 24.8076 119.394 24.8987 119.021 24.9488C119.018 24.9536 119.016 24.9593 119.016 24.9652C119.016 24.9711 119.018 24.9768 119.021 24.9816L119.959 29.7337C120.376 32.8501 118.637 35.6292 115.525 36.0838C112.413 36.5384 109.967 34.1436 109.489 31.0271L106.499 11.5081Z" fill="#FFBE9D"/>
<path d="M121.693 11.3441C121.627 11.4425 121.079 11.1473 120.381 11.2551C119.682 11.3629 119.214 11.7847 119.129 11.7237C119.045 11.6628 119.129 11.5269 119.345 11.3301C119.616 11.0748 119.96 10.9109 120.329 10.8614C120.694 10.8052 121.067 10.8676 121.393 11.0395C121.632 11.1614 121.735 11.3019 121.693 11.3441Z" fill="#263238"/>
<path d="M115.375 12.5813C115.31 12.6798 114.761 12.3845 114.058 12.4876C113.355 12.5907 112.896 13.0172 112.807 12.9563C112.718 12.8953 112.807 12.7594 113.027 12.5626C113.299 12.3089 113.643 12.1453 114.012 12.094C114.377 12.0388 114.75 12.1029 115.075 12.2767C115.314 12.3939 115.413 12.5392 115.375 12.5813Z" fill="#263238"/>
<path d="M117.986 16.621C118.338 16.452 118.709 16.3276 119.092 16.2507C119.27 16.2086 119.434 16.1476 119.448 16.0211C119.436 15.8334 119.367 15.6538 119.251 15.5056L118.52 14.2215C117.503 12.3891 116.739 10.8707 116.814 10.8285C116.889 10.7864 117.751 12.2345 118.792 14.0762L119.499 15.3744C119.641 15.5751 119.709 15.8184 119.692 16.0633C119.674 16.1295 119.643 16.191 119.599 16.2436C119.555 16.2963 119.5 16.3387 119.439 16.3679C119.342 16.4081 119.242 16.4365 119.139 16.4523C118.763 16.5586 118.376 16.6153 117.986 16.621Z" fill="#263238"/>
<path d="M118.979 24.9344C118.979 24.9344 116.308 25.553 112.625 23.9971C112.625 23.9971 114.213 27.4182 119.228 26.1997L118.979 24.9344Z" fill="#EB996E"/>
<path d="M117.948 18.3738C117.79 18.2253 117.597 18.1194 117.388 18.0661C117.178 18.0128 116.958 18.0138 116.748 18.0691C116.595 18.1058 116.451 18.1728 116.325 18.2662C116.199 18.3596 116.092 18.4774 116.012 18.6128C115.935 18.743 115.9 18.894 115.912 19.0449C115.924 19.1959 115.982 19.3396 116.078 19.4563C116.208 19.5625 116.365 19.6283 116.532 19.6458C116.699 19.6633 116.867 19.6317 117.015 19.5547C117.328 19.3884 117.605 19.1623 117.831 18.8893C117.902 18.8229 117.959 18.7433 118 18.655C118.029 18.6132 118.043 18.5629 118.041 18.5119C118.038 18.461 118.019 18.4124 117.985 18.3738" fill="#EB996E"/>
<path d="M116.008 17.4082C116.121 17.4082 116.233 18.144 116.945 18.5892C117.658 19.0344 118.469 18.8329 118.492 18.9407C118.515 19.0485 118.333 19.1141 117.991 19.175C117.547 19.2437 117.093 19.1559 116.706 18.9266C116.338 18.6941 116.075 18.3279 115.971 17.905C115.896 17.6144 115.952 17.4363 116.008 17.4082Z" fill="#263238"/>
<path d="M115.014 10.5799C114.972 10.7814 114.26 10.7908 113.454 11.0111C112.647 11.2313 112.01 11.55 111.879 11.3953C111.818 11.3204 111.907 11.1235 112.146 10.9267C112.471 10.6477 112.855 10.4466 113.269 10.3386C113.683 10.2305 114.117 10.2185 114.536 10.3034C114.859 10.3549 115.033 10.4862 115.014 10.5799Z" fill="#FF725E"/>
<path d="M121.102 9.41294C121.004 9.59102 120.493 9.4973 119.912 9.57228C119.331 9.64726 118.857 9.83472 118.717 9.68475C118.656 9.61446 118.717 9.44106 118.904 9.25829C119.168 9.03133 119.495 8.89209 119.841 8.85994C120.184 8.8145 120.531 8.87848 120.835 9.04271C121.055 9.17393 121.144 9.32858 121.102 9.41294Z" fill="#FF725E"/>
<path d="M119.729 12.2156C119.702 12.3837 119.741 12.5559 119.84 12.6952C119.938 12.8345 120.086 12.9298 120.254 12.9607C120.334 12.9795 120.418 12.9823 120.499 12.9689C120.58 12.9555 120.658 12.9262 120.728 12.8827C120.798 12.8392 120.859 12.7823 120.907 12.7152C120.955 12.6482 120.99 12.5724 121.009 12.4921C121.033 12.3236 120.992 12.152 120.893 12.0131C120.795 11.8743 120.646 11.7789 120.479 11.7469C120.317 11.7104 120.148 11.7391 120.008 11.8269C119.867 11.9147 119.767 12.0544 119.729 12.2156Z" fill="#263238"/>
<path d="M113.449 13.453C113.423 13.6211 113.464 13.7927 113.563 13.9311C113.662 14.0694 113.811 14.1636 113.979 14.1934C114.059 14.2122 114.142 14.2149 114.223 14.2014C114.304 14.188 114.381 14.1586 114.451 14.1151C114.521 14.0715 114.581 14.0146 114.629 13.9476C114.676 13.8807 114.71 13.8049 114.728 13.7248C114.756 13.5566 114.716 13.3844 114.618 13.2451C114.52 13.1058 114.371 13.0105 114.204 12.9796C114.123 12.9609 114.039 12.9583 113.958 12.972C113.876 12.9857 113.798 13.0154 113.728 13.0594C113.658 13.1034 113.597 13.1608 113.549 13.2283C113.501 13.2959 113.467 13.3722 113.449 13.453Z" fill="#263238"/>
<path d="M106.954 31.1723L119.682 28.562L122.452 28.4683L122.255 36.9039C122.255 36.9039 115.253 39.0784 114.996 39.2143C114.738 39.3502 110.154 39.2143 110.154 39.2143L106.954 31.1723Z" fill="#FFBE9D"/>
<path d="M111.973 4.45028C111.209 5.36946 110.701 6.47467 110.503 7.65346C110.305 8.83226 110.422 10.0426 110.843 11.1613C111.434 12.6562 112.582 14.034 112.484 15.6368C112.362 17.6239 110.332 19.1798 110.445 21.1715C110.567 23.4116 113.435 24.8269 113.44 27.067C113.444 29.3072 112.057 30.2163 109.391 30.7037C107.68 31.013 106.733 28.8994 105.885 27.381C105.037 25.8626 104.76 24.1005 104.587 22.3759C104.3 19.5073 104.255 16.6197 104.451 13.7435C104.615 11.4003 104.957 9.05705 106.162 7.04656C106.788 6.02774 107.617 5.14924 108.599 4.46618C109.58 3.78311 110.692 3.31022 111.865 3.07715" fill="#FF725E"/>
<path d="M123.338 8.60704C122.48 9.91456 119.762 9.10849 118.117 8.20869C117.262 8.75786 116.226 8.95199 115.231 8.74985C114.235 8.5477 113.357 7.9652 112.784 7.12612C111.846 8.32117 109.934 7.92751 109.241 6.57781C108.547 5.22812 108.936 3.37229 109.892 2.1913C110.858 1.08638 112.188 0.364685 113.641 0.157386C115.302 -0.163655 117.021 0.00877851 118.585 0.653393C120.149 1.29801 121.49 2.38658 122.442 3.78469C123.342 5.14845 123.886 6.99022 123.352 8.62578" fill="#FF725E"/>
<path d="M71.6976 39.8188L68.9092 34.1529L67.6017 31.2942C67.2736 30.5772 67.7563 30.2444 68.1594 30.6943C68.314 30.8677 70.0949 33.0938 70.0949 33.0938L68.2203 29.1009C67.6298 27.8403 68.4781 27.8215 68.8061 28.2527C69.1342 28.6838 71.379 32.4002 71.379 32.4002C69.0029 27.4513 69.3544 26.9124 69.7293 26.7764C70.1042 26.6405 72.2319 31.1489 72.2319 31.1489C72.4467 30.5469 72.787 29.9974 73.2301 29.5368C74.322 28.4355 76.5809 28.9041 76.7965 29.4758C77.0121 30.0476 76.2903 30.3569 76.2903 30.3569C75.9526 30.1897 75.5734 30.125 75.1994 30.1707C74.8253 30.2165 74.4728 30.3706 74.1854 30.6143C73.8979 30.8579 73.688 31.1803 73.5815 31.5418C73.4751 31.9033 73.4767 32.288 73.5863 32.6486C74.0549 34.1201 75.9014 33.553 75.9295 32.4377C76.0045 29.9913 76.9605 30.6006 76.9605 30.6006L77.1245 35.9338L78.4742 38.3801L89.0797 52.3691L92.2102 47.3546L100.21 55.2091L94.7596 61.3015C93.9643 62.2114 92.9607 62.9157 91.8345 63.3542C90.7083 63.7927 89.4927 63.9525 88.2914 63.82C87.0901 63.6874 85.9387 63.2664 84.9352 62.5929C83.9317 61.9194 83.1058 61.0133 82.528 59.9518L71.6976 39.8188Z" fill="#FFBE9D"/>
<path d="M149.731 29.7568C139.637 29.1757 123.361 27.8822 122.081 28.3181C122.081 28.3181 123.215 35.8164 116.35 36.8989C109.484 37.9815 106.977 31.1721 106.977 31.1721C106.977 31.1721 99.9473 33.1732 97.3417 37.4941C94.736 41.815 91.5352 46.6514 91.5352 46.6514L100.974 55.9306L103.612 53.0343L105.519 59.3704L104.306 65.6034L128.057 66.7141L129.697 39.4155L149.755 37.7659L149.731 29.7568Z" fill="#455A64"/>
<path d="M100.955 44.0459C101.026 44.0459 102.089 47.3639 103.327 51.502C104.564 55.6402 105.511 59.0003 105.44 59.0331C105.37 59.0659 104.306 55.7198 103.069 51.577C101.832 47.4342 100.885 44.0693 100.955 44.0459Z" fill="#263238"/>
<path d="M134.243 33.4497C134.294 33.52 132.71 34.4573 131.384 36.2616C130.058 38.0659 129.566 39.8092 129.481 39.7764C129.52 39.3787 129.621 38.9896 129.781 38.6235C130.117 37.7188 130.583 36.8679 131.164 36.0976C131.747 35.3276 132.437 34.6443 133.212 34.0683C133.518 33.8057 133.867 33.5966 134.243 33.4497Z" fill="#263238"/>
<path d="M111.865 49.3651C111.852 49.3439 111.844 49.3198 111.842 49.2948C111.837 49.2845 111.834 49.2733 111.834 49.262C111.834 49.2507 111.837 49.2395 111.842 49.2292C111.844 49.2036 111.855 49.1796 111.873 49.1609C111.891 49.1423 111.915 49.13 111.94 49.1261C111.969 49.123 111.998 49.1265 112.026 49.1362C112.054 49.1459 112.079 49.1617 112.099 49.1823C112.115 49.1978 112.133 49.2119 112.151 49.2245C112.227 49.3044 112.32 49.3662 112.423 49.4051C112.526 49.4441 112.636 49.4592 112.746 49.4494C112.826 49.4343 112.902 49.4028 112.969 49.3568C113.036 49.3108 113.092 49.2514 113.135 49.1823C113.18 49.1141 113.211 49.0373 113.226 48.9567C113.24 48.8761 113.238 48.7934 113.219 48.7137C113.194 48.5858 113.128 48.4693 113.032 48.3809C112.925 48.2975 112.802 48.2368 112.671 48.2028C112.498 48.1419 112.395 48.1091 112.362 48.0904C112.29 48.0631 112.223 48.0269 112.16 47.9826C112.088 47.9336 112.027 47.8705 111.981 47.7972C111.934 47.7239 111.902 47.6419 111.888 47.5561V47.4811C111.863 47.2871 111.913 47.0906 112.029 46.9328C112.139 46.7711 112.307 46.6572 112.498 46.6141C112.583 46.6 112.67 46.6 112.755 46.6141C112.933 46.6271 113.1 46.7055 113.224 46.8344C113.243 46.8583 113.257 46.8853 113.266 46.9141C113.273 46.9386 113.273 46.9645 113.266 46.9891C113.258 47.0133 113.244 47.035 113.225 47.0523C113.206 47.0695 113.183 47.0816 113.158 47.0875C113.142 47.0961 113.123 47.1006 113.105 47.1006C113.086 47.1006 113.067 47.0961 113.051 47.0875C112.988 47.0297 112.914 46.9863 112.833 46.9604C112.752 46.9345 112.666 46.9267 112.582 46.9375C112.463 46.963 112.359 47.0336 112.291 47.1343C112.25 47.1899 112.221 47.2541 112.207 47.3222C112.194 47.3903 112.195 47.4606 112.212 47.528C112.227 47.6125 112.272 47.6888 112.338 47.7436C112.439 47.8161 112.552 47.8716 112.671 47.9076C112.806 47.9477 112.938 47.9994 113.065 48.0623C113.192 48.1154 113.306 48.1984 113.395 48.3045C113.483 48.4105 113.546 48.5364 113.576 48.6715C113.583 48.7306 113.583 48.7904 113.576 48.8496C113.578 49.0639 113.504 49.2721 113.365 49.4354C113.231 49.6063 113.042 49.7256 112.83 49.7728C112.687 49.8023 112.539 49.7942 112.399 49.7494C112.185 49.6804 111.998 49.546 111.865 49.3651Z" fill="white"/>
<path d="M116.261 48.8354C116.266 48.8554 116.266 48.8762 116.263 48.8965C116.259 48.9168 116.251 48.9362 116.24 48.9533C116.229 48.9705 116.214 48.9851 116.196 48.9962C116.179 49.0074 116.16 49.0148 116.139 49.0181C116.112 49.0278 116.082 49.0278 116.055 49.0181C116.024 49.0056 115.998 48.9851 115.978 48.9587C115.958 48.9323 115.946 48.901 115.942 48.8682C115.942 48.8448 115.886 48.2964 115.788 47.2279C115.614 47.945 115.478 48.512 115.385 48.9244C115.361 49.0135 115.352 49.065 115.347 49.0744C115.341 49.1085 115.326 49.1403 115.303 49.1661C115.279 49.1918 115.249 49.2104 115.216 49.2197H115.174C115.141 49.2162 115.11 49.2039 115.083 49.1841C115.057 49.1643 115.036 49.1377 115.024 49.1072L114.33 47.5232C114.382 48.1324 114.419 48.6995 114.443 49.2103C114.443 49.3134 114.41 49.3743 114.316 49.3931C114.289 49.4023 114.259 49.4023 114.232 49.3931C114.201 49.3806 114.175 49.36 114.155 49.3336C114.135 49.3072 114.123 49.2759 114.119 49.2431C114.119 49.2431 114.058 48.5073 113.951 47.0733C113.923 46.703 113.908 46.5062 113.908 46.4781C113.901 46.4553 113.901 46.4306 113.908 46.4078C113.916 46.3797 113.931 46.3545 113.953 46.3353C113.975 46.316 114.002 46.3038 114.03 46.3H114.077C114.1 46.2986 114.123 46.3041 114.143 46.3157C114.163 46.3274 114.179 46.3448 114.19 46.3656L114.715 47.5888L115.118 48.5261L115.703 46.061C115.7 46.0456 115.7 46.0296 115.703 46.0141C115.714 45.9882 115.73 45.9653 115.751 45.9473C115.773 45.9293 115.798 45.9168 115.825 45.911C115.85 45.904 115.876 45.904 115.9 45.911C115.928 45.9184 115.954 45.9332 115.975 45.9537C115.995 45.9743 116.01 46 116.017 46.0282C116.017 46.0657 116.017 46.1126 116.017 46.1594C116.174 47.7466 116.255 48.6385 116.261 48.8354Z" fill="white"/>
<path d="M117.353 48.6103C117.353 48.7181 117.311 48.7837 117.226 48.8025C117.197 48.8118 117.166 48.8118 117.137 48.8025C117.108 48.7889 117.083 48.768 117.064 48.7417C117.045 48.7154 117.033 48.6847 117.03 48.6525L116.823 45.8875C116.821 45.8673 116.821 45.8468 116.823 45.8266C116.828 45.7954 116.842 45.7663 116.864 45.7436C116.886 45.7209 116.914 45.7056 116.945 45.7C116.971 45.6931 116.999 45.6931 117.025 45.7C117.051 45.7057 117.076 45.7189 117.095 45.7381C117.114 45.7572 117.127 45.7814 117.133 45.8078C117.276 47.6137 117.35 48.5478 117.353 48.6103Z" fill="white"/>
<path d="M119.616 48.2965L118.3 48.573C118.271 48.582 118.239 48.582 118.21 48.573C118.184 48.5572 118.161 48.5362 118.142 48.5112C118.124 48.4863 118.11 48.4579 118.103 48.4278C118.103 48.3778 118.034 47.4561 117.896 45.6628C117.896 45.6628 117.896 45.6253 117.896 45.6065C117.901 45.5753 117.915 45.5463 117.937 45.5235C117.959 45.5008 117.987 45.4856 118.018 45.48H118.093C118.121 45.488 118.147 45.5036 118.167 45.5251C118.186 45.5466 118.2 45.5732 118.206 45.6018C118.206 45.7237 118.243 45.9767 118.271 46.361C118.365 47.5373 118.412 48.1606 118.421 48.2356L119.537 48.0013C119.566 47.9943 119.597 47.9943 119.626 48.0013C119.658 48.0064 119.688 48.0213 119.711 48.0439C119.735 48.0666 119.751 48.0958 119.757 48.1278C119.764 48.1718 119.754 48.2168 119.728 48.2534C119.703 48.2901 119.665 48.3156 119.621 48.3247L119.616 48.2965Z" fill="white"/>
<path d="M120.024 45.0441L121.276 44.7817C121.3 44.7772 121.326 44.7772 121.351 44.7817C121.385 44.7825 121.418 44.7957 121.444 44.8189C121.47 44.8421 121.487 44.8738 121.491 44.9082C121.496 44.9283 121.496 44.9491 121.491 44.9691C121.483 45.0019 121.466 45.0319 121.442 45.0558C121.418 45.0798 121.388 45.0968 121.355 45.105L120.231 45.3441L120.315 46.4407L121.126 46.2673H121.215C121.247 46.272 121.276 46.2868 121.299 46.3096C121.322 46.3324 121.336 46.3619 121.341 46.3938C121.346 46.4107 121.346 46.4285 121.341 46.4454C121.335 46.4795 121.318 46.511 121.294 46.536C121.27 46.561 121.239 46.5783 121.205 46.586L120.343 46.7687L120.423 47.7951L121.538 47.5607C121.566 47.5538 121.595 47.5538 121.622 47.5607C121.656 47.5635 121.688 47.5775 121.712 47.6004C121.737 47.6234 121.753 47.654 121.758 47.6873V47.7388C121.752 47.7736 121.736 47.8058 121.712 47.8316C121.688 47.8574 121.657 47.8756 121.622 47.8841L120.32 48.1559C120.289 48.1653 120.256 48.1653 120.226 48.1559C120.196 48.1423 120.171 48.1214 120.152 48.0951C120.133 48.0688 120.122 48.0381 120.118 48.0059C120.118 48.0059 120.038 47.0687 119.898 45.2409C119.895 45.2223 119.895 45.2034 119.898 45.1847C119.9 45.1506 119.914 45.1183 119.937 45.0928C119.96 45.0674 119.991 45.0502 120.024 45.0441Z" fill="white"/>
<path d="M123.717 44.2756C123.742 44.2688 123.768 44.2688 123.792 44.2756C123.819 44.2841 123.844 44.2993 123.863 44.3198C123.883 44.3402 123.897 44.3653 123.905 44.3928C124.045 46.1361 124.12 47.0734 124.13 47.2046C124.146 47.4705 124.101 47.7366 123.998 47.9826C123.929 48.1412 123.821 48.2801 123.684 48.3865C123.548 48.4928 123.387 48.5634 123.216 48.5918C123.036 48.6157 122.853 48.5986 122.681 48.5418C122.509 48.485 122.352 48.3899 122.222 48.2638C122.207 48.2411 122.195 48.2156 122.189 48.1888C122.182 48.1611 122.182 48.1321 122.189 48.1044C122.198 48.0784 122.213 48.0551 122.234 48.037C122.255 48.0189 122.28 48.0066 122.307 48.0013C122.331 47.9967 122.355 47.9977 122.379 48.0042C122.402 48.0107 122.424 48.0226 122.442 48.0388C122.539 48.1372 122.659 48.2107 122.79 48.2531C122.921 48.2955 123.061 48.3056 123.197 48.2825C123.298 48.2597 123.393 48.2141 123.475 48.1492C123.556 48.0842 123.621 48.0016 123.666 47.9076C123.795 47.6297 123.836 47.319 123.783 47.0172C123.747 47.1075 123.696 47.1914 123.633 47.2655C123.516 47.3941 123.362 47.4827 123.192 47.5186H123.103C122.994 47.5227 122.886 47.5021 122.786 47.4582C122.686 47.4144 122.598 47.3485 122.527 47.2655C122.318 47.032 122.178 46.7447 122.124 46.436C122.091 46.2767 122.063 46.1127 122.044 45.9393C122.011 45.6675 121.993 45.2785 121.983 44.7677C121.981 44.7521 121.981 44.7363 121.983 44.7208C121.985 44.6883 121.997 44.6572 122.018 44.6326C122.04 44.608 122.068 44.5912 122.1 44.5849C122.126 44.5779 122.154 44.5779 122.18 44.5849C122.206 44.5909 122.229 44.6042 122.248 44.6234C122.266 44.6425 122.278 44.6666 122.283 44.6927C122.314 44.896 122.333 45.101 122.339 45.3066C122.352 45.6205 122.381 45.9334 122.428 46.2439C122.471 46.489 122.562 46.7232 122.696 46.9328C122.741 47.015 122.81 47.0817 122.893 47.1243C122.977 47.1669 123.071 47.1834 123.164 47.1718H123.216C123.37 47.0842 123.485 46.942 123.539 46.7735C123.65 46.5239 123.709 46.2545 123.712 45.9815L123.595 44.4443C123.593 44.4209 123.593 44.3974 123.595 44.374C123.605 44.348 123.621 44.325 123.642 44.3076C123.664 44.2903 123.69 44.2792 123.717 44.2756Z" fill="white"/>
<path d="M113.055 25.9422C113.951 27.156 113.618 28.8713 113.027 30.2538C112.437 31.6363 111.621 32.9953 111.621 34.4997C111.621 35.9056 112.343 37.2178 112.901 38.5253C113.458 39.8328 113.838 41.3794 113.168 42.6306C112.437 43.9897 110.661 44.6224 110.155 46.0799C109.555 47.8138 111.092 49.8759 110.183 51.4786C109.573 52.58 107.98 52.8846 106.869 52.266C106.333 51.9321 105.883 51.4778 105.553 50.9393C105.224 50.4007 105.025 49.7927 104.971 49.1635C104.878 47.9018 105.003 46.6334 105.342 45.4144C105.735 43.6382 106.134 41.609 105.07 40.1328C104.442 39.2658 103.364 38.7268 103.017 37.6958C102.605 36.4961 103.406 35.2214 104.306 34.3263C105.206 33.4312 106.293 32.6063 106.649 31.3926C106.865 30.4429 106.815 29.452 106.504 28.5291C106.198 27.6068 106.04 26.6421 106.035 25.6704C106.101 24.705 106.64 23.6927 107.563 23.4022C108.866 22.9898 110.103 24.1098 111.012 25.1268" fill="#FF725E"/>
<path d="M100.95 71.1898C100.95 71.532 116.144 71.1898 116.144 71.1898L116.734 67.4829L104.62 63.8462C104.62 63.8462 101.114 68.1202 100.95 71.1898Z" fill="#4584FF"/>
<path d="M116.734 67.4921L128.146 64.8677C128.146 64.8677 131.248 70.1727 130.643 75.1778L116.144 71.1756L116.734 67.4921Z" fill="#4584FF"/>
<path d="M118.187 70.5055C119.214 71.0682 120.065 71.9051 120.644 72.9229C121.223 73.9407 121.508 75.0994 121.467 76.2698C121.43 77.0103 121.257 77.746 121.271 78.4865C121.253 78.8574 121.321 79.2275 121.468 79.5685C121.615 79.9095 121.837 80.2126 122.119 80.4548C122.737 80.9234 123.764 81.064 123.839 81.8232C123.84 82.1554 123.714 82.4755 123.487 82.7183C122.827 83.5666 121.73 84.2227 120.675 83.9275C119.523 83.6041 118.97 82.3106 118.66 81.1484C117.723 77.5726 117.615 73.8329 117.521 70.1353" fill="#4584FF"/>
<g opacity="0.3">
<path opacity="0.3" d="M118.454 70.665C119.443 71.213 120.252 72.0358 120.784 73.0338C121.315 74.0318 121.546 75.1623 121.449 76.2888C121.411 77.0292 121.238 77.765 121.252 78.5055C121.235 78.8764 121.302 79.2464 121.449 79.5874C121.596 79.9285 121.819 80.2316 122.1 80.4738C122.719 80.9424 123.745 81.083 123.82 81.8422C123.821 82.1744 123.695 82.4944 123.469 82.7373C122.808 83.5856 121.711 84.2417 120.657 83.9464C119.504 83.623 118.951 82.3296 118.642 81.1674C117.704 77.5916 118.046 75.0187 117.953 71.3258" fill="black"/>
</g>
<path d="M115.174 70.426C112.917 75.3913 112.583 81.0172 114.236 86.2146C114.375 86.8388 114.712 87.4012 115.197 87.8174C116.036 88.4126 117.189 88.0705 118.149 87.7143C119.382 87.2456 120.75 86.6645 121.214 85.432C121.44 84.7442 121.432 84.001 121.191 83.3184C120.779 81.95 119.855 80.7596 119.546 79.3677C119.27 78.1071 119.513 76.7996 119.448 75.5155C119.383 74.3855 119.081 73.2819 118.56 72.2771C118.039 71.2723 117.311 70.3891 116.425 69.6855" fill="#4584FF"/>
<g opacity="0.3">
<path opacity="0.3" d="M114.86 70.8618C114.912 71.1314 115.023 71.3862 115.185 71.6081C115.347 71.83 115.556 72.0136 115.797 72.1459C116.043 72.2731 116.317 72.3352 116.593 72.3262C116.87 72.3171 117.139 72.2373 117.376 72.0943C117.609 71.9483 117.794 71.7373 117.908 71.4875C118.022 71.2376 118.06 70.9598 118.018 70.6884C117.576 71.1012 116.993 71.3306 116.387 71.3304C115.781 71.3304 115.198 71.0952 114.761 70.6743" fill="black"/>
</g>
<path d="M118.623 68.9167C118.262 67.8997 116.959 66.9155 115.891 67.0655H115.914C115.598 67.0685 115.288 67.1529 115.014 67.3104C114.74 67.468 114.511 67.6936 114.349 67.9653C114.148 68.4199 114.079 68.9222 114.151 69.4141C114.223 69.906 114.432 70.3676 114.755 70.7457C115.078 71.1238 115.501 71.4031 115.976 71.5512C116.45 71.6994 116.957 71.7105 117.437 71.5832C117.931 71.3649 118.325 70.9711 118.544 70.4784C118.763 69.9856 118.791 69.429 118.623 68.9167Z" fill="#4584FF"/>
<path d="M114.574 70.7211C114.755 70.8001 114.925 70.9025 115.08 71.0257C115.51 71.3319 116.009 71.5252 116.533 71.5881C116.887 71.6263 117.246 71.5663 117.568 71.4147C117.926 71.2253 118.197 70.9068 118.328 70.5243C118.483 70.0829 118.522 69.6087 118.44 69.1479C118.358 68.6872 118.158 68.2556 117.859 67.8952C117.555 67.5401 117.154 67.2827 116.704 67.1551C116.255 67.0276 115.778 67.0356 115.333 67.1781C114.973 67.3036 114.654 67.5226 114.407 67.8125C114.16 68.1024 113.994 68.4528 113.927 68.8278C113.851 69.3477 113.971 69.8773 114.265 70.3134C114.383 70.4689 114.509 70.6175 114.644 70.7586C114.644 70.7586 114.593 70.7586 114.508 70.6836C114.389 70.5929 114.282 70.4873 114.19 70.3696C113.844 69.9256 113.687 69.3631 113.754 68.8043C113.819 68.3908 113.994 68.0023 114.26 67.6793C114.526 67.3562 114.874 67.1103 115.267 66.9672C115.755 66.8015 116.281 66.7861 116.778 66.9232C117.274 67.0602 117.718 67.3434 118.051 67.7358C118.381 68.1278 118.601 68.6 118.689 69.1046C118.777 69.6092 118.73 70.1281 118.553 70.6086C118.4 71.0394 118.086 71.394 117.676 71.5975C117.319 71.7548 116.925 71.8099 116.537 71.7568C115.989 71.6824 115.473 71.455 115.047 71.1007C114.876 70.9916 114.717 70.8643 114.574 70.7211Z" fill="#263238"/>
<path d="M116.439 67.0185C116.462 67.0513 116.233 67.2153 115.97 67.5574C115.611 68.0015 115.378 68.5341 115.295 69.0993C115.228 69.667 115.317 70.2424 115.553 70.763C115.731 71.166 115.914 71.3863 115.886 71.4097C115.858 71.4331 115.633 71.2504 115.417 70.8426C115.114 70.3049 114.992 69.6836 115.07 69.0712C115.156 68.4589 115.433 67.8895 115.862 67.445C116.153 67.1122 116.425 66.9951 116.439 67.0185Z" fill="#263238"/>
<path d="M121.092 82.4792C121.092 82.4792 121.06 82.5963 120.961 82.7838C120.82 83.0478 120.655 83.2987 120.469 83.5336C119.862 84.3227 119.108 84.9864 118.248 85.4879C117.382 85.9927 116.427 86.3268 115.436 86.472C115.138 86.5141 114.837 86.5329 114.536 86.5282C114.325 86.5282 114.208 86.5282 114.208 86.4954C114.208 86.4626 114.677 86.4439 115.403 86.2986C117.321 85.9227 119.057 84.9105 120.328 83.4258C120.797 82.8588 121.055 82.4604 121.092 82.4792Z" fill="#263238"/>
<path d="M117.283 88.0328C117.259 88.0937 116.763 87.8735 116.463 87.3111C116.353 87.1557 116.282 86.9768 116.254 86.7888C116.226 86.6007 116.243 86.4088 116.303 86.2285C116.374 86.2285 116.402 86.6972 116.674 87.1939C116.945 87.6907 117.32 87.9719 117.283 88.0328Z" fill="#263238"/>
<path d="M119.499 86.6691C119.499 86.73 118.993 86.5988 118.679 86.1067C118.365 85.6146 118.431 85.1132 118.496 85.1272C118.562 85.1413 118.604 85.5537 118.881 85.9708C119.157 86.3879 119.527 86.6035 119.499 86.6691Z" fill="#263238"/>
<path d="M120.797 86.1628C120.731 85.8051 120.638 85.4527 120.521 85.1084C120.282 84.56 120.015 84.1242 120.08 84.082C120.391 84.3209 120.623 84.6474 120.746 85.0193C120.861 85.2753 120.915 85.5543 120.905 85.8348C120.882 86.0456 120.821 86.1722 120.797 86.1628Z" fill="#263238"/>
<path d="M117.92 82.4886C117.834 82.3751 117.763 82.2506 117.709 82.1184C117.533 81.7745 117.376 81.4209 117.24 81.0593C116.335 78.6701 115.991 76.1043 116.237 73.561C116.289 73.0923 116.345 72.6846 116.402 72.4175C116.413 72.2764 116.45 72.1384 116.509 72.0098C116.547 72.0098 116.462 72.6096 116.411 73.575C116.342 74.8264 116.389 76.0815 116.551 77.3242C116.721 78.5682 117.006 79.7937 117.404 80.9843C117.718 81.9169 117.957 82.4699 117.92 82.4886Z" fill="#263238"/>
<g opacity="0.3">
<path opacity="0.3" d="M116.416 72.4038C115.488 75.0717 115.488 77.9747 116.416 80.6426C116.462 80.7785 116.523 80.9331 116.659 80.98C116.701 80.9897 116.745 80.9909 116.788 80.9837C116.83 80.9764 116.871 80.9608 116.908 80.9377C116.944 80.9146 116.976 80.8845 117.001 80.8492C117.026 80.8138 117.044 80.7738 117.053 80.7316C117.089 80.5584 117.077 80.3788 117.02 80.2114C116.444 77.7979 116.013 74.9111 116.448 72.4647" fill="black"/>
</g>
<path d="M107.047 68.0495C107.368 67.9653 107.7 67.9274 108.032 67.937C108.825 67.913 109.62 67.9522 110.408 68.0542C111.201 68.1548 111.985 68.3225 112.751 68.5557C113.079 68.6285 113.395 68.7501 113.688 68.9165C113.688 68.9868 112.231 68.5322 110.408 68.2979C108.585 68.0636 107.052 68.1151 107.047 68.0495Z" fill="#263238"/>
<path d="M123.413 68.1389C123.413 68.2092 122.316 68.317 120.99 68.5841C119.664 68.8513 118.604 69.1746 118.581 69.109C119.315 68.7273 120.107 68.4692 120.924 68.3451C121.737 68.1433 122.578 68.0737 123.413 68.1389Z" fill="#263238"/>
<path d="M128.094 71.4478C127.626 71.3206 127.166 71.1641 126.717 70.9791C125.617 70.588 124.495 70.2625 123.356 70.0044C122.216 69.7522 121.061 69.5691 119.898 69.456C119.413 69.4345 118.929 69.3844 118.45 69.3061C118.936 69.2521 119.426 69.2521 119.912 69.3061C121.088 69.3644 122.258 69.5211 123.408 69.7747C124.559 70.0298 125.686 70.3825 126.778 70.8292C127.237 70.9877 127.679 71.1951 128.094 71.4478Z" fill="#263238"/>
<g opacity="0.3">
<path opacity="0.3" d="M123.839 65.9126C124.092 69.868 126.318 72.8533 129.674 74.9668L130.644 75.2012C130.719 75.0512 130.592 74.6435 130.536 74.4841C129.839 72.5025 128.988 70.5784 127.991 68.7292C127.523 67.8997 127.33 65.8611 126.641 65.2144L123.83 65.9126" fill="black"/>
</g>
<path d="M115.174 88.6138C115.24 88.6138 114.743 92.0958 114.063 96.3746C113.384 100.653 112.784 104.107 112.718 104.098C112.653 104.088 113.145 100.611 113.824 96.3324C114.504 92.0537 115.122 88.5998 115.174 88.6138Z" fill="#455A64"/>
<path d="M108.247 67.7499C108.224 67.7499 108.121 67.6421 108.036 67.4031C107.931 67.089 107.913 66.7519 107.985 66.4283C108.06 66.101 108.222 65.8 108.453 65.5567C108.632 65.3739 108.777 65.3083 108.791 65.3317C108.524 65.6674 108.338 66.0604 108.247 66.4799C108.157 66.8994 108.165 67.334 108.271 67.7499H108.247Z" fill="#FAFAFA"/>
<path d="M109.395 71.2224C109.395 71.2224 109.217 71.1427 109.058 70.8896C108.854 70.551 108.782 70.1487 108.856 69.7603C108.931 69.3718 109.146 69.0246 109.461 68.7854C109.7 68.6073 109.887 68.5745 109.897 68.6026C109.906 68.6308 109.761 68.7245 109.573 68.9166C109.331 69.1557 109.166 69.463 109.101 69.7978C109.037 70.1325 109.076 70.479 109.213 70.7912C109.316 71.0583 109.424 71.1942 109.395 71.2224Z" fill="#FAFAFA"/>
<path d="M113.098 71.1712C113.098 71.1946 112.938 71.1431 112.774 70.9603C112.572 70.7142 112.46 70.4069 112.456 70.0886C112.443 69.7696 112.543 69.4563 112.737 69.2029C112.891 69.0154 113.032 68.9545 113.051 68.9779C113.07 69.0014 112.981 69.1091 112.882 69.2966C112.756 69.5386 112.693 69.8084 112.699 70.0811C112.705 70.3538 112.779 70.6207 112.915 70.8572C113.023 71.04 113.121 71.1384 113.098 71.1712Z" fill="#FAFAFA"/>
<path d="M103.87 71.2978C103.737 70.9508 103.67 70.5821 103.673 70.2105C103.576 68.4083 104.156 66.635 105.299 65.2382C105.519 64.9412 105.789 64.6843 106.096 64.479C106.124 64.5118 105.829 64.8071 105.435 65.346C104.925 66.0494 104.527 66.8271 104.254 67.6517C103.986 68.4766 103.848 69.3384 103.846 70.2058C103.846 70.8619 103.926 71.2884 103.87 71.2978Z" fill="#FAFAFA"/>
<path d="M111.457 68.8369C111.457 68.8369 111.303 68.7572 111.186 68.5229C111.043 68.2061 111.009 67.8516 111.086 67.5132C111.164 67.1748 111.35 66.8711 111.617 66.6483C111.828 66.489 111.996 66.4609 112.006 66.4843C112.015 66.5077 111.893 66.6014 111.734 66.7748C111.533 67.0006 111.391 67.2727 111.322 67.5669C111.257 67.8611 111.265 68.1668 111.345 68.4573C111.425 68.6822 111.49 68.8134 111.457 68.8369Z" fill="#FAFAFA"/>
<path d="M121.997 68.0501C121.932 68.0501 121.997 67.6424 121.927 67.1737C121.857 66.7051 121.697 66.3489 121.758 66.3114C121.819 66.2739 122.1 66.6114 122.171 67.1409C122.241 67.6705 122.058 68.0501 121.997 68.0501Z" fill="#FAFAFA"/>
<path d="M122.869 69.6153C122.841 69.6762 122.513 69.5169 122.4 69.1232C122.288 68.7296 122.442 68.4062 122.503 68.4343C122.564 68.4624 122.503 68.7343 122.635 69.0482C122.766 69.3622 122.911 69.5591 122.869 69.6153Z" fill="#FAFAFA"/>
<path d="M124.485 73.5046C124.401 73.5046 124.696 72.7548 124.631 71.8503C124.565 70.9458 124.162 70.2851 124.218 70.2476C124.617 70.6814 124.85 71.2426 124.874 71.8316C124.945 72.4176 124.807 73.0097 124.485 73.5046Z" fill="#FAFAFA"/>
<path d="M116.43 77.535C116.43 77.535 116.308 77.6897 116.027 77.8209C115.661 77.9851 115.26 78.059 114.86 78.0365C114.458 78.0181 114.067 77.9058 113.716 77.7084C113.454 77.5491 113.327 77.4038 113.346 77.3804C113.819 77.6257 114.339 77.7664 114.871 77.7931C115.403 77.8198 115.935 77.7318 116.43 77.535Z" fill="#FAFAFA"/>
<path d="M119.162 75.1357C118.689 75.007 118.198 74.9595 117.709 74.9951C117.233 75.0998 116.778 75.2802 116.359 75.5294C116.359 75.5294 116.425 75.356 116.65 75.1779C116.951 74.9508 117.304 74.8041 117.677 74.7516C118.05 74.6991 118.431 74.7426 118.782 74.8779C119.045 74.9857 119.176 75.1076 119.162 75.1357Z" fill="#FAFAFA"/>
<path d="M117.255 81.4109C117.278 81.4109 117.203 81.6499 116.978 81.9592C116.672 82.3592 116.275 82.6805 115.821 82.8965C115.369 83.1186 114.871 83.228 114.368 83.2152C114.159 83.2259 113.95 83.1823 113.763 83.0887C114.438 83.1113 115.108 82.9701 115.716 82.6771C116.324 82.384 116.852 81.948 117.255 81.4062V81.4109Z" fill="#FAFAFA"/>
<path d="M119.701 79.977C119.701 80.052 119.068 79.9489 118.347 80.1504C117.916 80.3068 117.495 80.4884 117.086 80.694C117.394 80.3182 117.811 80.0473 118.279 79.9189C118.748 79.7904 119.245 79.8107 119.701 79.977Z" fill="#FAFAFA"/>
<path d="M101.189 71.279C100.875 70.9986 100.654 70.6285 100.557 70.2186C100.46 69.8088 100.491 69.379 100.646 68.9873C100.716 68.9873 100.646 69.5403 100.805 70.1683C100.964 70.7963 101.245 71.2321 101.189 71.279Z" fill="#FAFAFA"/>
<path d="M177.822 47.3968C177.398 46.9431 177.147 46.3538 177.115 45.7331C177.086 45.1171 176.977 44.5075 176.791 43.9194C176.715 43.699 176.579 43.5043 176.398 43.3571C176.306 43.2847 176.198 43.2375 176.083 43.2203C175.968 43.203 175.85 43.2162 175.742 43.2586C175.63 43.3189 175.537 43.4084 175.473 43.5173C175.409 43.6263 175.375 43.7507 175.376 43.8772C175.414 44.7528 175.498 45.6257 175.629 46.4923L177.822 47.3968Z" fill="#FFBE9D"/>
<path d="M177.822 47.3969C177.822 47.3969 177.639 47.3313 177.255 47.2001C176.871 47.0688 176.285 46.8673 175.591 46.5908H175.54V46.5486C175.451 46.0727 175.387 45.5925 175.348 45.1099C175.348 44.8522 175.305 44.5897 175.282 44.3179C175.275 44.1758 175.275 44.0335 175.282 43.8914C175.285 43.726 175.332 43.5643 175.418 43.4228C175.476 43.3258 175.557 43.2449 175.655 43.1876C175.752 43.1303 175.863 43.0983 175.976 43.0947C176.188 43.0937 176.393 43.1704 176.552 43.3103C176.806 43.5673 176.979 43.8932 177.049 44.2476C177.203 44.899 177.189 45.4895 177.269 45.9675C177.327 46.4814 177.528 46.9686 177.85 47.3735L177.752 47.3172C177.67 47.2461 177.596 47.1659 177.531 47.0782C177.308 46.7487 177.159 46.3745 177.096 45.9816C176.992 45.4895 176.988 44.899 176.828 44.2898C176.767 43.9781 176.616 43.6913 176.393 43.465C176.345 43.407 176.284 43.3612 176.215 43.3317C176.146 43.3021 176.071 43.2896 175.996 43.2951C175.921 43.3006 175.849 43.324 175.785 43.3634C175.721 43.4027 175.667 43.4568 175.629 43.5212C175.517 43.751 175.485 44.0118 175.54 44.2617L175.601 45.049C175.647 45.5504 175.68 46.0519 175.751 46.4549L175.694 46.394C176.322 46.6611 176.828 46.9142 177.213 47.097L177.822 47.3969Z" fill="#EB996E"/>
<path d="M177.534 62.5077C181.194 47.957 172.366 33.194 157.815 29.5337C143.264 25.8734 128.501 34.7019 124.841 49.2526C121.181 63.8034 130.009 78.5664 144.56 82.2267C159.111 85.887 173.874 77.0585 177.534 62.5077Z" fill="#4584FF"/>
<g opacity="0.3">
<path opacity="0.3" d="M176.238 53.1562C176.561 53.1562 176.936 53.8545 177.175 55.2323C177.481 57.1927 177.454 59.1905 177.096 61.1419C177.016 61.7699 176.838 62.4026 176.688 63.0774C176.538 63.7523 176.294 64.4318 176.069 65.1442C175.53 66.6442 174.859 68.0934 174.064 69.4744C172.225 72.6949 169.699 75.4712 166.667 77.6062C163.635 79.7411 160.169 81.1825 156.517 81.8279C154.95 82.1149 153.359 82.2592 151.765 82.259C150.386 82.2451 149.009 82.1165 147.651 81.8748C145.695 81.5547 143.806 80.9083 142.064 79.9627C140.851 79.2597 140.302 78.6645 140.429 78.3646C140.71 77.6804 143.536 78.4677 147.965 78.4396C149.163 78.4272 150.36 78.3521 151.55 78.2146C152.898 78.0449 154.234 77.785 155.547 77.4367C161.56 75.9153 166.799 72.227 170.258 67.0797C171.025 65.9591 171.719 64.7897 172.334 63.5789C172.601 62.9978 172.887 62.4401 173.117 61.8871C173.346 61.3341 173.585 60.8045 173.75 60.2796C175.287 56.1181 175.498 53.1891 176.238 53.1562Z" fill="black"/>
</g>
<g opacity="0.3">
<path opacity="0.3" d="M149.947 30.7784C149.947 30.8674 149.352 30.9002 148.302 30.9799C146.825 31.0904 145.359 31.3256 143.921 31.6829C142.934 31.9371 141.964 32.2501 141.015 32.6202C139.931 33.0453 138.879 33.5465 137.866 34.1198C133.174 36.7376 129.61 40.9918 127.855 46.0703C127.463 47.1663 127.149 48.2893 126.918 49.4304C126.723 50.4289 126.59 51.4384 126.52 52.4532C126.418 53.9304 126.443 55.4136 126.595 56.8866C126.703 57.9363 126.773 58.5268 126.684 58.5456C126.595 58.5643 126.379 58.016 126.126 56.9662C125.787 55.4755 125.629 53.949 125.658 52.4204C125.672 51.3611 125.76 50.3042 125.92 49.257C126.114 48.0522 126.402 46.8645 126.782 45.7047C128.517 40.3012 132.297 35.7903 137.313 33.1357C138.389 32.5622 139.508 32.0719 140.659 31.6688C141.673 31.3212 142.709 31.044 143.761 30.8393C145.26 30.5432 146.79 30.4314 148.316 30.5066C149.385 30.5581 149.957 30.7034 149.947 30.7784Z" fill="white"/>
</g>
<g opacity="0.3">
<path opacity="0.3" d="M128.844 65.1677C128.568 65.3552 127.771 64.6382 127.358 63.4384C126.946 62.2387 127.129 61.1889 127.462 61.1655C127.794 61.1421 128.15 62.0044 128.516 63.0401C128.881 64.0758 129.13 64.9803 128.844 65.1677Z" fill="white"/>
</g>
<path d="M159.33 52.5048C159.254 52.7638 159.132 53.0068 158.969 53.2218C158.573 53.8411 158.101 54.408 157.563 54.909C155.793 56.6067 153.47 57.6088 151.021 57.7311C148.571 57.8533 146.16 57.0875 144.23 55.5744C143.651 55.1268 143.129 54.6106 142.674 54.0373C142.491 53.8391 142.347 53.6086 142.248 53.3577C142.318 53.2968 142.969 54.2482 144.436 55.2979C145.293 55.898 146.232 56.3715 147.225 56.7039C149.668 57.5588 152.349 57.4242 154.695 56.329C155.65 55.8957 156.537 55.3258 157.329 54.6371C158.702 53.4655 159.25 52.4533 159.33 52.5048Z" fill="white"/>
<path d="M167.892 48.69C167.793 48.69 167.779 47.8558 167.071 46.8154C166.66 46.205 166.119 45.693 165.487 45.3157C164.733 44.8348 163.843 44.6114 162.951 44.6789C162.058 44.7465 161.212 45.1015 160.539 45.6907C159.972 46.1599 159.515 46.7468 159.198 47.4106C158.655 48.5634 158.772 49.407 158.673 49.4023C158.575 49.3976 158.594 49.2055 158.58 48.8306C158.576 48.2973 158.678 47.7685 158.88 47.2747C159.177 46.5335 159.646 45.8734 160.248 45.3485C160.981 44.6735 161.92 44.2656 162.913 44.1907C163.907 44.1159 164.896 44.3785 165.722 44.9361C166.396 45.3625 166.959 45.9443 167.362 46.6326C167.637 47.0892 167.819 47.5957 167.896 48.1229C167.943 48.4838 167.92 48.69 167.892 48.69Z" fill="white"/>
<path d="M141.886 49.5712C141.793 49.5712 141.779 48.7417 141.071 47.6966C140.658 47.0877 140.115 46.5772 139.482 46.2017C138.73 45.7173 137.84 45.4919 136.947 45.5596C136.055 45.6272 135.209 45.9843 134.538 46.5766C133.968 47.0437 133.509 47.631 133.193 48.2965C132.654 49.4494 132.767 50.2882 132.673 50.2835C132.579 50.2789 132.589 50.0867 132.579 49.7118C132.576 49.18 132.678 48.6528 132.879 48.1606C133.173 47.4172 133.642 46.7562 134.248 46.2345C134.981 45.5602 135.919 45.1524 136.912 45.0768C137.905 45.0011 138.895 45.262 139.721 45.8174C140.396 46.2438 140.958 46.8255 141.362 47.5139C141.637 47.9717 141.819 48.4799 141.896 49.0088C141.943 49.365 141.919 49.5712 141.886 49.5712Z" fill="white"/>
<path d="M178.441 45.4426C177.504 46.5018 176.529 47.4953 175.69 48.6294C175.479 48.9153 175.259 49.2902 175.428 49.6042C175.494 49.7096 175.589 49.7933 175.703 49.8449C175.816 49.8965 175.942 49.9139 176.065 49.8948C176.31 49.8514 176.541 49.7467 176.735 49.5901C177.771 48.8544 178.455 47.7156 179.116 46.6424C179.231 46.5027 179.312 46.3381 179.353 46.1616C179.394 45.985 179.393 45.8015 179.35 45.6254C179.309 45.5465 179.251 45.4777 179.18 45.4242C179.109 45.3708 179.026 45.3339 178.939 45.3164C178.852 45.2988 178.762 45.3011 178.676 45.3229C178.589 45.3448 178.509 45.3857 178.441 45.4426Z" fill="#FFBE9D"/>
<path d="M178.441 45.4424C178.441 45.4424 178.553 45.2362 178.909 45.2644C179.018 45.2736 179.122 45.3114 179.211 45.374C179.299 45.4366 179.37 45.5216 179.415 45.6205C179.459 45.7542 179.474 45.8957 179.459 46.0356C179.444 46.1754 179.398 46.3104 179.326 46.4313C179.005 47.0316 178.648 47.6122 178.258 48.1699C177.791 48.8794 177.169 49.4738 176.44 49.9086C176.218 50.0199 175.963 50.0466 175.723 49.9836C175.598 49.9488 175.487 49.8775 175.403 49.7789C175.32 49.6804 175.268 49.559 175.254 49.4306C175.247 49.2 175.314 48.9733 175.446 48.7839C175.555 48.6216 175.672 48.4652 175.798 48.3152C176.266 47.7154 176.735 47.2045 177.133 46.7828L178.07 45.7986C178.18 45.672 178.302 45.5573 178.436 45.4565C178.357 45.6054 178.257 45.7426 178.141 45.8642C177.939 46.1126 177.635 46.4641 177.255 46.8999C176.875 47.3358 176.43 47.8372 175.971 48.4511C175.751 48.7511 175.465 49.0791 175.502 49.4212C175.513 49.5028 175.549 49.5792 175.604 49.6402C175.659 49.7013 175.732 49.7442 175.812 49.7633C175.994 49.8132 176.189 49.7897 176.355 49.6977C177.047 49.2787 177.642 48.7162 178.099 48.0481C178.539 47.4435 178.905 46.8531 179.19 46.3704C179.257 46.2708 179.301 46.1585 179.321 46.0406C179.342 45.9228 179.337 45.802 179.308 45.6861C179.274 45.6045 179.221 45.5328 179.152 45.4778C179.083 45.4228 179.001 45.3864 178.914 45.3721C178.753 45.3391 178.585 45.364 178.441 45.4424Z" fill="#EB996E"/>
<path d="M179.088 47.0641C178.235 48.1842 177.312 49.2387 176.552 50.4196C176.356 50.7196 176.163 51.1085 176.351 51.4132C176.425 51.5133 176.526 51.59 176.642 51.634C176.759 51.6781 176.885 51.6876 177.007 51.6615C177.248 51.6002 177.47 51.4812 177.654 51.3147C178.643 50.5087 179.252 49.3464 179.838 48.217C179.945 48.0704 180.016 47.9007 180.045 47.7216C180.074 47.5425 180.061 47.359 180.006 47.186C179.961 47.1069 179.897 47.0393 179.821 46.9886C179.745 46.9379 179.658 46.9054 179.568 46.8936C179.477 46.8819 179.385 46.8911 179.298 46.9207C179.212 46.9502 179.133 46.9993 179.069 47.0641" fill="#FFBE9D"/>
<path d="M179.087 47.064C179.087 47.064 179.186 46.8484 179.556 46.8531C179.665 46.8556 179.771 46.8868 179.864 46.9436C179.957 47.0004 180.034 47.0807 180.086 47.1765C180.138 47.3071 180.162 47.4476 180.156 47.5883C180.149 47.729 180.113 47.8667 180.048 47.9919C179.772 48.6116 179.459 49.2142 179.111 49.7962C178.689 50.5324 178.108 51.1649 177.41 51.6473C177.197 51.7791 176.942 51.8228 176.697 51.7692C176.57 51.7427 176.454 51.6792 176.363 51.5866C176.272 51.494 176.211 51.3765 176.186 51.249C176.167 51.02 176.22 50.7908 176.336 50.5929C176.44 50.4054 176.552 50.2461 176.66 50.0867C177.091 49.4541 177.527 48.9198 177.892 48.4746C178.258 48.0294 178.525 47.7154 178.769 47.4295C178.869 47.2952 178.983 47.1725 179.111 47.064C179.041 47.2161 178.951 47.358 178.844 47.4858C178.656 47.7529 178.375 48.1231 178.024 48.5824C177.672 49.0417 177.264 49.5853 176.847 50.2133C176.646 50.5226 176.379 50.8694 176.425 51.2115C176.44 51.2927 176.479 51.3675 176.538 51.4254C176.597 51.4833 176.672 51.5216 176.754 51.5349C176.94 51.5693 177.132 51.5325 177.292 51.4318C177.954 50.9674 178.51 50.3685 178.923 49.6743C179.322 49.0417 179.65 48.4277 179.903 47.9263C179.963 47.823 180 47.7084 180.013 47.5897C180.026 47.4711 180.014 47.3511 179.978 47.2374C179.939 47.1586 179.881 47.0909 179.809 47.0409C179.737 46.9909 179.653 46.9601 179.565 46.9515C179.398 46.9299 179.228 46.9699 179.087 47.064Z" fill="#EB996E"/>
<path d="M179.655 49.2385C178.999 50.0961 178.291 50.9022 177.71 51.8113C177.56 52.041 177.415 52.3362 177.555 52.5705C177.612 52.6464 177.69 52.7044 177.778 52.7376C177.867 52.7708 177.964 52.7779 178.057 52.758C178.242 52.7136 178.412 52.6233 178.553 52.4956C179.266 51.8245 179.835 51.0163 180.226 50.1195C180.308 50.0075 180.362 49.8778 180.384 49.741C180.406 49.6042 180.395 49.4642 180.353 49.3322C180.316 49.2767 180.268 49.2297 180.211 49.1943C180.155 49.159 180.091 49.1361 180.025 49.1272C179.959 49.1183 179.892 49.1237 179.828 49.1429C179.764 49.1621 179.705 49.1947 179.655 49.2385Z" fill="#FFBE9D"/>
<path d="M179.654 49.2385C179.654 49.2385 179.72 49.0698 180.006 49.0698C180.092 49.0692 180.176 49.092 180.249 49.1358C180.323 49.1796 180.383 49.2427 180.423 49.3182C180.464 49.4209 180.483 49.5311 180.479 49.6417C180.475 49.7523 180.448 49.8608 180.4 49.9603C180.186 50.4357 179.944 50.8974 179.673 51.3428C179.352 51.9123 178.904 52.4011 178.366 52.7721C178.197 52.8776 177.993 52.9129 177.799 52.8705C177.696 52.8497 177.601 52.7983 177.528 52.7231C177.454 52.6479 177.405 52.5523 177.386 52.4488C177.395 52.1117 177.525 51.789 177.752 51.5396C178.085 51.0709 178.417 50.6445 178.689 50.3071C178.973 49.9272 179.287 49.57 179.626 49.2385C179.391 49.6561 179.117 50.05 178.806 50.4148C178.544 50.7663 178.23 51.1834 177.911 51.6661C177.756 51.9051 177.56 52.1723 177.592 52.4113C177.625 52.6503 177.967 52.7206 178.216 52.5612C178.719 52.2087 179.143 51.7535 179.458 51.2256C179.762 50.757 180.015 50.2883 180.212 49.89C180.257 49.8137 180.286 49.7289 180.296 49.641C180.307 49.553 180.299 49.4638 180.273 49.3791C180.245 49.3203 180.202 49.2696 180.149 49.2319C180.095 49.1942 180.033 49.1707 179.968 49.1636C179.859 49.1565 179.749 49.1826 179.654 49.2385Z" fill="#EB996E"/>
<path d="M34.3567 152.481C30.6075 153.798 25.6727 152.622 22.4484 150.264C19.2242 147.907 16.9044 144.537 14.847 141.116C13.9707 139.659 13.113 138.136 12.8365 136.43C12.56 134.724 12.9678 132.859 14.2706 131.744C16.2951 130.038 19.4257 130.905 21.7033 132.212C25.2947 134.305 28.3231 137.239 30.5275 140.763C32.7319 144.287 34.0461 148.294 34.3567 152.439" fill="#4584FF"/>
<path d="M30.312 161.502C28.0484 164.488 24.1587 165.819 20.4142 165.992C16.6697 166.165 12.9721 165.13 9.47605 163.785C8.20603 163.316 6.81884 162.632 6.383 161.343C6.24588 160.845 6.23447 160.322 6.34981 159.819C6.46514 159.316 6.70361 158.849 7.04379 158.461C7.73738 157.695 8.60323 157.106 9.56978 156.741C13.0096 155.274 16.9603 155.218 20.5829 156.155C24.2055 157.092 27.3736 159.197 30.312 161.512" fill="#4584FF"/>
<path d="M34.4126 136.336C31.2868 136.397 28.9435 133.66 27.5376 130.881C25.5696 126.993 24.912 122.572 25.663 118.279C25.9442 116.686 26.5488 114.966 27.9781 114.197C29.4075 113.429 31.3102 113.93 32.5287 115.041C33.7471 116.152 34.4032 117.736 34.8719 119.306C36.5449 124.728 36.1841 130.956 34.4032 136.336" fill="#4584FF"/>
<path d="M44.6619 153.592C39.3428 144.537 38.4571 133.44 41.597 123.439C42.1078 121.818 43.0685 119.957 44.7697 119.849C46.6443 119.727 47.83 121.827 48.3502 123.641C50.1732 130.005 49.7889 136.763 49.3859 143.366C49.1375 147.438 47.7362 150.916 44.6619 153.592Z" fill="#4584FF"/>
<path d="M50.1919 157.313C51.1829 154.211 52.8575 151.371 55.092 149.003C57.3266 146.634 60.0642 144.798 63.103 143.628C64.509 143.094 66.3086 142.789 67.363 143.872C68.4175 144.954 68.08 146.684 67.4146 148.029C66.3461 150.166 64.6027 151.886 62.8734 153.531C61.2988 155.03 59.6632 156.539 57.6668 157.411C55.6703 158.283 52.0149 158.503 50.1919 157.313Z" fill="#4584FF"/>
<path d="M17.2275 134.054C17.2275 134.054 17.2557 134.087 17.3213 134.138L17.6071 134.358L18.7225 135.193L19.5286 135.792C19.8191 136.017 20.1238 136.261 20.4659 136.547C21.1267 137.095 21.9046 137.69 22.6872 138.421L23.9432 139.56C24.3744 139.959 24.7915 140.409 25.246 140.854C26.1833 141.735 27.0456 142.761 28.0017 143.82C30.0078 146.184 31.8403 148.69 33.4848 151.319C35.0883 153.964 36.4979 156.722 37.7026 159.571C38.2275 160.898 38.7477 162.149 39.1085 163.363C39.3054 163.967 39.5209 164.544 39.685 165.106C39.849 165.668 39.9943 166.221 40.1536 166.742C40.4676 167.773 40.6504 168.733 40.8472 169.553C40.9409 169.975 41.0393 170.36 41.1096 170.72C41.1799 171.081 41.2268 171.414 41.283 171.714C41.3861 172.29 41.4705 172.75 41.5267 173.082L41.597 173.439C41.597 173.518 41.6251 173.56 41.6298 173.556C41.637 173.515 41.637 173.474 41.6298 173.434C41.6298 173.34 41.6017 173.218 41.583 173.073C41.5361 172.74 41.4658 172.281 41.3815 171.695C41.3346 171.395 41.2877 171.063 41.2315 170.702C41.1752 170.341 41.0768 169.947 40.9878 169.525C40.805 168.687 40.6363 167.721 40.327 166.681C40.1864 166.156 40.0364 165.608 39.8584 165.04C39.6803 164.473 39.4881 163.892 39.296 163.283C38.9258 162.065 38.4102 160.804 37.8901 159.468C36.6907 156.603 35.2809 153.83 33.6723 151.173C32.0193 148.54 30.1724 146.034 28.1469 143.675C27.2097 142.616 26.2724 141.59 25.3632 140.713C24.8946 140.268 24.4822 139.818 24.0463 139.424L22.7763 138.29C21.9843 137.554 21.197 136.969 20.5268 136.416C20.1894 136.153 19.8801 135.895 19.5895 135.675L18.7647 135.099L17.6212 134.302L17.3213 134.129L17.2275 134.054Z" fill="#263238"/>
<path d="M10.1694 159.15C10.2932 159.143 10.4158 159.123 10.535 159.089C10.774 159.047 11.1161 158.957 11.5707 158.883C12.843 158.641 14.1299 158.484 15.4229 158.414C19.6976 158.155 23.9749 158.875 27.9286 160.521C31.8823 162.166 35.408 164.693 38.2365 167.909C39.0994 168.874 39.8948 169.899 40.6172 170.974C40.8844 171.348 41.0859 171.658 41.1984 171.855C41.2616 171.962 41.3337 172.064 41.4139 172.159C41.3686 172.045 41.3121 171.935 41.2452 171.831C41.1187 171.62 40.9547 171.302 40.7016 170.922C39.9996 169.822 39.2164 168.775 38.3584 167.791C35.5419 164.517 31.9981 161.948 28.0106 160.288C24.0231 158.629 19.7026 157.926 15.3948 158.236C14.0972 158.324 12.808 158.509 11.5379 158.789C11.0692 158.882 10.7412 158.986 10.5069 159.047C10.3924 159.074 10.2797 159.108 10.1694 159.15Z" fill="#263238"/>
<path d="M29.8152 117.811C29.8077 117.857 29.8077 117.905 29.8152 117.951L29.8996 118.359L30.2511 119.919C30.5557 121.269 31.0243 123.223 31.6101 125.632C32.7817 130.45 34.4876 137.086 36.2591 144.444C37.1401 148.122 37.9415 151.637 38.6304 154.843C39.3193 158.048 39.877 160.935 40.3082 163.386C40.5378 164.605 40.7112 165.729 40.8752 166.667C41.0392 167.604 41.1705 168.476 41.2689 169.16C41.3673 169.844 41.4563 170.36 41.5126 170.739C41.5469 170.908 41.5704 171.044 41.5829 171.147C41.5889 171.195 41.5999 171.242 41.6157 171.288C41.6227 171.241 41.6227 171.194 41.6157 171.147C41.6157 171.039 41.5876 170.903 41.5688 170.735C41.5219 170.355 41.4563 169.821 41.372 169.146C41.2876 168.471 41.1705 167.618 41.0158 166.643C40.8612 165.668 40.7065 164.562 40.4862 163.339C40.0785 160.893 39.5208 157.992 38.86 154.777C38.1993 151.562 37.3932 148.052 36.5168 144.369C34.7454 137.011 33.0114 130.384 31.7976 125.576C31.193 123.186 30.7056 121.246 30.3588 119.882L29.9652 118.335C29.9183 118.167 29.8855 118.036 29.8574 117.932C29.8467 117.891 29.8326 117.85 29.8152 117.811Z" fill="#263238"/>
<path d="M42.0279 170.575C42.0461 170.54 42.0573 170.502 42.0607 170.463C42.0842 170.374 42.1076 170.266 42.1357 170.139C42.2013 169.83 42.2904 169.408 42.3982 168.879C42.6231 167.782 42.923 166.193 43.2651 164.22C43.9447 160.284 44.7554 154.815 45.2522 148.755C45.4912 145.709 45.6271 142.803 45.688 140.16C45.749 137.517 45.688 135.132 45.6224 133.13C45.6224 132.132 45.5334 131.228 45.4912 130.436C45.449 129.644 45.3928 128.96 45.3412 128.407C45.2897 127.854 45.2522 127.436 45.2241 127.122C45.2241 126.987 45.196 126.879 45.1866 126.79C45.1915 126.752 45.1915 126.715 45.1866 126.677C45.1866 126.677 45.1866 126.715 45.1866 126.79C45.1866 126.865 45.1866 126.991 45.1866 127.127C45.1866 127.441 45.2288 127.872 45.2616 128.411C45.2944 128.95 45.3366 129.648 45.3647 130.445C45.3928 131.242 45.449 132.137 45.4631 133.135C45.5193 135.132 45.524 137.512 45.4631 140.165C45.4022 142.817 45.2522 145.704 44.9944 148.741C44.4977 154.833 43.715 160.284 43.0777 164.206C42.7637 166.179 42.4919 167.773 42.2951 168.893C42.2013 169.427 42.131 169.83 42.0795 170.158C42.0795 170.294 42.042 170.402 42.0279 170.491C42.0252 170.519 42.0252 170.547 42.0279 170.575Z" fill="#263238"/>
<path d="M41.6343 171.724C41.6904 171.623 41.7374 171.518 41.7749 171.41L42.1264 170.501L42.3747 169.84L42.7168 169.076C42.8387 168.799 42.9699 168.509 43.1058 168.195C43.2417 167.881 43.4198 167.572 43.5745 167.234L44.1181 166.18L44.7648 165.064C45.1913 164.286 45.7443 163.508 46.2785 162.665C47.5205 160.888 48.863 159.184 50.2995 157.561C51.7524 155.95 53.2869 154.414 54.8969 152.959C55.6608 152.317 56.3638 151.67 57.0714 151.131L58.0743 150.325L59.0116 149.622C59.6161 149.154 60.1832 148.784 60.6847 148.446C61.1861 148.109 61.6219 147.818 61.9734 147.603L62.7982 147.078C62.8985 147.022 62.9927 146.956 63.0794 146.881C62.9736 146.923 62.8716 146.975 62.7748 147.036L61.9219 147.504C61.5516 147.71 61.1111 147.973 60.605 148.315C60.0989 148.657 59.5224 149.013 58.9085 149.463L57.9431 150.157L56.9214 150.953C56.2044 151.488 55.5155 152.13 54.7235 152.772C53.0979 154.224 51.5522 155.763 50.0933 157.383C48.6539 159.02 47.3143 160.741 46.0817 162.538C45.5521 163.391 45.0038 164.174 44.582 164.966L43.9447 166.091L43.4151 167.159C43.2511 167.501 43.0777 167.82 42.9465 168.134L42.5716 169.024C42.4591 169.305 42.3513 169.563 42.2482 169.802L42.0186 170.472C41.892 170.857 41.7889 171.161 41.7139 171.41C41.6787 171.512 41.652 171.617 41.6343 171.724Z" fill="#263238"/>
<path d="M19.1865 144.556C19.1865 144.593 19.8333 144.598 20.8643 144.654C23.5648 144.795 26.2339 145.301 28.7984 146.159C29.3216 146.361 29.8551 146.536 30.3965 146.684C30.2729 146.596 30.1391 146.523 29.9981 146.468C29.731 146.341 29.342 146.177 28.8546 145.999C26.3049 145.043 23.6105 144.53 20.8877 144.481C20.3628 144.481 19.9504 144.481 19.6505 144.504C19.4941 144.497 19.3375 144.514 19.1865 144.556Z" fill="#263238"/>
<path d="M15.1748 164.155C15.7588 162.971 16.4945 161.868 17.3634 160.874C18.2981 159.922 19.3556 159.1 20.508 158.428C20.1242 158.525 19.7587 158.683 19.4254 158.896C17.7573 159.858 16.4181 161.3 15.5825 163.034C15.3862 163.383 15.2484 163.761 15.1748 164.155Z" fill="#263238"/>
<path d="M28.8589 125.164C28.8073 125.215 29.7962 126.185 30.8553 127.507C31.9144 128.828 32.683 129.972 32.7299 129.934C32.2906 128.996 31.7193 128.124 31.0334 127.347C30.4169 126.519 29.6846 125.784 28.8589 125.164Z" fill="#263238"/>
<path d="M32.0695 119.601C31.8364 120.281 31.6793 120.985 31.6009 121.7C31.4397 122.403 31.3595 123.121 31.3619 123.842C31.7654 122.461 32.003 121.037 32.0695 119.601Z" fill="#263238"/>
<path d="M42.0234 137.03C42.4645 138.158 42.9844 139.255 43.5793 140.31C44.1021 141.403 44.6971 142.46 45.3602 143.474C44.9161 142.346 44.3963 141.25 43.8043 140.193C43.2837 139.099 42.6886 138.042 42.0234 137.03Z" fill="#263238"/>
<path d="M47.947 131.115C47.4328 131.862 46.9903 132.656 46.6254 133.487C46.1855 134.28 45.8185 135.111 45.5288 135.97C46.043 135.223 46.4855 134.429 46.8504 133.599C47.2903 132.806 47.6573 131.975 47.947 131.115Z" fill="#263238"/>
<path d="M56.6499 151.337C56.6499 151.412 57.7231 151.206 59.04 151.117C60.3569 151.028 61.4301 151.075 61.4394 151C60.6479 150.811 59.829 150.765 59.0212 150.864C58.2092 150.882 57.4067 151.043 56.6499 151.337Z" fill="#263238"/>
<path d="M50.7075 169.216L47.7457 184.794C47.6498 185.293 47.383 185.743 46.9912 186.066C46.5995 186.389 46.1072 186.566 45.5993 186.566H36.8497C36.333 186.567 35.8328 186.384 35.4386 186.05C35.0445 185.716 34.7821 185.252 34.6986 184.742L32.1211 169.216H50.7075Z" fill="#263238"/>
<path d="M49.7421 174.278H33.0115L32.1211 169.216H50.7075L49.7421 174.278Z" fill="#455A64"/>
<path d="M49.7418 174.277L49.3903 176.124H33.269L33.0112 174.277H49.7418Z" fill="#FAFAFA"/>
<path d="M164.883 124.039C173.546 124.039 180.569 117.016 180.569 108.353C180.569 99.6906 173.546 92.668 164.883 92.668C156.22 92.668 149.198 99.6906 149.198 108.353C149.198 117.016 156.22 124.039 164.883 124.039Z" fill="#4584FF"/>
<g opacity="0.3">
<path opacity="0.3" d="M179.35 106.784C179.594 106.784 179.866 107.182 180.067 107.988C180.302 109.133 180.328 110.311 180.142 111.465C179.892 113.206 179.315 114.884 178.441 116.41C177.371 118.328 175.884 119.98 174.088 121.245C172.293 122.51 170.236 123.354 168.07 123.716C166.338 124.025 164.564 124.006 162.84 123.66C161.689 123.449 160.586 123.028 159.587 122.418C158.894 121.949 158.598 121.565 158.692 121.34C158.903 120.838 160.567 121.18 163.074 121.082C164.517 121.033 165.949 120.811 167.339 120.421C170.689 119.524 173.612 117.466 175.587 114.615C176.422 113.436 177.113 112.162 177.644 110.819C178.577 108.49 178.811 106.812 179.35 106.784Z" fill="black"/>
</g>
<g opacity="0.3">
<path opacity="0.3" d="M164.171 93.8583C164.171 94.0598 162.793 94.0036 160.731 94.5613C159.533 94.8859 158.383 95.3665 157.31 95.9906C154.672 97.4959 152.66 99.8967 151.639 102.758C151.212 103.921 150.941 105.136 150.833 106.371C150.646 108.499 150.941 109.839 150.744 109.886C150.618 109.928 150.004 108.625 149.971 106.338C149.96 104.999 150.164 103.667 150.576 102.392C151.069 100.814 151.87 99.3483 152.933 98.0807C153.995 96.8131 155.298 95.7683 156.766 95.0065C157.95 94.3771 159.227 93.942 160.548 93.7177C162.803 93.3568 164.194 93.7271 164.171 93.8583Z" fill="white"/>
</g>
<g opacity="0.3">
<path opacity="0.3" d="M151.986 113.719C151.71 113.902 151.138 113.527 150.889 112.806C150.641 112.084 150.857 111.432 151.189 111.4C151.522 111.367 151.841 111.835 152.042 112.402C152.244 112.97 152.272 113.532 151.986 113.719Z" fill="white"/>
</g>
<path d="M165.6 112.154C167.229 112.056 168.767 111.368 169.926 110.218C170.554 109.534 171.13 108.494 171.06 107.57C171.034 107.105 170.853 106.662 170.545 106.312C170.238 105.962 169.821 105.725 169.363 105.64C168.698 105.629 168.048 105.84 167.517 106.239C166.993 106.641 166.403 106.949 165.773 107.149C164.836 107.355 163.899 106.989 163.041 106.624C162.184 106.258 161.242 105.874 160.314 106.038C159.996 106.06 159.691 106.167 159.428 106.346C159.165 106.526 158.955 106.772 158.819 107.06C158.819 107.06 158.35 108.081 159.287 109.45C160.018 110.405 160.983 111.156 162.089 111.63C163.195 112.104 164.404 112.284 165.6 112.154Z" fill="white"/>
<path d="M158.472 103.231C158.341 102.978 158.137 102.771 157.886 102.638C157.635 102.504 157.349 102.449 157.066 102.481C156.898 102.493 156.736 102.549 156.598 102.645C156.377 102.816 156.207 103.044 156.106 103.304C156.004 103.564 155.975 103.846 156.021 104.121C156.069 104.302 156.153 104.471 156.267 104.619C156.382 104.767 156.525 104.891 156.687 104.983C156.85 105.075 157.03 105.134 157.216 105.156C157.401 105.177 157.59 105.162 157.769 105.11C157.94 105.034 158.094 104.925 158.222 104.789C158.35 104.653 158.45 104.493 158.515 104.318C158.58 104.143 158.61 103.957 158.603 103.77C158.596 103.583 158.551 103.4 158.472 103.231Z" fill="white"/>
<path d="M173.399 103.278C173.267 103.027 173.062 102.821 172.811 102.688C172.56 102.555 172.275 102.501 171.993 102.533C171.825 102.543 171.663 102.598 171.524 102.692C171.304 102.863 171.134 103.089 171.032 103.348C170.931 103.608 170.901 103.889 170.948 104.164C170.992 104.347 171.073 104.519 171.186 104.67C171.3 104.82 171.443 104.946 171.607 105.038C171.771 105.131 171.952 105.189 172.139 105.209C172.327 105.229 172.516 105.209 172.696 105.153C172.866 105.077 173.019 104.968 173.147 104.832C173.274 104.697 173.374 104.537 173.439 104.363C173.505 104.188 173.535 104.002 173.528 103.816C173.521 103.63 173.477 103.447 173.399 103.278Z" fill="white"/>
<path d="M173.633 177.155L142.936 182.699L141.773 150.624L163.513 146.701L173.633 177.155Z" fill="#A6A6A6"/>
<path d="M163.513 146.701L165.744 178.579L173.632 177.154L163.513 146.701Z" fill="#C7C7C7"/>
<path d="M147.852 151.878L146.719 151.883C146.712 151.856 146.701 148.757 146.717 145.622C146.735 142.236 149.585 140.055 152.346 139.893C154.4 139.783 156.943 140.849 157.333 144.234C157.756 147.858 157.852 149.583 157.858 149.657L156.726 149.719C156.726 149.719 156.626 147.947 156.209 144.365C155.909 141.763 154.048 140.932 152.407 141.025C150.181 141.128 147.875 142.898 147.86 145.62C147.83 148.758 147.853 151.845 147.852 151.878Z" fill="#263238"/>
<path d="M166.118 178.264C166.666 177.705 167.258 177.172 167.823 176.646C168.389 176.12 169 175.605 169.6 175.103L169.682 175.035L169.78 175.081C170.369 175.378 170.957 175.672 171.534 175.992C172.11 176.312 172.697 176.638 173.257 176.967C172.637 176.735 172.029 176.475 171.427 176.204C170.826 175.933 170.228 175.657 169.632 175.37L169.805 175.325C169.213 175.836 168.609 176.336 167.993 176.825C167.381 177.334 166.766 177.817 166.118 178.264Z" fill="white"/>
<path d="M169.708 175.227C169.198 173.263 168.751 171.282 168.299 169.303C167.848 167.324 167.419 165.343 166.976 163.362C166.533 161.38 166.132 159.392 165.73 157.405L165.13 154.416C164.943 153.421 164.746 152.424 164.568 151.426C164.823 152.409 165.051 153.398 165.288 154.384L165.977 157.35C166.433 159.329 166.857 161.31 167.3 163.292C167.743 165.273 168.144 167.261 168.547 169.253C168.95 171.245 169.346 173.229 169.708 175.227Z" fill="white"/>
<path d="M158.635 149.399C158.698 149.689 158.673 149.991 158.565 150.267C158.456 150.543 158.268 150.781 158.024 150.95C157.781 151.119 157.492 151.212 157.196 151.218C156.899 151.223 156.608 151.141 156.358 150.981C156.108 150.821 155.911 150.591 155.792 150.319C155.673 150.047 155.638 149.746 155.689 149.454C155.741 149.162 155.879 148.892 156.084 148.678C156.289 148.464 156.553 148.315 156.843 148.251C157.036 148.208 157.236 148.204 157.43 148.239C157.625 148.273 157.811 148.346 157.977 148.453C158.144 148.559 158.288 148.698 158.401 148.86C158.513 149.023 158.593 149.206 158.635 149.399Z" fill="#263238"/>
<path d="M170.068 186.361L134.041 186.424L139.232 149.717L164.753 149.671L170.068 186.361Z" fill="#4584FF"/>
<path opacity="0.1" d="M164.753 149.671L160.813 186.376L170.068 186.361L164.753 149.671Z" fill="black"/>
<path d="M146.421 152.231L145.297 151.996C145.29 151.969 145.95 148.881 146.641 145.765C147.391 142.403 150.696 140.848 153.462 141.288C155.531 141.619 157.826 143.229 157.488 146.68C157.123 150.374 156.849 152.115 156.834 152.185L155.701 152.005C155.701 152.005 155.983 150.22 156.345 146.568C156.605 143.916 154.931 142.69 153.278 142.426C151.039 142.059 148.367 143.316 147.764 146.019C147.076 149.125 146.427 152.2 146.421 152.231Z" fill="#263238"/>
<path d="M147.386 152.113C147.386 152.415 147.297 152.711 147.129 152.962C146.961 153.214 146.722 153.41 146.443 153.525C146.164 153.641 145.856 153.672 145.56 153.613C145.263 153.554 144.991 153.408 144.777 153.195C144.563 152.981 144.417 152.709 144.358 152.412C144.299 152.116 144.329 151.808 144.445 151.529C144.56 151.25 144.756 151.011 145.007 150.843C145.258 150.674 145.554 150.584 145.856 150.584C146.057 150.583 146.256 150.622 146.442 150.699C146.628 150.776 146.797 150.888 146.939 151.03C147.082 151.172 147.194 151.341 147.271 151.527C147.348 151.713 147.387 151.912 147.386 152.113Z" fill="#263238"/>
<path d="M157.679 152.094C157.679 152.397 157.589 152.692 157.421 152.944C157.253 153.195 157.015 153.391 156.735 153.507C156.456 153.623 156.149 153.653 155.852 153.594C155.556 153.535 155.283 153.39 155.069 153.176C154.855 152.962 154.71 152.69 154.651 152.394C154.591 152.097 154.622 151.79 154.737 151.51C154.853 151.231 155.048 150.992 155.3 150.824C155.551 150.656 155.846 150.566 156.149 150.566C156.35 150.565 156.549 150.604 156.735 150.68C156.921 150.757 157.09 150.869 157.232 151.012C157.374 151.154 157.487 151.323 157.563 151.508C157.64 151.694 157.679 151.893 157.679 152.094Z" fill="#263238"/>
<path d="M62.4694 51.5491L92.5117 73.6064L75.3621 104.977L38.6855 76.9005L62.4694 51.5491Z" fill="#455A64"/>
<path d="M62.7515 55.5679L94.5304 74.9624L80.0688 107.635L41.1827 82.8113L62.7515 55.5679Z" fill="#263238"/>
<path d="M62.0926 69.9658C62.0604 69.9965 62.0329 70.032 62.0113 70.071L61.7733 70.412L60.8519 71.7566L57.4098 76.8308L57.3546 76.907L57.4401 76.9579L77.5088 88.455L77.8377 88.6421L77.9526 88.7077L78.0228 88.5907L82.0123 81.4581C82.0178 81.4324 82.0179 81.4059 82.0129 81.3801C82.0078 81.3543 81.9975 81.3298 81.9827 81.3081L81.9591 81.2568L81.8901 81.1927L81.7602 81.0945L81.5021 80.9142L80.9849 80.5881L79.9366 79.9422C79.243 79.5393 78.5698 79.1439 77.903 78.7625L74.0883 76.6084L67.7456 73.096L62.0672 69.9718C62.1719 70.0754 62.2933 70.1607 62.4262 70.2241C62.6735 70.3811 63.0403 70.6016 63.5246 70.8808L67.6768 73.2406L73.9904 76.8003C76.3924 78.1546 79.1022 79.7114 81.8953 81.3879L81.794 81.3273L77.7977 88.4574L77.9782 88.4081L77.6493 88.2209L57.5161 76.8044L57.5486 76.9361L60.8554 71.8623L61.7575 70.4758L61.9894 70.1093L62.0926 69.9658Z" fill="#455A64"/>
<line x1="84.9965" y1="70.8019" x2="88.8823" y2="51.8588" stroke="#263238"/>
<line x1="71.0468" y1="61.3203" x2="85.1327" y2="47.2344" stroke="#263238"/>
</svg>
